0
SECTION
2
HEADER
9
$INSUNITS
70
4
9
$ACADVER
1
AC1014
9
$HANDSEED
5
FFFF
0
ENDSEC
0
SECTION
2
TABLES
0
TABLE
2
VPORT
5
8
100
AcDbSymbolTable
0
ENDTAB
0
TABLE
2
LTYPE
5
5
100
AcDbSymbolTable
0
LTYPE
5
14
100
AcDbSymbolTableRecord
100
AcDbLinetypeTableRecord
2
BYBLOCK
70
0
0
LTYPE
5
15
100
AcDbSymbolTableRecord
100
AcDbLinetypeTableRecord
2
BYLAYER
70
0
0
ENDTAB
0
TABLE
2
LAYER
5
2
100
AcDbSymbolTable
70
2
0
LAYER
5
50
100
AcDbSymbolTableRecord
100
AcDbLayerTableRecord
2
0
70
0
6
CONTINUOUS
0
ENDTAB
0
TABLE
2
STYLE
5
3
100
AcDbSymbolTable
70
1
0
STYLE
5
11
100
AcDbSymbolTableRecord
100
AcDbTextStyleTableRecord
2
STANDARD
70
0
0
ENDTAB
0
TABLE
2
VIEW
5
6
100
AcDbSymbolTable
70
0
0
ENDTAB
0
TABLE
2
UCS
5
7
100
AcDbSymbolTable
70
0
0
ENDTAB
0
TABLE
2
APPID
5
9
100
AcDbSymbolTable
70
2
0
APPID
5
12
100
AcDbSymbolTableRecord
100
AcDbRegAppTableRecord
2
ACAD
70
0
0
ENDTAB
0
TABLE
2
DIMSTYLE
5
A
100
AcDbSymbolTable
70
1
0
ENDTAB
0
TABLE
2
BLOCK_RECORD
5
1
100
AcDbSymbolTable
70
1
0
BLOCK_RECORD
5
1F
100
AcDbSymbolTableRecord
100
AcDbBlockTableRecord
2
*MODEL_SPACE
0
BLOCK_RECORD
5
1B
100
AcDbSymbolTableRecord
100
AcDbBlockTableRecord
2
*PAPER_SPACE
0
ENDTAB
0
ENDSEC
0
SECTION
2
BLOCKS
0
BLOCK
5
20
100
AcDbEntity
100
AcDbBlockBegin
2
*MODEL_SPACE
0
ENDBLK
5
21
100
AcDbEntity
100
AcDbBlockEnd
0
BLOCK
5
1C
100
AcDbEntity
100
AcDbBlockBegin
2
*PAPER_SPACE
0
ENDBLK
5
1D
100
AcDbEntity
100
AcDbBlockEnd
0
ENDSEC
0
SECTION
2
ENTITIES
0
LWPOLYLINE
5
100
100
AcDbEntity
8
0
100
AcDbPolyline
90
4
70
1
43
0.0
10
60.093668760770889
20
-53.093668760770896
42
-0.99999999999999989
10
60.093668760770889
20
-55.093668760770889
10
58.593668760770889
20
-55.093668760770889
42
-0.99999999999999989
10
58.593668760770889
20
-53.093668760770896
0
LWPOLYLINE
5
101
100
AcDbEntity
8
0
100
AcDbPolyline
90
4
70
1
43
0.0
10
48.093668760770882
20
-55.093668760770889
42
-0.99999999999999989
10
48.093668760770882
20
-53.093668760770896
10
49.593668760770882
20
-53.093668760770896
42
-0.99999999999999989
10
49.593668760770882
20
-55.093668760770889
0
LWPOLYLINE
5
102
100
AcDbEntity
8
0
100
AcDbPolyline
90
4
70
1
43
0.0
10
55.093668760770882
20
-60.093668760770896
42
-0.99999999999999989
10
53.093668760770889
20
-60.093668760770896
10
53.093668760770889
20
-58.593668760770896
42
-0.99999999999999989
10
55.093668760770882
20
-58.593668760770896
0
LWPOLYLINE
5
103
100
AcDbEntity
8
0
100
AcDbPolyline
90
4
70
1
43
0.0
10
55.093668760770882
20
-49.593668760770896
42
-0.99999999999999989
10
53.093668760770889
20
-49.593668760770896
10
53.093668760770889
20
-48.093668760770889
42
-0.99999999999999989
10
55.093668760770882
20
-48.093668760770889
0
CIRCLE
5
104
100
AcDbEntity
8
0
100
AcDbCircle
10
54.093668760770882
20
-54.093668760770896
30
0
40
2.5
210
0
220
-0
230
1
0
LWPOLYLINE
5
105
100
AcDbEntity
8
0
100
AcDbPolyline
90
80
70
1
43
0.0
10
21.937972069880569
20
-17.695331382761328
10
45.888151660840307
20
-41.645510977642502
42
0.24887764987068103
10
53.058155695266734
20
-43.84425205498232
42
-0.30945589645826332
10
55.13026288115811
20
-44.744677950502933
10
56.923419192320836
20
-47.60068252368125
42
0.13059053977079085
10
60.679872347874131
20
-51.103236895883796
10
63.800565594288628
20
-52.770680904907287
42
-0.52156079882493989
10
64.09160163981322
20
-55.213548204696124
10
60.476511965671953
20
-58.43498142778229
42
0.071924553572529734
10
58.634149456683247
20
-60.625358140083492
10
55.367956016161521
20
-65.884991697850936
42
-0.6180532855787304
10
52.696007640613203
20
-65.638226740420038
10
51.193828538218625
20
-61.782737691700305
42
0.17901258368898051
10
46.588733172155898
20
-56.593205118525837
10
44.386771945522611
20
-55.416656626396204
42
-0.3525190834017089
10
43.650274206254913
20
-53.685487232534221
42
0.27164956432473514
10
41.609024164995425
20
-45.851664832446197
10
17.703718682492319
20
-21.946359369611599
42
0.55376963398893553
10
2.8349394129533465
20
-25.366162333210312
42
-0.71204836633069524
10
-2.8349394129533567
20
-25.366162333210301
42
0.55376963398893631
10
-17.70371868249233
20
-21.946359369611564
10
-41.609024164995425
20
-45.851664832446197
42
0.27164956432473308
10
-43.650274206254892
20
-53.685487232534214
42
-0.35251908340170812
10
-44.386771945522611
20
-55.416656626396225
10
-46.588733172155898
20
-56.593205118525844
42
0.17901258368898054
10
-51.193828538218625
20
-61.782737691700298
10
-52.696007640613225
20
-65.638226740420038
42
-0.6180532855787233
10
-55.367956016161521
20
-65.88499169785095
10
-58.634149456683247
20
-60.625358140083499
42
0.071924553572531399
10
-60.476511965671953
20
-58.43498142778229
10
-64.091601639813206
20
-55.213548204696124
42
-0.52156079882494
10
-63.800565594288628
20
-52.770680904907287
10
-60.679872347874131
20
-51.103236895883796
42
0.1305905397707908
10
-56.923419192320836
20
-47.600682523681243
10
-55.13026288115811
20
-44.74467795050294
42
-0.30945589645826527
10
-53.058155695266727
20
-43.84425205498232
42
0.24887764987068106
10
-45.888151660840307
20
-41.645510977642502
10
-21.94635936961161
20
-17.703718682492319
42
0.55376963398893597
10
-25.366162333213108
20
-2.8349394129613876
42
-0.74010812090667788
10
-25.155346587412946
20
2.8993484524853521
42
0.54598708757440018
10
-21.937972069880569
20
17.695331382761328
10
-45.888151660840307
20
41.645510977642516
42
0.24887764987068089
10
-53.058155695266734
20
43.84425205498232
42
-0.30945589645826332
10
-55.13026288115811
20
44.744677950502933
10
-56.923419192320836
20
47.60068252368125
42
0.13059053977079085
10
-60.679872347874131
20
51.103236895883796
10
-63.800565594288628
20
52.770680904907287
42
-0.52156079882493989
10
-64.09160163981322
20
55.213548204696124
10
-60.476511965671953
20
58.43498142778229
42
0.071924553572529734
10
-58.634149456683247
20
60.625358140083492
10
-55.367956016161521
20
65.884991697850936
42
-0.6180532855787304
10
-52.696007640613203
20
65.638226740420038
10
-51.193828538218625
20
61.782737691700305
42
0.17901258368898051
10
-46.588733172155898
20
56.593205118525837
10
-44.386771945522611
20
55.416656626396204
42
-0.3525190834017089
10
-43.650274206254913
20
53.685487232534221
42
0.27164956432473514
10
-41.609024164995425
20
45.851664832446197
10
-17.703718682492323
20
21.94635936961161
42
0.55376963398893575
10
-2.8349394129614036
20
25.366162333213108
42
-0.74010812090667877
10
2.8993484524853574
20
25.155346587412946
42
0.54598708757440062
10
17.695331382761331
20
21.937972069880569
10
41.609024164995425
20
45.851664832446197
42
0.27164956432473308
10
43.650274206254892
20
53.685487232534214
42
-0.35251908340170812
10
44.386771945522611
20
55.416656626396225
10
46.588733172155898
20
56.593205118525844
42
0.17901258368898054
10
51.193828538218625
20
61.782737691700298
10
52.696007640613225
20
65.638226740420038
42
-0.6180532855787233
10
55.367956016161521
20
65.88499169785095
10
58.634149456683247
20
60.625358140083499
42
0.071924553572531399
10
60.476511965671953
20
58.43498142778229
10
64.091601639813206
20
55.213548204696124
42
-0.52156079882494
10
63.800565594288628
20
52.770680904907287
10
60.679872347874131
20
51.103236895883796
42
0.1305905397707908
10
56.923419192320836
20
47.600682523681243
10
55.13026288115811
20
44.74467795050294
42
-0.30945589645826527
10
53.058155695266727
20
43.84425205498232
42
0.24887764987068106
10
45.888151660840307
20
41.645510977642502
10
21.94635936961161
20
17.703718682492319
42
0.55376963398893597
10
25.366162333213108
20
2.8349394129613903
42
-0.74010812090667788
10
25.155346587412946
20
-2.8993484524853552
42
0.54598708757440007
0
CIRCLE
5
106
100
AcDbEntity
8
0
100
AcDbCircle
10
-54.093668760770882
20
-54.093668760770896
30
0
40
2.5
210
-0
220
0
230
1
0
LWPOLYLINE
5
107
100
AcDbEntity
8
0
100
AcDbPolyline
90
4
70
1
43
0.0
10
-53.093668760770889
20
-49.593668760770896
42
-0.99999999999999989
10
-55.093668760770882
20
-49.593668760770896
10
-55.093668760770882
20
-48.093668760770889
42
-0.99999999999999989
10
-53.093668760770889
20
-48.093668760770889
0
LWPOLYLINE
5
108
100
AcDbEntity
8
0
100
AcDbPolyline
90
4
70
1
43
0.0
10
-53.093668760770889
20
-60.093668760770896
42
-0.99999999999999989
10
-55.093668760770882
20
-60.093668760770896
10
-55.093668760770882
20
-58.593668760770896
42
-0.99999999999999989
10
-53.093668760770889
20
-58.593668760770896
0
LWPOLYLINE
5
109
100
AcDbEntity
8
0
100
AcDbPolyline
90
4
70
1
43
0.0
10
-48.093668760770882
20
-53.093668760770896
42
-0.99999999999999989
10
-48.093668760770882
20
-55.093668760770889
10
-49.593668760770882
20
-55.093668760770889
42
-0.99999999999999989
10
-49.593668760770882
20
-53.093668760770896
0
LWPOLYLINE
5
110
100
AcDbEntity
8
0
100
AcDbPolyline
90
4
70
1
43
0.0
10
-60.093668760770889
20
-55.093668760770889
42
-0.99999999999999989
10
-60.093668760770889
20
-53.093668760770896
10
-58.593668760770889
20
-53.093668760770896
42
-0.99999999999999989
10
-58.593668760770889
20
-55.093668760770889
0
LWPOLYLINE
5
111
100
AcDbEntity
8
0
100
AcDbPolyline
90
4
70
1
43
0.0
10
-60.093668760770889
20
53.093668760770896
42
-0.99999999999999989
10
-60.093668760770889
20
55.093668760770889
10
-58.593668760770889
20
55.093668760770889
42
-0.99999999999999989
10
-58.593668760770889
20
53.093668760770896
0
LWPOLYLINE
5
112
100
AcDbEntity
8
0
100
AcDbPolyline
90
4
70
1
43
0.0
10
-48.093668760770882
20
55.093668760770889
42
-0.99999999999999989
10
-48.093668760770882
20
53.093668760770896
10
-49.593668760770882
20
53.093668760770896
42
-0.99999999999999989
10
-49.593668760770882
20
55.093668760770889
0
LWPOLYLINE
5
113
100
AcDbEntity
8
0
100
AcDbPolyline
90
4
70
1
43
0.0
10
-55.093668760770882
20
60.093668760770896
42
-0.99999999999999989
10
-53.093668760770889
20
60.093668760770896
10
-53.093668760770889
20
58.593668760770896
42
-0.99999999999999989
10
-55.093668760770882
20
58.593668760770896
0
LWPOLYLINE
5
114
100
AcDbEntity
8
0
100
AcDbPolyline
90
4
70
1
43
0.0
10
-55.093668760770882
20
49.593668760770896
42
-0.99999999999999989
10
-53.093668760770889
20
49.593668760770896
10
-53.093668760770889
20
48.093668760770889
42
-0.99999999999999989
10
-55.093668760770882
20
48.093668760770889
0
CIRCLE
5
115
100
AcDbEntity
8
0
100
AcDbCircle
10
-54.093668760770882
20
54.093668760770896
30
0
40
2.5
210
-0
220
0
230
1
0
CIRCLE
5
116
100
AcDbEntity
8
0
100
AcDbCircle
10
10.000000149011614
20
10.00000014901161
30
0
40
1.0000000000000009
210
0
220
0
230
1
0
CIRCLE
5
117
100
AcDbEntity
8
0
100
AcDbCircle
10
8.7312993081956596e-15
20
18.384776310850238
30
0
40
1.0000000000000009
210
0
220
-0
230
1
0
CIRCLE
5
118
100
AcDbEntity
8
0
100
AcDbCircle
10
-18.384776310850238
20
4.649058915617843e-15
30
0
40
1.0000000000000009
210
0
220
0
230
1
0
CIRCLE
5
119
100
AcDbEntity
8
0
100
AcDbCircle
10
-8.7312993081956596e-15
20
-18.384776310850238
30
0
40
1.0000000000000009
210
-0
220
0
230
1
0
CIRCLE
5
120
100
AcDbEntity
8
0
100
AcDbCircle
10
-24.384776310850242
20
5.4145080221280044e-15
30
0
40
1.5000000000000002
210
0
220
-0
230
1
0
CIRCLE
5
121
100
AcDbEntity
8
0
100
AcDbCircle
10
-10.000000149011612
20
10.000000149011612
30
0
40
1.0000000000000009
210
0
220
0
230
1
0
CIRCLE
5
122
100
AcDbEntity
8
0
100
AcDbCircle
10
18.384776310850238
20
-6.9005446618301264e-15
30
0
40
1.0000000000000009
210
0
220
-0
230
1
0
CIRCLE
5
123
100
AcDbEntity
8
0
100
AcDbCircle
10
10.00000014901161
20
-10.000000149011614
30
0
40
1.0000000000000009
210
0
220
0
230
1
0
CIRCLE
5
124
100
AcDbEntity
8
0
100
AcDbCircle
10
-2.9862738257006951e-15
20
-24.384776310850242
30
0
40
1.5000000000000002
210
0
220
-0
230
1
0
CIRCLE
5
125
100
AcDbEntity
8
0
100
AcDbCircle
10
0
20
24.384776310850242
30
0
40
1.5000000000000002
210
0
220
0
230
1
0
CIRCLE
5
126
100
AcDbEntity
8
0
100
AcDbCircle
10
24.384776310850242
20
-5.4145080221280044e-15
30
0
40
1.5000000000000002
210
0
220
0
230
1
0
CIRCLE
5
127
100
AcDbEntity
8
0
100
AcDbCircle
10
-10.000000149011614
20
-10.00000014901161
30
0
40
1.0000000000000009
210
0
220
0
230
1
0
LWPOLYLINE
5
128
100
AcDbEntity
8
0
100
AcDbPolyline
90
16
70
1
43
0.0
10
-5.84545818523112
20
-15.500000208616257
42
-0.16717673326035309
10
-4.6151527284103757
20
-15.923184276772243
42
0.16717673326035121
10
-4
20
-16.134776310850242
10
4
20
-16.134776310850242
42
0.16717673326035121
10
4.6151527284103739
20
-15.923184276772243
42
-0.16717673326035251
10
5.84545818523112
20
-15.500000208616257
10
7.0000001043081266
20
-15.500000208616257
42
0.99999999999999989
10
7.0000001043081266
20
-12.500000208616257
10
6.1077786869903328
20
-12.50000020861626
42
-0.19725909673357614
10
4.7025928956634431
20
-11.923184276772247
42
0.19725909673357644
10
4
20
-11.634776310850242
10
-4
20
-11.634776310850242
42
0.19725909673357606
10
-4.7025928956634431
20
-11.923184276772245
42
-0.197259096733578
10
-6.1077786869903319
20
-12.500000208616257
10
-7.0000001043081292
20
-12.500000208616257
42
0.99999999999999989
10
-7.0000001043081301
20
-15.500000208616257
0
CIRCLE
5
129
100
AcDbEntity
8
0
100
AcDbCircle
10
0
20
0
30
0
40
9
210
0
220
0
230
1
0
LWPOLYLINE
5
130
100
AcDbEntity
8
0
100
AcDbPolyline
90
4
70
1
43
0.0
10
-7.0000001043081284
20
12.500000208616257
10
7.0000001043081284
20
12.500000208616257
42
0.99999999999999989
10
7.0000001043081284
20
15.500000208616257
10
-7.0000001043081284
20
15.500000208616257
42
0.99999999999999989
0
LWPOLYLINE
5
131
100
AcDbEntity
8
0
100
AcDbPolyline
90
4
70
1
43
0.0
10
-12.50000020861626
20
-7.0000001043081248
10
-12.500000208616255
20
7.0000001043081319
42
0.99999999999999989
10
-15.500000208616253
20
7.0000001043081319
10
-15.500000208616258
20
-7.0000001043081248
42
0.99999999999999989
0
LWPOLYLINE
5
132
100
AcDbEntity
8
0
100
AcDbPolyline
90
4
70
1
43
0.0
10
12.50000020861626
20
7.0000001043081248
10
12.500000208616255
20
-7.0000001043081319
42
0.99999999999999989
10
15.500000208616253
20
-7.0000001043081319
10
15.500000208616258
20
7.0000001043081248
42
0.99999999999999989
0
LWPOLYLINE
5
133
100
AcDbEntity
8
0
100
AcDbPolyline
90
4
70
1
43
0.0
10
60.093668760770889
20
55.093668760770889
42
-0.99999999999999989
10
60.093668760770889
20
53.093668760770896
10
58.593668760770889
20
53.093668760770896
42
-0.99999999999999989
10
58.593668760770889
20
55.093668760770889
0
LWPOLYLINE
5
134
100
AcDbEntity
8
0
100
AcDbPolyline
90
4
70
1
43
0.0
10
48.093668760770882
20
53.093668760770896
42
-0.99999999999999989
10
48.093668760770882
20
55.093668760770889
10
49.593668760770882
20
55.093668760770889
42
-0.99999999999999989
10
49.593668760770882
20
53.093668760770896
0
LWPOLYLINE
5
135
100
AcDbEntity
8
0
100
AcDbPolyline
90
4
70
1
43
0.0
10
53.093668760770889
20
60.093668760770896
42
-0.99999999999999989
10
55.093668760770882
20
60.093668760770896
10
55.093668760770882
20
58.593668760770896
42
-0.99999999999999989
10
53.093668760770889
20
58.593668760770896
0
LWPOLYLINE
5
136
100
AcDbEntity
8
0
100
AcDbPolyline
90
4
70
1
43
0.0
10
53.093668760770889
20
49.593668760770896
42
-0.99999999999999989
10
55.093668760770882
20
49.593668760770896
10
55.093668760770882
20
48.093668760770889
42
-0.99999999999999989
10
53.093668760770889
20
48.093668760770889
0
CIRCLE
5
137
100
AcDbEntity
8
0
100
AcDbCircle
10
54.093668760770882
20
54.093668760770896
30
0
40
2.5
210
0
220
0
230
1
0
ENDSEC
0
SECTION
2
OBJECTS
0
DICTIONARY
5
C
100
AcDbDictionary
3
ACAD_GROUP
350
D
3
ACAD_MLINESTYLE
350
17
0
DICTIONARY
5
D
100
AcDbDictionary
0
DICTIONARY
5
1A
330
C
100
AcDbDictionary
0
DICTIONARY
5
17
100
AcDbDictionary
0
ENDSEC
0
EOF
