0
SECTION
2
HEADER
9
$INSUNITS
70
4
9
$ACADVER
1
AC1014
9
$HANDSEED
5
FFFF
0
ENDSEC
0
SECTION
2
TABLES
0
TABLE
2
VPORT
5
8
100
AcDbSymbolTable
0
ENDTAB
0
TABLE
2
LTYPE
5
5
100
AcDbSymbolTable
0
LTYPE
5
14
100
AcDbSymbolTableRecord
100
AcDbLinetypeTableRecord
2
BYBLOCK
70
0
0
LTYPE
5
15
100
AcDbSymbolTableRecord
100
AcDbLinetypeTableRecord
2
BYLAYER
70
0
0
ENDTAB
0
TABLE
2
LAYER
5
2
100
AcDbSymbolTable
70
2
0
LAYER
5
50
100
AcDbSymbolTableRecord
100
AcDbLayerTableRecord
2
0
70
0
6
CONTINUOUS
0
ENDTAB
0
TABLE
2
STYLE
5
3
100
AcDbSymbolTable
70
1
0
STYLE
5
11
100
AcDbSymbolTableRecord
100
AcDbTextStyleTableRecord
2
STANDARD
70
0
0
ENDTAB
0
TABLE
2
VIEW
5
6
100
AcDbSymbolTable
70
0
0
ENDTAB
0
TABLE
2
UCS
5
7
100
AcDbSymbolTable
70
0
0
ENDTAB
0
TABLE
2
APPID
5
9
100
AcDbSymbolTable
70
2
0
APPID
5
12
100
AcDbSymbolTableRecord
100
AcDbRegAppTableRecord
2
ACAD
70
0
0
ENDTAB
0
TABLE
2
DIMSTYLE
5
A
100
AcDbSymbolTable
70
1
0
ENDTAB
0
TABLE
2
BLOCK_RECORD
5
1
100
AcDbSymbolTable
70
1
0
BLOCK_RECORD
5
1F
100
AcDbSymbolTableRecord
100
AcDbBlockTableRecord
2
*MODEL_SPACE
0
BLOCK_RECORD
5
1B
100
AcDbSymbolTableRecord
100
AcDbBlockTableRecord
2
*PAPER_SPACE
0
ENDTAB
0
ENDSEC
0
SECTION
2
BLOCKS
0
BLOCK
5
20
100
AcDbEntity
100
AcDbBlockBegin
2
*MODEL_SPACE
0
ENDBLK
5
21
100
AcDbEntity
100
AcDbBlockEnd
0
BLOCK
5
1C
100
AcDbEntity
100
AcDbBlockBegin
2
*PAPER_SPACE
0
ENDBLK
5
1D
100
AcDbEntity
100
AcDbBlockEnd
0
ENDSEC
0
SECTION
2
ENTITIES
0
LWPOLYLINE
5
100
100
AcDbEntity
8
0
100
AcDbPolyline
90
12
70
1
43
0.0
10
3.7057117246248983
20
-7.0899718344981864
42
-0.30681888136948643
10
5.9345708301845912
20
-7.3446792233066276
42
0.92655032088913114
10
7.3446792233066285
20
-5.9345708301845912
42
-0.30681888136948654
10
7.0899718344981908
20
-3.7057117246248925
42
0.2455744626476386
10
7.0899718344981881
20
3.7057117246249005
42
-0.30681888136948637
10
7.3446792233066294
20
5.9345708301845885
42
0.92655032088913214
10
5.9345708301845912
20
7.3446792233066285
42
-0.30681888136948654
10
3.7057117246248938
20
7.0899718344981935
42
0.24557446264763866
10
-3.7057117246249005
20
7.0899718344981881
42
-0.30681888136948637
10
-5.9345708301845885
20
7.3446792233066294
42
0.92655032088913214
10
-7.3446792233066276
20
5.9345708301845921
42
-0.30681888136948565
10
-7.0899718344981881
20
3.7057117246248983
42
0.73450174282021763
0
LWPOLYLINE
5
101
100
AcDbEntity
8
0
100
AcDbPolyline
90
4
70
1
43
0.0
10
-61.166666666666643
20
0.78881063774660798
42
-0.84515425472851813
10
-61.166666666666636
20
-0.78881063774662408
10
-62.333333333333307
20
-0.98601329718327846
42
-1.1832159566199214
10
-62.333333333333307
20
0.98601329718326036
0
LWPOLYLINE
5
102
100
AcDbEntity
8
0
100
AcDbPolyline
90
4
70
1
43
0.0
10
-57.099796717730612
20
-3.1368190975240413
42
-0.84515425472851868
10
-55.733536615602659
20
-2.3480084597774247
10
-54.979420769503335
20
-3.259770101140949
42
-1.183215956619917
10
-56.687245897163272
20
-4.245783398324213
0
CIRCLE
5
103
100
AcDbEntity
8
0
100
AcDbCircle
10
-57.999999999999972
20
-8.8817841970012523e-15
30
0
40
2
210
-0
220
0
230
1
0
LWPOLYLINE
5
104
100
AcDbEntity
8
0
100
AcDbPolyline
90
4
70
1
43
0.0
10
-55.733536615602659
20
2.3480084597774091
42
-0.84515425472851902
10
-57.099796717730612
20
3.1368190975240227
10
-56.68724589716328
20
4.2457833983241917
42
-1.1832159566199272
10
-54.979420769503342
20
3.2597701011409304
0
CIRCLE
5
105
100
AcDbEntity
8
0
100
AcDbCircle
10
-3.3306690738754696e-15
20
-11.313708498984759
30
0
40
0.99999999999999956
210
-0
220
0
230
1
0
CIRCLE
5
106
100
AcDbEntity
8
0
100
AcDbCircle
10
-11.313708498984759
20
4.4408920985006262e-15
30
0
40
0.99999999999999956
210
-0
220
0
230
1
0
CIRCLE
5
107
100
AcDbEntity
8
0
100
AcDbCircle
10
11.313708498984759
20
-4.4408920985006262e-15
30
0
40
0.99999999999999956
210
-0
220
0
230
1
0
CIRCLE
5
108
100
AcDbEntity
8
0
100
AcDbCircle
10
2.2204460492503131e-15
20
11.313708498984759
30
0
40
0.99999999999999956
210
-0
220
0
230
1
0
CIRCLE
5
109
100
AcDbEntity
8
0
100
AcDbCircle
10
13.000000000000009
20
12.999999999999993
30
0
40
1.0000000000000009
210
0
220
-0
230
1
0
CIRCLE
5
110
100
AcDbEntity
8
0
100
AcDbCircle
10
-12.999999999999998
20
13.000000000000005
30
0
40
1.0000000000000009
210
-0
220
0
230
1
0
CIRCLE
5
111
100
AcDbEntity
8
0
100
AcDbCircle
10
12.999999999999996
20
-13.000000000000007
30
0
40
1.0000000000000009
210
0
220
-0
230
1
0
LWPOLYLINE
5
112
100
AcDbEntity
8
0
100
AcDbPolyline
90
4
70
1
43
0.0
10
-3.1368190975240093
20
57.099796717730598
42
-0.84515425472851324
10
-2.348008459777398
20
55.733536615602659
10
-3.2597701011409175
20
54.979420769503342
42
-1.1832159566199258
10
-4.2457833983241908
20
56.687245897163272
0
CIRCLE
5
113
100
AcDbEntity
8
0
100
AcDbCircle
10
1.7763568394002505e-14
20
57.999999999999972
30
0
40
2
210
-0
220
0
230
1
0
LWPOLYLINE
5
114
100
AcDbEntity
8
0
100
AcDbPolyline
90
4
70
1
43
0.0
10
2.3480084597774264
20
55.733536615602652
42
-0.84515425472851446
10
3.1368190975240484
20
57.099796717730612
10
4.2457833983242219
20
56.687245897163272
42
-1.1832159566199225
10
3.2597701011409521
20
54.979420769503342
0
LWPOLYLINE
5
115
100
AcDbEntity
8
0
100
AcDbPolyline
90
4
70
1
43
0.0
10
0.78881063774663684
20
61.166666666666643
42
-0.84515425472851868
10
-0.78881063774659876
20
61.166666666666643
10
-0.98601329718325192
20
62.333333333333307
42
-1.1832159566199216
10
0.9860132971832869
20
62.333333333333307
0
LWPOLYLINE
5
116
100
AcDbEntity
8
0
100
AcDbPolyline
90
4
70
1
43
0.0
10
55.733536615602659
20
-2.3480084597774091
42
-0.84515425472851902
10
57.099796717730612
20
-3.1368190975240227
10
56.68724589716328
20
-4.2457833983241917
42
-1.1832159566199272
10
54.979420769503342
20
-3.2597701011409304
0
CIRCLE
5
117
100
AcDbEntity
8
0
100
AcDbCircle
10
57.999999999999972
20
8.8817841970012523e-15
30
0
40
2
210
0
220
0
230
1
0
LWPOLYLINE
5
118
100
AcDbEntity
8
0
100
AcDbPolyline
90
4
70
1
43
0.0
10
57.099796717730612
20
3.1368190975240413
42
-0.84515425472851868
10
55.733536615602659
20
2.3480084597774247
10
54.979420769503335
20
3.259770101140949
42
-1.183215956619917
10
56.687245897163272
20
4.245783398324213
0
LWPOLYLINE
5
119
100
AcDbEntity
8
0
100
AcDbPolyline
90
4
70
1
43
0.0
10
61.166666666666643
20
-0.78881063774660798
42
-0.84515425472851813
10
61.166666666666636
20
0.78881063774662408
10
62.333333333333307
20
0.98601329718327846
42
-1.1832159566199214
10
62.333333333333307
20
-0.98601329718326036
0
LINE
5
120
100
AcDbEntity
8
0
100
AcDbLine
10
2.1499999999999941
20
-46.387566107079579
30
0
11
2.1499999999999964
21
-18.256632574026206
31
0
0
SPLINE
5
121
100
AcDbEntity
8
0
100
AcDbSpline
70
0
71
3
72
20
73
16
74
0
42
0.000000001
43
0.0000000001
44
0.0000000001
40
0
40
0
40
0
40
0
40
0.21485446036281014
40
0.21485446036281014
40
0.42970892072562017
40
0.42970892072562017
40
0.64456338108843036
40
0.64456338108843036
40
0.85941784145124034
40
0.85941784145124034
40
1.0742723018140505
40
1.0742723018140505
40
1.1866913283217633
40
1.1866913283217633
40
1.2991103548294765
40
1.2991103548294765
40
1.2991103548294765
40
1.2991103548294765
10
11.536516228357996
20
-14.364975907937861
30
0
10
11.029764838715728
20
-13.858893879492307
30
0
10
10.429009194812933
20
-13.456630085947157
30
0
10
9.1071188660585154
20
-12.905023414100917
30
0
10
8.3986221732356778
20
-12.760954196231541
30
0
10
6.9662840394197465
20
-12.752502445144101
30
0
10
6.2561365316705331
20
-12.888200715272994
30
0
10
4.927828782054851
20
-13.424169449427016
30
0
10
4.3223678862583652
20
-13.819315760228106
30
0
10
3.2969912093004394
20
-14.819449067357946
30
0
10
2.8868785880441861
20
-15.414874244155767
30
0
10
2.4535904430257496
20
-16.41604833109999
30
0
10
2.3402908750367568
20
-16.774265666879508
30
0
10
2.1882970833967907
20
-17.508151518895481
30
0
10
2.1499999999999977
20
-17.881902485667165
30
0
10
2.1499999999999964
20
-18.256632574026209
30
0
0
LINE
5
122
100
AcDbEntity
8
0
100
AcDbLine
10
11.536516228357996
20
-14.364975907937861
30
0
11
11.585786437626899
21
-14.414213562373103
31
0
0
ARC
5
123
100
AcDbEntity
8
0
100
AcDbCircle
10
12.999999999999996
20
-13.000000000000007
30
0
40
2.0000000000000022
210
0
220
0
230
1
100
AcDbArc
50
-135.00000000000006
51
45
0
LINE
5
124
100
AcDbEntity
8
0
100
AcDbLine
10
14.414213562373092
20
-11.585786437626911
30
0
11
14.364975907938756
21
-11.536516228358932
31
0
0
SPLINE
5
125
100
AcDbEntity
8
0
100
AcDbSpline
70
0
71
3
72
20
73
16
74
0
42
0.000000001
43
0.0000000001
44
0.0000000001
40
0
40
0
40
0
40
0
40
0.21485446036281022
40
0.21485446036281022
40
0.42970892072562039
40
0.42970892072562039
40
0.64456338108843059
40
0.64456338108843059
40
0.85941784145124089
40
0.85941784145124089
40
1.0742723018140508
40
1.0742723018140508
40
1.1866913283217642
40
1.1866913283217642
40
1.2991103548294771
40
1.2991103548294771
40
1.2991103548294771
40
1.2991103548294771
10
18.256632574026192
20
-2.1500000000000083
30
0
10
17.540451039483493
20
-2.1500000000000083
30
0
10
16.831116590760114
20
-2.2898861792054448
30
0
10
15.505994483208148
20
-2.8336833488898638
30
0
10
14.902875713975106
20
-3.2323953420343079
30
0
10
13.883418238644795
20
-4.2385615398728662
30
0
10
13.47682610165894
20
-4.8363962473126971
30
0
10
12.915686733435924
20
-6.1542682331709697
30
0
10
12.766504300403563
20
-6.8617059371088773
30
0
10
12.747708000139317
20
-8.2939456728989871
30
0
10
12.878273835782736
20
-9.0050547122460678
30
0
10
13.279159406404947
20
-10.019637842526198
30
0
10
13.452122037269852
20
-10.353165022953458
30
0
10
13.863167786575799
20
-10.979848314946965
30
0
10
14.100176895272119
20
-11.271366983567766
30
0
10
14.364975907937838
20
-11.53651622835801
30
0
0
LINE
5
126
100
AcDbEntity
8
0
100
AcDbLine
10
18.256632574026192
20
-2.1500000000000083
30
0
11
46.387566107079579
21
-2.1500000000000252
31
0
0
ARC
5
127
100
AcDbEntity
8
0
100
AcDbCircle
10
46.387566107079579
20
-9.1500000000000288
30
0
40
6.9999999999999982
210
0
220
-0
230
1
100
AcDbArc
50
29.132332969900016
51
90
0
LINE
5
128
100
AcDbEntity
8
0
100
AcDbLine
10
52.502049564017696
20
-5.7422012889799534
30
0
11
53.236520840010364
21
-7.060035130553608
31
0
0
ARC
5
129
100
AcDbEntity
8
0
100
AcDbCircle
10
54.249999999999972
20
-6.4951905283832971
30
0
40
1.1602540378443758
210
0
220
0
230
1
100
AcDbArc
50
209.13233297450569
51
310.45305144151519
0
SPLINE
5
130
100
AcDbEntity
8
0
100
AcDbSpline
70
4
71
5
72
21
73
15
74
0
42
0.000000001
43
0.0000000001
44
0.0000000001
40
-1
40
-1
40
-1
40
-1
40
-1
40
-1
40
-0.89999999999999991
40
-0.79999999999999993
40
-0.69999999999999996
40
-0.59999999999999998
40
-0.5
40
-0.40000000000000002
40
-0.30000000000000004
40
-0.20000000000000001
40
-0.10000000000000001
40
0
40
0
40
0
40
0
40
0
40
0
41
1
41
1
41
1
41
1
41
1
41
1
41
1
41
1
41
1
41
1
41
1
41
1
41
1
41
1
41
1
10
66.040049728691358
20
-1.4994653826302651
30
0
10
65.814632974075579
20
-1.5054864567146575
30
0
10
65.359072676422741
20
-1.544178173561539
30
0
10
64.66155339505589
20
-1.6821585056268606
30
0
10
63.708149297475089
20
-2.0122120463721682
30
0
10
62.504157657669438
20
-2.5950497220277979
30
0
10
61.319504078916147
20
-3.2617577678309395
30
0
10
60.181477050000098
20
-3.9355923889214717
30
0
10
59.103714333797733
20
-4.5712981877816805
30
0
10
58.075036183865897
20
-5.1795218650919761
30
0
10
57.069885637611009
20
-5.8053886444557312
30
0
10
56.260430233700887
20
-6.3673301747975541
30
0
10
55.638712360414964
20
-6.8470507190246055
30
0
10
55.216123693856503
20
-7.1961785528217792
30
0
10
55.002801534248178
20
-7.3780717674846752
30
0
0
ARC
5
131
100
AcDbEntity
8
0
100
AcDbCircle
10
65.999997840930249
20
9.0205620750793969e-15
30
0
40
1.5000001958065814
210
0
220
0
230
1
100
AcDbArc
50
-88.469948932695402
51
88.469948932694862
0
SPLINE
5
132
100
AcDbEntity
8
0
100
AcDbSpline
70
4
71
5
72
21
73
15
74
0
42
0.000000001
43
0.0000000001
44
0.0000000001
40
0
40
0
40
0
40
0
40
0
40
0
40
0.10000000000000001
40
0.20000000000000001
40
0.30000000000000004
40
0.40000000000000002
40
0.5
40
0.59999999999999998
40
0.69999999999999996
40
0.79999999999999993
40
0.89999999999999991
40
1
40
1
40
1
40
1
40
1
40
1
41
1
41
1
41
1
41
1
41
1
41
1
41
1
41
1
41
1
41
1
41
1
41
1
41
1
41
1
41
1
10
55.002801534247638
20
7.3780717674914875
30
0
10
55.216123693856069
20
7.1961785528285027
30
0
10
55.638712360414701
20
6.8470507190310803
30
0
10
56.260430233700703
20
6.3673301748034117
30
0
10
57.069885637610788
20
5.805388644460443
30
0
10
58.075036183865443
20
5.179521865095027
30
0
10
59.103714333797043
20
4.5712981877831593
30
0
10
60.181477049999259
20
3.9355923889218003
30
0
10
61.319504078915308
20
3.2617577678306642
30
0
10
62.504157657668756
20
2.5950497220273894
30
0
10
63.708149297474662
20
2.0122120463719106
30
0
10
64.661553395055648
20
1.6821585056267896
30
0
10
65.359072676422642
20
1.5441781735615434
30
0
10
65.814632974075536
20
1.5054864567146709
30
0
10
66.040049728691358
20
1.4994653826302784
30
0
0
ARC
5
133
100
AcDbEntity
8
0
100
AcDbCircle
10
54.249999999999972
20
6.4951905283832989
30
0
40
1.1602540378443877
210
0
220
-0
230
1
100
AcDbArc
50
49.546803394259257
51
150.86766702549355
0
LINE
5
134
100
AcDbEntity
8
0
100
AcDbLine
10
53.236520840010364
20
7.0600351305536275
30
0
11
52.502049564017675
21
5.742201288979909
31
0
0
ARC
5
135
100
AcDbEntity
8
0
100
AcDbCircle
10
46.387566107079564
20
9.1499999999999897
30
0
40
7.0000000000000018
210
-0
220
0
230
1
100
AcDbArc
50
270.00000000000006
51
330.86766703009994
0
LINE
5
136
100
AcDbEntity
8
0
100
AcDbLine
10
46.387566107079572
20
2.1499999999999875
30
0
11
18.256632574026199
21
2.1499999999999932
31
0
0
SPLINE
5
137
100
AcDbEntity
8
0
100
AcDbSpline
70
0
71
3
72
20
73
16
74
0
42
0.000000001
43
0.0000000001
44
0.0000000001
40
0
40
0
40
0
40
0
40
0.21485446036281011
40
0.21485446036281011
40
0.42970892072562006
40
0.42970892072562006
40
0.64456338108842992
40
0.64456338108842992
40
0.85941784145123967
40
0.85941784145123967
40
1.0742723018140494
40
1.0742723018140494
40
1.1866913283217626
40
1.1866913283217626
40
1.2991103548294758
40
1.2991103548294758
40
1.2991103548294758
40
1.2991103548294758
10
14.364975907937863
20
11.536516228357993
30
0
10
13.858893879492308
20
11.029764838715725
30
0
10
13.456630085947163
20
10.429009194812933
30
0
10
12.905023414100922
20
9.1071188660585172
30
0
10
12.760954196231541
20
8.3986221732356778
30
0
10
12.752502445144099
20
6.9662840394197474
30
0
10
12.88820071527299
20
6.2561365316705349
30
0
10
13.424169449427012
20
4.9278287820548536
30
0
10
13.819315760228097
20
4.3223678862583661
30
0
10
14.819449067357935
20
3.2969912093004416
30
0
10
15.414874244155756
20
2.886878588044187
30
0
10
16.416048331099979
20
2.4535904430257496
30
0
10
16.774265666879497
20
2.3402908750367546
30
0
10
17.50815151889547
20
2.1882970833967885
30
0
10
17.881902485667155
20
2.1499999999999941
30
0
10
18.256632574026199
20
2.1499999999999932
30
0
0
LINE
5
138
100
AcDbEntity
8
0
100
AcDbLine
10
14.364975907937863
20
11.536516228357993
30
0
11
14.414213562373103
21
11.585786437626899
31
0
0
ARC
5
139
100
AcDbEntity
8
0
100
AcDbCircle
10
13.000000000000009
20
12.999999999999993
30
0
40
1.9999999999999993
210
-0
220
0
230
1
100
AcDbArc
50
-45
51
134.99999999999997
0
LINE
5
140
100
AcDbEntity
8
0
100
AcDbLine
10
11.585786437626913
20
14.41421356237309
30
0
11
11.536516228358934
21
14.364975907938767
31
0
0
SPLINE
5
141
100
AcDbEntity
8
0
100
AcDbSpline
70
0
71
3
72
20
73
16
74
0
42
0.000000001
43
0.0000000001
44
0.0000000001
40
0
40
0
40
0
40
0
40
0.21485446036281006
40
0.21485446036281006
40
0.4297089207256205
40
0.4297089207256205
40
0.6445633810884307
40
0.6445633810884307
40
0.85941784145124067
40
0.85941784145124067
40
1.074272301814051
40
1.074272301814051
40
1.1866913283217644
40
1.1866913283217644
40
1.2991103548294776
40
1.2991103548294776
40
1.2991103548294776
40
1.2991103548294776
10
2.150000000000003
20
18.256632574026192
30
0
10
2.150000000000003
20
17.540451039483493
30
0
10
2.2898861792054404
20
16.831116590760114
30
0
10
2.8336833488898616
20
15.505994483208148
30
0
10
3.2323953420343052
20
14.902875713975108
30
0
10
4.2385615398728653
20
13.883418238644797
30
0
10
4.8363962473126954
20
13.476826101658943
30
0
10
6.1542682331709662
20
12.915686733435926
30
0
10
6.8617059371088747
20
12.766504300403565
30
0
10
8.2939456728989835
20
12.747708000139319
30
0
10
9.005054712246066
20
12.878273835782739
30
0
10
10.019637842526192
20
13.279159406404951
30
0
10
10.353165022953457
20
13.452122037269854
30
0
10
10.979848314946963
20
13.863167786575801
30
0
10
11.271366983567766
20
14.100176895272124
30
0
10
11.536516228358009
20
14.364975907937843
30
0
0
LINE
5
142
100
AcDbEntity
8
0
100
AcDbLine
10
2.150000000000003
20
18.256632574026192
30
0
11
2.1500000000000075
21
46.387566107079579
31
0
0
ARC
5
143
100
AcDbEntity
8
0
100
AcDbCircle
10
9.1500000000000092
20
46.387566107079572
30
0
40
6.9999999999999982
210
0
220
0
230
1
100
AcDbArc
50
119.13233296990005
51
180
0
LINE
5
144
100
AcDbEntity
8
0
100
AcDbLine
10
5.742201288979933
20
52.502049564017682
30
0
11
7.0600351305536346
21
53.236520840010364
31
0
0
ARC
5
145
100
AcDbEntity
8
0
100
AcDbCircle
10
6.4951905283833078
20
54.249999999999972
30
0
40
1.1602540378443833
210
-0
220
0
230
1
100
AcDbArc
50
-60.867667025493589
51
40.45319660574075
0
SPLINE
5
146
100
AcDbEntity
8
0
100
AcDbSpline
70
4
71
5
72
21
73
15
74
0
42
0.000000001
43
0.0000000001
44
0.0000000001
40
0
40
0
40
0
40
0
40
0
40
0
40
0.10000000000000001
40
0.20000000000000001
40
0.30000000000000004
40
0.40000000000000002
40
0.5
40
0.59999999999999998
40
0.69999999999999996
40
0.79999999999999993
40
0.89999999999999991
40
1
40
1
40
1
40
1
40
1
40
1
41
1
41
1
41
1
41
1
41
1
41
1
41
1
41
1
41
1
41
1
41
1
41
1
41
1
41
1
41
1
10
7.3780717674914964
20
55.002801534247638
30
0
10
7.1961785528285116
20
55.216123693856062
30
0
10
6.8470507190310892
20
55.638712360414701
30
0
10
6.3673301748034206
20
56.260430233700703
30
0
10
5.8053886444604519
20
57.069885637610788
30
0
10
5.1795218650950359
20
58.075036183865443
30
0
10
4.5712981877831727
20
59.103714333797029
30
0
10
3.9355923889218092
20
60.181477049999259
30
0
10
3.2617577678306731
20
61.319504078915308
30
0
10
2.5950497220274027
20
62.504157657668756
30
0
10
2.0122120463719195
20
63.708149297474662
30
0
10
1.6821585056267985
20
64.661553395055648
30
0
10
1.5441781735615523
20
65.359072676422642
30
0
10
1.5054864567146797
20
65.814632974075536
30
0
10
1.4994653826302917
20
66.040049728691372
30
0
0
ARC
5
147
100
AcDbEntity
8
0
100
AcDbCircle
10
1.7763568394002505e-14
20
65.999997840930249
30
0
40
1.5000001958065816
210
0
220
-0
230
1
100
AcDbArc
50
1.5300510673049375
51
178.4699489326951
0
SPLINE
5
148
100
AcDbEntity
8
0
100
AcDbSpline
70
4
71
5
72
21
73
15
74
0
42
0.000000001
43
0.0000000001
44
0.0000000001
40
-1
40
-1
40
-1
40
-1
40
-1
40
-1
40
-0.89999999999999991
40
-0.79999999999999993
40
-0.69999999999999996
40
-0.59999999999999998
40
-0.5
40
-0.40000000000000002
40
-0.30000000000000004
40
-0.20000000000000001
40
-0.10000000000000001
40
0
40
0
40
0
40
0
40
0
40
0
41
1
41
1
41
1
41
1
41
1
41
1
41
1
41
1
41
1
41
1
41
1
41
1
41
1
41
1
41
1
10
-1.4994653826302562
20
66.040049728691358
30
0
10
-1.5054864567146486
20
65.814632974075579
30
0
10
-1.5441781735615301
20
65.359072676422741
30
0
10
-1.6821585056268518
20
64.66155339505589
30
0
10
-2.0122120463721549
20
63.708149297475096
30
0
10
-2.5950497220277891
20
62.504157657669438
30
0
10
-3.2617577678309306
20
61.319504078916147
30
0
10
-3.9355923889214628
20
60.181477050000098
30
0
10
-4.5712981877816716
20
59.103714333797733
30
0
10
-5.1795218650919672
20
58.075036183865897
30
0
10
-5.8053886444557179
20
57.069885637611009
30
0
10
-6.3673301747975453
20
56.260430233700887
30
0
10
-6.8470507190245966
20
55.638712360414964
30
0
10
-7.1961785528217703
20
55.216123693856503
30
0
10
-7.3780717674846708
20
55.002801534248178
30
0
0
ARC
5
149
100
AcDbEntity
8
0
100
AcDbCircle
10
-6.4951905283832767
20
54.249999999999972
30
0
40
1.1602540378398449
210
0
220
0
230
1
100
AcDbArc
50
139.5469485584849
51
240.86766702549372
0
LINE
5
150
100
AcDbEntity
8
0
100
AcDbLine
10
-7.0600351305536
20
53.236520840010364
30
0
11
-5.7422012889799312
21
52.502049564017696
31
0
0
ARC
5
151
100
AcDbEntity
8
0
100
AcDbCircle
10
-9.1500000000000075
20
46.387566107079579
30
0
40
7.0000000000000018
210
-0
220
0
230
1
100
AcDbArc
50
0
51
60.867667030099973
0
LINE
5
152
100
AcDbEntity
8
0
100
AcDbLine
10
-2.1500000000000052
20
46.387566107079579
30
0
11
-2.1499999999999995
21
18.256632574026206
31
0
0
SPLINE
5
153
100
AcDbEntity
8
0
100
AcDbSpline
70
0
71
3
72
20
73
16
74
0
42
0.000000001
43
0.0000000001
44
0.0000000001
40
0
40
0
40
0
40
0
40
0.21485446036280945
40
0.21485446036280945
40
0.42970892072561961
40
0.42970892072561961
40
0.6445633810884297
40
0.6445633810884297
40
0.85941784145123989
40
0.85941784145123989
40
1.0742723018140501
40
1.0742723018140501
40
1.1866913283217628
40
1.1866913283217628
40
1.2991103548294756
40
1.2991103548294756
40
1.2991103548294756
40
1.2991103548294756
10
-11.536516228358
20
14.364975907937861
30
0
10
-11.029764838715735
20
13.858893879492308
30
0
10
-10.429009194812942
20
13.456630085947159
30
0
10
-9.1071188660585243
20
12.905023414100917
30
0
10
-8.3986221732356867
20
12.760954196231541
30
0
10
-6.9662840394197545
20
12.752502445144101
30
0
10
-6.2561365316705411
20
12.888200715272992
30
0
10
-4.9278287820548563
20
13.424169449427016
30
0
10
-4.3223678862583714
20
13.819315760228106
30
0
10
-3.2969912093004448
20
14.819449067357944
30
0
10
-2.8868785880441914
20
15.414874244155769
30
0
10
-2.4535904430257527
20
16.41604833109999
30
0
10
-2.3402908750367599
20
16.774265666879508
30
0
10
-2.1882970833967939
20
17.508151518895481
30
0
10
-2.1500000000000008
20
17.881902485667162
30
0
10
-2.1499999999999995
20
18.256632574026206
30
0
0
LINE
5
154
100
AcDbEntity
8
0
100
AcDbLine
10
-11.536516228358
20
14.364975907937861
30
0
11
-11.585786437626901
21
14.414213562373101
31
0
0
ARC
5
155
100
AcDbEntity
8
0
100
AcDbCircle
10
-12.999999999999998
20
13.000000000000005
30
0
40
2.0000000000000022
210
0
220
-0
230
1
100
AcDbArc
50
44.999999999999964
51
225
0
LINE
5
156
100
AcDbEntity
8
0
100
AcDbLine
10
-14.414213562373096
20
11.585786437626908
30
0
11
-14.364975907938756
21
11.536516228358932
31
0
0
SPLINE
5
157
100
AcDbEntity
8
0
100
AcDbSpline
70
0
71
3
72
20
73
16
74
0
42
0.000000001
43
0.0000000001
44
0.0000000001
40
0
40
0
40
0
40
0
40
0.21485446036281022
40
0.21485446036281022
40
0.42970892072562039
40
0.42970892072562039
40
0.64456338108843059
40
0.64456338108843059
40
0.85941784145124089
40
0.85941784145124089
40
1.0742723018140508
40
1.0742723018140508
40
1.1866913283217642
40
1.1866913283217642
40
1.2991103548294771
40
1.2991103548294771
40
1.2991103548294771
40
1.2991103548294771
10
-18.256632574026192
20
2.1500000000000083
30
0
10
-17.540451039483493
20
2.1500000000000083
30
0
10
-16.831116590760114
20
2.2898861792054448
30
0
10
-15.505994483208148
20
2.8336833488898638
30
0
10
-14.902875713975106
20
3.2323953420343079
30
0
10
-13.883418238644795
20
4.2385615398728662
30
0
10
-13.47682610165894
20
4.8363962473126971
30
0
10
-12.915686733435924
20
6.1542682331709697
30
0
10
-12.766504300403563
20
6.8617059371088773
30
0
10
-12.747708000139317
20
8.2939456728989871
30
0
10
-12.878273835782736
20
9.0050547122460678
30
0
10
-13.279159406404947
20
10.019637842526198
30
0
10
-13.452122037269852
20
10.353165022953458
30
0
10
-13.863167786575799
20
10.979848314946965
30
0
10
-14.100176895272119
20
11.271366983567766
30
0
10
-14.364975907937838
20
11.53651622835801
30
0
0
LINE
5
158
100
AcDbEntity
8
0
100
AcDbLine
10
-18.256632574026192
20
2.1500000000000083
30
0
11
-46.387566107079586
21
2.1500000000000252
31
0
0
ARC
5
159
100
AcDbEntity
8
0
100
AcDbCircle
10
-46.387566107079579
20
9.1500000000000288
30
0
40
6.9999999999999982
210
0
220
0
230
1
100
AcDbArc
50
209.13233296990001
51
269.99999999999994
0
LINE
5
160
100
AcDbEntity
8
0
100
AcDbLine
10
-52.502049564017696
20
5.7422012889799534
30
0
11
-53.236520840010364
21
7.060035130553608
31
0
0
ARC
5
161
100
AcDbEntity
8
0
100
AcDbCircle
10
-54.249999999999972
20
6.4951905283832971
30
0
40
1.1602540378443758
210
0
220
-0
230
1
100
AcDbArc
50
29.132332974505715
51
130.45305144151519
0
SPLINE
5
162
100
AcDbEntity
8
0
100
AcDbSpline
70
4
71
5
72
21
73
15
74
0
42
0.000000001
43
0.0000000001
44
0.0000000001
40
-1
40
-1
40
-1
40
-1
40
-1
40
-1
40
-0.89999999999999991
40
-0.79999999999999993
40
-0.69999999999999996
40
-0.59999999999999998
40
-0.5
40
-0.40000000000000002
40
-0.30000000000000004
40
-0.20000000000000001
40
-0.10000000000000001
40
0
40
0
40
0
40
0
40
0
40
0
41
1
41
1
41
1
41
1
41
1
41
1
41
1
41
1
41
1
41
1
41
1
41
1
41
1
41
1
41
1
10
-66.040049728691358
20
1.4994653826302651
30
0
10
-65.814632974075579
20
1.5054864567146575
30
0
10
-65.359072676422741
20
1.544178173561539
30
0
10
-64.66155339505589
20
1.6821585056268606
30
0
10
-63.708149297475089
20
2.0122120463721682
30
0
10
-62.504157657669438
20
2.5950497220277979
30
0
10
-61.319504078916147
20
3.2617577678309395
30
0
10
-60.181477050000098
20
3.9355923889214717
30
0
10
-59.103714333797733
20
4.5712981877816805
30
0
10
-58.075036183865897
20
5.1795218650919761
30
0
10
-57.069885637611009
20
5.8053886444557312
30
0
10
-56.260430233700887
20
6.3673301747975541
30
0
10
-55.638712360414964
20
6.8470507190246055
30
0
10
-55.216123693856503
20
7.1961785528217792
30
0
10
-55.002801534248178
20
7.3780717674846752
30
0
0
ARC
5
163
100
AcDbEntity
8
0
100
AcDbCircle
10
-65.999997840930249
20
-9.0205620750793969e-15
30
0
40
1.5000001958065814
210
0
220
0
230
1
100
AcDbArc
50
91.530051067304598
51
268.46994893269488
0
SPLINE
5
164
100
AcDbEntity
8
0
100
AcDbSpline
70
4
71
5
72
21
73
15
74
0
42
0.000000001
43
0.0000000001
44
0.0000000001
40
0
40
0
40
0
40
0
40
0
40
0
40
0.10000000000000001
40
0.20000000000000001
40
0.30000000000000004
40
0.40000000000000002
40
0.5
40
0.59999999999999998
40
0.69999999999999996
40
0.79999999999999993
40
0.89999999999999991
40
1
40
1
40
1
40
1
40
1
40
1
41
1
41
1
41
1
41
1
41
1
41
1
41
1
41
1
41
1
41
1
41
1
41
1
41
1
41
1
41
1
10
-55.002801534247638
20
-7.3780717674914875
30
0
10
-55.216123693856069
20
-7.1961785528285027
30
0
10
-55.638712360414701
20
-6.8470507190310803
30
0
10
-56.260430233700703
20
-6.3673301748034117
30
0
10
-57.069885637610788
20
-5.805388644460443
30
0
10
-58.075036183865443
20
-5.179521865095027
30
0
10
-59.103714333797043
20
-4.5712981877831593
30
0
10
-60.181477049999259
20
-3.9355923889218003
30
0
10
-61.319504078915308
20
-3.2617577678306642
30
0
10
-62.504157657668756
20
-2.5950497220273894
30
0
10
-63.708149297474662
20
-2.0122120463719106
30
0
10
-64.661553395055648
20
-1.6821585056267896
30
0
10
-65.359072676422642
20
-1.5441781735615434
30
0
10
-65.814632974075536
20
-1.5054864567146709
30
0
10
-66.040049728691358
20
-1.4994653826302784
30
0
0
ARC
5
165
100
AcDbEntity
8
0
100
AcDbCircle
10
-54.249999999999972
20
-6.4951905283832989
30
0
40
1.1602540378443877
210
0
220
0
230
1
100
AcDbArc
50
229.54680339425923
51
330.86766702549352
0
LINE
5
166
100
AcDbEntity
8
0
100
AcDbLine
10
-53.236520840010364
20
-7.0600351305536275
30
0
11
-52.502049564017675
21
-5.742201288979909
31
0
0
ARC
5
167
100
AcDbEntity
8
0
100
AcDbCircle
10
-46.387566107079564
20
-9.1499999999999932
30
0
40
7.0000000000000009
210
0
220
-0
230
1
100
AcDbArc
50
90
51
150.86766703009991
0
LINE
5
168
100
AcDbEntity
8
0
100
AcDbLine
10
-46.387566107079564
20
-2.1499999999999932
30
0
11
-20.45426555786619
21
-2.1499999999999977
31
0
0
SPLINE
5
169
100
AcDbEntity
8
0
100
AcDbSpline
70
4
71
5
72
16
73
10
74
0
42
0.000000001
43
0.0000000001
44
0.0000000001
40
0.070079372206174592
40
0.070079372206174592
40
0.070079372206174592
40
0.070079372206174592
40
0.070079372206174592
40
0.070079372206174592
40
0.10000000000000001
40
0.20000000000000001
40
0.30000000000000004
40
0.40000000000000002
40
0.42825652104958695
40
0.42825652104958695
40
0.42825652104958695
40
0.42825652104958695
40
0.42825652104958695
40
0.42825652104958695
41
1
41
1
41
1
41
1
41
1
41
1
41
1
41
1
41
1
41
1
10
-20.45426555786619
20
-2.1500000000000123
30
0
10
-20.24392910547332
20
-2.1754926138859174
30
0
10
-19.338853947979569
20
-2.2977768560453233
30
0
10
-17.799894268574384
20
-2.6025505665707511
30
0
10
-15.743396771127188
20
-3.2552327035163433
30
0
10
-13.716791149253689
20
-4.2618851330320133
30
0
10
-12.009268994601427
20
-5.4044636390349599
30
0
10
-10.884601115381795
20
-6.2879615508588831
30
0
10
-10.271700048543742
20
-6.8099834563082577
30
0
10
-10.137589402127819
20
-6.9262081191376224
30
0
0
SPLINE
5
170
100
AcDbEntity
8
0
100
AcDbSpline
70
4
71
5
72
13
73
7
74
0
42
0.000000001
43
0.0000000001
44
0.0000000001
40
0.42825652104958695
40
0.42825652104958695
40
0.42825652104958695
40
0.42825652104958695
40
0.42825652104958695
40
0.42825652104958695
40
0.5
40
0.57201111577180341
40
0.57201111577180341
40
0.57201111577180341
40
0.57201111577180341
40
0.57201111577180341
40
0.57201111577180341
41
1
41
1
41
1
41
1
41
1
41
1
41
1
10
-10.137589402127819
20
-6.9262081191376224
30
0
10
-9.7970816545080002
20
-7.2213032455540898
30
0
10
-9.1266687033778489
20
-7.8283104643548569
30
0
10
-8.4796981851754651
20
-8.4651476138026833
30
0
10
-7.8563606359289526
20
-9.129011413516702
30
0
10
-7.2591772823181611
20
-9.8185170884432633
30
0
10
-6.9670171338375511
20
-10.170245181719878
30
0
0
SPLINE
5
171
100
AcDbEntity
8
0
100
AcDbSpline
70
4
71
5
72
16
73
10
74
0
42
0.000000001
43
0.0000000001
44
0.0000000001
40
0.57201111577230568
40
0.57201111577230568
40
0.57201111577230568
40
0.57201111577230568
40
0.57201111577230568
40
0.57201111577230568
40
0.59999999999999998
40
0.69999999999999996
40
0.79999999999999993
40
0.89999999999999991
40
0.93111893419493708
40
0.93111893419493708
40
0.93111893419493708
40
0.93111893419493708
40
0.93111893419493708
40
0.93111893419493708
41
1
41
1
41
1
41
1
41
1
41
1
41
1
41
1
41
1
41
1
10
-6.9670171338273619
20
-10.170245181732145
30
0
10
-6.853461934965047
20
-10.306952921597583
30
0
10
-6.3390183802623827
20
-10.936471677716884
30
0
10
-5.4628785582312043
20
-12.093262782909708
30
0
10
-4.3175404442069407
20
-13.846347781999491
30
0
10
-3.2901606382374551
20
-15.909120235841765
30
0
10
-2.6176721620396846
20
-17.958577223135705
30
0
10
-2.3030758351157954
20
-19.467067260601286
30
0
10
-2.17695494605635
20
-20.348772625227973
30
0
10
-2.1500000000000208
20
-20.559499408288893
30
0
0
LINE
5
172
100
AcDbEntity
8
0
100
AcDbLine
10
-2.1500000000000203
20
-20.559499408288893
30
0
11
-2.1500000000000163
21
-46.387566107079579
31
0
0
ARC
5
173
100
AcDbEntity
8
0
100
AcDbCircle
10
-9.1500000000000199
20
-46.387566107079572
30
0
40
6.9999999999999973
210
-0
220
0
230
1
100
AcDbArc
50
299.13233296990006
51
360
0
LINE
5
174
100
AcDbEntity
8
0
100
AcDbLine
10
-5.7422012889799472
20
-52.502049564017682
30
0
11
-7.0600351305536346
21
-53.236520840010364
31
0
0
ARC
5
175
100
AcDbEntity
8
0
100
AcDbCircle
10
-6.4951905283833078
20
-54.249999999999972
30
0
40
1.1602540378443833
210
0
220
0
230
1
100
AcDbArc
50
119.13233297450641
51
220.45319660574077
0
SPLINE
5
176
100
AcDbEntity
8
0
100
AcDbSpline
70
4
71
5
72
21
73
15
74
0
42
0.000000001
43
0.0000000001
44
0.0000000001
40
0
40
0
40
0
40
0
40
0
40
0
40
0.10000000000000001
40
0.20000000000000001
40
0.30000000000000004
40
0.40000000000000002
40
0.5
40
0.59999999999999998
40
0.69999999999999996
40
0.79999999999999993
40
0.89999999999999991
40
1
40
1
40
1
40
1
40
1
40
1
41
1
41
1
41
1
41
1
41
1
41
1
41
1
41
1
41
1
41
1
41
1
41
1
41
1
41
1
41
1
10
-7.3780717674914964
20
-55.002801534247638
30
0
10
-7.1961785528285116
20
-55.216123693856062
30
0
10
-6.8470507190310892
20
-55.638712360414701
30
0
10
-6.3673301748034206
20
-56.260430233700703
30
0
10
-5.8053886444604519
20
-57.069885637610788
30
0
10
-5.1795218650950359
20
-58.075036183865443
30
0
10
-4.5712981877831727
20
-59.103714333797029
30
0
10
-3.9355923889218092
20
-60.181477049999259
30
0
10
-3.2617577678306731
20
-61.319504078915308
30
0
10
-2.5950497220274027
20
-62.504157657668756
30
0
10
-2.0122120463719195
20
-63.708149297474662
30
0
10
-1.6821585056267985
20
-64.661553395055648
30
0
10
-1.5441781735615523
20
-65.359072676422642
30
0
10
-1.5054864567146797
20
-65.814632974075536
30
0
10
-1.4994653826302917
20
-66.040049728691372
30
0
0
ARC
5
177
100
AcDbEntity
8
0
100
AcDbCircle
10
-1.7763568394002505e-14
20
-65.999997840930249
30
0
40
1.5000001958065816
210
0
220
0
230
1
100
AcDbArc
50
181.53005106730492
51
358.46994893269505
0
SPLINE
5
178
100
AcDbEntity
8
0
100
AcDbSpline
70
4
71
5
72
21
73
15
74
0
42
0.000000001
43
0.0000000001
44
0.0000000001
40
-1
40
-1
40
-1
40
-1
40
-1
40
-1
40
-0.89999999999999991
40
-0.79999999999999993
40
-0.69999999999999996
40
-0.59999999999999998
40
-0.5
40
-0.40000000000000002
40
-0.30000000000000004
40
-0.20000000000000001
40
-0.10000000000000001
40
0
40
0
40
0
40
0
40
0
40
0
41
1
41
1
41
1
41
1
41
1
41
1
41
1
41
1
41
1
41
1
41
1
41
1
41
1
41
1
41
1
10
1.4994653826302562
20
-66.040049728691358
30
0
10
1.5054864567146486
20
-65.814632974075579
30
0
10
1.5441781735615301
20
-65.359072676422741
30
0
10
1.6821585056268518
20
-64.66155339505589
30
0
10
2.0122120463721549
20
-63.708149297475096
30
0
10
2.5950497220277891
20
-62.504157657669438
30
0
10
3.2617577678309306
20
-61.319504078916147
30
0
10
3.9355923889214628
20
-60.181477050000098
30
0
10
4.5712981877816716
20
-59.103714333797733
30
0
10
5.1795218650919672
20
-58.075036183865897
30
0
10
5.8053886444557179
20
-57.069885637611009
30
0
10
6.3673301747975453
20
-56.260430233700887
30
0
10
6.8470507190245966
20
-55.638712360414964
30
0
10
7.1961785528217703
20
-55.216123693856503
30
0
10
7.3780717674846708
20
-55.002801534248178
30
0
0
ARC
5
179
100
AcDbEntity
8
0
100
AcDbCircle
10
6.4951905283832767
20
-54.249999999999972
30
0
40
1.1602540378398449
210
-0
220
0
230
1
100
AcDbArc
50
-40.453051441515093
51
60.867667025493752
0
LINE
5
180
100
AcDbEntity
8
0
100
AcDbLine
10
7.0600351305536
20
-53.236520840010364
30
0
11
5.7422012889799179
21
-52.502049564017682
31
0
0
ARC
5
181
100
AcDbEntity
8
0
100
AcDbCircle
10
9.1499999999999986
20
-46.387566107079579
30
0
40
7.0000000000000036
210
0
220
0
230
1
100
AcDbArc
50
180
51
240.86766703009982
0
LWPOLYLINE
5
182
100
AcDbEntity
8
0
100
AcDbPolyline
90
4
70
1
43
0.0
10
-0.78881063774663684
20
-61.166666666666643
42
-0.84515425472851868
10
0.78881063774659876
20
-61.166666666666643
10
0.98601329718325192
20
-62.333333333333307
42
-1.1832159566199216
10
-0.9860132971832869
20
-62.333333333333307
0
LWPOLYLINE
5
183
100
AcDbEntity
8
0
100
AcDbPolyline
90
4
70
1
43
0.0
10
-2.3480084597774264
20
-55.733536615602652
42
-0.84515425472851446
10
-3.1368190975240484
20
-57.099796717730612
10
-4.2457833983242219
20
-56.687245897163272
42
-1.1832159566199225
10
-3.2597701011409521
20
-54.979420769503342
0
CIRCLE
5
184
100
AcDbEntity
8
0
100
AcDbCircle
10
-1.7763568394002505e-14
20
-57.999999999999972
30
0
40
2
210
0
220
-0
230
1
0
LWPOLYLINE
5
185
100
AcDbEntity
8
0
100
AcDbPolyline
90
4
70
1
43
0.0
10
3.1368190975240093
20
-57.099796717730598
42
-0.84515425472851324
10
2.348008459777398
20
-55.733536615602659
10
3.2597701011409175
20
-54.979420769503342
42
-1.1832159566199258
10
4.2457833983241908
20
-56.687245897163272
0
ENDSEC
0
SECTION
2
OBJECTS
0
DICTIONARY
5
C
100
AcDbDictionary
3
ACAD_GROUP
350
D
3
ACAD_MLINESTYLE
350
17
0
DICTIONARY
5
D
100
AcDbDictionary
0
DICTIONARY
5
1A
330
C
100
AcDbDictionary
0
DICTIONARY
5
17
100
AcDbDictionary
0
ENDSEC
0
EOF
