0
SECTION
2
HEADER
9
$INSUNITS
70
4
9
$ACADVER
1
AC1014
9
$HANDSEED
5
FFFF
0
ENDSEC
0
SECTION
2
TABLES
0
TABLE
2
VPORT
5
8
100
AcDbSymbolTable
0
ENDTAB
0
TABLE
2
LTYPE
5
5
100
AcDbSymbolTable
0
LTYPE
5
14
100
AcDbSymbolTableRecord
100
AcDbLinetypeTableRecord
2
BYBLOCK
70
0
0
LTYPE
5
15
100
AcDbSymbolTableRecord
100
AcDbLinetypeTableRecord
2
BYLAYER
70
0
0
ENDTAB
0
TABLE
2
LAYER
5
2
100
AcDbSymbolTable
70
2
0
LAYER
5
50
100
AcDbSymbolTableRecord
100
AcDbLayerTableRecord
2
0
70
0
6
CONTINUOUS
0
ENDTAB
0
TABLE
2
STYLE
5
3
100
AcDbSymbolTable
70
1
0
STYLE
5
11
100
AcDbSymbolTableRecord
100
AcDbTextStyleTableRecord
2
STANDARD
70
0
0
ENDTAB
0
TABLE
2
VIEW
5
6
100
AcDbSymbolTable
70
0
0
ENDTAB
0
TABLE
2
UCS
5
7
100
AcDbSymbolTable
70
0
0
ENDTAB
0
TABLE
2
APPID
5
9
100
AcDbSymbolTable
70
2
0
APPID
5
12
100
AcDbSymbolTableRecord
100
AcDbRegAppTableRecord
2
ACAD
70
0
0
ENDTAB
0
TABLE
2
DIMSTYLE
5
A
100
AcDbSymbolTable
70
1
0
ENDTAB
0
TABLE
2
BLOCK_RECORD
5
1
100
AcDbSymbolTable
70
1
0
BLOCK_RECORD
5
1F
100
AcDbSymbolTableRecord
100
AcDbBlockTableRecord
2
*MODEL_SPACE
0
BLOCK_RECORD
5
1B
100
AcDbSymbolTableRecord
100
AcDbBlockTableRecord
2
*PAPER_SPACE
0
ENDTAB
0
ENDSEC
0
SECTION
2
BLOCKS
0
BLOCK
5
20
100
AcDbEntity
100
AcDbBlockBegin
2
*MODEL_SPACE
0
ENDBLK
5
21
100
AcDbEntity
100
AcDbBlockEnd
0
BLOCK
5
1C
100
AcDbEntity
100
AcDbBlockBegin
2
*PAPER_SPACE
0
ENDBLK
5
1D
100
AcDbEntity
100
AcDbBlockEnd
0
ENDSEC
0
SECTION
2
ENTITIES
0
LWPOLYLINE
5
100
100
AcDbEntity
8
0
100
AcDbPolyline
90
4
70
1
43
0.0
10
60.093668760770889
20
-53.093668760770896
42
-0.99999999999999989
10
60.093668760770889
20
-55.093668760770889
10
58.593668760770889
20
-55.093668760770889
42
-0.99999999999999989
10
58.593668760770889
20
-53.093668760770896
0
CIRCLE
5
101
100
AcDbEntity
8
0
100
AcDbCircle
10
54.093668760770882
20
-54.093668760770896
30
0
40
2.5
210
0
220
-0
230
1
0
LWPOLYLINE
5
102
100
AcDbEntity
8
0
100
AcDbPolyline
90
4
70
1
43
0.0
10
48.093668760770882
20
-55.093668760770889
42
-0.99999999999999989
10
48.093668760770882
20
-53.093668760770896
10
49.593668760770882
20
-53.093668760770896
42
-0.99999999999999989
10
49.593668760770882
20
-55.093668760770889
0
LWPOLYLINE
5
103
100
AcDbEntity
8
0
100
AcDbPolyline
90
4
70
1
43
0.0
10
55.093668760770882
20
-60.093668760770896
42
-0.99999999999999989
10
53.093668760770889
20
-60.093668760770896
10
53.093668760770889
20
-58.593668760770896
42
-0.99999999999999989
10
55.093668760770882
20
-58.593668760770896
0
LWPOLYLINE
5
104
100
AcDbEntity
8
0
100
AcDbPolyline
90
4
70
1
43
0.0
10
55.093668760770882
20
-49.593668760770896
42
-0.99999999999999989
10
53.093668760770889
20
-49.593668760770896
10
53.093668760770889
20
-48.093668760770889
42
-0.99999999999999989
10
55.093668760770882
20
-48.093668760770889
0
LWPOLYLINE
5
105
100
AcDbEntity
8
0
100
AcDbPolyline
90
82
70
1
43
0.0
10
15.739114895506505
20
-11.496474208387264
10
46.315494167718832
20
-42.072853480599612
10
46.324348006297328
20
-42.08170732483282
42
0.39541216228765619
10
53.159744689840949
20
-42.302621974127746
42
-0.49169645687716029
10
54.714144433958545
20
-42.606698086269219
10
57.889095852057011
20
-48.956600886983281
42
0.16227765959487156
10
59.230736635558088
20
-50.298241667485556
10
65.580639383546696
20
-53.473193041479874
42
-0.51191829385248333
10
65.840532569233289
20
-55.07472701366634
10
60.457629791449818
20
-60.457629791449818
10
55.316270494615566
20
-67.690639247260748
42
-0.61958208457412656
10
52.662838612275557
20
-67.271840943229932
10
50.232964754116985
20
-59.550049559695218
42
0.20330387271184697
10
48.712945231631004
20
-57.767268033239418
10
42.606698051785955
20
-54.714144477438211
42
-0.49169646244086762
10
42.302621941049381
20
-53.159744721895066
42
0.39541216495580633
10
42.081707335791421
20
-46.324348003242193
10
13.946114112772211
20
-18.188754799891498
42
0.30932869548876107
10
8.396578750551404
20
-17.147849245493799
10
0.90630065532963033
20
-20.444174067998944
42
-0.21030796097347917
10
-0.90630065532963044
20
-20.444174067998947
10
-8.3965787505514307
20
-17.147849245493784
42
0.30932869548876096
10
-13.946114112772236
20
-18.188754799891484
10
-42.081707335791435
20
-46.324348003242193
42
0.395412164955806
10
-42.302621941049388
20
-53.159744721895066
42
-0.49169646244085913
10
-42.606698051785955
20
-54.714144477438211
10
-48.712945231630997
20
-57.767268033239418
42
0.20330387271184619
10
-50.232964754116992
20
-59.550049559695218
10
-52.662838612275536
20
-67.271840943229932
42
-0.61958208457412822
10
-55.316270494615566
20
-67.690639247260748
10
-60.457629791449818
20
-60.457629791449818
10
-65.840532569233289
20
-55.074727013666333
42
-0.51191829385248211
10
-65.580639383546711
20
-53.473193041479874
10
-59.230736635558081
20
-50.298241667485556
42
0.16227765959487184
10
-57.889095852057011
20
-48.956600886983288
10
-54.714144433958552
20
-42.606698086269219
42
-0.49169645687715979
10
-53.159744689840949
20
-42.302621974127732
42
0.3954121622876573
10
-46.324348006297328
20
-42.08170732483282
10
-46.31549416771886
20
-42.072853480599562
10
-15.734891771509055
20
-11.492251084389775
42
0.58749462783640038
10
-18.362071417808096
20
-2.2498854388239202
42
-1.0052645002012546
10
-18.383853587605653
20
2.2499998107959507
42
0.58859777653935164
10
-15.739114895506514
20
11.496474208387264
10
-46.315494167718839
20
42.072853480599605
10
-46.324348006297328
20
42.08170732483282
42
0.39541216228765619
10
-53.159744689840949
20
42.302621974127746
42
-0.49169645687716029
10
-54.714144433958545
20
42.606698086269219
10
-57.889095852057011
20
48.956600886983281
42
0.16227765959487156
10
-59.230736635558088
20
50.298241667485556
10
-65.580639383546696
20
53.473193041479874
42
-0.51191829385248333
10
-65.840532569233289
20
55.07472701366634
10
-60.457629791449818
20
60.457629791449818
10
-55.316270494615566
20
67.690639247260748
42
-0.61958208457412656
10
-52.662838612275557
20
67.271840943229932
10
-50.232964754116985
20
59.550049559695218
42
0.20330387271184697
10
-48.712945231631004
20
57.767268033239418
10
-42.606698051785955
20
54.714144477438211
42
-0.49169646244086762
10
-42.302621941049381
20
53.159744721895066
42
0.39541216495580633
10
-42.081707335791421
20
46.324348003242193
10
-11.492251084389775
20
15.734891771509055
42
0.58749462783640038
10
-2.2498854388239162
20
18.362071417808121
42
-1.0052645002012492
10
2.2499998107959529
20
18.383853587605653
42
0.58859777653935208
10
11.496474208387264
20
15.739114895506511
10
42.081707335791435
20
46.324348003242193
42
0.395412164955806
10
42.302621941049388
20
53.159744721895066
42
-0.49169646244085913
10
42.606698051785955
20
54.714144477438211
10
48.712945231630997
20
57.767268033239418
42
0.20330387271184619
10
50.232964754116992
20
59.550049559695218
10
52.662838612275536
20
67.271840943229932
42
-0.61958208457412822
10
55.316270494615566
20
67.690639247260748
10
60.457629791449818
20
60.457629791449818
10
65.840532569233289
20
55.074727013666333
42
-0.51191829385248211
10
65.580639383546711
20
53.473193041479874
10
59.230736635558081
20
50.298241667485556
42
0.16227765959487184
10
57.889095852057011
20
48.956600886983288
10
54.714144433958552
20
42.606698086269219
42
-0.49169645687715979
10
53.159744689840949
20
42.302621974127732
42
0.3954121622876573
10
46.324348006297328
20
42.08170732483282
10
46.315494167718867
20
42.072853480599555
10
15.734891771509062
20
11.492251084389778
42
0.5874946278364005
10
18.362071417808096
20
2.249885438823918
42
-1.0052645002012546
10
18.383853587605653
20
-2.2499998107959529
42
0.58859777653935208
0
LWPOLYLINE
5
106
100
AcDbEntity
8
0
100
AcDbPolyline
90
4
70
1
43
0.0
10
-53.093668760770889
20
-49.593668760770896
42
-0.99999999999999989
10
-55.093668760770882
20
-49.593668760770896
10
-55.093668760770882
20
-48.093668760770889
42
-0.99999999999999989
10
-53.093668760770889
20
-48.093668760770889
0
LWPOLYLINE
5
107
100
AcDbEntity
8
0
100
AcDbPolyline
90
4
70
1
43
0.0
10
-53.093668760770889
20
-60.093668760770896
42
-0.99999999999999989
10
-55.093668760770882
20
-60.093668760770896
10
-55.093668760770882
20
-58.593668760770896
42
-0.99999999999999989
10
-53.093668760770889
20
-58.593668760770896
0
LWPOLYLINE
5
108
100
AcDbEntity
8
0
100
AcDbPolyline
90
4
70
1
43
0.0
10
-48.093668760770882
20
-53.093668760770896
42
-0.99999999999999989
10
-48.093668760770882
20
-55.093668760770889
10
-49.593668760770882
20
-55.093668760770889
42
-0.99999999999999989
10
-49.593668760770882
20
-53.093668760770896
0
CIRCLE
5
109
100
AcDbEntity
8
0
100
AcDbCircle
10
-54.093668760770882
20
-54.093668760770896
30
0
40
2.5
210
-0
220
0
230
1
0
LWPOLYLINE
5
110
100
AcDbEntity
8
0
100
AcDbPolyline
90
4
70
1
43
0.0
10
-60.093668760770889
20
-55.093668760770889
42
-0.99999999999999989
10
-60.093668760770889
20
-53.093668760770896
10
-58.593668760770889
20
-53.093668760770896
42
-0.99999999999999989
10
-58.593668760770889
20
-55.093668760770889
0
LWPOLYLINE
5
111
100
AcDbEntity
8
0
100
AcDbPolyline
90
4
70
1
43
0.0
10
-60.093668760770889
20
53.093668760770896
42
-0.99999999999999989
10
-60.093668760770889
20
55.093668760770889
10
-58.593668760770889
20
55.093668760770889
42
-0.99999999999999989
10
-58.593668760770889
20
53.093668760770896
0
CIRCLE
5
112
100
AcDbEntity
8
0
100
AcDbCircle
10
-54.093668760770882
20
54.093668760770896
30
0
40
2.5
210
-0
220
0
230
1
0
LWPOLYLINE
5
113
100
AcDbEntity
8
0
100
AcDbPolyline
90
4
70
1
43
0.0
10
-48.093668760770882
20
55.093668760770889
42
-0.99999999999999989
10
-48.093668760770882
20
53.093668760770896
10
-49.593668760770882
20
53.093668760770896
42
-0.99999999999999989
10
-49.593668760770882
20
55.093668760770889
0
LWPOLYLINE
5
114
100
AcDbEntity
8
0
100
AcDbPolyline
90
4
70
1
43
0.0
10
-55.093668760770882
20
60.093668760770896
42
-0.99999999999999989
10
-53.093668760770889
20
60.093668760770896
10
-53.093668760770889
20
58.593668760770896
42
-0.99999999999999989
10
-55.093668760770882
20
58.593668760770896
0
LWPOLYLINE
5
115
100
AcDbEntity
8
0
100
AcDbPolyline
90
4
70
1
43
0.0
10
-55.093668760770882
20
49.593668760770896
42
-0.99999999999999989
10
-53.093668760770889
20
49.593668760770896
10
-53.093668760770889
20
48.093668760770889
42
-0.99999999999999989
10
-55.093668760770882
20
48.093668760770889
0
LWPOLYLINE
5
116
100
AcDbEntity
8
0
100
AcDbPolyline
90
12
70
1
43
0.0
10
7.6337010522000561
20
-2.3930332729905319
42
-0.30681888136948621
10
9.3898477618954637
20
-0.99709720698465754
42
0.92655032088913214
10
9.3898477618954637
20
0.99709720698465898
42
-0.30681888136948721
10
7.6337010522000543
20
2.3930332729905399
42
0.24557446264763866
10
2.3930332729905328
20
7.6337010522000597
42
-0.30681888136948615
10
0.99709720698466042
20
9.3898477618954637
42
0.92655032088913303
10
-0.99709720698465676
20
9.3898477618954637
42
-0.30681888136948715
10
-2.3930332729905386
20
7.6337010522000543
42
0.24557446264763874
10
-7.6337010522000597
20
2.3930332729905328
42
-0.30681888136948615
10
-9.3898477618954637
20
0.99709720698466042
42
0.92655032088913303
10
-9.3898477618954637
20
-0.99709720698465731
42
-0.30681888136948648
10
-7.6337010522000543
20
-2.3930332729905333
42
0.73450174282021741
0
CIRCLE
5
117
100
AcDbEntity
8
0
100
AcDbCircle
10
7.9999999999999982
20
-8.0000000000000018
30
0
40
0.99999999999999978
210
0
220
0
230
1
0
CIRCLE
5
118
100
AcDbEntity
8
0
100
AcDbCircle
10
-8.0000000000000036
20
-7.9999999999999973
30
0
40
0.99999999999999978
210
0
220
0
230
1
0
CIRCLE
5
119
100
AcDbEntity
8
0
100
AcDbCircle
10
8.0000000000000036
20
7.9999999999999973
30
0
40
0.99999999999999978
210
0
220
0
230
1
0
CIRCLE
5
120
100
AcDbEntity
8
0
100
AcDbCircle
10
-7.9999999999999991
20
8
30
0
40
0.99999999999999978
210
0
220
0
230
1
0
LWPOLYLINE
5
121
100
AcDbEntity
8
0
100
AcDbPolyline
90
8
70
1
43
0.0
10
4
20
-10.13477631085024
10
-4
20
-10.13477631085024
42
0.41421356237309509
10
-5
20
-11.13477631085024
10
-5
20
-15.13477631085024
42
0.41421356237309509
10
-4
20
-16.134776310850242
10
4
20
-16.134776310850242
42
0.41421356237309509
10
5
20
-15.13477631085024
10
5
20
-11.13477631085024
42
0.41421356237309509
0
CIRCLE
5
122
100
AcDbEntity
8
0
100
AcDbCircle
10
-8.7312993081956596e-15
20
-18.384776310850238
30
0
40
1.0000000000000009
210
-0
220
0
230
1
0
CIRCLE
5
123
100
AcDbEntity
8
0
100
AcDbCircle
10
18.384776310850238
20
-6.9005446618301264e-15
30
0
40
1.0000000000000009
210
0
220
-0
230
1
0
CIRCLE
5
124
100
AcDbEntity
8
0
100
AcDbCircle
10
8.7312993081956596e-15
20
18.384776310850238
30
0
40
1.0000000000000009
210
0
220
-0
230
1
0
CIRCLE
5
125
100
AcDbEntity
8
0
100
AcDbCircle
10
-18.384776310850238
20
4.649058915617843e-15
30
0
40
1.0000000000000009
210
0
220
0
230
1
0
LWPOLYLINE
5
126
100
AcDbEntity
8
0
100
AcDbPolyline
90
4
70
1
43
0.0
10
60.093668760770889
20
55.093668760770889
42
-0.99999999999999989
10
60.093668760770889
20
53.093668760770896
10
58.593668760770889
20
53.093668760770896
42
-0.99999999999999989
10
58.593668760770889
20
55.093668760770889
0
CIRCLE
5
127
100
AcDbEntity
8
0
100
AcDbCircle
10
54.093668760770882
20
54.093668760770896
30
0
40
2.5
210
0
220
0
230
1
0
LWPOLYLINE
5
128
100
AcDbEntity
8
0
100
AcDbPolyline
90
4
70
1
43
0.0
10
48.093668760770882
20
53.093668760770896
42
-0.99999999999999989
10
48.093668760770882
20
55.093668760770889
10
49.593668760770882
20
55.093668760770889
42
-0.99999999999999989
10
49.593668760770882
20
53.093668760770896
0
LWPOLYLINE
5
129
100
AcDbEntity
8
0
100
AcDbPolyline
90
4
70
1
43
0.0
10
53.093668760770889
20
60.093668760770896
42
-0.99999999999999989
10
55.093668760770882
20
60.093668760770896
10
55.093668760770882
20
58.593668760770896
42
-0.99999999999999989
10
53.093668760770889
20
58.593668760770896
0
LWPOLYLINE
5
130
100
AcDbEntity
8
0
100
AcDbPolyline
90
4
70
1
43
0.0
10
53.093668760770889
20
49.593668760770896
42
-0.99999999999999989
10
55.093668760770882
20
49.593668760770896
10
55.093668760770882
20
48.093668760770889
42
-0.99999999999999989
10
53.093668760770889
20
48.093668760770889
0
ENDSEC
0
SECTION
2
OBJECTS
0
DICTIONARY
5
C
100
AcDbDictionary
3
ACAD_GROUP
350
D
3
ACAD_MLINESTYLE
350
17
0
DICTIONARY
5
D
100
AcDbDictionary
0
DICTIONARY
5
1A
330
C
100
AcDbDictionary
0
DICTIONARY
5
17
100
AcDbDictionary
0
ENDSEC
0
EOF
