0
SECTION
2
HEADER
9
$INSUNITS
70
4
9
$ACADVER
1
AC1014
9
$HANDSEED
5
FFFF
0
ENDSEC
0
SECTION
2
TABLES
0
TABLE
2
VPORT
5
8
100
AcDbSymbolTable
0
ENDTAB
0
TABLE
2
LTYPE
5
5
100
AcDbSymbolTable
0
LTYPE
5
14
100
AcDbSymbolTableRecord
100
AcDbLinetypeTableRecord
2
BYBLOCK
70
0
0
LTYPE
5
15
100
AcDbSymbolTableRecord
100
AcDbLinetypeTableRecord
2
BYLAYER
70
0
0
ENDTAB
0
TABLE
2
LAYER
5
2
100
AcDbSymbolTable
70
2
0
LAYER
5
50
100
AcDbSymbolTableRecord
100
AcDbLayerTableRecord
2
0
70
0
6
CONTINUOUS
0
ENDTAB
0
TABLE
2
STYLE
5
3
100
AcDbSymbolTable
70
1
0
STYLE
5
11
100
AcDbSymbolTableRecord
100
AcDbTextStyleTableRecord
2
STANDARD
70
0
0
ENDTAB
0
TABLE
2
VIEW
5
6
100
AcDbSymbolTable
70
0
0
ENDTAB
0
TABLE
2
UCS
5
7
100
AcDbSymbolTable
70
0
0
ENDTAB
0
TABLE
2
APPID
5
9
100
AcDbSymbolTable
70
2
0
APPID
5
12
100
AcDbSymbolTableRecord
100
AcDbRegAppTableRecord
2
ACAD
70
0
0
ENDTAB
0
TABLE
2
DIMSTYLE
5
A
100
AcDbSymbolTable
70
1
0
ENDTAB
0
TABLE
2
BLOCK_RECORD
5
1
100
AcDbSymbolTable
70
1
0
BLOCK_RECORD
5
1F
100
AcDbSymbolTableRecord
100
AcDbBlockTableRecord
2
*MODEL_SPACE
0
BLOCK_RECORD
5
1B
100
AcDbSymbolTableRecord
100
AcDbBlockTableRecord
2
*PAPER_SPACE
0
ENDTAB
0
ENDSEC
0
SECTION
2
BLOCKS
0
BLOCK
5
20
100
AcDbEntity
100
AcDbBlockBegin
2
*MODEL_SPACE
0
ENDBLK
5
21
100
AcDbEntity
100
AcDbBlockEnd
0
BLOCK
5
1C
100
AcDbEntity
100
AcDbBlockBegin
2
*PAPER_SPACE
0
ENDBLK
5
1D
100
AcDbEntity
100
AcDbBlockEnd
0
ENDSEC
0
SECTION
2
ENTITIES
0
CIRCLE
5
100
100
AcDbEntity
8
0
100
AcDbCircle
10
54.093668760770868
20
-54.093668760770896
30
0
40
2.0000000000000004
210
0
220
-0
230
1
0
CIRCLE
5
101
100
AcDbEntity
8
0
100
AcDbCircle
10
58.593668760770868
20
-54.093668760770896
30
0
40
1.0000000000000002
210
0
220
-0
230
1
0
CIRCLE
5
102
100
AcDbEntity
8
0
100
AcDbCircle
10
54.093668760770868
20
-49.593668760770896
30
0
40
1.0000000000000002
210
0
220
-0
230
1
0
CIRCLE
5
103
100
AcDbEntity
8
0
100
AcDbCircle
10
54.093668760770868
20
-58.593668760770896
30
0
40
1.0000000000000002
210
0
220
-0
230
1
0
CIRCLE
5
104
100
AcDbEntity
8
0
100
AcDbCircle
10
49.593668760770868
20
-54.093668760770896
30
0
40
1.0000000000000002
210
0
220
-0
230
1
0
LWPOLYLINE
5
105
100
AcDbEntity
8
0
100
AcDbPolyline
90
86
70
1
43
0.0
10
16.282521683420779
20
-11.332774215114947
10
46.66904755831213
20
-41.7193000900063
10
46.76402833624725
20
-41.814280873938444
42
0.19527691878301603
10
53.695120609754873
20
-44.74223337036716
42
-0.26388181996539989
10
55.397978060012591
20
-45.739964870474587
10
57.231967127665129
20
-48.90776409461472
42
0.14662565244406486
10
59.323030477042991
20
-50.874718615275185
10
61.15770755750524
20
-51.792057193951536
42
-0.51191828856325106
10
61.677493898890425
20
-54.995125123330453
10
59.011263976338682
20
-57.661355045882196
42
0.094598774057477852
10
57.957466433315503
20
-59.212440199232958
10
55.718641831748599
20
-64.390053447898964
42
-0.61764514354421984
10
53.933103034041061
20
-64.490299915139971
10
50.873424663767459
20
-59.150116057829074
42
0.13218832814629392
10
49.040243521039777
20
-57.308665744768476
10
45.739964870474559
20
-55.397978060012605
42
-0.26388182036967422
10
44.742233370324826
20
-53.69512060673155
42
0.19527691865973967
10
41.814280887733432
20
-46.764028332156073
10
13.455095163200998
20
-18.404842631506792
42
0.30932869548876113
10
7.9055598009801908
20
-17.363937077109096
10
0.90630065532963089
20
-20.444174067998947
42
-0.21030796097347845
10
-0.90630065532963044
20
-20.44417406799894
10
-7.9055598009801642
20
-17.363937077109103
42
0.30932869548876085
10
-13.455095163200967
20
-18.404842631506803
10
-41.814280887733432
20
-46.76402833215608
42
0.19527691865973826
10
-44.742233370324811
20
-53.695120606731535
42
-0.26388182036967539
10
-45.739964870474559
20
-55.397978060012612
10
-49.040243521039777
20
-57.308665744768462
42
0.13218832814629225
10
-50.873424663767459
20
-59.150116057829081
10
-53.933103034041054
20
-64.490299915139971
42
-0.61764514354422928
10
-55.718641831748599
20
-64.390053447898964
10
-57.957466433315503
20
-59.212440199232944
42
0.094598774057476839
10
-59.011263976338682
20
-57.661355045882196
10
-61.677493898890404
20
-54.995125123330453
42
-0.51191828856325117
10
-61.157707557505248
20
-51.792057193951528
10
-59.323030477042991
20
-50.874718615275192
42
0.14662565244407028
10
-57.231967127665129
20
-48.907764094614706
10
-55.397978060012591
20
-45.73996487047458
42
-0.26388181996540394
10
-53.695120609754881
20
-44.742233370367174
42
0.19527691878301609
10
-46.76402833624725
20
-41.814280873938444
10
-46.669047558312108
20
-41.719300090006335
10
-16.288213922547975
20
-11.338466454242194
42
0.55413165128994513
10
-18.383853587605639
20
-2.2499998107959582
42
-1.0052645002012546
10
-18.362071417808114
20
2.2498854388239229
42
0.55312033886801293
10
-16.282521683420779
20
11.332774215114942
10
-46.669047558312144
20
41.7193000900063
10
-46.76402833624725
20
41.814280873938444
42
0.19527691878301603
10
-53.695120609754873
20
44.74223337036716
42
-0.26388181996539989
10
-55.397978060012591
20
45.739964870474587
10
-57.231967127665129
20
48.90776409461472
42
0.14662565244406486
10
-59.323030477042991
20
50.874718615275185
10
-61.15770755750524
20
51.792057193951536
42
-0.51191828856325106
10
-61.677493898890425
20
54.995125123330453
10
-59.011263976338682
20
57.661355045882196
42
0.094598774057477852
10
-57.957466433315503
20
59.212440199232958
10
-55.718641831748599
20
64.390053447898964
42
-0.61764514354421984
10
-53.933103034041061
20
64.490299915139971
10
-50.873424663767459
20
59.150116057829074
42
0.13218832814629392
10
-49.040243521039777
20
57.308665744768476
10
-45.739964870474559
20
55.397978060012605
42
-0.26388182036967422
10
-44.742233370324826
20
53.69512060673155
42
0.19527691865973967
10
-41.814280887733432
20
46.764028332156073
10
-11.338466454242194
20
16.288213922547975
42
0.55413165128994502
10
-2.2499998107959582
20
18.383853587605657
42
-1.0052645002012492
10
2.2498854388239211
20
18.362071417808117
42
0.55312033886801359
10
11.332774215114947
20
16.282521683420779
10
41.814280887733432
20
46.76402833215608
42
0.19527691865973826
10
44.742233370324811
20
53.695120606731535
42
-0.26388182036967539
10
45.739964870474559
20
55.397978060012612
10
49.040243521039777
20
57.308665744768462
42
0.13218832814629225
10
50.873424663767459
20
59.150116057829081
10
53.933103034041054
20
64.490299915139971
42
-0.61764514354422928
10
55.718641831748599
20
64.390053447898964
10
57.957466433315503
20
59.212440199232944
42
0.094598774057476839
10
59.011263976338682
20
57.661355045882196
10
61.677493898890404
20
54.995125123330453
42
-0.51191828856325117
10
61.157707557505248
20
51.792057193951528
10
59.323030477042991
20
50.874718615275192
42
0.14662565244407028
10
57.231967127665129
20
48.907764094614706
10
55.397978060012591
20
45.73996487047458
42
-0.26388181996540394
10
53.695120609754881
20
44.742233370367174
42
0.19527691878301609
10
46.76402833624725
20
41.814280873938444
10
46.669047558312116
20
41.719300090006328
10
16.288213922547978
20
11.338466454242191
42
0.55413165128994479
10
18.383853587605614
20
2.249999810795952
42
-1.0052645002012599
10
18.362071417808114
20
-2.2498854388239211
42
0.55312033886801271
0
CIRCLE
5
106
100
AcDbEntity
8
0
100
AcDbCircle
10
-49.593668760770868
20
-54.093668760770896
30
0
40
1.0000000000000002
210
0
220
-0
230
1
0
CIRCLE
5
107
100
AcDbEntity
8
0
100
AcDbCircle
10
-54.093668760770868
20
-58.593668760770896
30
0
40
1.0000000000000002
210
0
220
0
230
1
0
CIRCLE
5
108
100
AcDbEntity
8
0
100
AcDbCircle
10
-54.093668760770868
20
-49.593668760770896
30
0
40
1.0000000000000002
210
0
220
-0
230
1
0
CIRCLE
5
109
100
AcDbEntity
8
0
100
AcDbCircle
10
-58.593668760770868
20
-54.093668760770896
30
0
40
1.0000000000000002
210
0
220
0
230
1
0
CIRCLE
5
110
100
AcDbEntity
8
0
100
AcDbCircle
10
-54.093668760770868
20
-54.093668760770896
30
0
40
2.0000000000000004
210
0
220
-0
230
1
0
CIRCLE
5
111
100
AcDbEntity
8
0
100
AcDbCircle
10
-7.9999999999999982
20
-8.0000000000000018
30
0
40
0.99999999999999978
210
0
220
-0
230
1
0
CIRCLE
5
112
100
AcDbEntity
8
0
100
AcDbCircle
10
8.0000000000000036
20
-7.9999999999999973
30
0
40
0.99999999999999978
210
0
220
-0
230
1
0
CIRCLE
5
113
100
AcDbEntity
8
0
100
AcDbCircle
10
-8.0000000000000036
20
7.9999999999999973
30
0
40
0.99999999999999978
210
0
220
-0
230
1
0
LWPOLYLINE
5
114
100
AcDbEntity
8
0
100
AcDbPolyline
90
12
70
1
43
0.0
10
-9.3898477618954637
20
-0.99709720698465643
42
-0.30681888136948687
10
-7.633701052200057
20
-2.3930332729905319
42
0.73450174282021785
10
7.6337010522000579
20
-2.3930332729905341
42
-0.30681888136948632
10
9.3898477618954637
20
-0.99709720698466042
42
0.92655032088913214
10
9.3898477618954637
20
0.99709720698465343
42
-0.30681888136948776
10
7.6337010522000517
20
2.3930332729905364
42
0.24557446264763871
10
2.3930332729905341
20
7.6337010522000579
42
-0.30681888136948632
10
0.99709720698466042
20
9.3898477618954637
42
0.92655032088913214
10
-0.99709720698465343
20
9.3898477618954637
42
-0.30681888136948776
10
-2.3930332729905373
20
7.6337010522000526
42
0.24557446264763844
10
-7.6337010522000579
20
2.3930332729905341
42
-0.30681888136948632
10
-9.3898477618954637
20
0.99709720698466042
42
0.92655032088913214
0
CIRCLE
5
115
100
AcDbEntity
8
0
100
AcDbCircle
10
7.9999999999999991
20
8
30
0
40
0.99999999999999978
210
0
220
-0
230
1
0
CIRCLE
5
116
100
AcDbEntity
8
0
100
AcDbCircle
10
1.0755285551056204e-14
20
-18.384776310850231
30
0
40
1.0000000000000009
210
0
220
0
230
1
0
CIRCLE
5
117
100
AcDbEntity
8
0
100
AcDbCircle
10
-8.1878948066105295e-15
20
18.384776310850238
30
0
40
1.0000000000000009
210
0
220
-0
230
1
0
CIRCLE
5
118
100
AcDbEntity
8
0
100
AcDbCircle
10
-18.384776310850242
20
-6.9388939039072284e-15
30
0
40
1.0000000000000009
210
0
220
0
230
1
0
CIRCLE
5
119
100
AcDbEntity
8
0
100
AcDbCircle
10
18.384776310850242
20
4.7184478546569153e-15
30
0
40
1.0000000000000009
210
0
220
0
230
1
0
LWPOLYLINE
5
120
100
AcDbEntity
8
0
100
AcDbPolyline
90
8
70
1
43
0.0
10
4
20
-10.134776310850242
42
-0.41421356237309509
10
5
20
-11.13477631085024
10
5.0000000000000009
20
-15.13477631085024
42
-0.41421356237309509
10
4
20
-16.134776310850242
10
-4
20
-16.134776310850238
42
-0.41421356237309509
10
-5
20
-15.13477631085024
10
-5.0000000000000009
20
-11.13477631085024
42
-0.41421356237309509
10
-4
20
-10.13477631085024
0
CIRCLE
5
121
100
AcDbEntity
8
0
100
AcDbCircle
10
54.093668760770868
20
54.093668760770896
30
0
40
2.0000000000000004
210
0
220
0
230
1
0
CIRCLE
5
122
100
AcDbEntity
8
0
100
AcDbCircle
10
58.593668760770868
20
54.093668760770896
30
0
40
1.0000000000000002
210
0
220
-0
230
1
0
CIRCLE
5
123
100
AcDbEntity
8
0
100
AcDbCircle
10
54.093668760770868
20
49.593668760770896
30
0
40
1.0000000000000002
210
0
220
0
230
1
0
CIRCLE
5
124
100
AcDbEntity
8
0
100
AcDbCircle
10
54.093668760770868
20
58.593668760770896
30
0
40
1.0000000000000002
210
0
220
-0
230
1
0
CIRCLE
5
125
100
AcDbEntity
8
0
100
AcDbCircle
10
49.593668760770868
20
54.093668760770896
30
0
40
1.0000000000000002
210
0
220
0
230
1
0
CIRCLE
5
126
100
AcDbEntity
8
0
100
AcDbCircle
10
-49.593668760770868
20
54.093668760770896
30
0
40
1.0000000000000002
210
0
220
-0
230
1
0
CIRCLE
5
127
100
AcDbEntity
8
0
100
AcDbCircle
10
-54.093668760770868
20
58.593668760770896
30
0
40
1.0000000000000002
210
0
220
-0
230
1
0
CIRCLE
5
128
100
AcDbEntity
8
0
100
AcDbCircle
10
-54.093668760770868
20
49.593668760770896
30
0
40
1.0000000000000002
210
0
220
-0
230
1
0
CIRCLE
5
129
100
AcDbEntity
8
0
100
AcDbCircle
10
-58.593668760770868
20
54.093668760770896
30
0
40
1.0000000000000002
210
0
220
-0
230
1
0
CIRCLE
5
130
100
AcDbEntity
8
0
100
AcDbCircle
10
-54.093668760770868
20
54.093668760770896
30
0
40
2.0000000000000004
210
0
220
-0
230
1
0
ENDSEC
0
SECTION
2
OBJECTS
0
DICTIONARY
5
C
100
AcDbDictionary
3
ACAD_GROUP
350
D
3
ACAD_MLINESTYLE
350
17
0
DICTIONARY
5
D
100
AcDbDictionary
0
DICTIONARY
5
1A
330
C
100
AcDbDictionary
0
DICTIONARY
5
17
100
AcDbDictionary
0
ENDSEC
0
EOF
