0
SECTION
2
HEADER
9
$INSUNITS
70
4
9
$ACADVER
1
AC1014
9
$HANDSEED
5
FFFF
0
ENDSEC
0
SECTION
2
TABLES
0
TABLE
2
VPORT
5
8
100
AcDbSymbolTable
0
ENDTAB
0
TABLE
2
LTYPE
5
5
100
AcDbSymbolTable
0
LTYPE
5
14
100
AcDbSymbolTableRecord
100
AcDbLinetypeTableRecord
2
BYBLOCK
70
0
0
LTYPE
5
15
100
AcDbSymbolTableRecord
100
AcDbLinetypeTableRecord
2
BYLAYER
70
0
0
ENDTAB
0
TABLE
2
LAYER
5
2
100
AcDbSymbolTable
70
2
0
LAYER
5
50
100
AcDbSymbolTableRecord
100
AcDbLayerTableRecord
2
0
70
0
6
CONTINUOUS
0
ENDTAB
0
TABLE
2
STYLE
5
3
100
AcDbSymbolTable
70
1
0
STYLE
5
11
100
AcDbSymbolTableRecord
100
AcDbTextStyleTableRecord
2
STANDARD
70
0
0
ENDTAB
0
TABLE
2
VIEW
5
6
100
AcDbSymbolTable
70
0
0
ENDTAB
0
TABLE
2
UCS
5
7
100
AcDbSymbolTable
70
0
0
ENDTAB
0
TABLE
2
APPID
5
9
100
AcDbSymbolTable
70
2
0
APPID
5
12
100
AcDbSymbolTableRecord
100
AcDbRegAppTableRecord
2
ACAD
70
0
0
ENDTAB
0
TABLE
2
DIMSTYLE
5
A
100
AcDbSymbolTable
70
1
0
ENDTAB
0
TABLE
2
BLOCK_RECORD
5
1
100
AcDbSymbolTable
70
1
0
BLOCK_RECORD
5
1F
100
AcDbSymbolTableRecord
100
AcDbBlockTableRecord
2
*MODEL_SPACE
0
BLOCK_RECORD
5
1B
100
AcDbSymbolTableRecord
100
AcDbBlockTableRecord
2
*PAPER_SPACE
0
ENDTAB
0
ENDSEC
0
SECTION
2
BLOCKS
0
BLOCK
5
20
100
AcDbEntity
100
AcDbBlockBegin
2
*MODEL_SPACE
0
ENDBLK
5
21
100
AcDbEntity
100
AcDbBlockEnd
0
BLOCK
5
1C
100
AcDbEntity
100
AcDbBlockBegin
2
*PAPER_SPACE
0
ENDBLK
5
1D
100
AcDbEntity
100
AcDbBlockEnd
0
ENDSEC
0
SECTION
2
ENTITIES
0
CIRCLE
5
100
100
AcDbEntity
8
0
100
AcDbCircle
10
-62.710678118654741
20
-70.710678118654798
30
0
40
1.5000000000000004
210
-0
220
0
230
1
0
CIRCLE
5
101
100
AcDbEntity
8
0
100
AcDbCircle
10
-70.710678118654741
20
-78.710678118654783
30
0
40
1.5000000000000004
210
-0
220
0
230
1
0
CIRCLE
5
102
100
AcDbEntity
8
0
100
AcDbCircle
10
-78.710678118654741
20
-70.710678118654783
30
0
40
1.5000000000000004
210
-0
220
0
230
1
0
CIRCLE
5
103
100
AcDbEntity
8
0
100
AcDbCircle
10
-70.710678118654741
20
-70.710678118654783
30
0
40
3.0000000000000009
210
-0
220
0
230
1
0
CIRCLE
5
104
100
AcDbEntity
8
0
100
AcDbCircle
10
62.710678118654741
20
70.710678118654798
30
0
40
1.5000000000000004
210
0
220
0
230
1
0
CIRCLE
5
105
100
AcDbEntity
8
0
100
AcDbCircle
10
70.710678118654741
20
78.710678118654783
30
0
40
1.5000000000000004
210
0
220
0
230
1
0
CIRCLE
5
106
100
AcDbEntity
8
0
100
AcDbCircle
10
78.710678118654741
20
70.710678118654783
30
0
40
1.5000000000000004
210
0
220
0
230
1
0
CIRCLE
5
107
100
AcDbEntity
8
0
100
AcDbCircle
10
70.710678118654741
20
70.710678118654783
30
0
40
3.0000000000000009
210
0
220
0
230
1
0
CIRCLE
5
108
100
AcDbEntity
8
0
100
AcDbCircle
10
8.0000000000000036
20
7.9999999999999973
30
0
40
0.99999999999999978
210
0
220
0
230
1
0
CIRCLE
5
109
100
AcDbEntity
8
0
100
AcDbCircle
10
7.9999999999999982
20
-8.0000000000000018
30
0
40
0.99999999999999978
210
0
220
0
230
1
0
CIRCLE
5
110
100
AcDbEntity
8
0
100
AcDbCircle
10
-7.9999999999999991
20
8
30
0
40
0.99999999999999978
210
0
220
0
230
1
0
CIRCLE
5
111
100
AcDbEntity
8
0
100
AcDbCircle
10
-8.0000000000000036
20
-7.9999999999999973
30
0
40
0.99999999999999978
210
0
220
0
230
1
0
LWPOLYLINE
5
112
100
AcDbEntity
8
0
100
AcDbPolyline
90
8
70
1
43
0.0
10
-5.0000000745058042
20
11.499999999999993
10
-5.0000000745058042
20
-11.500000000000005
42
0.41421356237309509
10
-4.0000000745058042
20
-12.500000000000007
10
4.0000000745058086
20
-12.500000000000007
42
0.41421356237309509
10
5.0000000745058077
20
-11.500000000000005
10
5.0000000745058015
20
11.499999999999993
42
0.41421356237309509
10
4.0000000745058015
20
12.499999999999993
10
-4.0000000745058042
20
12.499999999999993
42
0.41421356237309509
0
CIRCLE
5
113
100
AcDbEntity
8
0
100
AcDbCircle
10
-18.384776310850238
20
4.649058915617843e-15
30
0
40
1.0000000000000009
210
0
220
0
230
1
0
CIRCLE
5
114
100
AcDbEntity
8
0
100
AcDbCircle
10
18.384776310850238
20
-6.9005446618301264e-15
30
0
40
1.0000000000000009
210
0
220
-0
230
1
0
CIRCLE
5
115
100
AcDbEntity
8
0
100
AcDbCircle
10
8.7312993081956596e-15
20
18.384776310850238
30
0
40
1.0000000000000009
210
0
220
-0
230
1
0
CIRCLE
5
116
100
AcDbEntity
8
0
100
AcDbCircle
10
-8.7312993081956596e-15
20
-18.384776310850238
30
0
40
1.0000000000000009
210
-0
220
0
230
1
0
LWPOLYLINE
5
117
100
AcDbEntity
8
0
100
AcDbPolyline
90
4
70
1
43
0.0
10
-12.5
20
8.4999999999999982
42
-0.99999999999999989
10
-9.4999999999999982
20
8.5
10
-9.4999999999999947
20
-8.5000000000000071
42
-0.99999999999999989
10
-12.499999999999998
20
-8.5000000000000036
0
LWPOLYLINE
5
118
100
AcDbEntity
8
0
100
AcDbPolyline
90
4
70
1
43
0.0
10
9.5000000000000071
20
8.5000000000000018
42
-0.99999999999999989
10
12.5
20
8.5000000000000036
10
12.5
20
-8.5000000000000089
42
-0.99999999999999989
10
9.5000000000000018
20
-8.5000000000000036
0
LINE
5
119
100
AcDbEntity
8
0
100
AcDbLine
10
-52.81765072553447
20
-57.767398193840251
30
0
11
-19.930015002026412
21
-24.879762470332199
31
0
0
SPLINE
5
120
100
AcDbEntity
8
0
100
AcDbSpline
70
4
71
5
72
21
73
15
74
0
42
0.000000001
43
0.0000000001
44
0.0000000001
40
-1
40
-1
40
-1
40
-1
40
-1
40
-1
40
-0.89999999999999991
40
-0.79999999999999993
40
-0.69999999999999996
40
-0.59999999999999998
40
-0.5
40
-0.40000000000000002
40
-0.30000000000000004
40
-0.20000000000000001
40
-0.10000000000000001
40
0
40
0
40
0
40
0
40
0
40
0
41
1
41
1
41
1
41
1
41
1
41
1
41
1
41
1
41
1
41
1
41
1
41
1
41
1
41
1
41
1
10
-19.930015002026412
20
-24.879762470332199
30
0
10
-19.581348519467269
20
-24.531095987773057
30
0
10
-18.76952576660657
20
-23.871268142417776
30
0
10
-17.208343836007728
20
-22.994036460659014
30
0
10
-14.474835893674765
20
-22.045485608378193
30
0
10
-10.170458608658697
20
-21.212116372736752
30
0
10
-5.2445959754835672
20
-20.717038914364142
30
0
10
-7.058750063654739e-14
20
-20.552468197115129
30
0
10
5.2445959754836604
20
-20.717038914364835
30
0
10
10.170458608659237
20
-21.212116372737082
30
0
10
14.474835893675412
20
-22.045485608377817
30
0
10
17.208343836008037
20
-22.99403646065862
30
0
10
18.769525766606584
20
-23.871268142417708
30
0
10
19.58134851946723
20
-24.531095987773064
30
0
10
19.930015002026373
20
-24.879762470332206
30
0
0
LINE
5
121
100
AcDbEntity
8
0
100
AcDbLine
10
19.930015002026373
20
-24.87976247033221
30
0
11
52.817650725534442
21
-57.767398193840279
31
0
0
ARC
5
122
100
AcDbEntity
8
0
100
AcDbCircle
10
45.746582913668973
20
-64.838466005705754
30
0
40
10.000000000000004
210
-0
220
0
230
1
100
AcDbArc
50
-17.495033015594139
51
45.000000000000028
0
ARC
5
123
100
AcDbEntity
8
0
100
AcDbCircle
10
60.052728144968476
20
-69.347812812169764
30
0
40
5.0000000000000133
210
0
220
0
230
1
100
AcDbArc
50
162.50496698440605
51
243.35850729923246
0
LINE
5
124
100
AcDbEntity
8
0
100
AcDbLine
10
57.810695631067837
20
-73.816961523793992
30
0
11
62.830870216721458
21
-76.335426531954894
31
0
0
ARC
5
125
100
AcDbEntity
8
0
100
AcDbCircle
10
60.58883770282084
20
-80.804575243579123
30
0
40
4.9999999999999956
210
0
220
-0
230
1
100
AcDbArc
50
26.212236182721593
51
63.358507299232656
0
LINE
5
126
100
AcDbEntity
8
0
100
AcDbLine
10
65.074658005239101
20
-78.596087929961016
30
0
11
70.33056356006054
21
-89.271742573765721
31
0
0
ARC
5
127
100
AcDbEntity
8
0
100
AcDbCircle
10
72.124891681027847
20
-88.388347648318472
30
0
40
2.0000000000000013
210
0
220
0
230
1
100
AcDbArc
50
206.21223618272171
51
335.04190021352042
0
LINE
5
128
100
AcDbEntity
8
0
100
AcDbLine
10
73.938124889023513
20
-89.232258386146697
30
0
11
78.422746113431771
21
-79.596566167908293
31
0
0
ARC
5
129
100
AcDbEntity
8
0
100
AcDbCircle
10
82.955829133420906
20
-81.706343012478854
30
0
40
4.9999999999999964
210
0
220
0
230
1
100
AcDbArc
50
135
51
155.04190021352031
0
LINE
5
130
100
AcDbEntity
8
0
100
AcDbLine
10
79.420295227488168
20
-78.170809106546116
30
0
11
86.250591400861737
21
-71.340512933172533
31
0
0
ARC
5
131
100
AcDbEntity
8
0
100
AcDbCircle
10
84.83637783848863
20
-69.926299370799441
30
0
40
2.0000000000000022
210
-0
220
0
230
1
100
AcDbArc
50
-44.999999999999694
51
66.853894970706506
0
LINE
5
132
100
AcDbEntity
8
0
100
AcDbLine
10
85.622532149809999
20
-68.087288386930439
30
0
11
65.059749426405887
21
-59.296954651805649
31
0
0
ARC
5
133
100
AcDbEntity
8
0
100
AcDbCircle
10
68.204366671691361
20
-51.940910716329654
30
0
40
8.0000000000000036
210
0
220
0
230
1
100
AcDbArc
50
224.99999988616355
51
246.85389497070645
0
LINE
5
134
100
AcDbEntity
8
0
100
AcDbLine
10
62.547512410959818
20
-57.597764954582885
30
0
11
24.879762470332196
21
-19.930015002026416
31
0
0
SPLINE
5
135
100
AcDbEntity
8
0
100
AcDbSpline
70
4
71
5
72
21
73
15
74
0
42
0.000000001
43
0.0000000001
44
0.0000000001
40
-1
40
-1
40
-1
40
-1
40
-1
40
-1
40
-0.89999999999999991
40
-0.79999999999999993
40
-0.69999999999999996
40
-0.59999999999999998
40
-0.5
40
-0.40000000000000002
40
-0.30000000000000004
40
-0.20000000000000001
40
-0.10000000000000001
40
0
40
0
40
0
40
0
40
0
40
0
41
1
41
1
41
1
41
1
41
1
41
1
41
1
41
1
41
1
41
1
41
1
41
1
41
1
41
1
41
1
10
24.879762470332199
20
-19.930015002026412
30
0
10
24.531095987773057
20
-19.581348519467269
30
0
10
23.871268142417776
20
-18.76952576660657
30
0
10
22.994036460659011
20
-17.208343836007732
30
0
10
22.045485608378186
20
-14.474835893674767
30
0
10
21.212116372736748
20
-10.170458608658699
30
0
10
20.717038914364142
20
-5.2445959754835689
30
0
10
20.552468197115129
20
-7.2634113878392604e-14
30
0
10
20.717038914364835
20
5.2445959754836577
30
0
10
21.212116372737086
20
10.170458608659235
30
0
10
22.04548560837782
20
14.474835893675408
30
0
10
22.994036460658624
20
17.208343836008034
30
0
10
23.871268142417708
20
18.769525766606584
30
0
10
24.531095987773064
20
19.581348519467227
30
0
10
24.879762470332206
20
19.930015002026369
30
0
0
LINE
5
136
100
AcDbEntity
8
0
100
AcDbLine
10
24.87976247033221
20
19.930015002026373
30
0
11
62.547512410959811
21
57.597764954582885
31
0
0
ARC
5
137
100
AcDbEntity
8
0
100
AcDbCircle
10
68.204366671691403
20
51.940910716329554
30
0
40
8.0000000000001066
210
0
220
0
230
1
100
AcDbArc
50
113.14610502929354
51
135.00000011383619
0
LINE
5
138
100
AcDbEntity
8
0
100
AcDbLine
10
65.059749426405887
20
59.296954651805649
30
0
11
85.622532149810013
21
68.087288386930439
31
0
0
ARC
5
139
100
AcDbEntity
8
0
100
AcDbCircle
10
84.836377838488644
20
69.926299370799427
30
0
40
2.0000000000000027
210
-0
220
0
230
1
100
AcDbArc
50
-66.853894970706349
51
45.000000000000291
0
LINE
5
140
100
AcDbEntity
8
0
100
AcDbLine
10
86.250591400861737
20
71.340512933172533
30
0
11
79.420295227488168
21
78.170809106546116
31
0
0
ARC
5
141
100
AcDbEntity
8
0
100
AcDbCircle
10
82.955829133420877
20
81.706343012478854
30
0
40
4.9999999999999716
210
0
220
0
230
1
100
AcDbArc
50
204.95809978647961
51
225.00000000000023
0
LINE
5
142
100
AcDbEntity
8
0
100
AcDbLine
10
78.422746113431756
20
79.596566167908307
30
0
11
73.938124889023499
21
89.232258386146697
31
0
0
ARC
5
143
100
AcDbEntity
8
0
100
AcDbCircle
10
72.124891681027847
20
88.388347648318458
30
0
40
2.0000000000000022
210
0
220
-0
230
1
100
AcDbArc
50
24.958099786480105
51
153.78776381727795
0
LINE
5
144
100
AcDbEntity
8
0
100
AcDbLine
10
70.33056356006054
20
89.271742573765721
30
0
11
65.074658005239101
21
78.596087929961016
31
0
0
ARC
5
145
100
AcDbEntity
8
0
100
AcDbCircle
10
60.588837702820904
20
80.804575243579052
30
0
40
4.9999999999999094
210
0
220
0
230
1
100
AcDbArc
50
296.64149270076706
51
333.78776381727886
0
LINE
5
146
100
AcDbEntity
8
0
100
AcDbLine
10
62.830870216721458
20
76.335426531954894
30
0
11
57.810695631067837
21
73.816961523793992
31
0
0
ARC
5
147
100
AcDbEntity
8
0
100
AcDbCircle
10
60.052728144968455
20
69.347812812169764
30
0
40
5.0000000000000009
210
0
220
0
230
1
100
AcDbArc
50
116.64149270076736
51
197.49503301559417
0
ARC
5
148
100
AcDbEntity
8
0
100
AcDbCircle
10
45.746582913668959
20
64.838466005705712
30
0
40
10.000000000000032
210
0
220
0
230
1
100
AcDbArc
50
-44.999999999999851
51
17.495033015594245
0
LINE
5
149
100
AcDbEntity
8
0
100
AcDbLine
10
52.817650725534477
20
57.767398193840236
30
0
11
19.930015002026408
21
24.879762470332203
31
0
0
SPLINE
5
150
100
AcDbEntity
8
0
100
AcDbSpline
70
4
71
5
72
21
73
15
74
0
42
0.000000001
43
0.0000000001
44
0.0000000001
40
-1
40
-1
40
-1
40
-1
40
-1
40
-1
40
-0.89999999999999991
40
-0.79999999999999993
40
-0.69999999999999996
40
-0.59999999999999998
40
-0.5
40
-0.40000000000000002
40
-0.30000000000000004
40
-0.20000000000000001
40
-0.10000000000000001
40
0
40
0
40
0
40
0
40
0
40
0
41
1
41
1
41
1
41
1
41
1
41
1
41
1
41
1
41
1
41
1
41
1
41
1
41
1
41
1
41
1
10
19.930015002026408
20
24.879762470332203
30
0
10
19.581348519467266
20
24.53109598777306
30
0
10
18.769525766606566
20
23.87126814241778
30
0
10
17.208343836007728
20
22.994036460659014
30
0
10
14.474835893674761
20
22.045485608378193
30
0
10
10.170458608658695
20
21.212116372736752
30
0
10
5.2445959754835645
20
20.717038914364142
30
0
10
6.807054919732991e-14
20
20.552468197115129
30
0
10
-5.2445959754836622
20
20.717038914364835
30
0
10
-10.170458608659239
20
21.212116372737082
30
0
10
-14.474835893675413
20
22.045485608377817
30
0
10
-17.208343836008041
20
22.99403646065862
30
0
10
-18.769525766606588
20
23.871268142417705
30
0
10
-19.581348519467234
20
24.53109598777306
30
0
10
-19.930015002026373
20
24.879762470332203
30
0
0
LINE
5
151
100
AcDbEntity
8
0
100
AcDbLine
10
-19.930015002026376
20
24.879762470332206
30
0
11
-52.817650725534442
21
57.767398193840279
31
0
0
ARC
5
152
100
AcDbEntity
8
0
100
AcDbCircle
10
-45.746582913668973
20
64.838466005705754
30
0
40
10.000000000000007
210
0
220
0
230
1
100
AcDbArc
50
162.50496698440588
51
225.00000000000003
0
ARC
5
153
100
AcDbEntity
8
0
100
AcDbCircle
10
-60.052728144968476
20
69.347812812169764
30
0
40
5.0000000000000133
210
0
220
0
230
1
100
AcDbArc
50
-17.495033015593989
51
63.358507299232443
0
LINE
5
154
100
AcDbEntity
8
0
100
AcDbLine
10
-57.810695631067837
20
73.816961523793992
30
0
11
-62.830870216721458
21
76.335426531954894
31
0
0
ARC
5
155
100
AcDbEntity
8
0
100
AcDbCircle
10
-60.58883770282084
20
80.804575243579123
30
0
40
4.9999999999999956
210
0
220
0
230
1
100
AcDbArc
50
206.21223618272157
51
243.35850729923263
0
LINE
5
156
100
AcDbEntity
8
0
100
AcDbLine
10
-65.074658005239101
20
78.596087929961016
30
0
11
-70.33056356006054
21
89.271742573765721
31
0
0
ARC
5
157
100
AcDbEntity
8
0
100
AcDbCircle
10
-72.124891681027847
20
88.388347648318472
30
0
40
2.0000000000000013
210
0
220
-0
230
1
100
AcDbArc
50
26.212236182721711
51
155.04190021352045
0
LINE
5
158
100
AcDbEntity
8
0
100
AcDbLine
10
-73.938124889023513
20
89.232258386146697
30
0
11
-78.422746113431771
21
79.596566167908293
31
0
0
ARC
5
159
100
AcDbEntity
8
0
100
AcDbCircle
10
-82.955829133420906
20
81.706343012478854
30
0
40
4.9999999999999964
210
-0
220
0
230
1
100
AcDbArc
50
315
51
335.04190021352031
0
LINE
5
160
100
AcDbEntity
8
0
100
AcDbLine
10
-79.420295227488168
20
78.170809106546116
30
0
11
-86.250591400861737
21
71.340512933172533
31
0
0
ARC
5
161
100
AcDbEntity
8
0
100
AcDbCircle
10
-84.83637783848863
20
69.926299370799441
30
0
40
2.0000000000000022
210
0
220
0
230
1
100
AcDbArc
50
135.00000000000031
51
246.85389497070651
0
LINE
5
162
100
AcDbEntity
8
0
100
AcDbLine
10
-85.622532149809999
20
68.087288386930439
30
0
11
-65.059749426405887
21
59.296954651805649
31
0
0
ARC
5
163
100
AcDbEntity
8
0
100
AcDbCircle
10
-68.204366671691361
20
51.940910716329654
30
0
40
8.0000000000000036
210
0
220
-0
230
1
100
AcDbArc
50
44.99999988616355
51
66.853894970706463
0
LINE
5
164
100
AcDbEntity
8
0
100
AcDbLine
10
-62.547512410959818
20
57.597764954582885
30
0
11
-24.879762470332199
21
19.930015002026416
31
0
0
SPLINE
5
165
100
AcDbEntity
8
0
100
AcDbSpline
70
4
71
5
72
21
73
15
74
0
42
0.000000001
43
0.0000000001
44
0.0000000001
40
-1
40
-1
40
-1
40
-1
40
-1
40
-1
40
-0.89999999999999991
40
-0.79999999999999993
40
-0.69999999999999996
40
-0.59999999999999998
40
-0.5
40
-0.40000000000000002
40
-0.30000000000000004
40
-0.20000000000000001
40
-0.10000000000000001
40
0
40
0
40
0
40
0
40
0
40
0
41
1
41
1
41
1
41
1
41
1
41
1
41
1
41
1
41
1
41
1
41
1
41
1
41
1
41
1
41
1
10
-24.879762470332199
20
19.930015002026412
30
0
10
-24.531095987773057
20
19.581348519467269
30
0
10
-23.871268142417776
20
18.76952576660657
30
0
10
-22.994036460659011
20
17.208343836007732
30
0
10
-22.045485608378186
20
14.474835893674767
30
0
10
-21.212116372736748
20
10.170458608658699
30
0
10
-20.717038914364142
20
5.2445959754835689
30
0
10
-20.552468197115129
20
7.2634113878392604e-14
30
0
10
-20.717038914364835
20
-5.2445959754836577
30
0
10
-21.212116372737086
20
-10.170458608659235
30
0
10
-22.04548560837782
20
-14.474835893675408
30
0
10
-22.994036460658624
20
-17.208343836008034
30
0
10
-23.871268142417708
20
-18.769525766606584
30
0
10
-24.531095987773064
20
-19.581348519467227
30
0
10
-24.879762470332206
20
-19.930015002026369
30
0
0
LINE
5
166
100
AcDbEntity
8
0
100
AcDbLine
10
-24.87976247033221
20
-19.930015002026373
30
0
11
-62.547512410959811
21
-57.597764954582885
31
0
0
ARC
5
167
100
AcDbEntity
8
0
100
AcDbCircle
10
-68.204366671691403
20
-51.940910716329554
30
0
40
8.0000000000001066
210
0
220
0
230
1
100
AcDbArc
50
293.14610502929355
51
315.00000011383617
0
LINE
5
168
100
AcDbEntity
8
0
100
AcDbLine
10
-65.059749426405887
20
-59.296954651805649
30
0
11
-85.622532149810013
21
-68.087288386930439
31
0
0
ARC
5
169
100
AcDbEntity
8
0
100
AcDbCircle
10
-84.836377838488644
20
-69.926299370799427
30
0
40
2.0000000000000027
210
0
220
0
230
1
100
AcDbArc
50
113.14610502929366
51
225.00000000000028
0
LINE
5
170
100
AcDbEntity
8
0
100
AcDbLine
10
-86.250591400861737
20
-71.340512933172533
30
0
11
-79.420295227488168
21
-78.170809106546116
31
0
0
ARC
5
171
100
AcDbEntity
8
0
100
AcDbCircle
10
-82.955829133420877
20
-81.706343012478854
30
0
40
4.9999999999999716
210
0
220
-0
230
1
100
AcDbArc
50
24.958099786479618
51
45.000000000000227
0
LINE
5
172
100
AcDbEntity
8
0
100
AcDbLine
10
-78.422746113431756
20
-79.596566167908307
30
0
11
-73.938124889023499
21
-89.232258386146697
31
0
0
ARC
5
173
100
AcDbEntity
8
0
100
AcDbCircle
10
-72.124891681027847
20
-88.388347648318458
30
0
40
2.0000000000000022
210
0
220
0
230
1
100
AcDbArc
50
204.95809978648009
51
333.78776381727789
0
LINE
5
174
100
AcDbEntity
8
0
100
AcDbLine
10
-70.33056356006054
20
-89.271742573765721
30
0
11
-65.074658005239101
21
-78.596087929961016
31
0
0
ARC
5
175
100
AcDbEntity
8
0
100
AcDbCircle
10
-60.588837702820904
20
-80.804575243579052
30
0
40
4.9999999999999094
210
0
220
0
230
1
100
AcDbArc
50
116.64149270076706
51
153.78776381727883
0
LINE
5
176
100
AcDbEntity
8
0
100
AcDbLine
10
-62.830870216721458
20
-76.335426531954894
30
0
11
-57.810695631067837
21
-73.816961523793992
31
0
0
ARC
5
177
100
AcDbEntity
8
0
100
AcDbCircle
10
-60.052728144968455
20
-69.347812812169764
30
0
40
5.0000000000000009
210
-0
220
0
230
1
100
AcDbArc
50
-63.358507299232642
51
17.495033015594185
0
ARC
5
178
100
AcDbEntity
8
0
100
AcDbCircle
10
-45.746582913668959
20
-64.838466005705712
30
0
40
10.000000000000018
210
0
220
0
230
1
100
AcDbArc
50
135.0000000000002
51
197.49503301559423
0
CIRCLE
5
179
100
AcDbEntity
8
0
100
AcDbCircle
10
-70.710678118654741
20
70.710678118654783
30
0
40
3.0000000000000009
210
-0
220
0
230
1
0
CIRCLE
5
180
100
AcDbEntity
8
0
100
AcDbCircle
10
-78.710678118654741
20
70.710678118654783
30
0
40
1.5000000000000004
210
-0
220
0
230
1
0
CIRCLE
5
181
100
AcDbEntity
8
0
100
AcDbCircle
10
-70.710678118654741
20
78.710678118654783
30
0
40
1.5000000000000004
210
-0
220
0
230
1
0
CIRCLE
5
182
100
AcDbEntity
8
0
100
AcDbCircle
10
-62.710678118654741
20
70.710678118654798
30
0
40
1.5000000000000004
210
-0
220
0
230
1
0
CIRCLE
5
183
100
AcDbEntity
8
0
100
AcDbCircle
10
70.710678118654741
20
-70.710678118654783
30
0
40
3.0000000000000009
210
0
220
-0
230
1
0
CIRCLE
5
184
100
AcDbEntity
8
0
100
AcDbCircle
10
78.710678118654741
20
-70.710678118654783
30
0
40
1.5000000000000004
210
0
220
-0
230
1
0
CIRCLE
5
185
100
AcDbEntity
8
0
100
AcDbCircle
10
70.710678118654741
20
-78.710678118654783
30
0
40
1.5000000000000004
210
0
220
-0
230
1
0
CIRCLE
5
186
100
AcDbEntity
8
0
100
AcDbCircle
10
62.710678118654741
20
-70.710678118654798
30
0
40
1.5000000000000004
210
0
220
-0
230
1
0
ENDSEC
0
SECTION
2
OBJECTS
0
DICTIONARY
5
C
100
AcDbDictionary
3
ACAD_GROUP
350
D
3
ACAD_MLINESTYLE
350
17
0
DICTIONARY
5
D
100
AcDbDictionary
0
DICTIONARY
5
1A
330
C
100
AcDbDictionary
0
DICTIONARY
5
17
100
AcDbDictionary
0
ENDSEC
0
EOF
