0
SECTION
2
HEADER
9
$INSUNITS
70
4
9
$ACADVER
1
AC1014
9
$HANDSEED
5
FFFF
0
ENDSEC
0
SECTION
2
TABLES
0
TABLE
2
VPORT
5
8
100
AcDbSymbolTable
0
ENDTAB
0
TABLE
2
LTYPE
5
5
100
AcDbSymbolTable
0
LTYPE
5
14
100
AcDbSymbolTableRecord
100
AcDbLinetypeTableRecord
2
BYBLOCK
70
0
0
LTYPE
5
15
100
AcDbSymbolTableRecord
100
AcDbLinetypeTableRecord
2
BYLAYER
70
0
0
ENDTAB
0
TABLE
2
LAYER
5
2
100
AcDbSymbolTable
70
2
0
LAYER
5
50
100
AcDbSymbolTableRecord
100
AcDbLayerTableRecord
2
0
70
0
6
CONTINUOUS
0
ENDTAB
0
TABLE
2
STYLE
5
3
100
AcDbSymbolTable
70
1
0
STYLE
5
11
100
AcDbSymbolTableRecord
100
AcDbTextStyleTableRecord
2
STANDARD
70
0
0
ENDTAB
0
TABLE
2
VIEW
5
6
100
AcDbSymbolTable
70
0
0
ENDTAB
0
TABLE
2
UCS
5
7
100
AcDbSymbolTable
70
0
0
ENDTAB
0
TABLE
2
APPID
5
9
100
AcDbSymbolTable
70
2
0
APPID
5
12
100
AcDbSymbolTableRecord
100
AcDbRegAppTableRecord
2
ACAD
70
0
0
ENDTAB
0
TABLE
2
DIMSTYLE
5
A
100
AcDbSymbolTable
70
1
0
ENDTAB
0
TABLE
2
BLOCK_RECORD
5
1
100
AcDbSymbolTable
70
1
0
BLOCK_RECORD
5
1F
100
AcDbSymbolTableRecord
100
AcDbBlockTableRecord
2
*MODEL_SPACE
0
BLOCK_RECORD
5
1B
100
AcDbSymbolTableRecord
100
AcDbBlockTableRecord
2
*PAPER_SPACE
0
ENDTAB
0
ENDSEC
0
SECTION
2
BLOCKS
0
BLOCK
5
20
100
AcDbEntity
100
AcDbBlockBegin
2
*MODEL_SPACE
0
ENDBLK
5
21
100
AcDbEntity
100
AcDbBlockEnd
0
BLOCK
5
1C
100
AcDbEntity
100
AcDbBlockBegin
2
*PAPER_SPACE
0
ENDBLK
5
1D
100
AcDbEntity
100
AcDbBlockEnd
0
ENDSEC
0
SECTION
2
ENTITIES
0
CIRCLE
5
100
100
AcDbEntity
8
0
100
AcDbCircle
10
-62.710678118654741
20
-70.710678118654798
30
0
40
1.5000000000000004
210
-0
220
0
230
1
0
CIRCLE
5
101
100
AcDbEntity
8
0
100
AcDbCircle
10
-70.710678118654741
20
-78.710678118654783
30
0
40
1.5000000000000004
210
-0
220
0
230
1
0
CIRCLE
5
102
100
AcDbEntity
8
0
100
AcDbCircle
10
-78.710678118654741
20
-70.710678118654783
30
0
40
1.5000000000000004
210
-0
220
0
230
1
0
CIRCLE
5
103
100
AcDbEntity
8
0
100
AcDbCircle
10
-70.710678118654741
20
-70.710678118654783
30
0
40
3.0000000000000009
210
-0
220
0
230
1
0
CIRCLE
5
104
100
AcDbEntity
8
0
100
AcDbCircle
10
-62.710678118654741
20
70.710678118654798
30
0
40
1.5000000000000004
210
-0
220
0
230
1
0
CIRCLE
5
105
100
AcDbEntity
8
0
100
AcDbCircle
10
-70.710678118654741
20
78.710678118654783
30
0
40
1.5000000000000004
210
-0
220
0
230
1
0
CIRCLE
5
106
100
AcDbEntity
8
0
100
AcDbCircle
10
-78.710678118654741
20
70.710678118654783
30
0
40
1.5000000000000004
210
-0
220
0
230
1
0
CIRCLE
5
107
100
AcDbEntity
8
0
100
AcDbCircle
10
-70.710678118654741
20
70.710678118654783
30
0
40
3.0000000000000009
210
-0
220
0
230
1
0
LWPOLYLINE
5
108
100
AcDbEntity
8
0
100
AcDbPolyline
90
8
70
1
43
0.0
10
4
20
-10.13477631085024
10
-4
20
-10.13477631085024
42
0.41421356237309509
10
-5
20
-11.13477631085024
10
-5
20
-15.13477631085024
42
0.41421356237309509
10
-4
20
-16.134776310850242
10
4
20
-16.134776310850242
42
0.41421356237309509
10
5
20
-15.13477631085024
10
5
20
-11.13477631085024
42
0.41421356237309509
0
CIRCLE
5
109
100
AcDbEntity
8
0
100
AcDbCircle
10
8.7312993081956596e-15
20
18.384776310850238
30
0
40
1.0000000000000009
210
0
220
-0
230
1
0
CIRCLE
5
110
100
AcDbEntity
8
0
100
AcDbCircle
10
18.384776310850238
20
-6.9005446618301264e-15
30
0
40
1.0000000000000009
210
0
220
-0
230
1
0
CIRCLE
5
111
100
AcDbEntity
8
0
100
AcDbCircle
10
-8.7312993081956596e-15
20
-18.384776310850238
30
0
40
1.0000000000000009
210
-0
220
0
230
1
0
CIRCLE
5
112
100
AcDbEntity
8
0
100
AcDbCircle
10
-18.384776310850238
20
4.649058915617843e-15
30
0
40
1.0000000000000009
210
0
220
0
230
1
0
CIRCLE
5
113
100
AcDbEntity
8
0
100
AcDbCircle
10
-7.9999999999999991
20
8
30
0
40
0.99999999999999978
210
0
220
0
230
1
0
CIRCLE
5
114
100
AcDbEntity
8
0
100
AcDbCircle
10
8.0000000000000036
20
7.9999999999999973
30
0
40
0.99999999999999978
210
0
220
0
230
1
0
CIRCLE
5
115
100
AcDbEntity
8
0
100
AcDbCircle
10
-8.0000000000000036
20
-7.9999999999999973
30
0
40
0.99999999999999978
210
0
220
0
230
1
0
CIRCLE
5
116
100
AcDbEntity
8
0
100
AcDbCircle
10
7.9999999999999982
20
-8.0000000000000018
30
0
40
0.99999999999999978
210
0
220
0
230
1
0
LWPOLYLINE
5
117
100
AcDbEntity
8
0
100
AcDbPolyline
90
12
70
1
43
0.0
10
7.6337010522000561
20
-2.3930332729905319
42
-0.30681888136948621
10
9.3898477618954637
20
-0.99709720698465754
42
0.92655032088913214
10
9.3898477618954637
20
0.99709720698465898
42
-0.30681888136948721
10
7.6337010522000543
20
2.3930332729905399
42
0.24557446264763866
10
2.3930332729905328
20
7.6337010522000597
42
-0.30681888136948615
10
0.99709720698466042
20
9.3898477618954637
42
0.92655032088913303
10
-0.99709720698465676
20
9.3898477618954637
42
-0.30681888136948715
10
-2.3930332729905386
20
7.6337010522000543
42
0.24557446264763874
10
-7.6337010522000597
20
2.3930332729905328
42
-0.30681888136948615
10
-9.3898477618954637
20
0.99709720698466042
42
0.92655032088913303
10
-9.3898477618954637
20
-0.99709720698465731
42
-0.30681888136948648
10
-7.6337010522000543
20
-2.3930332729905333
42
0.73450174282021741
0
CIRCLE
5
118
100
AcDbEntity
8
0
100
AcDbCircle
10
70.710678118654741
20
70.710678118654783
30
0
40
3.0000000000000009
210
0
220
0
230
1
0
CIRCLE
5
119
100
AcDbEntity
8
0
100
AcDbCircle
10
78.710678118654741
20
70.710678118654783
30
0
40
1.5000000000000004
210
0
220
0
230
1
0
CIRCLE
5
120
100
AcDbEntity
8
0
100
AcDbCircle
10
70.710678118654741
20
78.710678118654783
30
0
40
1.5000000000000004
210
0
220
0
230
1
0
CIRCLE
5
121
100
AcDbEntity
8
0
100
AcDbCircle
10
62.710678118654741
20
70.710678118654798
30
0
40
1.5000000000000004
210
0
220
0
230
1
0
LWPOLYLINE
5
122
100
AcDbEntity
8
0
100
AcDbPolyline
90
70
70
1
43
0.0
10
-14.422582088979334
20
-19.372329557285131
10
-52.817650725534463
20
-57.767398193840265
42
0.27965205329089771
10
-55.284013067868628
20
-67.844697210015099
42
-0.36819362136371969
10
-57.810695631067837
20
-73.816961523793992
10
-62.830870216721458
20
-76.335426531954894
42
0.16351556616903878
10
-65.074658005239101
20
-78.596087929961016
10
-70.33056356006054
20
-89.271742573765721
42
-0.62991438589925342
10
-73.938124889023499
20
-89.232258386146697
10
-78.422746113431756
20
-79.596566167908307
42
0.087672890030372569
10
-79.420295227488168
20
-78.170809106546116
10
-86.250591400861737
20
-71.340512933172533
42
-0.5308919734503047
10
-85.622532149810013
20
-68.087288386930439
10
-65.059749426405887
20
-59.296954651805649
42
0.095645673986421237
10
-62.547512410959811
20
-57.597764954582885
10
-18.437200750353121
20
-13.487453282047287
42
0.41030271603683877
10
-18.362071417808096
20
-2.2498854388239202
42
-1.0052645002012546
10
-18.383853587605653
20
2.2499998107959507
42
0.41086226878025478
10
-18.448283511915466
20
13.498536043609679
10
-62.547512410959818
20
57.597764954582885
42
0.095645673986422278
10
-65.059749426405887
20
59.296954651805649
10
-85.622532149809999
20
68.087288386930439
42
-0.5308919734503007
10
-86.250591400861737
20
71.340512933172533
10
-79.420295227488168
20
78.170809106546116
42
0.087672890030371514
10
-78.422746113431771
20
79.596566167908293
10
-73.938124889023513
20
89.232258386146697
42
-0.62991438589925963
10
-70.33056356006054
20
89.271742573765721
10
-65.074658005239101
20
78.596087929961016
42
0.16351556616903631
10
-62.830870216721458
20
76.335426531954894
10
-57.810695631067844
20
73.816961523793992
42
-0.36819362136371797
10
-55.284013067868642
20
67.844697210015113
42
0.27965205329089854
10
-52.817650725534442
20
57.767398193840279
10
-13.487453282047293
20
18.437200750353121
42
0.41030271603683899
10
-2.2498854388239149
20
18.362071417808096
42
-1.0052645002012546
10
2.2499998107959529
20
18.383853587605653
42
0.41086226878025517
10
13.498536043609679
20
18.44828351191547
10
52.81765072553447
20
57.767398193840236
42
0.27965205329089832
10
55.284013067868628
20
67.844697210015084
42
-0.36819362136372025
10
57.810695631067837
20
73.816961523793992
10
62.830870216721458
20
76.335426531954894
42
0.16351556616903878
10
65.074658005239101
20
78.596087929961016
10
70.33056356006054
20
89.271742573765721
42
-0.62991438589925342
10
73.938124889023499
20
89.232258386146697
10
78.422746113431756
20
79.596566167908307
42
0.087672890030372569
10
79.420295227488168
20
78.170809106546116
10
86.250591400861737
20
71.340512933172533
42
-0.5308919734503047
10
85.622532149810013
20
68.087288386930439
10
65.059749426405887
20
59.296954651805649
42
0.095645673986421237
10
62.547512410959811
20
57.597764954582885
10
18.437200750353128
20
13.487453282047287
42
0.41030271603683882
10
18.362071417808096
20
2.249885438823918
42
-1.0052645002012546
10
18.383853587605653
20
-2.2499998107959529
42
0.410862268780255
10
18.448283511915466
20
-13.498536043609679
10
62.547512410959818
20
-57.597764954582885
42
0.095645673986422278
10
65.059749426405887
20
-59.296954651805649
10
85.622532149809999
20
-68.087288386930439
42
-0.5308919734503007
10
86.250591400861737
20
-71.340512933172533
10
79.420295227488168
20
-78.170809106546116
42
0.087672890030371514
10
78.422746113431771
20
-79.596566167908293
10
73.938124889023513
20
-89.232258386146697
42
-0.62991438589925963
10
70.33056356006054
20
-89.271742573765721
10
65.074658005239101
20
-78.596087929961016
42
0.16351556616903631
10
62.830870216721458
20
-76.335426531954894
10
57.81069563106783
20
-73.816961523794021
42
-0.36819362136371747
10
55.284013067868614
20
-67.844697210015113
42
0.27965205329089832
10
52.817650725534442
20
-57.7673981938403
10
14.422582088979315
20
-19.372329557285152
42
0.30932869548876124
10
6.6532325818701814
20
-17.915061781128365
10
0.90630065532963033
20
-20.444174067998944
42
-0.21030796097347917
10
-0.90630065532963044
20
-20.444174067998947
10
-6.6532325818702054
20
-17.915061781128351
42
0.30932869548876091
0
CIRCLE
5
123
100
AcDbEntity
8
0
100
AcDbCircle
10
62.710678118654741
20
-70.710678118654798
30
0
40
1.5000000000000004
210
0
220
-0
230
1
0
CIRCLE
5
124
100
AcDbEntity
8
0
100
AcDbCircle
10
70.710678118654741
20
-78.710678118654783
30
0
40
1.5000000000000004
210
0
220
-0
230
1
0
CIRCLE
5
125
100
AcDbEntity
8
0
100
AcDbCircle
10
78.710678118654741
20
-70.710678118654783
30
0
40
1.5000000000000004
210
0
220
-0
230
1
0
CIRCLE
5
126
100
AcDbEntity
8
0
100
AcDbCircle
10
70.710678118654741
20
-70.710678118654783
30
0
40
3.0000000000000009
210
0
220
-0
230
1
0
ENDSEC
0
SECTION
2
OBJECTS
0
DICTIONARY
5
C
100
AcDbDictionary
3
ACAD_GROUP
350
D
3
ACAD_MLINESTYLE
350
17
0
DICTIONARY
5
D
100
AcDbDictionary
0
DICTIONARY
5
1A
330
C
100
AcDbDictionary
0
DICTIONARY
5
17
100
AcDbDictionary
0
ENDSEC
0
EOF
