0
SECTION
2
HEADER
9
$INSUNITS
70
4
9
$ACADVER
1
AC1014
9
$HANDSEED
5
FFFF
0
ENDSEC
0
SECTION
2
TABLES
0
TABLE
2
VPORT
5
8
100
AcDbSymbolTable
0
ENDTAB
0
TABLE
2
LTYPE
5
5
100
AcDbSymbolTable
0
LTYPE
5
14
100
AcDbSymbolTableRecord
100
AcDbLinetypeTableRecord
2
BYBLOCK
70
0
0
LTYPE
5
15
100
AcDbSymbolTableRecord
100
AcDbLinetypeTableRecord
2
BYLAYER
70
0
0
ENDTAB
0
TABLE
2
LAYER
5
2
100
AcDbSymbolTable
70
2
0
LAYER
5
50
100
AcDbSymbolTableRecord
100
AcDbLayerTableRecord
2
0
70
0
6
CONTINUOUS
0
ENDTAB
0
TABLE
2
STYLE
5
3
100
AcDbSymbolTable
70
1
0
STYLE
5
11
100
AcDbSymbolTableRecord
100
AcDbTextStyleTableRecord
2
STANDARD
70
0
0
ENDTAB
0
TABLE
2
VIEW
5
6
100
AcDbSymbolTable
70
0
0
ENDTAB
0
TABLE
2
UCS
5
7
100
AcDbSymbolTable
70
0
0
ENDTAB
0
TABLE
2
APPID
5
9
100
AcDbSymbolTable
70
2
0
APPID
5
12
100
AcDbSymbolTableRecord
100
AcDbRegAppTableRecord
2
ACAD
70
0
0
ENDTAB
0
TABLE
2
DIMSTYLE
5
A
100
AcDbSymbolTable
70
1
0
ENDTAB
0
TABLE
2
BLOCK_RECORD
5
1
100
AcDbSymbolTable
70
1
0
BLOCK_RECORD
5
1F
100
AcDbSymbolTableRecord
100
AcDbBlockTableRecord
2
*MODEL_SPACE
0
BLOCK_RECORD
5
1B
100
AcDbSymbolTableRecord
100
AcDbBlockTableRecord
2
*PAPER_SPACE
0
ENDTAB
0
ENDSEC
0
SECTION
2
BLOCKS
0
BLOCK
5
20
100
AcDbEntity
100
AcDbBlockBegin
2
*MODEL_SPACE
0
ENDBLK
5
21
100
AcDbEntity
100
AcDbBlockEnd
0
BLOCK
5
1C
100
AcDbEntity
100
AcDbBlockBegin
2
*PAPER_SPACE
0
ENDBLK
5
1D
100
AcDbEntity
100
AcDbBlockEnd
0
ENDSEC
0
SECTION
2
ENTITIES
0
LWPOLYLINE
5
100
100
AcDbEntity
8
0
100
AcDbPolyline
90
4
70
1
43
0.0
10
-60.09366875677307
20
-55.09366876237393
42
-0.99999999999999989
10
-60.09366875677307
20
-53.093668762373937
10
-58.593668756773063
20
-53.093668762373923
42
-0.99999999999999989
10
-58.593668756773063
20
-55.093668762373923
0
CIRCLE
5
101
100
AcDbEntity
8
0
100
AcDbCircle
10
-54.093668756773063
20
-54.093668762373923
30
0
40
2.5
210
0
220
-0
230
1
0
LWPOLYLINE
5
102
100
AcDbEntity
8
0
100
AcDbPolyline
90
4
70
1
43
0.0
10
-48.093668756773056
20
-53.093668762373923
42
-0.99999999999999989
10
-48.093668756773056
20
-55.093668762373923
10
-49.593668756773056
20
-55.093668762373923
42
-0.99999999999999989
10
-49.593668756773056
20
-53.093668762373923
0
LWPOLYLINE
5
103
100
AcDbEntity
8
0
100
AcDbPolyline
90
4
70
1
43
0.0
10
-53.093668756773056
20
-60.09366876237393
42
-0.99999999999999989
10
-55.093668756773049
20
-60.09366876237393
10
-55.093668756773056
20
-58.593668762373923
42
-0.99999999999999989
10
-53.093668756773063
20
-58.593668762373923
0
LWPOLYLINE
5
104
100
AcDbEntity
8
0
100
AcDbPolyline
90
4
70
1
43
0.0
10
-53.093668756773063
20
-49.593668762373923
42
-0.99999999999999989
10
-55.093668756773056
20
-49.593668762373923
10
-55.093668756773056
20
-48.093668762373916
42
-0.99999999999999989
10
-53.093668756773063
20
-48.093668762373916
0
CIRCLE
5
105
100
AcDbEntity
8
0
100
AcDbCircle
10
-7.9999999960021828
20
-8.0000000016030235
30
0
40
0.99999999999999978
210
0
220
-0
230
1
0
CIRCLE
5
106
100
AcDbEntity
8
0
100
AcDbCircle
10
8.000000003997819
20
-8.0000000016030146
30
0
40
0.99999999999999978
210
0
220
-0
230
1
0
CIRCLE
5
107
100
AcDbEntity
8
0
100
AcDbCircle
10
-7.9999999960021917
20
7.9999999983969747
30
0
40
0.99999999999999978
210
0
220
-0
230
1
0
LWPOLYLINE
5
108
100
AcDbEntity
8
0
100
AcDbPolyline
90
12
70
1
43
0.0
10
-9.3898477578976483
20
-0.99709720858767947
42
-0.30681888136948599
10
-7.6337010482022452
20
-2.3930332745935541
42
0.7345017428202183
10
7.6337010561978698
20
-2.3930332745935528
42
-0.30681888136948637
10
9.3898477658932773
20
-0.99709720858767814
42
0.92655032088913425
10
9.3898477658932755
20
0.99709720538163982
42
-0.30681888136948676
10
7.633701056197868
20
2.3930332713875186
42
0.24557446264763871
10
2.393033276988346
20
7.6337010505970371
42
-0.30681888136948637
10
0.99709721098247139
20
9.3898477602924437
42
0.92655032088913425
10
-0.99709720298684656
20
9.3898477602924419
42
-0.30681888136948676
10
-2.3930332689927258
20
7.6337010505970344
42
0.24557446264763838
10
-7.6337010482022452
20
2.3930332713875129
42
-0.30681888136948637
10
-9.3898477578976518
20
0.99709720538163849
42
0.92655032088913325
0
CIRCLE
5
109
100
AcDbEntity
8
0
100
AcDbCircle
10
8.0000000039978101
20
7.9999999983969827
30
0
40
0.99999999999999978
210
0
220
-0
230
1
0
CIRCLE
5
110
100
AcDbEntity
8
0
100
AcDbCircle
10
-18.384776306852427
20
-1.6030307830186796e-09
30
0
40
1.0000000000000009
210
0
220
0
230
1
0
CIRCLE
5
111
100
AcDbEntity
8
0
100
AcDbCircle
10
3.9978257275868476e-09
20
-18.384776312453258
30
0
40
1.0000000000000009
210
0
220
0
230
1
0
CIRCLE
5
112
100
AcDbEntity
8
0
100
AcDbCircle
10
-24.38477630685243
20
-1.6030306292496468e-09
30
0
40
1.5000000000000002
210
0
220
-0
230
1
0
CIRCLE
5
113
100
AcDbEntity
8
0
100
AcDbCircle
10
24.38477631484805
20
-1.6030089712177434e-09
30
0
40
1.5000000000000002
210
-0
220
0
230
1
0
CIRCLE
5
114
100
AcDbEntity
8
0
100
AcDbCircle
10
3.9978074995392872e-09
20
24.384776309247222
30
0
40
1.5000000000000002
210
-0
220
0
230
1
0
CIRCLE
5
115
100
AcDbEntity
8
0
100
AcDbCircle
10
18.384776314848054
20
-1.6030110689344568e-09
30
0
40
1.0000000000000009
210
-0
220
0
230
1
0
CIRCLE
5
116
100
AcDbEntity
8
0
100
AcDbCircle
10
3.9978213148289716e-09
20
-24.384776312453262
30
0
40
1.5000000000000002
210
0
220
0
230
1
0
CIRCLE
5
117
100
AcDbEntity
8
0
100
AcDbCircle
10
3.9978001005075858e-09
20
18.384776309247219
30
0
40
1.0000000000000009
210
0
220
-0
230
1
0
LWPOLYLINE
5
118
100
AcDbEntity
8
0
100
AcDbPolyline
90
8
70
1
43
0.0
10
4.0000000039978154
20
-10.134776312453262
42
-0.41421356237309515
10
5.0000000039978154
20
-11.13477631245326
10
5.0000000039978172
20
-15.13477631245326
42
-0.41421356237309509
10
4.0000000039978172
20
-16.134776312453262
10
-3.9999999960021837
20
-16.134776312453262
42
-0.41421356237309509
10
-4.9999999960021837
20
-15.13477631245326
10
-4.9999999960021855
20
-11.13477631245326
42
-0.41421356237309509
10
-3.9999999960021846
20
-10.13477631245326
0
LWPOLYLINE
5
119
100
AcDbEntity
8
0
100
AcDbPolyline
90
4
70
1
43
0.0
10
53.093668764768694
20
49.593668759167883
42
-0.99999999999999989
10
55.093668764768687
20
49.593668759167883
10
55.093668764768687
20
48.093668759167876
42
-0.99999999999999989
10
53.093668764768694
20
48.093668759167876
0
LWPOLYLINE
5
120
100
AcDbEntity
8
0
100
AcDbPolyline
90
4
70
1
43
0.0
10
53.093668764768687
20
60.09366875916789
42
-0.99999999999999989
10
55.09366876476868
20
60.09366875916789
10
55.093668764768687
20
58.593668759167883
42
-0.99999999999999989
10
53.093668764768694
20
58.593668759167883
0
LWPOLYLINE
5
121
100
AcDbEntity
8
0
100
AcDbPolyline
90
4
70
1
43
0.0
10
48.093668764768687
20
53.093668759167883
42
-0.99999999999999989
10
48.093668764768687
20
55.093668759167883
10
49.593668764768694
20
55.093668759167883
42
-0.99999999999999989
10
49.593668764768694
20
53.093668759167883
0
CIRCLE
5
122
100
AcDbEntity
8
0
100
AcDbCircle
10
54.093668764768694
20
54.093668759167883
30
0
40
2.5
210
0
220
0
230
1
0
LWPOLYLINE
5
123
100
AcDbEntity
8
0
100
AcDbPolyline
90
4
70
1
43
0.0
10
60.093668764768694
20
55.09366875916789
42
-0.99999999999999989
10
60.093668764768694
20
53.093668759167898
10
58.593668764768694
20
53.093668759167883
42
-0.99999999999999989
10
58.593668764768694
20
55.093668759167883
0
LWPOLYLINE
5
124
100
AcDbEntity
8
0
100
AcDbPolyline
90
4
70
1
43
0.0
10
-60.093668756773084
20
53.093668759167862
42
-0.99999999999999989
10
-60.093668756773084
20
55.093668759167855
10
-58.593668756773084
20
55.093668759167862
42
-0.99999999999999989
10
-58.593668756773084
20
53.093668759167869
0
CIRCLE
5
125
100
AcDbEntity
8
0
100
AcDbCircle
10
-54.093668756773077
20
54.093668759167869
30
0
40
2.5
210
-0
220
0
230
1
0
LWPOLYLINE
5
126
100
AcDbEntity
8
0
100
AcDbPolyline
90
4
70
1
43
0.0
10
-48.09366875677307
20
55.093668759167862
42
-0.99999999999999989
10
-48.09366875677307
20
53.093668759167869
10
-49.593668756773077
20
53.093668759167869
42
-0.99999999999999989
10
-49.593668756773077
20
55.093668759167862
0
LWPOLYLINE
5
127
100
AcDbEntity
8
0
100
AcDbPolyline
90
4
70
1
43
0.0
10
-55.093668756773084
20
60.093668759167869
42
-0.99999999999999989
10
-53.093668756773091
20
60.093668759167869
10
-53.093668756773084
20
58.593668759167869
42
-0.99999999999999989
10
-55.093668756773077
20
58.593668759167869
0
LWPOLYLINE
5
128
100
AcDbEntity
8
0
100
AcDbPolyline
90
4
70
1
43
0.0
10
-55.093668756773077
20
49.593668759167862
42
-0.99999999999999989
10
-53.093668756773084
20
49.593668759167862
10
-53.093668756773084
20
48.093668759167862
42
-0.99999999999999989
10
-55.093668756773077
20
48.093668759167862
0
LINE
5
129
100
AcDbEntity
8
0
100
AcDbLine
10
-42.081707331793595
20
-46.32434800484522
30
0
11
-13.94611410877439
21
-18.188754801494525
31
0
0
ARC
5
130
100
AcDbEntity
8
0
100
AcDbCircle
10
-10.410580202841652
20
-21.724288707427259
30
0
40
5
210
0
220
-0
230
1
100
AcDbArc
50
66.24664466843042
51
135.00000000000003
0
LINE
5
131
100
AcDbEntity
8
0
100
AcDbLine
10
-8.3965787465535886
20
-17.147849247096822
30
0
11
-5.9972884004805413
21
-18.203729979910037
31
0
0
SPLINE
5
132
100
AcDbEntity
8
0
100
AcDbSpline
70
0
71
3
72
12
73
8
74
0
42
0.000000001
43
0.0000000001
44
0.0000000001
40
0
40
0
40
0
40
0
40
0.19532223669346394
40
0.19532223669346394
40
0.39064447338692776
40
0.39064447338692776
40
0.57269303672551175
40
0.57269303672551175
40
0.57269303672551175
40
0.57269303672551175
10
-3.0117998355274862
20
-22.708758464120038
30
0
10
-3.0210986032476903
20
-22.057750748603059
30
0
10
-3.1574647527797479
20
-21.414783277782643
30
0
10
-3.6689805321607438
20
-20.217310247431122
30
0
10
-4.0392397923611609
20
-19.674253182743406
30
0
10
-4.9355525054108869
20
-18.791675911621326
30
0
10
-5.441865581174433
20
-18.448160694362738
30
0
10
-5.9972884004805405
20
-18.203729979910033
30
0
0
SPLINE
5
133
100
AcDbEntity
8
0
100
AcDbSpline
70
4
71
5
72
12
73
6
74
0
42
0.000000001
43
0.0000000001
44
0.0000000001
40
0
40
0
40
0
40
0
40
0
40
0
40
0.042713320328143366
40
0.042713320328143366
40
0.042713320328143366
40
0.042713320328143366
40
0.042713320328143366
40
0.042713320328143366
41
1
41
1
41
1
41
1
41
1
41
1
10
-2.9999999960021695
20
-24.384776312453262
30
0
10
-2.9999999994090865
20
-24.05060624714374
30
0
10
-3.0011592329602594
20
-23.715894814818363
30
0
10
-3.0034777731806988
20
-23.380642137602081
30
0
10
-3.0069985205168765
20
-23.04489903785899
30
0
10
-3.0117998355274862
20
-22.708758464120031
30
0
0
ARC
5
134
100
AcDbEntity
8
0
100
AcDbCircle
10
3.9978213148289716e-09
20
-24.384776312453262
30
0
40
2.9999999999999911
210
0
220
0
230
1
100
AcDbArc
50
-180
51
0
0
SPLINE
5
135
100
AcDbEntity
8
0
100
AcDbSpline
70
4
71
5
72
12
73
6
74
0
42
0.000000001
43
0.0000000001
44
0.0000000001
40
0.95728667967186942
40
0.95728667967186942
40
0.95728667967186942
40
0.95728667967186942
40
0.95728667967186942
40
0.95728667967186942
40
1
40
1
40
1
40
1
40
1
40
1
41
1
41
1
41
1
41
1
41
1
41
1
10
3.011799843523066
20
-22.708758464120478
30
0
10
3.0069985285124838
20
-23.044899037859359
30
0
10
3.0034777811763274
20
-23.380642137602365
30
0
10
3.0011592409559018
20
-23.715894814818558
30
0
10
3.0000000074047373
20
-24.05060624714384
30
0
10
3.0000000039978207
20
-24.384776312453262
30
0
0
SPLINE
5
136
100
AcDbEntity
8
0
100
AcDbSpline
70
0
71
3
72
12
73
8
74
0
42
0.000000001
43
0.0000000001
44
0.0000000001
40
0
40
0
40
0
40
0
40
0.19532223669346399
40
0.19532223669346399
40
0.39064447338692787
40
0.39064447338692787
40
0.57269303672555227
40
0.57269303672555227
40
0.57269303672555227
40
0.57269303672555227
10
5.9972884084761198
20
-18.203729979910058
30
0
10
5.4013681474868065
20
-18.465982826007444
30
0
10
4.8623690214731559
20
-18.842124870224684
30
0
10
3.9588903285481929
20
-19.779843539339041
30
0
10
3.6030485103751761
20
-20.332455062663264
30
0
10
3.1395225702132241
20
-21.50184072268873
30
0
10
3.0204666872625694
20
-22.10199181359198
30
0
10
3.0117998435230628
20
-22.708758464120471
30
0
0
LINE
5
137
100
AcDbEntity
8
0
100
AcDbLine
10
5.9972884084761198
20
-18.203729979910058
30
0
11
8.3965787545492638
21
-17.147849247096801
31
0
0
ARC
5
138
100
AcDbEntity
8
0
100
AcDbCircle
10
10.410580210837335
20
-21.724288707427238
30
0
40
4.9999999999999991
210
0
220
-0
230
1
100
AcDbArc
50
45.000000000000057
51
113.75335533156965
0
LINE
5
139
100
AcDbEntity
8
0
100
AcDbLine
10
13.946114116770069
20
-18.188754801494497
30
0
11
42.081707339789247
21
-46.324348004845206
31
0
0
ARC
5
140
100
AcDbEntity
8
0
100
AcDbCircle
10
38.546173433856509
20
-49.859881910777943
30
0
40
4.9999999999999982
210
-0
220
0
230
1
100
AcDbArc
50
-41.297780289118478
51
45
0
ARC
5
141
100
AcDbEntity
8
0
100
AcDbCircle
10
43.053911647285339
20
-53.819717286042106
30
0
40
1.0000000000000062
210
0
220
0
230
1
100
AcDbArc
50
138.70221971088191
51
243.43494907905421
0
LINE
5
142
100
AcDbEntity
8
0
100
AcDbLine
10
42.606698055783781
20
-54.714144479041231
30
0
11
46.057418604247431
21
-56.439504733990645
31
0
0
ARC
5
143
100
AcDbEntity
8
0
100
AcDbCircle
10
41.585282689231853
20
-65.383776663981834
30
0
40
10.000000000000032
210
0
220
-0
230
1
100
AcDbArc
50
17.467614833590559
51
63.434949079054121
0
LINE
5
144
100
AcDbEntity
8
0
100
AcDbLine
10
51.124150345867406
20
-62.382109822176645
30
0
11
52.66283861627339
21
-67.271840944832945
31
0
0
ARC
5
145
100
AcDbEntity
8
0
100
AcDbCircle
10
54.093668764768722
20
-66.82159091856218
30
0
40
1.4999999999999993
210
0
220
0
230
1
100
AcDbArc
50
197.46761483359009
51
324.59406858159025
0
LINE
5
146
100
AcDbEntity
8
0
100
AcDbLine
10
55.316270498613406
20
-67.690639248863761
30
0
11
59.97142494821432
21
-61.141636503041994
31
0
0
ARC
5
147
100
AcDbEntity
8
0
100
AcDbCircle
10
68.122103173845673
20
-66.935292038385995
30
0
40
10.000000000000169
210
0
220
0
230
1
100
AcDbArc
50
135
51
144.59406858159008
0
LINE
5
148
100
AcDbEntity
8
0
100
AcDbLine
10
61.051035361980077
20
-59.864224226520399
30
0
11
65.840532573231116
21
-55.074727015269346
31
0
0
ARC
5
149
100
AcDbEntity
8
0
100
AcDbCircle
10
65.133425792044576
20
-54.367620234082786
30
0
40
1.0000000000000042
210
-0
220
0
230
1
100
AcDbArc
50
-45.00000000000086
51
63.43494882292201
0
LINE
5
150
100
AcDbEntity
8
0
100
AcDbLine
10
65.580639387544537
20
-53.473193043082865
30
0
11
61.317733410781045
21
-51.341740054701134
31
0
0
ARC
5
151
100
AcDbEntity
8
0
100
AcDbCircle
10
65.789869365780532
20
-42.397468144702053
30
0
40
9.9999999999998774
210
0
220
0
230
1
100
AcDbArc
50
206.56505130514387
51
243.43494882292228
0
LINE
5
152
100
AcDbEntity
8
0
100
AcDbLine
10
56.845597465777473
20
-46.869604119693562
30
0
11
54.714144437956371
21
-42.606698087872232
31
0
0
ARC
5
153
100
AcDbEntity
8
0
100
AcDbCircle
10
53.819717247956056
20
-43.053911685371389
30
0
40
0.99999999999999689
210
0
220
-0
230
1
100
AcDbArc
50
26.565051305144003
51
131.29777964646723
0
ARC
5
154
100
AcDbEntity
8
0
100
AcDbCircle
10
49.859881923252367
20
-38.546173427527563
30
0
40
4.9999999999999991
210
0
220
0
230
1
100
AcDbArc
50
224.99999988616355
51
311.29777964646763
0
LINE
5
155
100
AcDbEntity
8
0
100
AcDbLine
10
46.324348010295154
20
-42.081707326435833
30
0
11
46.315494171716693
21
-42.072853482202568
31
0
0
LINE
5
156
100
AcDbEntity
8
0
100
AcDbLine
10
46.315494171716693
20
-42.072853482202568
30
0
11
15.900438267284089
21
-11.657797577769999
31
0
0
SPLINE
5
157
100
AcDbEntity
8
0
100
AcDbSpline
70
0
71
3
72
18
73
14
74
0
42
0.000000001
43
0.0000000001
44
0.0000000001
40
0
40
0
40
0
40
0
40
0.19532223669346382
40
0.19532223669346382
40
0.39064447338692776
40
0.39064447338692776
40
0.58596671008039147
40
0.58596671008039147
40
0.7812889467738553
40
0.7812889467738553
40
0.97661118346731901
40
0.97661118346731901
40
1.1534863124989292
40
1.1534863124989292
40
1.1534863124989292
40
1.1534863124989292
10
19.154794982862228
20
-3.1301759935583293
30
0
10
18.504751162134678
20
-3.1667894320431591
30
0
10
17.868073533332439
20
-3.3300208391134767
30
0
10
16.693124008781435
20
-3.8913439775394365
30
0
10
16.166085270884345
20
-4.2840691537469784
30
0
10
15.292210704232028
20
-5.2494360750433415
30
0
10
14.953729592632428
20
-5.8128483861989455
30
0
10
14.511783886510123
20
-7.0377051304001021
30
0
10
14.412544533816972
20
-7.6874392653725874
30
0
10
14.468704600340116
20
-8.9883758886956127
30
0
10
14.623567098710858
20
-9.6271407138619445
30
0
10
15.143646969910886
20
-10.753528265749315
30
0
10
15.483539590079097
20
-11.240898900565004
30
0
10
15.900438267284088
20
-11.657797577769994
30
0
0
SPLINE
5
158
100
AcDbEntity
8
0
100
AcDbSpline
70
4
71
5
72
13
73
7
74
0
42
0.000000001
43
0.0000000001
44
0.0000000001
40
0
40
0
40
0
40
0
40
0
40
0
40
0.10000000000000001
40
0.13290289206941133
40
0.13290289206941133
40
0.13290289206941133
40
0.13290289206941133
40
0.13290289206941133
40
0.13290289206941133
41
1
41
1
41
1
41
1
41
1
41
1
41
1
10
24.38477631484805
20
-3.0000000016030053
30
0
10
23.602420687277373
20
-3.0000000095792463
30
0
10
22.558703771128169
20
-3.0084445880803163
30
0
10
21.509748383778597
20
-3.0281139760756188
30
0
10
20.45913389504895
20
-3.0620306836392257
30
0
10
19.413310354153349
20
-3.11561522651103
30
0
10
19.154794982862221
20
-3.1301759935583293
30
0
0
ARC
5
159
100
AcDbEntity
8
0
100
AcDbCircle
10
24.38477631484805
20
-1.6030089712177434e-09
30
0
40
2.9999999999999964
210
0
220
0
230
1
100
AcDbArc
50
-90
51
90
0
SPLINE
5
160
100
AcDbEntity
8
0
100
AcDbSpline
70
4
71
5
72
13
73
7
74
0
42
0.000000001
43
0.0000000001
44
0.0000000001
40
0.86709710793060724
40
0.86709710793060724
40
0.86709710793060724
40
0.86709710793060724
40
0.86709710793060724
40
0.86709710793060724
40
0.89999999999999991
40
1
40
1
40
1
40
1
40
1
40
1
41
1
41
1
41
1
41
1
41
1
41
1
41
1
10
19.154794982862452
20
3.1301759903518023
30
0
10
19.413310354153463
20
3.1156152233045469
30
0
10
20.459133895049067
20
3.0620306804328949
30
0
10
21.509748383778717
20
3.0281139728694355
30
0
10
22.558703771128272
20
3.0084445848742507
30
0
10
23.602420687277366
20
3.0000000063732286
30
0
10
24.38477631484805
20
2.9999999983969907
30
0
0
SPLINE
5
161
100
AcDbEntity
8
0
100
AcDbSpline
70
0
71
3
72
18
73
14
74
0
42
0.000000001
43
0.0000000001
44
0.0000000001
40
0
40
0
40
0
40
0
40
0.19532223669346363
40
0.19532223669346363
40
0.3906444733869272
40
0.3906444733869272
40
0.58596671008039081
40
0.58596671008039081
40
0.78128894677385441
40
0.78128894677385441
40
0.9766111834673179
40
0.9766111834673179
40
1.1534863124990025
40
1.1534863124990025
40
1.1534863124990025
40
1.1534863124990025
10
15.90043826728358
20
11.657797574563507
30
0
10
15.440059340342005
20
11.197418647621934
30
0
10
15.074004128604662
20
10.65151895241106
30
0
10
14.571749435989844
20
9.4501321392982298
30
0
10
14.440351783723727
20
8.8061309341360428
30
0
10
14.431807826955501
20
7.5040107201090356
30
0
10
14.554743207336912
20
6.8583406902006647
30
0
10
15.041189357768673
20
5.6504664443848531
30
0
10
15.40004943748726
20
5.099810164609738
30
0
10
16.308645290290851
20
4.167048872936939
30
0
10
16.849694391800053
20
3.7938615673818257
30
0
10
17.987970824651057
20
3.300344848424027
30
0
10
18.566144214707069
20
3.1633314915682096
30
0
10
19.154794982862452
20
3.1301759903518067
30
0
0
LINE
5
162
100
AcDbEntity
8
0
100
AcDbLine
10
15.90043826728358
20
11.657797574563507
30
0
11
46.315494171716637
21
42.072853478996599
31
0
0
LINE
5
163
100
AcDbEntity
8
0
100
AcDbLine
10
46.315494171716637
20
42.072853478996599
30
0
11
46.324348010295139
21
42.081707323229807
31
0
0
ARC
5
164
100
AcDbEntity
8
0
100
AcDbCircle
10
49.859881923252345
20
38.546173424321537
30
0
40
5.0000000000000009
210
0
220
-0
230
1
100
AcDbArc
50
48.702220353532411
51
135.00000011383636
0
ARC
5
165
100
AcDbEntity
8
0
100
AcDbCircle
10
53.819717247956042
20
43.053911682165371
30
0
40
1.0000000000000124
210
0
220
0
230
1
100
AcDbArc
50
228.70222035353265
51
333.43494869485551
0
LINE
5
166
100
AcDbEntity
8
0
100
AcDbLine
10
54.71414443795635
20
42.606698084666206
30
0
11
56.845597465777459
21
46.869604116487551
31
0
0
ARC
5
167
100
AcDbEntity
8
0
100
AcDbCircle
10
65.789869365780604
20
42.39746814149597
30
0
40
10
210
0
220
0
230
1
100
AcDbArc
50
116.56505117707802
51
153.43494869485599
0
LINE
5
168
100
AcDbEntity
8
0
100
AcDbLine
10
61.317733410781024
20
51.341740051495123
30
0
11
65.580639387544522
21
53.473193039876875
31
0
0
ARC
5
169
100
AcDbEntity
8
0
100
AcDbCircle
10
65.133425792044548
20
54.367620230876781
30
0
40
1.0000000000000009
210
0
220
0
230
1
100
AcDbArc
50
-63.434948822920944
51
45
0
LINE
5
170
100
AcDbEntity
8
0
100
AcDbLine
10
65.840532573231101
20
55.074727012063335
30
0
11
61.051035361980055
21
59.86422422331438
31
0
0
ARC
5
171
100
AcDbEntity
8
0
100
AcDbCircle
10
68.122103173845517
20
66.935292035179856
30
0
40
9.9999999999999964
210
0
220
0
230
1
100
AcDbArc
50
215.40593141840969
51
225.00000000000006
0
LINE
5
172
100
AcDbEntity
8
0
100
AcDbLine
10
59.971424948214285
20
61.141636499835982
30
0
11
55.316270498613363
21
67.690639245657735
31
0
0
ARC
5
173
100
AcDbEntity
8
0
100
AcDbCircle
10
54.09366876476868
20
66.821590915356154
30
0
40
1.4999999999999987
210
0
220
-0
230
1
100
AcDbArc
50
35.40593141840975
51
162.53238516640985
0
LINE
5
174
100
AcDbEntity
8
0
100
AcDbLine
10
52.662838616273355
20
67.27184094162692
30
0
11
51.124150345867378
21
62.382109818970626
31
0
0
ARC
5
175
100
AcDbEntity
8
0
100
AcDbCircle
10
41.585282689231839
20
65.38377666077578
30
0
40
10
210
-0
220
0
230
1
100
AcDbArc
50
296.56505092094591
51
342.53238516640965
0
LINE
5
176
100
AcDbEntity
8
0
100
AcDbLine
10
46.057418604247403
20
56.43950473078462
30
0
11
42.606698055783767
21
54.714144475835198
31
0
0
ARC
5
177
100
AcDbEntity
8
0
100
AcDbCircle
10
43.053911647285332
20
53.819717282836088
30
0
40
1.0000000000000007
210
0
220
0
230
1
100
AcDbArc
50
116.56505092094649
51
221.29778028911815
0
ARC
5
178
100
AcDbEntity
8
0
100
AcDbCircle
10
38.546173433856488
20
49.859881907571918
30
0
40
4.9999999999999964
210
0
220
0
230
1
100
AcDbArc
50
-44.999999999999851
51
41.297780289118407
0
LINE
5
179
100
AcDbEntity
8
0
100
AcDbLine
10
42.081707339789233
20
46.324348001639194
30
0
11
11.65779758016479
21
15.900438261683245
31
0
0
SPLINE
5
180
100
AcDbEntity
8
0
100
AcDbSpline
70
0
71
3
72
18
73
14
74
0
42
0.000000001
43
0.0000000001
44
0.0000000001
40
0
40
0
40
0
40
0
40
0.19532223669346382
40
0.19532223669346382
40
0.39064447338692787
40
0.39064447338692787
40
0.58596671008039147
40
0.58596671008039147
40
0.7812889467738553
40
0.7812889467738553
40
0.97661118346731923
40
0.97661118346731923
40
1.1534863124989287
40
1.1534863124989287
40
1.1534863124989287
40
1.1534863124989287
10
3.1301759959531212
20
19.154794977261382
30
0
10
3.166789434437951
20
18.504751156533832
30
0
10
3.3300208415082695
20
17.868073527731593
30
0
10
3.8913439799342298
20
16.693124003180589
30
0
10
4.2840691561417721
20
16.166085265283499
30
0
10
5.2494360774381352
20
15.29221069863118
30
0
10
5.8128483885937401
20
14.953729587031583
30
0
10
7.0377051327948967
20
14.511783880909279
30
0
10
7.687439267767382
20
14.412544528216124
30
0
10
8.9883758910904081
20
14.468704594739275
30
0
10
9.6271407162567382
20
14.623567093110015
30
0
10
10.753528268144109
20
15.143646964310044
30
0
10
11.240898902959797
20
15.483539584478255
30
0
10
11.657797580164786
20
15.900438261683243
30
0
0
SPLINE
5
181
100
AcDbEntity
8
0
100
AcDbSpline
70
4
71
5
72
13
73
7
74
0
42
0.000000001
43
0.0000000001
44
0.0000000001
40
0
40
0
40
0
40
0
40
0
40
0
40
0.10000000000000001
40
0.13290289206941161
40
0.13290289206941161
40
0.13290289206941161
40
0.13290289206941161
40
0.13290289206941161
40
0.13290289206941161
41
1
41
1
41
1
41
1
41
1
41
1
41
1
10
3.0000000039977959
20
24.384776309247222
30
0
10
3.0000000119740373
20
23.602420681676541
30
0
10
3.0084445904751074
20
22.558703765527337
30
0
10
3.0281139784704099
20
21.509748378177761
30
0
10
3.0620306860340172
20
20.459133889448111
30
0
10
3.1156152289058223
20
19.413310348552503
30
0
10
3.1301759959531221
20
19.154794977261378
30
0
0
ARC
5
182
100
AcDbEntity
8
0
100
AcDbCircle
10
3.9978074995392872e-09
20
24.384776309247222
30
0
40
2.9999999999999885
210
0
220
0
230
1
100
AcDbArc
50
0
51
180
0
SPLINE
5
183
100
AcDbEntity
8
0
100
AcDbSpline
70
4
71
5
72
13
73
7
74
0
42
0.000000001
43
0.0000000001
44
0.0000000001
40
0.86709710793060701
40
0.86709710793060701
40
0.86709710793060701
40
0.86709710793060701
40
0.86709710793060701
40
0.86709710793060701
40
0.89999999999999991
40
1
40
1
40
1
40
1
40
1
40
1
41
1
41
1
41
1
41
1
41
1
41
1
41
1
10
-3.130175987957005
20
19.154794977261602
30
0
10
-3.1156152209097501
20
19.413310348552621
30
0
10
-3.0620306780380968
20
20.459133889448225
30
0
10
-3.0281139704746369
20
21.509748378177882
30
0
10
-3.0084445824794521
20
22.558703765527433
30
0
10
-3.00000000397843
20
23.602420681676538
30
0
10
-2.9999999960021917
20
24.384776309247222
30
0
0
SPLINE
5
184
100
AcDbEntity
8
0
100
AcDbSpline
70
0
71
3
72
18
73
14
74
0
42
0.000000001
43
0.0000000001
44
0.0000000001
40
0
40
0
40
0
40
0
40
0.19532223669346382
40
0.19532223669346382
40
0.39064447338692776
40
0.39064447338692776
40
0.58596671008039158
40
0.58596671008039158
40
0.78128894677385541
40
0.78128894677385541
40
0.97661118346731923
40
0.97661118346731923
40
1.1534863124990031
40
1.1534863124990031
40
1.1534863124990031
40
1.1534863124990031
10
-11.657797572168709
20
15.900438261682728
30
0
10
-11.197418645227135
20
15.440059334741154
30
0
10
-10.651518950016259
20
15.074004123003808
30
0
10
-9.450132136903429
20
14.571749430388994
30
0
10
-8.8061309317412384
20
14.440351778122878
30
0
10
-7.5040107177142303
20
14.431807821354655
30
0
10
-6.8583406878058568
20
14.554743201736065
30
0
10
-5.6504664419900452
20
15.041189352167827
30
0
10
-5.0998101622149319
20
15.400049431886416
30
0
10
-4.167048870542132
20
16.308645284690012
30
0
10
-3.7938615649870195
20
16.849694386199214
30
0
10
-3.3003448460292235
20
17.987970819050222
30
0
10
-3.1633314891734066
20
18.566144209106231
30
0
10
-3.1301759879570037
20
19.154794977261609
30
0
0
LINE
5
185
100
AcDbEntity
8
0
100
AcDbLine
10
-11.657797572168709
20
15.900438261682728
30
0
11
-42.081707331793623
21
46.324348001639166
31
0
0
ARC
5
186
100
AcDbEntity
8
0
100
AcDbCircle
10
-38.546173425860886
20
49.859881907571904
30
0
40
4.9999999999999982
210
0
220
0
230
1
100
AcDbArc
50
138.70221971088159
51
225
0
ARC
5
187
100
AcDbEntity
8
0
100
AcDbCircle
10
-43.053911639289709
20
53.819717282836066
30
0
40
0.99999999999999967
210
-0
220
0
230
1
100
AcDbArc
50
-41.297780289118634
51
63.434949079054221
0
LINE
5
188
100
AcDbEntity
8
0
100
AcDbLine
10
-42.60669804778815
20
54.714144475835191
30
0
11
-46.0574185962518
21
56.439504730784606
31
0
0
ARC
5
189
100
AcDbEntity
8
0
100
AcDbCircle
10
-41.585282681236222
20
65.383776660775794
30
0
40
10.000000000000032
210
0
220
0
230
1
100
AcDbArc
50
197.46761483359055
51
243.43494907905412
0
LINE
5
190
100
AcDbEntity
8
0
100
AcDbLine
10
-51.124150337871782
20
62.382109818970605
30
0
11
-52.66283860827776
21
67.271840941626905
31
0
0
ARC
5
191
100
AcDbEntity
8
0
100
AcDbCircle
10
-54.093668756773084
20
66.821590915356126
30
0
40
1.4999999999999993
210
0
220
-0
230
1
100
AcDbArc
50
17.467614833590709
51
144.5940685815898
0
LINE
5
192
100
AcDbEntity
8
0
100
AcDbLine
10
-55.316270490617768
20
67.690639245657721
30
0
11
-59.971424940218689
21
61.141636499835954
31
0
0
ARC
5
193
100
AcDbEntity
8
0
100
AcDbCircle
10
-68.122103165850035
20
66.935292035179955
30
0
40
10.000000000000169
210
0
220
0
230
1
100
AcDbArc
50
314.99999999999994
51
324.59406858159002
0
LINE
5
194
100
AcDbEntity
8
0
100
AcDbLine
10
-61.051035353984446
20
59.864224223314359
30
0
11
-65.840532565235492
21
55.074727012063306
31
0
0
ARC
5
195
100
AcDbEntity
8
0
100
AcDbCircle
10
-65.133425784048939
20
54.367620230876746
30
0
40
1.0000000000000042
210
0
220
0
230
1
100
AcDbArc
50
134.99999999999972
51
243.43494882292202
0
LINE
5
196
100
AcDbEntity
8
0
100
AcDbLine
10
-65.580639379548899
20
53.473193039876826
30
0
11
-61.317733402785414
21
51.341740051495094
31
0
0
ARC
5
197
100
AcDbEntity
8
0
100
AcDbCircle
10
-65.789869357784895
20
42.397468141496013
30
0
40
9.9999999999998774
210
0
220
-0
230
1
100
AcDbArc
50
26.565051305143918
51
63.434948822922308
0
LINE
5
198
100
AcDbEntity
8
0
100
AcDbLine
10
-56.845597457781842
20
46.869604116487523
30
0
11
-54.71414442996074
21
42.606698084666192
31
0
0
ARC
5
199
100
AcDbEntity
8
0
100
AcDbCircle
10
-53.819717239960426
20
43.053911682165349
30
0
40
0.99999999999999689
210
0
220
0
230
1
100
AcDbArc
50
206.56505130514398
51
311.29777964646723
0
ARC
5
200
100
AcDbEntity
8
0
100
AcDbCircle
10
-49.859881915256736
20
38.546173424321523
30
0
40
4.9999999999999991
210
0
220
-0
230
1
100
AcDbArc
50
44.999999886163572
51
131.2977796464676
0
LINE
5
201
100
AcDbEntity
8
0
100
AcDbLine
10
-46.324348002299523
20
42.081707323229793
30
0
11
-46.315494163721063
21
42.072853478996528
31
0
0
LINE
5
202
100
AcDbEntity
8
0
100
AcDbLine
10
-46.315494163721063
20
42.072853478996528
30
0
11
-15.900438259288459
21
11.657797574563965
31
0
0
SPLINE
5
203
100
AcDbEntity
8
0
100
AcDbSpline
70
0
71
3
72
18
73
14
74
0
42
0.000000001
43
0.0000000001
44
0.0000000001
40
0
40
0
40
0
40
0
40
0.19532223669346385
40
0.19532223669346385
40
0.39064447338692765
40
0.39064447338692765
40
0.58596671008039114
40
0.58596671008039114
40
0.78128894677385508
40
0.78128894677385508
40
0.97661118346731879
40
0.97661118346731879
40
1.1534863124989283
40
1.1534863124989283
40
1.1534863124989283
40
1.1534863124989283
10
-19.154794974866597
20
3.1301759903522925
30
0
10
-18.504751154139047
20
3.1667894288371228
30
0
10
-17.868073525336808
20
3.3300208359074417
30
0
10
-16.693124000785804
20
3.8913439743334028
30
0
10
-16.166085262888718
20
4.2840691505409456
30
0
10
-15.292210696236399
20
5.2494360718373088
30
0
10
-14.9537295846368
20
5.8128483829929145
30
0
10
-14.5117838785145
20
7.0377051271940703
30
0
10
-14.412544525821344
20
7.6874392621665564
30
0
10
-14.468704592344494
20
8.9883758854895817
30
0
10
-14.623567090715234
20
9.6271407106559117
30
0
10
-15.143646961915264
20
10.753528262543281
30
0
10
-15.483539582083473
20
11.240898897358971
30
0
10
-15.900438259288464
20
11.657797574563959
30
0
0
SPLINE
5
204
100
AcDbEntity
8
0
100
AcDbSpline
70
4
71
5
72
13
73
7
74
0
42
0.000000001
43
0.0000000001
44
0.0000000001
40
0
40
0
40
0
40
0
40
0
40
0
40
0.10000000000000001
40
0.13290289206941144
40
0.13290289206941144
40
0.13290289206941144
40
0.13290289206941144
40
0.13290289206941144
40
0.13290289206941144
41
1
41
1
41
1
41
1
41
1
41
1
41
1
10
-24.38477630685243
20
2.9999999983969685
30
0
10
-23.602420679281749
20
3.0000000063732091
30
0
10
-22.558703763132545
20
3.0084445848742787
30
0
10
-21.509748375782969
20
3.0281139728695812
30
0
10
-20.459133887053319
20
3.0620306804331889
30
0
10
-19.413310346157711
20
3.1156152233049927
30
0
10
-19.154794974866586
20
3.1301759903522925
30
0
0
ARC
5
205
100
AcDbEntity
8
0
100
AcDbCircle
10
-24.38477630685243
20
-1.6030306292496468e-09
30
0
40
2.9999999999999987
210
0
220
-0
230
1
100
AcDbArc
50
90
51
270
0
SPLINE
5
206
100
AcDbEntity
8
0
100
AcDbSpline
70
4
71
5
72
13
73
7
74
0
42
0.000000001
43
0.0000000001
44
0.0000000001
40
0.86709710793060724
40
0.86709710793060724
40
0.86709710793060724
40
0.86709710793060724
40
0.86709710793060724
40
0.86709710793060724
40
0.89999999999999991
40
1
40
1
40
1
40
1
40
1
40
1
41
1
41
1
41
1
41
1
41
1
41
1
41
1
10
-19.154794974866824
20
-3.1301759935578422
30
0
10
-19.413310346157836
20
-3.1156152265105868
30
0
10
-20.459133887053444
20
-3.0620306836389348
30
0
10
-21.509748375783097
20
-3.0281139760754754
30
0
10
-22.558703763132648
20
-3.0084445880802906
30
0
10
-23.602420679281746
20
-3.0000000095792685
30
0
10
-24.38477630685243
20
-3.0000000016030306
30
0
0
SPLINE
5
207
100
AcDbEntity
8
0
100
AcDbSpline
70
0
71
3
72
18
73
14
74
0
42
0.000000001
43
0.0000000001
44
0.0000000001
40
0
40
0
40
0
40
0
40
0.1953222366934638
40
0.1953222366934638
40
0.39064447338692748
40
0.39064447338692748
40
0.58596671008039125
40
0.58596671008039125
40
0.78128894677385485
40
0.78128894677385485
40
0.97661118346731857
40
0.97661118346731857
40
1.1534863124990009
40
1.1534863124990009
40
1.1534863124990009
40
1.1534863124990009
10
-15.900438259287938
20
-11.657797577769538
30
0
10
-15.440059332346365
20
-11.197418650827961
30
0
10
-15.074004120609024
20
-10.651518955617085
30
0
10
-14.571749427994209
20
-9.4501321425042555
30
0
10
-14.440351775728097
20
-8.8061309373420666
30
0
10
-14.431807818959875
20
-7.5040107233150577
30
0
10
-14.554743199341289
20
-6.8583406934066868
30
0
10
-15.041189349773052
20
-5.6504664475908761
30
0
10
-15.400049429491641
20
-5.0998101678157628
30
0
10
-16.308645282295238
20
-4.1670488761429638
30
0
10
-16.84969438380444
20
-3.7938615705878536
30
0
10
-17.987970816655444
20
-3.3003448516300624
30
0
10
-18.566144206711449
20
-3.1633314947742464
30
0
10
-19.154794974866828
20
-3.1301759935578439
30
0
0
LINE
5
208
100
AcDbEntity
8
0
100
AcDbLine
10
-15.900438259287938
20
-11.657797577769538
30
0
11
-46.315494163721013
21
-42.072853482202639
31
0
0
LINE
5
209
100
AcDbEntity
8
0
100
AcDbLine
10
-46.315494163721013
20
-42.072853482202639
30
0
11
-46.324348002299509
21
-42.081707326435847
31
0
0
ARC
5
210
100
AcDbEntity
8
0
100
AcDbCircle
10
-49.859881915256715
20
-38.546173427527577
30
0
40
5.0000000000000009
210
0
220
0
230
1
100
AcDbArc
50
228.7022203535324
51
315.00000011383639
0
ARC
5
211
100
AcDbEntity
8
0
100
AcDbCircle
10
-53.819717239960411
20
-43.053911685371411
30
0
40
1.0000000000000124
210
0
220
-0
230
1
100
AcDbArc
50
48.702220353532688
51
153.43494869485548
0
LINE
5
212
100
AcDbEntity
8
0
100
AcDbLine
10
-54.714144429960719
20
-42.606698087872246
30
0
11
-56.845597457781821
21
-46.869604119693591
31
0
0
ARC
5
213
100
AcDbEntity
8
0
100
AcDbCircle
10
-65.78986935778498
20
-42.39746814470201
30
0
40
10
210
-0
220
0
230
1
100
AcDbArc
50
296.56505117707803
51
333.43494869485596
0
LINE
5
214
100
AcDbEntity
8
0
100
AcDbLine
10
-61.317733402785393
20
-51.341740054701162
30
0
11
-65.580639379548884
21
-53.473193043082915
31
0
0
ARC
5
215
100
AcDbEntity
8
0
100
AcDbCircle
10
-65.13342578404891
20
-54.367620234082821
30
0
40
1.0000000000000009
210
0
220
0
230
1
100
AcDbArc
50
116.56505117707908
51
224.99999999999943
0
LINE
5
216
100
AcDbEntity
8
0
100
AcDbLine
10
-65.840532565235478
20
-55.074727015269374
30
0
11
-61.051035353984425
21
-59.86422422652042
31
0
0
ARC
5
217
100
AcDbEntity
8
0
100
AcDbCircle
10
-68.122103165849893
20
-66.93529203838591
30
0
40
9.9999999999999964
210
0
220
-0
230
1
100
AcDbArc
50
35.405931418409779
51
45.000000000000092
0
LINE
5
218
100
AcDbEntity
8
0
100
AcDbLine
10
-59.971424940218654
20
-61.141636503042022
30
0
11
-55.31627049061774
21
-67.690639248863775
31
0
0
ARC
5
219
100
AcDbEntity
8
0
100
AcDbCircle
10
-54.093668756773056
20
-66.821590918562194
30
0
40
1.4999999999999987
210
0
220
0
230
1
100
AcDbArc
50
215.40593141840972
51
342.53238516640994
0
LINE
5
220
100
AcDbEntity
8
0
100
AcDbLine
10
-52.662838608277724
20
-67.27184094483296
30
0
11
-51.12415033787174
21
-62.382109822176666
31
0
0
ARC
5
221
100
AcDbEntity
8
0
100
AcDbCircle
10
-41.585282681236208
20
-65.38377666398182
30
0
40
10
210
0
220
0
230
1
100
AcDbArc
50
116.56505092094588
51
162.5323851664096
0
LINE
5
222
100
AcDbEntity
8
0
100
AcDbLine
10
-46.057418596251772
20
-56.43950473399066
30
0
11
-42.606698047788136
21
-54.714144479041238
31
0
0
ARC
5
223
100
AcDbEntity
8
0
100
AcDbCircle
10
-43.053911639289701
20
-53.819717286042128
30
0
40
1.0000000000000007
210
0
220
0
230
1
100
AcDbArc
50
-63.434949079053496
51
41.297780289118123
0
ARC
5
224
100
AcDbEntity
8
0
100
AcDbCircle
10
-38.546173425860871
20
-49.859881910777958
30
0
40
4.9999999999999964
210
0
220
0
230
1
100
AcDbArc
50
134.99999999999991
51
221.29778028911855
0
LWPOLYLINE
5
225
100
AcDbEntity
8
0
100
AcDbPolyline
90
4
70
1
43
0.0
10
60.093668764768715
20
-53.093668762373902
42
-0.99999999999999989
10
60.093668764768715
20
-55.093668762373895
10
58.593668764768708
20
-55.093668762373902
42
-0.99999999999999989
10
58.593668764768708
20
-53.093668762373909
0
CIRCLE
5
226
100
AcDbEntity
8
0
100
AcDbCircle
10
54.093668764768708
20
-54.093668762373909
30
0
40
2.5
210
0
220
-0
230
1
0
LWPOLYLINE
5
227
100
AcDbEntity
8
0
100
AcDbPolyline
90
4
70
1
43
0.0
10
48.093668764768708
20
-55.093668762373902
42
-0.99999999999999989
10
48.093668764768708
20
-53.093668762373909
10
49.593668764768708
20
-53.093668762373909
42
-0.99999999999999989
10
49.593668764768708
20
-55.093668762373902
0
LWPOLYLINE
5
228
100
AcDbEntity
8
0
100
AcDbPolyline
90
4
70
1
43
0.0
10
55.093668764768715
20
-60.093668762373909
42
-0.99999999999999989
10
53.093668764768722
20
-60.093668762373909
10
53.093668764768715
20
-58.593668762373909
42
-0.99999999999999989
10
55.093668764768708
20
-58.593668762373909
0
LWPOLYLINE
5
229
100
AcDbEntity
8
0
100
AcDbPolyline
90
4
70
1
43
0.0
10
55.093668764768708
20
-49.593668762373902
42
-0.99999999999999989
10
53.093668764768715
20
-49.593668762373902
10
53.093668764768715
20
-48.093668762373902
42
-0.99999999999999989
10
55.093668764768708
20
-48.093668762373902
0
ENDSEC
0
SECTION
2
OBJECTS
0
DICTIONARY
5
C
100
AcDbDictionary
3
ACAD_GROUP
350
D
3
ACAD_MLINESTYLE
350
17
0
DICTIONARY
5
D
100
AcDbDictionary
0
DICTIONARY
5
1A
330
C
100
AcDbDictionary
0
DICTIONARY
5
17
100
AcDbDictionary
0
ENDSEC
0
EOF
