0
SECTION
2
HEADER
9
$INSUNITS
70
4
9
$ACADVER
1
AC1014
9
$HANDSEED
5
FFFF
0
ENDSEC
0
SECTION
2
TABLES
0
TABLE
2
VPORT
5
8
100
AcDbSymbolTable
0
ENDTAB
0
TABLE
2
LTYPE
5
5
100
AcDbSymbolTable
0
LTYPE
5
14
100
AcDbSymbolTableRecord
100
AcDbLinetypeTableRecord
2
BYBLOCK
70
0
0
LTYPE
5
15
100
AcDbSymbolTableRecord
100
AcDbLinetypeTableRecord
2
BYLAYER
70
0
0
ENDTAB
0
TABLE
2
LAYER
5
2
100
AcDbSymbolTable
70
2
0
LAYER
5
50
100
AcDbSymbolTableRecord
100
AcDbLayerTableRecord
2
0
70
0
6
CONTINUOUS
0
ENDTAB
0
TABLE
2
STYLE
5
3
100
AcDbSymbolTable
70
1
0
STYLE
5
11
100
AcDbSymbolTableRecord
100
AcDbTextStyleTableRecord
2
STANDARD
70
0
0
ENDTAB
0
TABLE
2
VIEW
5
6
100
AcDbSymbolTable
70
0
0
ENDTAB
0
TABLE
2
UCS
5
7
100
AcDbSymbolTable
70
0
0
ENDTAB
0
TABLE
2
APPID
5
9
100
AcDbSymbolTable
70
2
0
APPID
5
12
100
AcDbSymbolTableRecord
100
AcDbRegAppTableRecord
2
ACAD
70
0
0
ENDTAB
0
TABLE
2
DIMSTYLE
5
A
100
AcDbSymbolTable
70
1
0
ENDTAB
0
TABLE
2
BLOCK_RECORD
5
1
100
AcDbSymbolTable
70
1
0
BLOCK_RECORD
5
1F
100
AcDbSymbolTableRecord
100
AcDbBlockTableRecord
2
*MODEL_SPACE
0
BLOCK_RECORD
5
1B
100
AcDbSymbolTableRecord
100
AcDbBlockTableRecord
2
*PAPER_SPACE
0
ENDTAB
0
ENDSEC
0
SECTION
2
BLOCKS
0
BLOCK
5
20
100
AcDbEntity
100
AcDbBlockBegin
2
*MODEL_SPACE
0
ENDBLK
5
21
100
AcDbEntity
100
AcDbBlockEnd
0
BLOCK
5
1C
100
AcDbEntity
100
AcDbBlockBegin
2
*PAPER_SPACE
0
ENDBLK
5
1D
100
AcDbEntity
100
AcDbBlockEnd
0
ENDSEC
0
SECTION
2
ENTITIES
0
CIRCLE
5
100
100
AcDbEntity
8
0
100
AcDbCircle
10
3.1819805153394798
20
-54.181980515339475
30
0
40
1
210
-0
220
0
230
1
0
CIRCLE
5
101
100
AcDbEntity
8
0
100
AcDbCircle
10
-3.1819805153394443
20
-54.181980515339475
30
0
40
1
210
-0
220
0
230
1
0
CIRCLE
5
102
100
AcDbEntity
8
0
100
AcDbCircle
10
-3.1819805153394354
20
-47.818019484660539
30
0
40
1
210
0
220
-0
230
1
0
CIRCLE
5
103
100
AcDbEntity
8
0
100
AcDbCircle
10
2.2204460492503131e-14
20
-51
30
0
40
2
210
0
220
-0
230
1
0
CIRCLE
5
104
100
AcDbEntity
8
0
100
AcDbCircle
10
54.181980515339475
20
-3.1819805153394887
30
0
40
1
210
-0
220
0
230
1
0
CIRCLE
5
105
100
AcDbEntity
8
0
100
AcDbCircle
10
54.181980515339475
20
3.1819805153394354
30
0
40
1
210
-0
220
0
230
1
0
CIRCLE
5
106
100
AcDbEntity
8
0
100
AcDbCircle
10
47.818019484660539
20
3.1819805153394265
30
0
40
1
210
0
220
0
230
1
0
CIRCLE
5
107
100
AcDbEntity
8
0
100
AcDbCircle
10
51
20
-3.1086244689504383e-14
30
0
40
2
210
0
220
0
230
1
0
CIRCLE
5
108
100
AcDbEntity
8
0
100
AcDbCircle
10
-12.999999999999998
20
13.000000000000005
30
0
40
1.0000000000000009
210
-0
220
0
230
1
0
CIRCLE
5
109
100
AcDbEntity
8
0
100
AcDbCircle
10
12.999999999999996
20
-13.000000000000007
30
0
40
1.0000000000000009
210
0
220
-0
230
1
0
CIRCLE
5
110
100
AcDbEntity
8
0
100
AcDbCircle
10
13.000000000000009
20
12.999999999999993
30
0
40
1.0000000000000009
210
0
220
-0
230
1
0
CIRCLE
5
111
100
AcDbEntity
8
0
100
AcDbCircle
10
2.2204460492503131e-15
20
11.313708498984759
30
0
40
0.99999999999999956
210
-0
220
0
230
1
0
CIRCLE
5
112
100
AcDbEntity
8
0
100
AcDbCircle
10
11.313708498984759
20
-4.4408920985006262e-15
30
0
40
0.99999999999999956
210
-0
220
0
230
1
0
CIRCLE
5
113
100
AcDbEntity
8
0
100
AcDbCircle
10
-11.313708498984759
20
4.4408920985006262e-15
30
0
40
0.99999999999999956
210
-0
220
0
230
1
0
CIRCLE
5
114
100
AcDbEntity
8
0
100
AcDbCircle
10
-3.3306690738754696e-15
20
-11.313708498984759
30
0
40
0.99999999999999956
210
-0
220
0
230
1
0
LINE
5
115
100
AcDbEntity
8
0
100
AcDbLine
10
2.0000000231225767
20
-41.93290213599775
30
0
11
1.9999999999999973
21
-18.107147955397963
31
0
0
SPLINE
5
116
100
AcDbEntity
8
0
100
AcDbSpline
70
0
71
3
72
20
73
16
74
0
42
0.000000001
43
0.0000000001
44
0.0000000001
40
0
40
0
40
0
40
0
40
0.21485446036281003
40
0.21485446036281003
40
0.42970892072562028
40
0.42970892072562028
40
0.64456338108843059
40
0.64456338108843059
40
0.85941784145124089
40
0.85941784145124089
40
1.074272301814051
40
1.074272301814051
40
1.1861065064053278
40
1.1861065064053278
40
1.2979407109966044
40
1.2979407109966044
40
1.2979407109966044
40
1.2979407109966044
10
11.378252769386052
20
-14.207256231676714
30
0
10
10.870429053159681
20
-13.702250228090648
30
0
10
10.268821506281682
20
-13.301261621247715
30
0
10
8.9457641209226182
20
-12.752460093619939
30
0
10
8.2369634321675722
20
-12.609894014559153
30
0
10
6.8046105932663989
20
-12.604480460135077
30
0
10
6.094752516952779
20
-12.741684741302697
30
0
10
4.7675846157094632
20
-13.280469785257301
30
0
10
4.162963239278044
20
-13.676899469363537
30
0
10
3.1397102833526169
20
-14.679205485443267
30
0
10
2.7308615598332042
20
-15.275499225604056
30
0
10
2.3004684799537944
20
-16.275799433434774
30
0
10
2.1883283893242513
20
-16.632322495490229
30
0
10
2.0378996645956429
20
-17.362550505210038
30
0
10
1.9999999999999973
20
-17.73436727342704
30
0
10
1.9999999999999973
20
-18.107147955397963
30
0
0
SPLINE
5
117
100
AcDbEntity
8
0
100
AcDbSpline
70
4
71
5
72
12
73
6
74
0
42
0.000000001
43
0.0000000001
44
0.0000000001
40
-0.0096996727611142249
40
-0.0096996727611142249
40
-0.0096996727611142249
40
-0.0096996727611142249
40
-0.0096996727611142249
40
-0.0096996727611142249
40
0
40
0
40
0
40
0
40
0
40
0
41
1
41
1
41
1
41
1
41
1
41
1
10
11.378252769386057
20
-14.20725623167672
30
0
10
11.419846919730798
20
-14.248619592557629
30
0
10
11.461397377439638
20
-14.289997211889327
30
0
10
11.502904121724359
20
-14.331388816753208
30
0
10
11.544367141875529
20
-14.372794267351111
30
0
10
11.585786437626899
20
-14.414213562373103
30
0
0
ARC
5
118
100
AcDbEntity
8
0
100
AcDbCircle
10
12.999999999999996
20
-13.000000000000007
30
0
40
2.0000000000000022
210
0
220
0
230
1
100
AcDbArc
50
-135.00000000000006
51
45
0
SPLINE
5
119
100
AcDbEntity
8
0
100
AcDbSpline
70
4
71
5
72
12
73
6
74
0
42
0.000000001
43
0.0000000001
44
0.0000000001
40
-1
40
-1
40
-1
40
-1
40
-1
40
-1
40
-0.99030032723888817
40
-0.99030032723888817
40
-0.99030032723888817
40
-0.99030032723888817
40
-0.99030032723888817
40
-0.99030032723888817
41
1
41
1
41
1
41
1
41
1
41
1
10
14.414213562373085
20
-11.585786437626917
30
0
10
14.372794267351104
20
-11.544367141875554
30
0
10
14.331388816753211
20
-11.502904121724395
30
0
10
14.289997211889338
20
-11.461397377439685
30
0
10
14.248619592557652
20
-11.419846919730851
30
0
10
14.207256231676748
20
-11.378252769386121
30
0
0
SPLINE
5
120
100
AcDbEntity
8
0
100
AcDbSpline
70
0
71
3
72
20
73
16
74
0
42
0.000000001
43
0.0000000001
44
0.0000000001
40
0
40
0
40
0
40
0
40
0.21485446036281008
40
0.21485446036281008
40
0.42970892072562017
40
0.42970892072562017
40
0.64456338108843048
40
0.64456338108843048
40
0.85941784145124056
40
0.85941784145124056
40
1.0742723018140508
40
1.0742723018140508
40
1.1861065064053311
40
1.1861065064053311
40
1.2979407109966115
40
1.2979407109966115
40
1.2979407109966115
40
1.2979407109966115
10
18.107147955397931
20
-2.0000000000000062
30
0
10
17.390966420855232
20
-2.0000000000000062
30
0
10
16.681631972131854
20
-2.1398861792054449
30
0
10
15.356509864579891
20
-2.683683348889867
30
0
10
14.753391095346849
20
-3.0823953420343084
30
0
10
13.733933620016536
20
-4.0885615398728685
30
0
10
13.327341483030683
20
-4.686396247312703
30
0
10
12.766202114807669
20
-6.0042682331709756
30
0
10
12.617019681775306
20
-6.7117059371088814
30
0
10
12.59822338151106
20
-8.1439456728989921
30
0
10
12.728789217154482
20
-8.8550547122460763
30
0
10
13.128958424621452
20
-9.8678248314683721
30
0
10
13.300840668516562
20
-10.199699187117302
30
0
10
13.709086679862047
20
-10.823555694355436
30
0
10
13.944394829453584
20
-11.113924715498559
30
0
10
14.207256231676748
20
-11.378252769386121
30
0
0
LINE
5
121
100
AcDbEntity
8
0
100
AcDbLine
10
18.107147955397931
20
-2.0000000000000062
30
0
11
41.93290213599775
21
-2.0000000231225834
31
0
0
ARC
5
122
100
AcDbEntity
8
0
100
AcDbCircle
10
41.93290210189766
20
-10.000000023122462
30
0
40
7.9999999999998703
210
0
220
-0
230
1
100
AcDbArc
50
67.833654584715475
51
89.999999755776102
0
LINE
5
123
100
AcDbEntity
8
0
100
AcDbLine
10
44.951277147803992
20
-2.5912611235358476
30
0
11
54.245406327930382
21
-6.3777581199799238
31
0
0
ARC
5
124
100
AcDbEntity
8
0
100
AcDbCircle
10
55.000000089406967
20
-4.5255733950832377
30
0
40
2.0000000000000009
210
0
220
0
230
1
100
AcDbArc
50
-112.16634541528424
51
0
0
LINE
5
125
100
AcDbEntity
8
0
100
AcDbLine
10
57.000000089406974
20
-4.5255733950832369
30
0
11
57.000000089406974
21
-0.95452975871010537
31
0
0
ARC
5
126
100
AcDbEntity
8
0
100
AcDbCircle
10
62.000000089406626
20
-0.95452975871004708
30
0
40
4.9999999999996625
210
0
220
0
230
1
100
AcDbArc
50
158.38388519210596
51
180
0
LINE
5
127
100
AcDbEntity
8
0
100
AcDbLine
10
57.351635530869643
20
0.8874004600913985
30
0
11
59.429672911707456
21
6.1316139562396765
31
0
0
ARC
5
128
100
AcDbEntity
8
0
100
AcDbCircle
10
58.499999999999986
20
6.4999999999999671
30
0
40
1.0000000000000007
210
0
220
0
230
1
100
AcDbArc
50
-21.616114807892576
51
105.18928613295385
0
LINE
5
129
100
AcDbEntity
8
0
100
AcDbLine
10
58.237991276552904
20
7.4650655049464687
30
0
11
52.298391734395167
21
5.8525046105292677
31
0
0
ARC
5
130
100
AcDbEntity
8
0
100
AcDbCircle
10
50.988348117159688
20
10.677832135261713
30
0
40
5.0000000000000053
210
0
220
0
230
1
100
AcDbArc
50
255.0685834063963
51
285.18928613295481
0
LINE
5
131
100
AcDbEntity
8
0
100
AcDbLine
10
49.700034913645865
20
5.8466574241120544
30
0
11
46.015325281405524
21
6.8292466191114194
31
0
0
ARC
5
132
100
AcDbEntity
8
0
100
AcDbCircle
10
45.5
20
4.8967767346515556
30
0
40
2.0000000000000013
210
0
220
-0
230
1
100
AcDbArc
50
75.068583406396471
51
157.17592499457095
0
ARC
5
133
100
AcDbEntity
8
0
100
AcDbCircle
10
38.126398073844754
20
7.9999999999999964
30
0
40
6.0000000000000071
210
0
220
0
230
1
100
AcDbArc
50
270.00000000000017
51
337.17592499457089
0
LINE
5
134
100
AcDbEntity
8
0
100
AcDbLine
10
38.126398073844769
20
1.9999999999999885
30
0
11
18.107147955397945
21
1.9999999999999973
31
0
0
SPLINE
5
135
100
AcDbEntity
8
0
100
AcDbSpline
70
0
71
3
72
20
73
16
74
0
42
0.000000001
43
0.0000000001
44
0.0000000001
40
0
40
0
40
0
40
0
40
0.21485446036281119
40
0.21485446036281119
40
0.42970892072562084
40
0.42970892072562084
40
0.64456338108843081
40
0.64456338108843081
40
0.85941784145124067
40
0.85941784145124067
40
1.0742723018140503
40
1.0742723018140503
40
1.1861065064053264
40
1.1861065064053264
40
1.297940710996603
40
1.297940710996603
40
1.297940710996603
40
1.297940710996603
10
14.207256231676714
20
11.378252769386048
30
0
10
13.702250228090644
20
10.870429053159672
30
0
10
13.30126162124772
20
10.268821506281672
30
0
10
12.752460093619939
20
8.9457641209226022
30
0
10
12.609894014559156
20
8.236963432167558
30
0
10
12.604480460135079
20
6.8046105932663892
30
0
10
12.741684741302699
20
6.0947525169527701
30
0
10
13.280469785257301
20
4.767584615709457
30
0
10
13.676899469363537
20
4.1629632392780396
30
0
10
14.679205485443267
20
3.1397102833526147
30
0
10
15.275499225604054
20
2.7308615598332056
30
0
10
16.27579943343477
20
2.3004684799537967
30
0
10
16.632322495490225
20
2.1883283893242544
30
0
10
17.362550505210027
20
2.037899664595646
30
0
10
17.734367273427026
20
1.9999999999999962
30
0
10
18.107147955397949
20
1.9999999999999962
30
0
0
SPLINE
5
136
100
AcDbEntity
8
0
100
AcDbSpline
70
4
71
5
72
12
73
6
74
0
42
0.000000001
43
0.0000000001
44
0.0000000001
40
-0.0096996727611146655
40
-0.0096996727611146655
40
-0.0096996727611146655
40
-0.0096996727611146655
40
-0.0096996727611146655
40
-0.0096996727611146655
40
0
40
0
40
0
40
0
40
0
40
0
41
1
41
1
41
1
41
1
41
1
41
1
10
14.207256231676711
20
11.378252769386044
30
0
10
14.24861959255762
20
11.419846919730787
30
0
10
14.28999721188932
20
11.461397377439631
30
0
10
14.331388816753204
20
11.502904121724352
30
0
10
14.372794267351111
20
11.544367141875524
30
0
10
14.414213562373103
20
11.585786437626899
30
0
0
ARC
5
137
100
AcDbEntity
8
0
100
AcDbCircle
10
13.000000000000009
20
12.999999999999993
30
0
40
1.9999999999999993
210
-0
220
0
230
1
100
AcDbArc
50
-45
51
134.99999999999997
0
SPLINE
5
138
100
AcDbEntity
8
0
100
AcDbSpline
70
4
71
5
72
12
73
6
74
0
42
0.000000001
43
0.0000000001
44
0.0000000001
40
-1
40
-1
40
-1
40
-1
40
-1
40
-1
40
-0.99030032723888817
40
-0.99030032723888817
40
-0.99030032723888817
40
-0.99030032723888817
40
-0.99030032723888817
40
-0.99030032723888817
41
1
41
1
41
1
41
1
41
1
41
1
10
11.585786437626913
20
14.41421356237309
30
0
10
11.544367141875551
20
14.372794267351106
30
0
10
11.502904121724393
20
14.331388816753215
30
0
10
11.461397377439681
20
14.289997211889339
30
0
10
11.419846919730849
20
14.248619592557654
30
0
10
11.378252769386117
20
14.207256231676752
30
0
0
SPLINE
5
139
100
AcDbEntity
8
0
100
AcDbSpline
70
0
71
3
72
20
73
16
74
0
42
0.000000001
43
0.0000000001
44
0.0000000001
40
0
40
0
40
0
40
0
40
0.21485446036281014
40
0.21485446036281014
40
0.42970892072562028
40
0.42970892072562028
40
0.64456338108843048
40
0.64456338108843048
40
0.85941784145124078
40
0.85941784145124078
40
1.0742723018140512
40
1.0742723018140512
40
1.1861065064053322
40
1.1861065064053322
40
1.297940710996613
40
1.297940710996613
40
1.297940710996613
40
1.297940710996613
10
2.0000000000000027
20
18.107147955397934
30
0
10
2.0000000000000027
20
17.390966420855232
30
0
10
2.1398861792054391
20
16.681631972131857
30
0
10
2.6836833488898582
20
15.356509864579891
30
0
10
3.0823953420343022
20
14.753391095346849
30
0
10
4.0885615398728605
20
13.733933620016538
30
0
10
4.6863962473126923
20
13.327341483030683
30
0
10
6.004268233170964
20
12.766202114807667
30
0
10
6.7117059371088725
20
12.617019681775306
30
0
10
8.143945672898985
20
12.59822338151106
30
0
10
8.8550547122460657
20
12.728789217154478
30
0
10
9.867824831468365
20
13.128958424621452
30
0
10
10.199699187117295
20
13.300840668516559
30
0
10
10.823555694355431
20
13.709086679862047
30
0
10
11.113924715498555
20
13.944394829453584
30
0
10
11.378252769386117
20
14.207256231676752
30
0
0
LINE
5
140
100
AcDbEntity
8
0
100
AcDbLine
10
2.0000000000000027
20
18.107147955397934
30
0
11
2.0000000000000129
21
38.126398073844776
31
0
0
ARC
5
141
100
AcDbEntity
8
0
100
AcDbCircle
10
8.0000000000000142
20
38.126398073844769
30
0
40
6.0000000000000044
210
0
220
0
230
1
100
AcDbArc
50
112.82407500542914
51
180
0
ARC
5
142
100
AcDbEntity
8
0
100
AcDbCircle
10
4.8967767346515645
20
45.499999999999986
30
0
40
1.9999999999999911
210
0
220
0
230
1
100
AcDbArc
50
-67.175924994570607
51
14.931416593603748
0
LINE
5
143
100
AcDbEntity
8
0
100
AcDbLine
10
6.8292466191114247
20
46.015325281405516
30
0
11
5.8466574241120695
21
49.700034913645865
31
0
0
ARC
5
144
100
AcDbEntity
8
0
100
AcDbCircle
10
10.677832135261717
20
50.988348117159688
30
0
40
5
210
0
220
0
230
1
100
AcDbArc
50
164.81071386704522
51
194.93141659360373
0
LINE
5
145
100
AcDbEntity
8
0
100
AcDbLine
10
5.8525046105292686
20
52.298391734395167
30
0
11
7.4650655049464687
21
58.237991276552904
31
0
0
ARC
5
146
100
AcDbEntity
8
0
100
AcDbCircle
10
6.4999999999999813
20
58.5
30
0
40
0.99999999999999767
210
-0
220
0
230
1
100
AcDbArc
50
-15.189286132954816
51
111.61611480789317
0
LINE
5
147
100
AcDbEntity
8
0
100
AcDbLine
10
6.1316139562396828
20
59.429672911707463
30
0
11
0.88740046009141427
21
57.351635530869643
31
0
0
ARC
5
148
100
AcDbEntity
8
0
100
AcDbCircle
10
-0.95452975871009205
20
62.000000089406967
30
0
40
5
210
0
220
0
230
1
100
AcDbArc
50
269.99999999999989
51
291.61611480789333
0
LINE
5
149
100
AcDbEntity
8
0
100
AcDbLine
10
-0.95452975871009893
20
57.000000089406967
30
0
11
-4.5255733950832289
21
57.000000089406981
31
0
0
ARC
5
150
100
AcDbEntity
8
0
100
AcDbCircle
10
-4.5255733950832298
20
55.000000089406967
30
0
40
2.0000000000000107
210
0
220
-0
230
1
100
AcDbArc
50
89.999999999999972
51
202.16634541528418
0
LINE
5
151
100
AcDbEntity
8
0
100
AcDbLine
10
-6.3777581199799176
20
54.245406327930382
30
0
11
-2.5912611235358307
21
44.951277147804007
31
0
0
ARC
5
152
100
AcDbEntity
8
0
100
AcDbCircle
10
-10.000000023122581
20
41.932902101897639
30
0
40
7.9999999999999982
210
0
220
-0
230
1
100
AcDbArc
50
0
51
22.166345415284386
0
LINE
5
153
100
AcDbEntity
8
0
100
AcDbLine
10
-2.0000000231225834
20
41.93290213599775
30
0
11
-2.000000000000004
21
18.107147955397952
31
0
0
SPLINE
5
154
100
AcDbEntity
8
0
100
AcDbSpline
70
0
71
3
72
20
73
16
74
0
42
0.000000001
43
0.0000000001
44
0.0000000001
40
0
40
0
40
0
40
0
40
0.21485446036280983
40
0.21485446036280983
40
0.42970892072561973
40
0.42970892072561973
40
0.6445633810884297
40
0.6445633810884297
40
0.85941784145123967
40
0.85941784145123967
40
1.0742723018140496
40
1.0742723018140496
40
1.1861065064053262
40
1.1861065064053262
40
1.2979407109966026
40
1.2979407109966026
40
1.2979407109966026
40
1.2979407109966026
10
-11.37825276938605
20
14.207256231676716
30
0
10
-10.870429053159675
20
13.702250228090648
30
0
10
-10.268821506281679
20
13.301261621247722
30
0
10
-8.9457641209226164
20
12.752460093619945
30
0
10
-8.2369634321675722
20
12.609894014559158
30
0
10
-6.8046105932664025
20
12.604480460135079
30
0
10
-6.0947525169527852
20
12.741684741302702
30
0
10
-4.7675846157094686
20
13.280469785257299
30
0
10
-4.1629632392780511
20
13.676899469363535
30
0
10
-3.1397102833526249
20
14.679205485443267
30
0
10
-2.7308615598332144
20
15.275499225604054
30
0
10
-2.3004684799538033
20
16.27579943343477
30
0
10
-2.1883283893242589
20
16.632322495490222
30
0
10
-2.0378996645956517
20
17.362550505210024
30
0
10
-2.000000000000004
20
17.734367273427026
30
0
10
-2.000000000000004
20
18.107147955397952
30
0
0
SPLINE
5
155
100
AcDbEntity
8
0
100
AcDbSpline
70
4
71
5
72
12
73
6
74
0
42
0.000000001
43
0.0000000001
44
0.0000000001
40
-0.0096996727611142249
40
-0.0096996727611142249
40
-0.0096996727611142249
40
-0.0096996727611142249
40
-0.0096996727611142249
40
-0.0096996727611142249
40
0
40
0
40
0
40
0
40
0
40
0
41
1
41
1
41
1
41
1
41
1
41
1
10
-11.378252769386057
20
14.207256231676716
30
0
10
-11.419846919730801
20
14.248619592557628
30
0
10
-11.461397377439638
20
14.289997211889325
30
0
10
-11.502904121724359
20
14.331388816753208
30
0
10
-11.544367141875531
20
14.372794267351107
30
0
10
-11.585786437626901
20
14.414213562373101
30
0
0
ARC
5
156
100
AcDbEntity
8
0
100
AcDbCircle
10
-12.999999999999998
20
13.000000000000005
30
0
40
2.0000000000000022
210
0
220
-0
230
1
100
AcDbArc
50
44.999999999999964
51
225
0
SPLINE
5
157
100
AcDbEntity
8
0
100
AcDbSpline
70
4
71
5
72
12
73
6
74
0
42
0.000000001
43
0.0000000001
44
0.0000000001
40
-1
40
-1
40
-1
40
-1
40
-1
40
-1
40
-0.99030032723888817
40
-0.99030032723888817
40
-0.99030032723888817
40
-0.99030032723888817
40
-0.99030032723888817
40
-0.99030032723888817
41
1
41
1
41
1
41
1
41
1
41
1
10
-14.414213562373085
20
11.585786437626917
30
0
10
-14.372794267351104
20
11.544367141875554
30
0
10
-14.331388816753211
20
11.502904121724395
30
0
10
-14.289997211889338
20
11.461397377439685
30
0
10
-14.248619592557652
20
11.419846919730851
30
0
10
-14.207256231676748
20
11.378252769386121
30
0
0
SPLINE
5
158
100
AcDbEntity
8
0
100
AcDbSpline
70
0
71
3
72
20
73
16
74
0
42
0.000000001
43
0.0000000001
44
0.0000000001
40
0
40
0
40
0
40
0
40
0.21485446036281008
40
0.21485446036281008
40
0.42970892072562017
40
0.42970892072562017
40
0.64456338108843048
40
0.64456338108843048
40
0.85941784145124056
40
0.85941784145124056
40
1.0742723018140508
40
1.0742723018140508
40
1.1861065064053311
40
1.1861065064053311
40
1.2979407109966115
40
1.2979407109966115
40
1.2979407109966115
40
1.2979407109966115
10
-18.107147955397931
20
2.0000000000000062
30
0
10
-17.390966420855232
20
2.0000000000000062
30
0
10
-16.681631972131854
20
2.1398861792054449
30
0
10
-15.356509864579891
20
2.683683348889867
30
0
10
-14.753391095346849
20
3.0823953420343084
30
0
10
-13.733933620016536
20
4.0885615398728685
30
0
10
-13.327341483030683
20
4.686396247312703
30
0
10
-12.766202114807669
20
6.0042682331709756
30
0
10
-12.617019681775306
20
6.7117059371088814
30
0
10
-12.59822338151106
20
8.1439456728989921
30
0
10
-12.728789217154482
20
8.8550547122460763
30
0
10
-13.128958424621452
20
9.8678248314683721
30
0
10
-13.300840668516562
20
10.199699187117302
30
0
10
-13.709086679862047
20
10.823555694355436
30
0
10
-13.944394829453584
20
11.113924715498559
30
0
10
-14.207256231676748
20
11.378252769386121
30
0
0
LINE
5
159
100
AcDbEntity
8
0
100
AcDbLine
10
-18.107147955397931
20
2.0000000000000062
30
0
11
-41.93290213599775
21
2.0000000231225834
31
0
0
ARC
5
160
100
AcDbEntity
8
0
100
AcDbCircle
10
-41.93290210189766
20
10.000000023122462
30
0
40
7.9999999999998703
210
0
220
0
230
1
100
AcDbArc
50
247.83365458471545
51
269.99999975577612
0
LINE
5
161
100
AcDbEntity
8
0
100
AcDbLine
10
-44.951277147803992
20
2.5912611235358476
30
0
11
-54.245406327930382
21
6.3777581199799238
31
0
0
ARC
5
162
100
AcDbEntity
8
0
100
AcDbCircle
10
-55.000000089406967
20
4.5255733950832377
30
0
40
2.0000000000000009
210
0
220
-0
230
1
100
AcDbArc
50
67.833654584715774
51
180
0
LINE
5
163
100
AcDbEntity
8
0
100
AcDbLine
10
-57.000000089406974
20
4.5255733950832369
30
0
11
-57.000000089406974
21
0.95452975871010537
31
0
0
ARC
5
164
100
AcDbEntity
8
0
100
AcDbCircle
10
-62.000000089406626
20
0.95452975871004708
30
0
40
4.9999999999996625
210
0
220
0
230
1
100
AcDbArc
50
-21.61611480789405
51
0
0
LINE
5
165
100
AcDbEntity
8
0
100
AcDbLine
10
-57.351635530869643
20
-0.8874004600913985
30
0
11
-59.429672911707456
21
-6.1316139562396765
31
0
0
ARC
5
166
100
AcDbEntity
8
0
100
AcDbCircle
10
-58.499999999999986
20
-6.4999999999999671
30
0
40
1.0000000000000007
210
0
220
0
230
1
100
AcDbArc
50
158.38388519210741
51
285.18928613295384
0
LINE
5
167
100
AcDbEntity
8
0
100
AcDbLine
10
-58.237991276552904
20
-7.4650655049464687
30
0
11
-52.298391734395167
21
-5.8525046105292677
31
0
0
ARC
5
168
100
AcDbEntity
8
0
100
AcDbCircle
10
-50.988348117159688
20
-10.677832135261713
30
0
40
5.0000000000000053
210
0
220
-0
230
1
100
AcDbArc
50
75.0685834063963
51
105.18928613295481
0
LINE
5
169
100
AcDbEntity
8
0
100
AcDbLine
10
-49.700034913645865
20
-5.8466574241120544
30
0
11
-46.015325281405524
21
-6.8292466191114194
31
0
0
ARC
5
170
100
AcDbEntity
8
0
100
AcDbCircle
10
-45.5
20
-4.8967767346515556
30
0
40
2.0000000000000013
210
0
220
0
230
1
100
AcDbArc
50
255.06858340639644
51
337.17592499457089
0
ARC
5
171
100
AcDbEntity
8
0
100
AcDbCircle
10
-38.126398073844754
20
-7.9999999999999964
30
0
40
6.0000000000000071
210
0
220
0
230
1
100
AcDbArc
50
90.000000000000142
51
157.17592499457095
0
LINE
5
172
100
AcDbEntity
8
0
100
AcDbLine
10
-38.126398073844769
20
-1.9999999999999885
30
0
11
-23.023400026354913
21
-1.9999999999999951
31
0
0
SPLINE
5
173
100
AcDbEntity
8
0
100
AcDbSpline
70
4
71
5
72
16
73
10
74
0
42
0.000000001
43
0.0000000001
44
0.0000000001
40
0
40
0
40
0
40
0
40
0
40
0
40
0.10000000000000001
40
0.20000000000000001
40
0.30000000000000004
40
0.40000000000000002
40
0.42825652104958695
40
0.42825652104958695
40
0.42825652104958695
40
0.42825652104958695
40
0.42825652104958695
40
0.42825652104958695
41
1
41
1
41
1
41
1
41
1
41
1
41
1
41
1
41
1
41
1
10
-23.023400026354921
20
-1.9999999999999951
30
0
10
-22.259615039217849
20
-1.9999999999999951
30
0
10
-20.775940998756163
20
-2.0613951078461943
30
0
10
-18.682109438936575
20
-2.3376621902217929
30
0
10
-16.1399135510195
20
-3.0582754980718398
30
0
10
-13.716791149253687
20
-4.2618851330320142
30
0
10
-12.009268994601427
20
-5.4044636390349599
30
0
10
-10.884601115381795
20
-6.2879615508588831
30
0
10
-10.271700048543742
20
-6.8099834563082577
30
0
10
-10.137589402127819
20
-6.9262081191376224
30
0
0
SPLINE
5
174
100
AcDbEntity
8
0
100
AcDbSpline
70
4
71
5
72
13
73
7
74
0
42
0.000000001
43
0.0000000001
44
0.0000000001
40
0.42825652104958695
40
0.42825652104958695
40
0.42825652104958695
40
0.42825652104958695
40
0.42825652104958695
40
0.42825652104958695
40
0.5
40
0.57201111577180341
40
0.57201111577180341
40
0.57201111577180341
40
0.57201111577180341
40
0.57201111577180341
40
0.57201111577180341
41
1
41
1
41
1
41
1
41
1
41
1
41
1
10
-10.137589402127819
20
-6.9262081191376224
30
0
10
-9.7970816545080002
20
-7.2213032455540898
30
0
10
-9.1266687033778489
20
-7.8283104643548569
30
0
10
-8.4796981851754651
20
-8.4651476138026833
30
0
10
-7.8563606359289526
20
-9.129011413516702
30
0
10
-7.2591772823181611
20
-9.8185170884432633
30
0
10
-6.9670171338375511
20
-10.170245181719878
30
0
0
SPLINE
5
175
100
AcDbEntity
8
0
100
AcDbSpline
70
4
71
5
72
16
73
10
74
0
42
0.000000001
43
0.0000000001
44
0.0000000001
40
0.57201111577230568
40
0.57201111577230568
40
0.57201111577230568
40
0.57201111577230568
40
0.57201111577230568
40
0.57201111577230568
40
0.59999999999999998
40
0.69999999999999996
40
0.79999999999999993
40
0.89999999999999991
40
1
40
1
40
1
40
1
40
1
40
1
41
1
41
1
41
1
41
1
41
1
41
1
41
1
41
1
41
1
41
1
10
-6.9670171338273619
20
-10.170245181732145
30
0
10
-6.853461934965047
20
-10.306952921597583
30
0
10
-6.3390183802623827
20
-10.936471677716884
30
0
10
-5.4628785582312043
20
-12.093262782909708
30
0
10
-4.3175404442069407
20
-13.846347781999491
30
0
10
-3.093097214966364
20
-16.304784038869194
30
0
10
-2.3497757008945905
20
-18.817635544149788
30
0
10
-2.063597787854091
20
-20.836749132473283
30
0
10
-2.000000000000004
20
-22.244866139014647
30
0
10
-2.000000000000004
20
-22.964435836414108
30
0
0
LINE
5
176
100
AcDbEntity
8
0
100
AcDbLine
10
-2.000000000000004
20
-22.964435836414111
30
0
11
-2.0000000000000173
21
-38.126398073844776
31
0
0
ARC
5
177
100
AcDbEntity
8
0
100
AcDbCircle
10
-8.0000000000000089
20
-38.126398073844776
30
0
40
6.0000000000000036
210
-0
220
0
230
1
100
AcDbArc
50
-67.175924994570863
51
0
0
ARC
5
178
100
AcDbEntity
8
0
100
AcDbCircle
10
-4.8967767346515654
20
-45.499999999999986
30
0
40
1.999999999999982
210
0
220
0
230
1
100
AcDbArc
50
112.82407500542938
51
194.93141659360373
0
LINE
5
179
100
AcDbEntity
8
0
100
AcDbLine
10
-6.8292466191114265
20
-46.015325281405516
30
0
11
-5.8466574241120695
21
-49.700034913645865
31
0
0
ARC
5
180
100
AcDbEntity
8
0
100
AcDbCircle
10
-10.677832135261717
20
-50.988348117159688
30
0
40
5
210
-0
220
0
230
1
100
AcDbArc
50
-15.189286132954816
51
14.93141659360372
0
LINE
5
181
100
AcDbEntity
8
0
100
AcDbLine
10
-5.8525046105292686
20
-52.298391734395167
30
0
11
-7.4650655049464687
21
-58.237991276552904
31
0
0
ARC
5
182
100
AcDbEntity
8
0
100
AcDbCircle
10
-6.4999999999999813
20
-58.5
30
0
40
0.99999999999999767
210
0
220
0
230
1
100
AcDbArc
50
164.81071386704517
51
291.61611480789321
0
LINE
5
183
100
AcDbEntity
8
0
100
AcDbLine
10
-6.1316139562396828
20
-59.429672911707463
30
0
11
-0.88740046009141427
21
-57.351635530869643
31
0
0
ARC
5
184
100
AcDbEntity
8
0
100
AcDbCircle
10
0.95452975871009205
20
-62.000000089406967
30
0
40
5
210
0
220
-0
230
1
100
AcDbArc
50
89.999999999999929
51
111.6161148078933
0
LINE
5
185
100
AcDbEntity
8
0
100
AcDbLine
10
0.95452975871009893
20
-57.000000089406967
30
0
11
4.5255733950832289
21
-57.000000089406981
31
0
0
ARC
5
186
100
AcDbEntity
8
0
100
AcDbCircle
10
4.5255733950832298
20
-55.000000089406967
30
0
40
2.0000000000000107
210
0
220
0
230
1
100
AcDbArc
50
-90
51
22.166345415284194
0
LINE
5
187
100
AcDbEntity
8
0
100
AcDbLine
10
6.3777581199799176
20
-54.245406327930382
30
0
11
2.5912611235358307
21
-44.951277147804007
31
0
0
ARC
5
188
100
AcDbEntity
8
0
100
AcDbCircle
10
10.000000023122581
20
-41.932902101897639
30
0
40
8.0000000000000053
210
0
220
0
230
1
100
AcDbArc
50
180
51
202.16634541528441
0
CIRCLE
5
189
100
AcDbEntity
8
0
100
AcDbCircle
10
-3.1819805153394798
20
54.181980515339475
30
0
40
1
210
0
220
-0
230
1
0
CIRCLE
5
190
100
AcDbEntity
8
0
100
AcDbCircle
10
3.1819805153394443
20
54.181980515339475
30
0
40
1
210
0
220
-0
230
1
0
CIRCLE
5
191
100
AcDbEntity
8
0
100
AcDbCircle
10
3.1819805153394354
20
47.818019484660539
30
0
40
1
210
-0
220
0
230
1
0
CIRCLE
5
192
100
AcDbEntity
8
0
100
AcDbCircle
10
-2.2204460492503131e-14
20
51
30
0
40
2
210
-0
220
0
230
1
0
CIRCLE
5
193
100
AcDbEntity
8
0
100
AcDbCircle
10
-51
20
3.1086244689504383e-14
30
0
40
2
210
-0
220
0
230
1
0
CIRCLE
5
194
100
AcDbEntity
8
0
100
AcDbCircle
10
-47.818019484660539
20
-3.1819805153394265
30
0
40
1
210
-0
220
0
230
1
0
CIRCLE
5
195
100
AcDbEntity
8
0
100
AcDbCircle
10
-54.181980515339475
20
-3.1819805153394354
30
0
40
1
210
0
220
0
230
1
0
CIRCLE
5
196
100
AcDbEntity
8
0
100
AcDbCircle
10
-54.181980515339475
20
3.1819805153394887
30
0
40
1
210
0
220
0
230
1
0
LWPOLYLINE
5
197
100
AcDbEntity
8
0
100
AcDbPolyline
90
12
70
1
43
0.0
10
3.7057117246248983
20
-7.0899718344981864
42
-0.30681888136948643
10
5.9345708301845912
20
-7.3446792233066276
42
0.92655032088913114
10
7.3446792233066285
20
-5.9345708301845912
42
-0.30681888136948654
10
7.0899718344981908
20
-3.7057117246248925
42
0.2455744626476386
10
7.0899718344981881
20
3.7057117246249005
42
-0.30681888136948637
10
7.3446792233066294
20
5.9345708301845885
42
0.92655032088913214
10
5.9345708301845912
20
7.3446792233066285
42
-0.30681888136948654
10
3.7057117246248938
20
7.0899718344981935
42
0.24557446264763866
10
-3.7057117246249005
20
7.0899718344981881
42
-0.30681888136948637
10
-5.9345708301845885
20
7.3446792233066294
42
0.92655032088913214
10
-7.3446792233066276
20
5.9345708301845921
42
-0.30681888136948565
10
-7.0899718344981881
20
3.7057117246248983
42
0.73450174282021763
0
ENDSEC
0
SECTION
2
OBJECTS
0
DICTIONARY
5
C
100
AcDbDictionary
3
ACAD_GROUP
350
D
3
ACAD_MLINESTYLE
350
17
0
DICTIONARY
5
D
100
AcDbDictionary
0
DICTIONARY
5
1A
330
C
100
AcDbDictionary
0
DICTIONARY
5
17
100
AcDbDictionary
0
ENDSEC
0
EOF
