0
SECTION
2
HEADER
9
$INSUNITS
70
4
9
$ACADVER
1
AC1014
9
$HANDSEED
5
FFFF
0
ENDSEC
0
SECTION
2
TABLES
0
TABLE
2
VPORT
5
8
100
AcDbSymbolTable
0
ENDTAB
0
TABLE
2
LTYPE
5
5
100
AcDbSymbolTable
0
LTYPE
5
14
100
AcDbSymbolTableRecord
100
AcDbLinetypeTableRecord
2
BYBLOCK
70
0
0
LTYPE
5
15
100
AcDbSymbolTableRecord
100
AcDbLinetypeTableRecord
2
BYLAYER
70
0
0
ENDTAB
0
TABLE
2
LAYER
5
2
100
AcDbSymbolTable
70
2
0
LAYER
5
50
100
AcDbSymbolTableRecord
100
AcDbLayerTableRecord
2
0
70
0
6
CONTINUOUS
0
ENDTAB
0
TABLE
2
STYLE
5
3
100
AcDbSymbolTable
70
1
0
STYLE
5
11
100
AcDbSymbolTableRecord
100
AcDbTextStyleTableRecord
2
STANDARD
70
0
0
ENDTAB
0
TABLE
2
VIEW
5
6
100
AcDbSymbolTable
70
0
0
ENDTAB
0
TABLE
2
UCS
5
7
100
AcDbSymbolTable
70
0
0
ENDTAB
0
TABLE
2
APPID
5
9
100
AcDbSymbolTable
70
2
0
APPID
5
12
100
AcDbSymbolTableRecord
100
AcDbRegAppTableRecord
2
ACAD
70
0
0
ENDTAB
0
TABLE
2
DIMSTYLE
5
A
100
AcDbSymbolTable
70
1
0
ENDTAB
0
TABLE
2
BLOCK_RECORD
5
1
100
AcDbSymbolTable
70
1
0
BLOCK_RECORD
5
1F
100
AcDbSymbolTableRecord
100
AcDbBlockTableRecord
2
*MODEL_SPACE
0
BLOCK_RECORD
5
1B
100
AcDbSymbolTableRecord
100
AcDbBlockTableRecord
2
*PAPER_SPACE
0
ENDTAB
0
ENDSEC
0
SECTION
2
BLOCKS
0
BLOCK
5
20
100
AcDbEntity
100
AcDbBlockBegin
2
*MODEL_SPACE
0
ENDBLK
5
21
100
AcDbEntity
100
AcDbBlockEnd
0
BLOCK
5
1C
100
AcDbEntity
100
AcDbBlockBegin
2
*PAPER_SPACE
0
ENDBLK
5
1D
100
AcDbEntity
100
AcDbBlockEnd
0
ENDSEC
0
SECTION
2
ENTITIES
0
CIRCLE
5
100
100
AcDbEntity
8
0
100
AcDbCircle
10
-0.21496354377262131
20
-43.408171521053767
30
0
40
2.0000000000000009
210
0
220
0
230
1
0
LWPOLYLINE
5
101
100
AcDbEntity
8
0
100
AcDbPolyline
90
4
70
1
43
0.0
10
-2.5629720035500276
20
-41.141708136656462
42
-0.84515425472851446
10
-3.3517826412966487
20
-42.5079682387844
10
-4.4607469420968187
20
-42.095417418217068
42
-1.1832159566199272
10
-3.4747336449135497
20
-40.38759229055713
0
LWPOLYLINE
5
102
100
AcDbEntity
8
0
100
AcDbPolyline
90
4
70
1
43
0.0
10
-1.0037741815192469
20
-46.574838187720438
42
-0.84515425472852301
10
0.57384709397398659
20
-46.574838187720438
10
0.77104975341063953
20
-47.741504854387109
42
-1.1832159566199216
10
-1.2009768409558994
20
-47.741504854387109
0
LWPOLYLINE
5
103
100
AcDbEntity
8
0
100
AcDbPolyline
90
4
70
1
43
0.0
10
2.9218555537514135
20
-42.507968238784414
42
-0.84515425472852179
10
2.1330449160047982
20
-41.141708136656462
10
3.0448065573683185
20
-40.387592290557144
42
-1.1832159566199201
10
4.0308198545515843
20
-42.095417418217082
0
LINE
5
104
100
AcDbEntity
8
0
100
AcDbLine
10
1.7850364562273737
20
-31.735670247843327
30
0
11
1.7850364562273737
21
-18.015319476451729
31
0
0
SPLINE
5
105
100
AcDbEntity
8
0
100
AcDbSpline
70
0
71
3
72
20
73
16
74
0
42
0.000000001
43
0.0000000001
44
0.0000000001
40
-1.2979407109966035
40
-1.2979407109966035
40
-1.2979407109966035
40
-1.2979407109966035
40
-1.1861065064053273
40
-1.1861065064053273
40
-1.0742723018140512
40
-1.0742723018140512
40
-0.85941784145124112
40
-0.85941784145124112
40
-0.64456338108843081
40
-0.64456338108843081
40
-0.42970892072562061
40
-0.42970892072562061
40
-0.21485446036281036
40
-0.21485446036281036
40
0
40
0
40
0
40
0
10
11.163289225613424
20
-14.115427752730479
30
0
10
10.898961171725869
20
-13.852566350507324
30
0
10
10.608592150582755
20
-13.617258200915805
30
0
10
9.9847356433446404
20
-13.209012189570339
30
0
10
9.6528612876957247
20
-13.03712994567524
30
0
10
8.6400911684734396
20
-12.636960738208273
30
0
10
7.9289821291263589
20
-12.506394902564857
30
0
10
6.4967423933362456
20
-12.525191202829101
30
0
10
5.789304689398338
20
-12.674373635861462
30
0
10
4.4714327035400654
20
-13.235513004084476
30
0
10
3.8735979961002349
20
-13.642105141070331
30
0
10
2.8674317982616766
20
-14.661562616400643
30
0
10
2.4687198051172312
20
-15.264681385633684
30
0
10
1.9249226354328099
20
-16.589803493185652
30
0
10
1.7850364562273737
20
-17.299137941909027
30
0
10
1.7850364562273737
20
-18.015319476451729
30
0
0
SPLINE
5
106
100
AcDbEntity
8
0
100
AcDbSpline
70
0
71
3
72
8
73
4
74
0
42
0.000000001
43
0.0000000001
44
0.0000000001
40
-0.66848552479754897
40
-0.66848552479754897
40
-0.66848552479754897
40
-0.66848552479754897
40
-0.66168087848314106
40
-0.66168087848314106
40
-0.66168087848314106
40
-0.66168087848314106
10
11.370822893854278
20
-14.322385083426873
30
0
10
11.301001839094997
20
-14.252564029897117
30
0
10
11.231824951715851
20
-14.183583201237388
30
0
10
11.163289225613426
20
-14.115427752730481
30
0
0
ARC
5
107
100
AcDbEntity
8
0
100
AcDbCircle
10
12.785036456227374
20
-12.908171521053777
30
0
40
2.0000000000000022
210
0
220
0
230
1
100
AcDbArc
50
-135
51
44.999999999999964
0
SPLINE
5
108
100
AcDbEntity
8
0
100
AcDbSpline
70
0
71
3
72
8
73
4
74
0
42
0.000000001
43
0.0000000001
44
0.0000000001
40
-0.029692891950412782
40
-0.029692891950412782
40
-0.029692891950412782
40
-0.029692891950412782
40
0
40
0
40
0
40
0
10
13.992292687904124
20
-11.286424290439886
30
0
10
14.060283020111491
20
-11.354793978966022
30
0
10
14.129263201712767
20
-11.423971140560544
30
0
10
14.199250018600464
20
-11.493957958680687
30
0
0
SPLINE
5
109
100
AcDbEntity
8
0
100
AcDbSpline
70
0
71
3
72
20
73
16
74
0
42
0.000000001
43
0.0000000001
44
0.0000000001
40
-1.2979407109966121
40
-1.2979407109966121
40
-1.2979407109966121
40
-1.2979407109966121
40
-1.1861065064053316
40
-1.1861065064053316
40
-1.0742723018140514
40
-1.0742723018140514
40
-0.859417841451241
40
-0.859417841451241
40
-0.64456338108843081
40
-0.64456338108843081
40
-0.42970892072562061
40
-0.42970892072562061
40
-0.21485446036281028
40
-0.21485446036281028
40
0
40
0
40
0
40
0
10
17.892184411625308
20
-1.9081715210537715
30
0
10
17.519403729654375
20
-1.9081715210537724
30
0
10
17.147586961437359
20
-1.9460711856494233
30
0
10
16.417358951717528
20
-2.0964999103780406
30
0
10
16.060835889662062
20
-2.2086400010075908
30
0
10
15.060535681831341
20
-2.6390330808870228
30
0
10
14.464241941670558
20
-3.0478818044064409
30
0
10
13.46193592559084
20
-4.0711347603318844
30
0
10
13.065506241484609
20
-4.6757561367633089
30
0
10
12.52672119753003
20
-6.0029240380066318
30
0
10
12.389516916362417
20
-6.7127821143202535
30
0
10
12.394930470786514
20
-8.1451349532214259
30
0
10
12.537496549847313
20
-8.8539356419764701
30
0
10
13.086298077475112
20
-10.176993027335527
30
0
10
13.487286684318047
20
-10.77860057421352
30
0
10
13.992292687904122
20
-11.286424290439887
30
0
0
LINE
5
110
100
AcDbEntity
8
0
100
AcDbLine
10
17.892184411625308
20
-1.9081715210537715
30
0
11
31.612535183016945
21
-1.9081715210537737
31
0
0
ARC
5
111
100
AcDbEntity
8
0
100
AcDbCircle
10
31.612535183016945
20
-8.9081715210537773
30
0
40
7
210
0
220
-0
230
1
100
AcDbArc
50
28.404060842268006
51
90
0
LINE
5
112
100
AcDbEntity
8
0
100
AcDbLine
10
37.769839208330886
20
-5.5783656498575782
30
0
11
38.514459763287512
21
-6.9552792951923781
31
0
0
ARC
5
113
100
AcDbEntity
8
0
100
AcDbCircle
10
39.535036456227381
20
-6.4033620494370744
30
0
40
1.1602540378443877
210
0
220
0
230
1
100
AcDbArc
50
208.40406094647932
51
310.43752924094849
0
SPLINE
5
114
100
AcDbEntity
8
0
100
AcDbSpline
70
0
71
3
72
12
73
8
74
0
42
0.000000001
43
0.0000000001
44
0.0000000001
40
-1.0820980079942002
40
-1.0820980079942002
40
-1.0820980079942002
40
-1.0820980079942002
40
-0.78770480917070795
40
-0.78770480917070795
40
-0.55000243979602448
40
-0.55000243979602448
40
0
40
0
40
0
40
0
10
51.098222116154645
20
-1.4028490014069313
30
0
10
50.207043335625926
20
-1.4781706081523556
30
0
10
49.298873823876534
20
-1.786691327981857
30
0
10
47.437692662037222
20
-2.6893693513657775
30
0
10
46.552243757688501
20
-3.2049364126161324
30
0
10
42.874979382030972
20
-5.3676479896392468
30
0
10
41.682980187760066
20
-6.0973081615579225
30
0
10
40.287598778403087
20
-7.2864472002440515
30
0
0
ARC
5
115
100
AcDbEntity
8
0
100
AcDbCircle
10
50.971969850241138
20
0.091828478946248127
30
0
40
1.500000134974401
210
0
220
0
230
1
100
AcDbArc
50
-85.171806909744092
51
85.171806909744106
0
SPLINE
5
116
100
AcDbEntity
8
0
100
AcDbSpline
70
0
71
3
72
12
73
8
74
0
42
0.000000001
43
0.0000000001
44
0.0000000001
40
-0.82961730650872256
40
-0.82961730650872256
40
-0.82961730650872256
40
-0.82961730650872256
40
-0.48056809228183184
40
-0.48056809228183184
40
-0.19709050325193436
40
-0.19709050325193436
40
0
40
0
40
0
40
0
10
40.287598778403066
20
7.4701041581365004
30
0
10
41.752853069796707
20
6.2214196996689921
30
0
10
42.980851999618693
20
5.4905210061833252
30
0
10
46.786623084572874
20
3.2497872750700312
30
0
10
47.936940149199401
20
2.5776746008905276
30
0
10
49.767685321110946
20
1.82404265208209
30
0
10
50.44358779282593
20
1.6418350471784686
30
0
10
51.098222116154645
20
1.5865059592994095
30
0
0
ARC
5
117
100
AcDbEntity
8
0
100
AcDbCircle
10
39.535036456227367
20
6.5870190073295234
30
0
40
1.1602540378444099
210
0
220
-0
230
1
100
AcDbArc
50
49.562470759051671
51
151.59593903004014
0
LINE
5
118
100
AcDbEntity
8
0
100
AcDbLine
10
38.514459763513685
20
7.1389362535030703
30
0
11
37.769839206236938
21
5.7620226052266554
31
0
0
ARC
5
119
100
AcDbEntity
8
0
100
AcDbCircle
10
31.612535182287615
20
9.0918284789462298
30
0
40
7.0000000000000018
210
0
220
0
230
1
100
AcDbArc
50
269.99999999999994
51
331.59593913425113
0
LINE
5
120
100
AcDbEntity
8
0
100
AcDbLine
10
31.612535182287608
20
2.091828478946228
30
0
11
17.892184411625333
21
2.091828478946232
31
0
0
SPLINE
5
121
100
AcDbEntity
8
0
100
AcDbSpline
70
0
71
3
72
20
73
16
74
0
42
0.000000001
43
0.0000000001
44
0.0000000001
40
-1.2979407109966035
40
-1.2979407109966035
40
-1.2979407109966035
40
-1.2979407109966035
40
-1.1861065064053271
40
-1.1861065064053271
40
-1.0742723018140508
40
-1.0742723018140508
40
-0.85941784145124078
40
-0.85941784145124078
40
-0.64456338108843059
40
-0.64456338108843059
40
-0.42970892072562039
40
-0.42970892072562039
40
-0.2148544603628102
40
-0.2148544603628102
40
0
40
0
40
0
40
0
10
13.99229268790409
20
11.47008124833228
30
0
10
13.729431285680938
20
11.205753194444725
30
0
10
13.494123136089414
20
10.915384173301611
30
0
10
13.085877124743948
20
10.291527666063496
30
0
10
12.913994880848847
20
9.9596533104145806
30
0
10
12.513825673381881
20
8.9468831911922937
30
0
10
12.383259837738464
20
8.2357741518452148
30
0
10
12.402056138002708
20
6.8035344160551023
30
0
10
12.551238571035071
20
6.0960967121171965
30
0
10
13.112377939258085
20
4.7782247262589221
30
0
10
13.518970076243939
20
4.1803900188190921
30
0
10
14.538427551574248
20
3.1742238209805325
30
0
10
15.14154632080729
20
2.7755118278360884
30
0
10
16.466668428359256
20
2.2317146581516694
30
0
10
17.176002877082635
20
2.091828478946232
30
0
10
17.892184411625333
20
2.091828478946232
30
0
0
SPLINE
5
122
100
AcDbEntity
8
0
100
AcDbSpline
70
0
71
3
72
8
73
4
74
0
42
0.000000001
43
0.0000000001
44
0.0000000001
40
-0.66848552479794621
40
-0.66848552479794621
40
-0.66848552479794621
40
-0.66848552479794621
40
-0.66168087848353319
40
-0.66168087848353319
40
-0.66168087848353319
40
-0.66168087848353319
10
14.199250018600482
20
11.677614916573134
30
0
10
14.129428965070723
20
11.607793861813855
30
0
10
14.060448136410999
20
11.538616974434703
30
0
10
13.992292687904087
20
11.47008124833228
30
0
0
ARC
5
123
100
AcDbEntity
8
0
100
AcDbCircle
10
12.785036456227385
20
13.09182847894623
30
0
40
2.0000000000000022
210
-0
220
0
230
1
100
AcDbArc
50
-44.99999999999995
51
134.99999999999997
0
SPLINE
5
124
100
AcDbEntity
8
0
100
AcDbSpline
70
0
71
3
72
8
73
4
74
0
42
0.000000001
43
0.0000000001
44
0.0000000001
40
-0.029692891950413681
40
-0.029692891950413681
40
-0.029692891950413681
40
-0.029692891950413681
40
0
40
0
40
0
40
0
10
11.163289225613484
20
14.299084710622985
30
0
10
11.231658914139624
20
14.367075042830349
30
0
10
11.300836075734146
20
14.436055224431625
30
0
10
11.370822893854289
20
14.506042041319327
30
0
0
SPLINE
5
125
100
AcDbEntity
8
0
100
AcDbSpline
70
0
71
3
72
20
73
16
74
0
42
0.000000001
43
0.0000000001
44
0.0000000001
40
-1.2979407109966123
40
-1.2979407109966123
40
-1.2979407109966123
40
-1.2979407109966123
40
-1.1861065064053318
40
-1.1861065064053318
40
-1.074272301814051
40
-1.074272301814051
40
-0.85941784145124078
40
-0.85941784145124078
40
-0.64456338108843059
40
-0.64456338108843059
40
-0.4297089207256205
40
-0.4297089207256205
40
-0.21485446036281031
40
-0.21485446036281031
40
0
40
0
40
0
40
0
10
1.7850364562273759
20
18.198976434344168
30
0
10
1.7850364562273748
20
17.826195752373234
30
0
10
1.8229361208230268
20
17.454378984156214
30
0
10
1.9733648455516453
20
16.724150974436384
30
0
10
2.0855049361811964
20
16.367627912380918
30
0
10
2.5158980160606288
20
15.367327704550194
30
0
10
2.9247467395800482
20
14.77103396438941
30
0
10
3.9479996955054903
20
13.768727948309694
30
0
10
4.5526210719369162
20
13.372298264203469
30
0
10
5.8797889731802391
20
12.833513220248889
30
0
10
6.589647049493859
20
12.696308939081277
30
0
10
8.0219998883950296
20
12.701722493505374
30
0
10
8.7308005771500756
20
12.844288572566175
30
0
10
10.053857962509131
20
13.393090100193971
30
0
10
10.655465509387124
20
13.794078707036908
30
0
10
11.163289225613489
20
14.299084710622985
30
0
0
LINE
5
126
100
AcDbEntity
8
0
100
AcDbLine
10
1.7850364562273759
20
18.198976434344168
30
0
11
1.7850364562273837
21
31.919327205006482
31
0
0
ARC
5
127
100
AcDbEntity
8
0
100
AcDbCircle
10
8.7850364562273811
20
31.919327205006482
30
0
40
7.0000000000000036
210
0
220
0
230
1
100
AcDbArc
50
118.40406086574879
51
180
0
LINE
5
128
100
AcDbEntity
8
0
100
AcDbLine
10
5.4552305825078147
20
38.076631228955819
30
0
11
6.8321442307842073
21
38.821251786232544
31
0
0
ARC
5
129
100
AcDbEntity
8
0
100
AcDbCircle
10
6.2802269846106551
20
39.841828478946226
30
0
40
1.1602540378443806
210
0
220
0
230
1
100
AcDbArc
50
-61.595939030039887
51
40.437529240947931
0
SPLINE
5
130
100
AcDbEntity
8
0
100
AcDbSpline
70
0
71
3
72
12
73
8
74
0
42
0.000000001
43
0.0000000001
44
0.0000000001
40
-1.0820980079938076
40
-1.0820980079938076
40
-1.0820980079938076
40
-1.0820980079938076
40
-0.78770480916748065
40
-0.78770480916748065
40
-0.5500024397942227
40
-0.5500024397942227
40
0
40
0
40
0
40
0
10
1.2797139365805512
20
51.405014138873497
30
0
10
1.3550355433250696
20
50.513835358355536
30
0
10
1.663556263148638
20
49.60566584660954
30
0
10
2.5662342865386072
20
47.744484684757623
30
0
10
3.0818013477897348
20
46.859035780407297
30
0
10
5.244512924816962
20
43.181771404742939
30
0
10
5.9741730967354112
20
41.989772210474328
30
0
10
7.163312135417641
20
40.594390801121918
30
0
0
ARC
5
131
100
AcDbEntity
8
0
100
AcDbCircle
10
-0.21496354377261426
20
51.278761872959997
30
0
40
1.5000001349743874
210
0
220
-0
230
1
100
AcDbArc
50
4.8281930902555965
51
175.17180690974445
0
SPLINE
5
132
100
AcDbEntity
8
0
100
AcDbSpline
70
0
71
3
72
12
73
8
74
0
42
0.000000001
43
0.0000000001
44
0.0000000001
40
-0.82961730651311982
40
-0.82961730651311982
40
-0.82961730651311982
40
-0.82961730651311982
40
-0.48056809228235364
40
-0.48056809228235364
40
-0.19709050325154795
40
-0.19709050325154795
40
0
40
0
40
0
40
0
10
-7.5932392229629109
20
40.594390801121946
30
0
10
-6.3445547644899687
20
42.059645092521961
30
0
10
-5.6136560710041605
20
43.287644022347145
30
0
10
-3.3729223399066339
20
47.093415107274268
30
0
10
-2.7008096657201004
20
48.243732171910537
30
0
10
-1.9471777169078528
20
50.07447734383129
30
0
10
-1.7649701120047376
20
50.750379815546076
30
0
10
-1.7096410241257896
20
51.405014138873497
30
0
0
ARC
5
133
100
AcDbEntity
8
0
100
AcDbCircle
10
-6.7101540721559294
20
39.84182847894624
30
0
40
1.1602540378444162
210
0
220
0
230
1
100
AcDbArc
50
139.56247075905156
51
241.5959390535204
0
LINE
5
134
100
AcDbEntity
8
0
100
AcDbLine
10
-7.2620713179112357
20
38.821251786006378
30
0
11
-5.8851576725764341
21
38.076631231049745
31
0
0
ARC
5
135
100
AcDbEntity
8
0
100
AcDbCircle
10
-9.2149635437726367
20
31.919327205735804
30
0
40
7.0000000000000036
210
0
220
-0
230
1
100
AcDbArc
50
0
51
61.595939157731962
0
LINE
5
136
100
AcDbEntity
8
0
100
AcDbLine
10
-2.2149635437726323
20
31.919327205735812
30
0
11
-2.2149635437726274
21
18.198976434344193
31
0
0
SPLINE
5
137
100
AcDbEntity
8
0
100
AcDbSpline
70
0
71
3
72
20
73
16
74
0
42
0.000000001
43
0.0000000001
44
0.0000000001
40
-1.2979407109966028
40
-1.2979407109966028
40
-1.2979407109966028
40
-1.2979407109966028
40
-1.1861065064053262
40
-1.1861065064053262
40
-1.0742723018140499
40
-1.0742723018140499
40
-0.85941784145123967
40
-0.85941784145123967
40
-0.6445633810884297
40
-0.6445633810884297
40
-0.42970892072561978
40
-0.42970892072561978
40
-0.21485446036280995
40
-0.21485446036280995
40
0
40
0
40
0
40
0
10
-11.593216313158678
20
14.299084710622953
30
0
10
-11.328888259271125
20
14.0362233083998
30
0
10
-11.038519238128009
20
13.800915158808271
30
0
10
-10.414662730889896
20
13.392669147462808
30
0
10
-10.082788375240977
20
13.220786903567705
30
0
10
-9.0700182560186917
20
12.820617696100738
30
0
10
-8.358909216671611
20
12.69005186045732
30
0
10
-6.9266694808815004
20
12.708848160721564
30
0
10
-6.2192317769435936
20
12.858030593753929
30
0
10
-4.9013597910853228
20
13.419169961976943
30
0
10
-4.3035250836454892
20
13.825762098962795
30
0
10
-3.2973588858069318
20
14.845219574293102
30
0
10
-2.8986468926624882
20
15.448338343526144
30
0
10
-2.3548497229780669
20
16.773460451078108
30
0
10
-2.2149635437726309
20
17.482794899801483
30
0
10
-2.2149635437726309
20
18.198976434344186
30
0
0
SPLINE
5
138
100
AcDbEntity
8
0
100
AcDbSpline
70
0
71
3
72
8
73
4
74
0
42
0.000000001
43
0.0000000001
44
0.0000000001
40
-0.6684855247970688
40
-0.6684855247970688
40
-0.6684855247970688
40
-0.6684855247970688
40
-0.6616808784826681
40
-0.6616808784826681
40
-0.6616808784826681
40
-0.6616808784826681
10
-11.800749981399532
20
14.506042041319336
30
0
10
-11.730928926640253
20
14.43622098778958
30
0
10
-11.661752039261104
20
14.367240159129855
30
0
10
-11.593216313158683
20
14.29908471062295
30
0
0
ARC
5
139
100
AcDbEntity
8
0
100
AcDbCircle
10
-13.21496354377263
20
13.091828478946239
30
0
40
2.0000000000000022
210
0
220
-0
230
1
100
AcDbArc
50
45
51
225
0
SPLINE
5
140
100
AcDbEntity
8
0
100
AcDbSpline
70
0
71
3
72
8
73
4
74
0
42
0.000000001
43
0.0000000001
44
0.0000000001
40
-0.029692891950413459
40
-0.029692891950413459
40
-0.029692891950413459
40
-0.029692891950413459
40
0
40
0
40
0
40
0
10
-14.422219775449374
20
11.470081248332347
30
0
10
-14.49021010765674
20
11.538450936858485
30
0
10
-14.559190289258018
20
11.607628098453006
30
0
10
-14.629177106145717
20
11.677614916573152
30
0
0
SPLINE
5
141
100
AcDbEntity
8
0
100
AcDbSpline
70
0
71
3
72
20
73
16
74
0
42
0.000000001
43
0.0000000001
44
0.0000000001
40
-1.2979407109966117
40
-1.2979407109966117
40
-1.2979407109966117
40
-1.2979407109966117
40
-1.1861065064053313
40
-1.1861065064053313
40
-1.074272301814051
40
-1.074272301814051
40
-0.85941784145124078
40
-0.85941784145124078
40
-0.6445633810884307
40
-0.6445633810884307
40
-0.4297089207256205
40
-0.4297089207256205
40
-0.21485446036281022
40
-0.21485446036281022
40
0
40
0
40
0
40
0
10
-18.32211149917056
20
2.0918284789462365
30
0
10
-17.949330817199623
20
2.0918284789462356
30
0
10
-17.577514048982611
20
2.1297281435418887
30
0
10
-16.84728603926278
20
2.280156868270506
30
0
10
-16.490762977207314
20
2.3922969589000558
30
0
10
-15.490462769376592
20
2.8226900387794869
30
0
10
-14.89416902921581
20
3.2315387622989062
30
0
10
-13.891863013136092
20
4.2547917182243493
30
0
10
-13.495433329029861
20
4.859413094655773
30
0
10
-12.95664828507528
20
6.1865809958990994
30
0
10
-12.81944400390767
20
6.8964390722127185
30
0
10
-12.824857558331766
20
8.3287919111138926
30
0
10
-12.967423637392566
20
9.0375925998689368
30
0
10
-13.516225165020364
20
10.360649985227992
30
0
10
-13.917213771863302
20
10.962257532105985
30
0
10
-14.422219775449374
20
11.470081248332351
30
0
0
LINE
5
142
100
AcDbEntity
8
0
100
AcDbLine
10
-18.32211149917056
20
2.0918284789462365
30
0
11
-32.042462270562183
21
2.0918284789462365
31
0
0
ARC
5
143
100
AcDbEntity
8
0
100
AcDbCircle
10
-32.042462270562183
20
9.0918284789462351
30
0
40
7
210
0
220
0
230
1
100
AcDbArc
50
208.404060842268
51
270
0
LINE
5
144
100
AcDbEntity
8
0
100
AcDbLine
10
-38.199766295876131
20
5.7620226077500361
30
0
11
-38.944386850832764
21
7.1389362530848377
31
0
0
ARC
5
145
100
AcDbEntity
8
0
100
AcDbCircle
10
-39.964963543772633
20
6.5870190073295412
30
0
40
1.1602540378443844
210
0
220
-0
230
1
100
AcDbArc
50
28.404060946479014
51
130.43752924094852
0
SPLINE
5
146
100
AcDbEntity
8
0
100
AcDbSpline
70
0
71
3
72
12
73
8
74
0
42
0.000000001
43
0.0000000001
44
0.0000000001
40
-1.0820980079942002
40
-1.0820980079942002
40
-1.0820980079942002
40
-1.0820980079942002
40
-0.78770480917070795
40
-0.78770480917070795
40
-0.55000243979602448
40
-0.55000243979602448
40
0
40
0
40
0
40
0
10
-51.528149203699897
20
1.5865059592993962
30
0
10
-50.636970423171178
20
1.6618275660448205
30
0
10
-49.728800911421786
20
1.970348285874322
30
0
10
-47.867619749582474
20
2.8730263092582424
30
0
10
-46.982170845233753
20
3.3885933705085973
30
0
10
-43.304906469576224
20
5.5513049475317136
30
0
10
-42.112907275305318
20
6.2809651194503893
30
0
10
-40.717525865948339
20
7.4701041581365182
30
0
0
ARC
5
147
100
AcDbEntity
8
0
100
AcDbCircle
10
-51.40189693778639
20
0.091828478946221065
30
0
40
1.5000001349743974
210
0
220
0
230
1
100
AcDbArc
50
94.828193090255894
51
265.17180690974465
0
SPLINE
5
148
100
AcDbEntity
8
0
100
AcDbSpline
70
0
71
3
72
12
73
8
74
0
42
0.000000001
43
0.0000000001
44
0.0000000001
40
-0.82961730650872256
40
-0.82961730650872256
40
-0.82961730650872256
40
-0.82961730650872256
40
-0.48056809228183184
40
-0.48056809228183184
40
-0.19709050325193436
40
-0.19709050325193436
40
0
40
0
40
0
40
0
10
-40.717525865948318
20
-7.2864472002440337
30
0
10
-42.182780157341959
20
-6.0377627417765254
30
0
10
-43.410779087163945
20
-5.3068640482908593
30
0
10
-47.216550172118126
20
-3.0661303171775662
30
0
10
-48.366867236744653
20
-2.3940176429980626
30
0
10
-50.197612408656198
20
-1.6403856941896251
30
0
10
-50.873514880371182
20
-1.4581780892860037
30
0
10
-51.528149203699897
20
-1.4028490014069446
30
0
0
ARC
5
149
100
AcDbEntity
8
0
100
AcDbCircle
10
-39.964963543772619
20
-6.4033620494370558
30
0
40
1.1602540378444108
210
0
220
0
230
1
100
AcDbArc
50
229.56247075905171
51
331.59593903003991
0
LINE
5
150
100
AcDbEntity
8
0
100
AcDbLine
10
-38.944386851058937
20
-6.955279295610608
30
0
11
-38.199766293782211
21
-5.5783656473342074
31
0
0
ARC
5
151
100
AcDbEntity
8
0
100
AcDbCircle
10
-32.042462269832875
20
-8.9081715210537791
30
0
40
7.0000000000000027
210
0
220
-0
230
1
100
AcDbArc
50
90
51
151.59593913425121
0
LINE
5
152
100
AcDbEntity
8
0
100
AcDbLine
10
-32.042462269832875
20
-1.9081715210537764
30
0
11
-23.23836357012755
21
-1.9081715210537724
31
0
0
SPLINE
5
153
100
AcDbEntity
8
0
100
AcDbSpline
70
0
71
3
72
10
73
6
74
0
42
0.000000001
43
0.0000000001
44
0.0000000001
40
-1.227484698252844
40
-1.227484698252844
40
-1.227484698252844
40
-1.227484698252844
40
-0.75168259892611033
40
-0.75168259892611033
40
0
40
0
40
0
40
0
10
-10.352552945900451
20
-6.8343796401913952
30
0
10
-12.578999122032213
20
-4.9048687248080096
30
0
10
-14.548570755150729
20
-3.8635598299263068
30
0
10
-18.345429819768242
20
-2.3046040340561387
30
0
10
-20.732754907040515
20
-1.9081715210537649
30
0
10
-23.23836357012755
20
-1.9081715210537649
30
0
0
SPLINE
5
154
100
AcDbEntity
8
0
100
AcDbSpline
70
0
71
3
72
10
73
6
74
0
42
0.000000001
43
0.0000000001
44
0.0000000001
40
-0.45329381839469007
40
-0.45329381839469007
40
-0.45329381839469007
40
-0.45329381839469007
40
-0.22600860880551091
40
-0.22600860880551091
40
0
40
0
40
0
40
0
10
-7.1819806776101807
20
-10.07841670277365
30
0
10
-7.6659474908546876
20
-9.4957748698032383
30
0
10
-8.1769629679000246
20
-8.9291478029563081
30
0
10
-9.2321313168278749
20
-7.8489464465292214
30
0
10
-9.7832358958668912
20
-7.3277683751762961
30
0
10
-10.352552945900451
20
-6.8343796401913952
30
0
0
SPLINE
5
155
100
AcDbEntity
8
0
100
AcDbSpline
70
0
71
3
72
10
73
6
74
0
42
0.000000001
43
0.0000000001
44
0.0000000001
40
-1.5249338816294795
40
-1.5249338816294795
40
-1.5249338816294795
40
-1.5249338816294795
40
-0.72019135941561307
40
-0.72019135941561307
40
0
40
0
40
0
40
0
10
-2.2149635437726274
20
-22.872607357467878
30
0
10
-2.2149635437726287
20
-20.416285660965912
30
0
10
-2.6596132571849389
20
-18.120865739194361
30
0
10
-4.4452494443116226
20
-13.840066267373185
30
0
10
-5.6480647502231189
20
-11.925079662088656
30
0
10
-7.1819806775999906
20
-10.078416702785916
30
0
0
LINE
5
156
100
AcDbEntity
8
0
100
AcDbLine
10
-2.2149635437726274
20
-22.872607357467878
30
0
11
-2.2149635437726354
21
-31.735670247114022
31
0
0
ARC
5
157
100
AcDbEntity
8
0
100
AcDbCircle
10
-9.2149635437726385
20
-31.735670247114015
30
0
40
7.0000000000000009
210
-0
220
0
230
1
100
AcDbArc
50
298.40406086574882
51
360
0
LINE
5
158
100
AcDbEntity
8
0
100
AcDbLine
10
-5.8851576700530694
20
-37.892974271063352
30
0
11
-7.2620713183294594
21
-38.637594828340077
31
0
0
ARC
5
159
100
AcDbEntity
8
0
100
AcDbCircle
10
-6.7101540721559116
20
-39.65817152105376
30
0
40
1.1602540378443784
210
0
220
0
230
1
100
AcDbArc
50
118.40406096995994
51
220.43752924094773
0
SPLINE
5
160
100
AcDbEntity
8
0
100
AcDbSpline
70
0
71
3
72
12
73
8
74
0
42
0.000000001
43
0.0000000001
44
0.0000000001
40
-1.0820980079938076
40
-1.0820980079938076
40
-1.0820980079938076
40
-1.0820980079938076
40
-0.78770480916748065
40
-0.78770480916748065
40
-0.5500024397942227
40
-0.5500024397942227
40
0
40
0
40
0
40
0
10
-1.7096410241258029
20
-51.221357180981038
30
0
10
-1.7849626308703213
20
-50.330178400463069
30
0
10
-2.0934833506938895
20
-49.422008888717087
30
0
10
-2.9961613740838584
20
-47.56082772686517
30
0
10
-3.511728435334986
20
-46.675378822514837
30
0
10
-5.6744400123622141
20
-42.998114446850479
30
0
10
-6.4041001842806633
20
-41.806115252581868
30
0
10
-7.5932392229628931
20
-40.410733843229458
30
0
0
ARC
5
161
100
AcDbEntity
8
0
100
AcDbCircle
10
-0.21496354377263951
20
-51.09510491506753
30
0
40
1.5000001349743859
210
0
220
0
230
1
100
AcDbArc
50
184.82819309025581
51
355.17180690974419
0
SPLINE
5
162
100
AcDbEntity
8
0
100
AcDbSpline
70
0
71
3
72
12
73
8
74
0
42
0.000000001
43
0.0000000001
44
0.0000000001
40
-0.82961730651311982
40
-0.82961730651311982
40
-0.82961730651311982
40
-0.82961730651311982
40
-0.48056809228235364
40
-0.48056809228235364
40
-0.19709050325154795
40
-0.19709050325154795
40
0
40
0
40
0
40
0
10
7.1633121354176588
20
-40.410733843229487
30
0
10
5.9146276769447166
20
-41.875988134629495
30
0
10
5.1837289834589084
20
-43.103987064454685
30
0
10
2.9429952523613827
20
-46.909758149381808
30
0
10
2.2708825781748492
20
-48.060075214018084
30
0
10
1.5172506293626011
20
-49.890820385938838
30
0
10
1.335043024459486
20
-50.566722857653616
30
0
10
1.2797139365805379
20
-51.221357180981038
30
0
0
ARC
5
163
100
AcDbEntity
8
0
100
AcDbCircle
10
6.2802269846106746
20
-39.658171521053774
30
0
40
1.1602540378444237
210
-0
220
0
230
1
100
AcDbArc
50
-40.437529240948649
51
61.595939053520439
0
LINE
5
164
100
AcDbEntity
8
0
100
AcDbLine
10
6.8321442303659836
20
-38.637594828113905
30
0
11
5.4552305850311713
21
-37.892974273157272
31
0
0
ARC
5
165
100
AcDbEntity
8
0
100
AcDbCircle
10
8.7850364562273757
20
-31.735670247843327
30
0
40
7.0000000000000018
210
0
220
0
230
1
100
AcDbArc
50
180
51
241.59593915773198
0
LWPOLYLINE
5
166
100
AcDbEntity
8
0
100
AcDbPolyline
90
4
70
1
43
0.0
10
-41.448500159375321
20
2.4398369387236576
42
-0.84515425472852113
10
-42.814760261503267
20
3.2286475764702698
10
-42.402209440935934
20
4.3376118772704437
42
-1.1832159566199216
10
-40.694384313276004
20
3.3515985800871744
0
LWPOLYLINE
5
167
100
AcDbEntity
8
0
100
AcDbPolyline
90
4
70
1
43
0.0
10
-46.881630210439297
20
0.88063911669284523
42
-0.84515425472852279
10
-46.881630210439297
20
-0.69698215880038872
10
-48.048296877105955
20
-0.89418481823703999
42
-1.183215956619921
10
-48.048296877105976
20
1.0778417761294989
0
LWPOLYLINE
5
168
100
AcDbEntity
8
0
100
AcDbPolyline
90
4
70
1
43
0.0
10
-42.81476026150326
20
-3.0449906185777875
42
-0.84515425472851236
10
-41.448500159375321
20
-2.2561799808311696
10
-40.694384313275989
20
-3.1679416221946877
42
-1.1832159566199292
10
-42.40220944093592
20
-4.1539549193779628
0
CIRCLE
5
169
100
AcDbEntity
8
0
100
AcDbCircle
10
-43.714963543772626
20
0.091828478946237094
30
0
40
2.0000000000000009
210
-0
220
0
230
1
0
LWPOLYLINE
5
170
100
AcDbEntity
8
0
100
AcDbPolyline
90
4
70
1
43
0.0
10
-3.3517826412966594
20
42.691625196676874
42
-0.84515425472851902
10
-2.5629720035500494
20
41.325365094548928
10
-3.4747336449135764
20
40.571249248449597
42
-1.1832159566199167
10
-4.4607469420968329
20
42.279074376109534
0
LWPOLYLINE
5
171
100
AcDbEntity
8
0
100
AcDbPolyline
90
4
70
1
43
0.0
10
0.57384709397399569
20
46.758495145612912
42
-0.84515425472852357
10
-1.0037741815192383
20
46.758495145612898
10
-1.2009768409558916
20
47.925161812279569
42
-1.1832159566199207
10
0.77104975341064841
20
47.925161812279569
0
LWPOLYLINE
5
172
100
AcDbEntity
8
0
100
AcDbPolyline
90
4
70
1
43
0.0
10
2.1330449160047813
20
41.325365094548928
42
-0.84515425472851624
10
2.9218555537513957
20
42.691625196676867
10
4.0308198545515666
20
42.27907437610952
42
-1.1832159566199332
10
3.0448065573682923
20
40.571249248449597
0
CIRCLE
5
173
100
AcDbEntity
8
0
100
AcDbCircle
10
-0.21496354377263019
20
43.591828478946226
30
0
40
2.0000000000000009
210
-0
220
0
230
1
0
CIRCLE
5
174
100
AcDbEntity
8
0
100
AcDbCircle
10
-13.21496354377263
20
13.091828478946239
30
0
40
1.0000000000000011
210
-0
220
0
230
1
0
CIRCLE
5
175
100
AcDbEntity
8
0
100
AcDbCircle
10
12.785036456227374
20
-12.908171521053777
30
0
40
1.0000000000000013
210
0
220
0
230
1
0
CIRCLE
5
176
100
AcDbEntity
8
0
100
AcDbCircle
10
12.785036456227385
20
13.09182847894623
30
0
40
1.0000000000000013
210
-0
220
0
230
1
0
SPLINE
5
177
100
AcDbEntity
8
0
100
AcDbSpline
70
0
71
3
72
12
73
8
74
0
42
0.000000001
43
0.0000000001
44
0.0000000001
40
-1.0373342855352981
40
-1.0373342855352981
40
-1.0373342855352981
40
-1.0373342855352981
40
-0.85884010465729244
40
-0.85884010465729244
40
-0.59208254102535685
40
-0.59208254102535685
40
-0.11512009591359468
40
-0.11512009591359468
40
-0.11512009591359468
40
-0.11512009591359468
10
10.659326767955761
20
1.235951202340726
30
0
10
10.217521434738153
20
2.3068520790091713
30
0
10
9.6954068809923104
20
3.3545307585199744
30
0
10
8.1755238119198026
20
5.7939458375192867
30
0
10
7.2102256483670839
20
6.8792655346722311
30
0
10
4.5125556133988862
20
9.2851984087529829
30
0
10
2.5833236196673881
20
10.283685254985
30
0
10
0.92915917962354522
20
10.966118790671061
30
0
0
SPLINE
5
178
100
AcDbEntity
8
0
100
AcDbSpline
70
0
71
3
72
10
73
6
74
0
42
0.000000001
43
0.0000000001
44
0.0000000001
40
-0.2355157828161093
40
-0.2355157828161093
40
-0.2355157828161093
40
-0.2355157828161093
40
-0.11719334201607856
40
-0.11719334201607856
40
0
40
0
40
0
40
0
10
10.659326767952631
20
-1.0522942444445649
30
0
10
10.809743871516016
20
-0.68769518698736654
30
0
10
10.886794576459117
20
-0.29698668651497778
30
0
10
10.885331163742478
20
0.48806455890063666
30
0
10
10.808308507545185
20
0.87483135262783784
30
0
10
10.65932676795577
20
1.23595120234073
30
0
0
SPLINE
5
179
100
AcDbEntity
8
0
100
AcDbSpline
70
0
71
3
72
12
73
8
74
0
42
0.000000001
43
0.0000000001
44
0.0000000001
40
-0.96367063810744047
40
-0.96367063810744047
40
-0.96367063810744047
40
-0.96367063810744047
40
-0.85884010465686922
40
-0.85884010465686922
40
-0.59208254102776281
40
-0.59208254102776281
40
-0.11512009591307293
40
-0.11512009591307293
40
-0.11512009591307293
40
-0.11512009591307293
10
2.2399073643287708
20
-10.193987038398642
30
0
10
2.8529498633697403
20
-9.8949136882687352
30
0
10
3.4513221344387297
20
-9.5670883986871047
30
0
10
5.487153814781685
20
-8.2986588767632767
30
0
10
6.5724735119298678
20
-7.3333607132147947
30
0
10
8.9784063860188041
20
-4.6356906782476166
30
0
10
9.9768932322605473
20
-2.7064586844988563
30
0
10
10.659326767952628
20
-1.0522942444445622
30
0
0
SPLINE
5
180
100
AcDbEntity
8
0
100
AcDbSpline
70
0
71
3
72
14
73
10
74
0
42
0.000000001
43
0.0000000001
44
0.0000000001
40
-0.42497746703937067
40
-0.42497746703937067
40
-0.42497746703937067
40
-0.42497746703937067
40
-0.32968207553576356
40
-0.32968207553576356
40
-0.23438668403215646
40
-0.23438668403215646
40
-0.11719334201607814
40
-0.11719334201607814
40
0
40
0
40
0
40
0
10
-1.5312028330431036
20
-9.2209096356712248
30
0
10
-1.3487461458875014
20
-9.4809325363704602
30
0
10
-1.126143616009321
20
-9.7103342335403422
30
0
10
-0.61730886637638727
20
-10.090724301588075
30
0
10
-0.33429063573372025
20
-10.23930998762977
30
0
10
0.33693643960691994
20
-10.465445175133674
30
0
10
0.72795773348697446
20
-10.516664214855961
30
0
10
1.5076239349871421
20
-10.466334972965196
30
0
10
1.8888148087700032
20
-10.365267866336172
30
0
10
2.2399073643287668
20
-10.193987038398642
30
0
0
SPLINE
5
181
100
AcDbEntity
8
0
100
AcDbSpline
70
0
71
3
72
10
73
6
74
0
42
0.000000001
43
0.0000000001
44
0.0000000001
40
-2.0802267509543824
40
-2.0802267509543824
40
-2.0802267509543824
40
-2.0802267509543824
40
-1.1683594223431317
40
-1.1683594223431317
40
-0.25649209369777254
40
-0.25649209369777254
40
-0.25649209369777254
40
-0.25649209369777254
10
-9.5277016583939123
20
-1.2244108103266589
30
0
10
-7.3689118057315115
20
-2.7392221739541371
30
0
10
-5.9566826528707821
20
-4.0659474960825195
30
0
10
-4.3727395187704836
20
-5.6498906301802778
30
0
10
-3.0460141966451011
20
-7.06211978304143
30
0
10
-1.5312028330431058
20
-9.220909635671223
30
0
0
SPLINE
5
182
100
AcDbEntity
8
0
100
AcDbSpline
70
0
71
3
72
14
73
10
74
0
42
0.000000001
43
0.0000000001
44
0.0000000001
40
-0.42497746703905992
40
-0.42497746703905992
40
-0.42497746703905992
40
-0.42497746703905992
40
-0.32968207553560819
40
-0.32968207553560819
40
-0.23438668403215651
40
-0.23438668403215651
40
-0.11719334201607831
40
-0.11719334201607831
40
0
40
0
40
0
40
0
10
-10.500779061119655
20
2.5466993870432115
30
0
10
-10.640055518933234
20
2.2612095976033526
30
0
10
-10.733109152860937
20
1.9554023933306286
30
0
10
-10.819805626425417
20
1.3260430939049872
30
0
10
-10.812900858961276
20
1.0064662656484358
30
0
10
-10.686027226620878
20
0.30962626169215141
30
0
10
-10.541654471538326
20
-0.057358138368092601
30
0
10
-10.120364619341535
20
-0.71533023411912644
30
0
10
-9.8474752828350081
20
-1.0000273579520353
30
0
10
-9.5277016583939158
20
-1.2244108103266671
30
0
0
SPLINE
5
183
100
AcDbEntity
8
0
100
AcDbSpline
70
0
71
3
72
12
73
8
74
0
42
0.000000001
43
0.0000000001
44
0.0000000001
40
-1.0373342855397589
40
-1.0373342855397589
40
-1.0373342855397589
40
-1.0373342855397589
40
-0.85884010465799387
40
-0.85884010465799387
40
-0.59208254102076485
40
-0.59208254102076485
40
-0.23676152856098051
40
-0.23676152856098051
40
-0.23676152856098051
40
-0.23676152856098051
10
-1.3590862671673896
20
10.966118790669855
30
0
10
-2.4299871438506342
20
10.524313457442476
30
0
10
-3.4776658233777096
20
10.002198903685873
30
0
10
-5.9170809024066395
20
8.4823158345872702
30
0
10
-7.0024005995691132
20
7.5170176710199872
30
0
10
-9.0148236605046783
20
5.2605734253370242
30
0
10
-9.8600902454233932
20
3.8599874901511906
30
0
10
-10.500779061119651
20
2.5466993870432111
30
0
0
SPLINE
5
184
100
AcDbEntity
8
0
100
AcDbSpline
70
0
71
3
72
10
73
6
74
0
42
0.000000001
43
0.0000000001
44
0.0000000001
40
-0.23551578281672531
40
-0.23551578281672531
40
-0.23551578281672531
40
-0.23551578281672531
40
-0.11719334201607819
40
-0.11719334201607819
40
0
40
0
40
0
40
0
10
0.92915917962354344
20
10.966118790671063
30
0
10
0.56456012216431284
20
11.116535894234907
30
0
10
0.17385162168970267
20
11.193586599177676
30
0
10
-0.61119962372796022
20
11.19212318645874
30
0
10
-0.99796641745493497
20
11.115100530260317
30
0
10
-1.35908626716739
20
10.966118790669848
30
0
0
CIRCLE
5
185
100
AcDbEntity
8
0
100
AcDbCircle
10
43.285036456227374
20
0.091828478946228212
30
0
40
2.0000000000000009
210
0
220
0
230
1
0
LWPOLYLINE
5
186
100
AcDbEntity
8
0
100
AcDbPolyline
90
4
70
1
43
0.0
10
42.384833173958008
20
3.2286475764702582
42
-0.84515425472851524
10
41.018573071830069
20
2.4398369387236345
10
40.26445722573073
20
3.3515985800871584
42
-1.1832159566199247
10
41.972282353390668
20
4.3376118772704277
0
LWPOLYLINE
5
187
100
AcDbEntity
8
0
100
AcDbPolyline
90
4
70
1
43
0.0
10
46.451703122894045
20
-0.69698215880037984
42
-0.84515425472852279
10
46.451703122894045
20
0.88063911669285377
10
47.618369789560717
20
1.0778417761295065
42
-1.1832159566199159
10
47.618369789560724
20
-0.89418481823703377
0
LWPOLYLINE
5
188
100
AcDbEntity
8
0
100
AcDbPolyline
90
4
70
1
43
0.0
10
41.018573071830069
20
-2.2561799808311922
42
-0.84515425472851979
10
42.384833173958015
20
-3.0449906185778026
10
41.972282353390682
20
-4.1539549193779779
42
-1.1832159566199159
10
40.264457225730737
20
-3.1679416221947152
0
ENDSEC
0
SECTION
2
OBJECTS
0
DICTIONARY
5
C
100
AcDbDictionary
3
ACAD_GROUP
350
D
3
ACAD_MLINESTYLE
350
17
0
DICTIONARY
5
D
100
AcDbDictionary
0
DICTIONARY
5
1A
330
C
100
AcDbDictionary
0
DICTIONARY
5
17
100
AcDbDictionary
0
ENDSEC
0
EOF
