0
SECTION
2
HEADER
9
$INSUNITS
70
4
9
$ACADVER
1
AC1014
9
$HANDSEED
5
FFFF
0
ENDSEC
0
SECTION
2
TABLES
0
TABLE
2
VPORT
5
8
100
AcDbSymbolTable
0
ENDTAB
0
TABLE
2
LTYPE
5
5
100
AcDbSymbolTable
0
LTYPE
5
14
100
AcDbSymbolTableRecord
100
AcDbLinetypeTableRecord
2
BYBLOCK
70
0
0
LTYPE
5
15
100
AcDbSymbolTableRecord
100
AcDbLinetypeTableRecord
2
BYLAYER
70
0
0
ENDTAB
0
TABLE
2
LAYER
5
2
100
AcDbSymbolTable
70
2
0
LAYER
5
50
100
AcDbSymbolTableRecord
100
AcDbLayerTableRecord
2
0
70
0
6
CONTINUOUS
0
ENDTAB
0
TABLE
2
STYLE
5
3
100
AcDbSymbolTable
70
1
0
STYLE
5
11
100
AcDbSymbolTableRecord
100
AcDbTextStyleTableRecord
2
STANDARD
70
0
0
ENDTAB
0
TABLE
2
VIEW
5
6
100
AcDbSymbolTable
70
0
0
ENDTAB
0
TABLE
2
UCS
5
7
100
AcDbSymbolTable
70
0
0
ENDTAB
0
TABLE
2
APPID
5
9
100
AcDbSymbolTable
70
2
0
APPID
5
12
100
AcDbSymbolTableRecord
100
AcDbRegAppTableRecord
2
ACAD
70
0
0
ENDTAB
0
TABLE
2
DIMSTYLE
5
A
100
AcDbSymbolTable
70
1
0
ENDTAB
0
TABLE
2
BLOCK_RECORD
5
1
100
AcDbSymbolTable
70
1
0
BLOCK_RECORD
5
1F
100
AcDbSymbolTableRecord
100
AcDbBlockTableRecord
2
*MODEL_SPACE
0
BLOCK_RECORD
5
1B
100
AcDbSymbolTableRecord
100
AcDbBlockTableRecord
2
*PAPER_SPACE
0
ENDTAB
0
ENDSEC
0
SECTION
2
BLOCKS
0
BLOCK
5
20
100
AcDbEntity
100
AcDbBlockBegin
2
*MODEL_SPACE
0
ENDBLK
5
21
100
AcDbEntity
100
AcDbBlockEnd
0
BLOCK
5
1C
100
AcDbEntity
100
AcDbBlockBegin
2
*PAPER_SPACE
0
ENDBLK
5
1D
100
AcDbEntity
100
AcDbBlockEnd
0
ENDSEC
0
SECTION
2
ENTITIES
0
CIRCLE
5
100
100
AcDbEntity
8
0
100
AcDbCircle
10
-3.06467929884559
20
-79.730523200114376
30
0
40
1.0000000000000004
210
-0
220
0
230
1
0
CIRCLE
5
101
100
AcDbEntity
8
0
100
AcDbCircle
10
3.2992817318333429
20
-79.730523200114376
30
0
40
1.0000000000000004
210
0
220
-0
230
1
0
CIRCLE
5
102
100
AcDbEntity
8
0
100
AcDbCircle
10
0.11730121649387727
20
-76.548542684774915
30
0
40
2.1500000000000008
210
0
220
-0
230
1
0
CIRCLE
5
103
100
AcDbEntity
8
0
100
AcDbCircle
10
-3.0646792988455882
20
-73.36656216943544
30
0
40
1.0000000000000004
210
-0
220
0
230
1
0
CIRCLE
5
104
100
AcDbEntity
8
0
100
AcDbCircle
10
3.2992817318333447
20
-73.36656216943544
30
0
40
1.0000000000000004
210
0
220
-0
230
1
0
LWPOLYLINE
5
105
100
AcDbEntity
8
0
100
AcDbPolyline
90
82
70
1
43
0.0
10
3.1173012164938525
20
-19.307012429748625
10
3.1173012251619459
20
-62.197679849822649
42
0.21039123787943673
10
6.3646151634815498
20
-69.573398882260889
42
-0.27947032989986914
10
6.946547835605335
20
-71.563867966180425
10
6.0034016291374845
20
-75.100666385366495
42
0.14662565244407111
10
6.0911598235286624
20
-77.970118339446813
10
6.7398160987849938
20
-79.916087273955299
42
-0.51191828856325328
10
4.8424494920816006
20
-82.548542774181882
10
1.0718309752039628
20
-82.548542774181882
42
0.094598774057476992
10
-0.77009924359754844
20
-82.900178215644559
10
-6.0143127397458374
20
-84.978215596482372
42
-0.61764514354421596
10
-7.3477642884526162
20
-83.786533961327834
10
-5.7352033940354152
20
-77.846934419170083
42
0.13218832814629156
10
-5.7293562076182125
20
-75.248577598420795
10
-6.7119454026175775
20
-71.563867966180453
42
-0.27947033031436302
10
-6.1300127282252284
20
-69.573398880183959
42
0.21039123776223048
10
-2.8826987785627556
20
-62.197679857229176
10
-2.88269878350612
20
-22.771326405460172
42
0.30932869548876102
10
-6.0707814944776377
20
-18.111180942309936
10
-13.698061563568942
20
-15.145608143192497
42
-0.21030796097347929
10
-14.979764241923736
20
-13.86390546483771
10
-17.945337041041178
20
-6.2366253957463735
42
0.30932869548876191
10
-22.605482504191421
20
-3.0485426847748522
10
-62.031835955960432
20
-3.0485426798315238
42
0.21039123776223015
10
-69.407554978915186
20
-6.2958566294939908
42
-0.27947033031436203
10
-71.398024064911667
20
-6.8777893038863471
10
-75.082733697152023
20
-5.8952001088869856
42
0.13218832814629275
10
-77.68109051790131
20
-5.9010472953041919
10
-83.620690060059033
20
-7.5136081897213858
42
-0.61764514354420441
10
-84.812371695213614
20
-6.1801566410145927
10
-82.734334314375786
20
-0.9359431448663218
42
0.094598774057482932
10
-82.38269887291311
20
0.90598707393519606
10
-82.38269887291311
20
4.6766055908128266
42
-0.51191828856324995
10
-79.750243372686526
20
6.5739721975162224
10
-77.804274438178041
20
5.9253159222598999
42
0.14662565244406855
10
-74.934822484097751
20
5.8375577278687167
10
-71.398024064911681
20
6.7807039343365707
42
-0.27947032989987219
10
-69.407554980992131
20
6.1987712622127784
42
0.21039123787943742
10
-62.031835948553876
20
2.9514573238931829
10
-19.135196129247046
20
2.9514573152251202
42
0.58749462783640038
10
-14.457553250355172
20
11.344493280703642
42
-1.0052645002012546
10
-11.291056195760451
20
14.541794975243986
42
0.5885977765393523
10
-2.8826987835060907
20
19.209927060198872
10
-2.8826987921741831
20
62.100594480272868
42
0.21039123787943717
10
-6.130012730493779
20
69.47631351271113
42
-0.27947032989987003
10
-6.7119454026175651
20
71.466782596630665
10
-5.7687991961497129
20
75.003581015816735
42
0.14662565244407116
10
-5.8565573905408925
20
77.873032969897054
10
-6.5052136657972239
20
79.819001904405525
42
-0.51191828856325328
10
-4.6078470590938299
20
82.451457404632094
10
-0.83722854221619203
20
82.451457404632094
42
0.094598774057476992
10
1.0047016765853178
20
82.803092846094785
10
6.2489151727336081
20
84.881130226932584
42
-0.61764514354420996
10
7.5823667214403851
20
83.689448591778074
10
5.9698058270231869
20
77.749849049620323
42
0.1321883281462915
10
5.9639586406059824
20
75.151492228871035
10
6.9465478356053474
20
71.466782596630679
42
-0.2794703303143628
10
6.364615161213
20
69.476313510634199
42
0.21039123776223023
10
3.1173012115505241
20
62.100594487679423
10
3.1173012164938827
20
19.203954660966051
42
0.5874946278364005
10
11.510337181972432
20
14.526311782074188
42
-1.0052645002012492
10
14.707638876512753
20
11.359814727479456
42
0.5885977765393523
10
19.375770961467627
20
2.9514573152250927
10
62.266438388948195
20
2.9514573102817652
42
0.21039123776223018
10
69.642157411902957
20
6.1987712599442339
42
-0.27947033031436203
10
71.632626497899437
20
6.7807039343365902
10
75.317336130139793
20
5.798114739337227
42
0.13218832814629372
10
77.915692950889081
20
5.803961925754435
10
83.855292493046818
20
7.4165228201716289
42
-0.61764514354420474
10
85.046974128201384
20
6.083071271464835
10
82.968936747363557
20
0.83885777531656447
42
0.094598774057482932
10
82.617301305900895
20
-1.0030724434849536
10
82.617301305900881
20
-4.7736909603625852
42
-0.5119182885632525
10
79.984845805674297
20
-6.6710575670659793
10
78.038876871165812
20
-6.0224012918096577
42
0.14662565244406908
10
75.169424917085507
20
-5.9346430974184727
10
71.632626497899452
20
-6.8777893038863294
42
-0.27947032989987208
10
69.642157413979902
20
-6.295856631762538
42
0.21039123787943742
10
62.26643838154164
20
-3.0485426934429336
10
19.36979856223482
20
-3.048542684774882
42
0.5874946278364005
10
14.692155683342943
20
-11.441578650253403
42
-1.0052645002012546
10
11.525658628748221
20
-14.638880344793748
42
0.58859777653935264
0
CIRCLE
5
106
100
AcDbEntity
8
0
100
AcDbCircle
10
-73.200718268166682
20
3.1334378305645769
30
0
40
1.0000000000000004
210
0
220
0
230
1
0
CIRCLE
5
107
100
AcDbEntity
8
0
100
AcDbCircle
10
-73.200718268166682
20
-3.230523200114356
30
0
40
1.0000000000000004
210
0
220
0
230
1
0
CIRCLE
5
108
100
AcDbEntity
8
0
100
AcDbCircle
10
-76.382698783506143
20
-0.048542684774888413
30
0
40
2.1500000000000008
210
0
220
0
230
1
0
CIRCLE
5
109
100
AcDbEntity
8
0
100
AcDbCircle
10
-79.564679298845618
20
3.1334378305645787
30
0
40
1.0000000000000004
210
0
220
-0
230
1
0
CIRCLE
5
110
100
AcDbEntity
8
0
100
AcDbCircle
10
-79.564679298845618
20
-3.2305232001143542
30
0
40
1.0000000000000004
210
0
220
0
230
1
0
CIRCLE
5
111
100
AcDbEntity
8
0
100
AcDbCircle
10
3.2992817318333607
20
79.633437830564617
30
0
40
1.0000000000000004
210
0
220
-0
230
1
0
CIRCLE
5
112
100
AcDbEntity
8
0
100
AcDbCircle
10
-3.0646792988455722
20
79.633437830564617
30
0
40
1.0000000000000004
210
-0
220
0
230
1
0
CIRCLE
5
113
100
AcDbEntity
8
0
100
AcDbCircle
10
0.1173012164938935
20
76.451457315225156
30
0
40
2.1500000000000008
210
-0
220
0
230
1
0
CIRCLE
5
114
100
AcDbEntity
8
0
100
AcDbCircle
10
3.2992817318333589
20
73.26947679988568
30
0
40
1.0000000000000004
210
0
220
-0
230
1
0
CIRCLE
5
115
100
AcDbEntity
8
0
100
AcDbCircle
10
-3.064679298845574
20
73.26947679988568
30
0
40
1.0000000000000004
210
-0
220
0
230
1
0
LWPOLYLINE
5
116
100
AcDbEntity
8
0
100
AcDbPolyline
90
12
70
1
43
0.0
10
3.823012941118785
20
-7.1385145192730661
42
-0.30681888136948615
10
6.0518720466784792
20
-7.3932219080815065
42
0.92655032088913114
10
7.4619804398005165
20
-5.9831135149594719
42
-0.30681888136948643
10
7.2072730509920788
20
-3.7542544093997723
42
0.24557446264763871
10
7.2072730509920735
20
3.6571690398500216
42
-0.30681888136948654
10
7.4619804398005147
20
5.8860281454097141
42
0.92655032088913214
10
6.0518720466784792
20
7.2961365385317514
42
-0.30681888136948604
10
3.8230129411187788
20
7.0414291497233119
42
0.24557446264763871
10
-3.588410508131016
20
7.0414291497233101
42
-0.30681888136948654
10
-5.8172696136907076
20
7.2961365385317523
42
0.92655032088913303
10
-7.2273780068127422
20
5.886028145409715
42
-0.30681888136948532
10
-6.9726706180043045
20
3.6571690398500185
42
0.73450174282021718
0
CIRCLE
5
117
100
AcDbEntity
8
0
100
AcDbCircle
10
0.11730121649388399
20
-11.362251183759644
30
0
40
1.0000000000000002
210
-0
220
0
230
1
0
CIRCLE
5
118
100
AcDbEntity
8
0
100
AcDbCircle
10
-11.196407282490879
20
-0.048542684774875125
30
0
40
1.0000000000000002
210
-0
220
0
230
1
0
CIRCLE
5
119
100
AcDbEntity
8
0
100
AcDbCircle
10
11.43100971547865
20
-0.048542684774882376
30
0
40
1.0000000000000002
210
-0
220
0
230
1
0
CIRCLE
5
120
100
AcDbEntity
8
0
100
AcDbCircle
10
0.11730121649388678
20
11.265165814209885
30
0
40
1.0000000000000002
210
-0
220
0
230
1
0
LWPOLYLINE
5
121
100
AcDbEntity
8
0
100
AcDbPolyline
90
8
70
1
43
0.0
10
-4.2206407139709112
20
-10.043338864732059
10
-9.8774949634632936
20
-4.3864846152396755
42
0.41421356237309537
10
-11.291708525836391
20
-4.3864846152396773
10
-14.120135650582579
20
-7.2149117399858653
42
0.41421356237309509
10
-14.120135650582581
20
-8.6291253023589647
10
-8.4632814010901996
20
-14.285979551851346
42
0.41421356237309509
10
-7.049067838717102
20
-14.285979551851346
10
-4.2206407139709121
20
-11.457552427105158
42
0.41421356237309548
0
CIRCLE
5
122
100
AcDbEntity
8
0
100
AcDbCircle
10
-12.882698783506125
20
-13.04854268477488
30
0
40
1.0000000000000013
210
-0
220
0
230
1
0
CIRCLE
5
123
100
AcDbEntity
8
0
100
AcDbCircle
10
13.117301216493889
20
-13.048542684774889
30
0
40
1.0000000000000013
210
0
220
-0
230
1
0
CIRCLE
5
124
100
AcDbEntity
8
0
100
AcDbCircle
10
13.117301216493898
20
12.95145731522512
30
0
40
1.0000000000000013
210
0
220
-0
230
1
0
CIRCLE
5
125
100
AcDbEntity
8
0
100
AcDbCircle
10
-12.882698783506118
20
12.951457315225127
30
0
40
1.0000000000000016
210
-0
220
0
230
1
0
CIRCLE
5
126
100
AcDbEntity
8
0
100
AcDbCircle
10
79.799281731833375
20
3.1334378305645965
30
0
40
1.0000000000000004
210
0
220
0
230
1
0
CIRCLE
5
127
100
AcDbEntity
8
0
100
AcDbCircle
10
79.799281731833375
20
-3.2305232001143365
30
0
40
1.0000000000000004
210
0
220
0
230
1
0
CIRCLE
5
128
100
AcDbEntity
8
0
100
AcDbCircle
10
76.617301216493914
20
-0.048542684774869088
30
0
40
2.1500000000000008
210
0
220
0
230
1
0
CIRCLE
5
129
100
AcDbEntity
8
0
100
AcDbCircle
10
73.435320701154453
20
3.1334378305645982
30
0
40
1.0000000000000004
210
0
220
-0
230
1
0
CIRCLE
5
130
100
AcDbEntity
8
0
100
AcDbCircle
10
73.435320701154453
20
-3.2305232001143347
30
0
40
1.0000000000000004
210
0
220
0
230
1
0
ENDSEC
0
SECTION
2
OBJECTS
0
DICTIONARY
5
C
100
AcDbDictionary
3
ACAD_GROUP
350
D
3
ACAD_MLINESTYLE
350
17
0
DICTIONARY
5
D
100
AcDbDictionary
0
DICTIONARY
5
1A
330
C
100
AcDbDictionary
0
DICTIONARY
5
17
100
AcDbDictionary
0
ENDSEC
0
EOF
