0
SECTION
2
HEADER
9
$INSUNITS
70
4
9
$ACADVER
1
AC1014
9
$HANDSEED
5
FFFF
0
ENDSEC
0
SECTION
2
TABLES
0
TABLE
2
VPORT
5
8
100
AcDbSymbolTable
0
ENDTAB
0
TABLE
2
LTYPE
5
5
100
AcDbSymbolTable
0
LTYPE
5
14
100
AcDbSymbolTableRecord
100
AcDbLinetypeTableRecord
2
BYBLOCK
70
0
0
LTYPE
5
15
100
AcDbSymbolTableRecord
100
AcDbLinetypeTableRecord
2
BYLAYER
70
0
0
ENDTAB
0
TABLE
2
LAYER
5
2
100
AcDbSymbolTable
70
2
0
LAYER
5
50
100
AcDbSymbolTableRecord
100
AcDbLayerTableRecord
2
0
70
0
6
CONTINUOUS
0
ENDTAB
0
TABLE
2
STYLE
5
3
100
AcDbSymbolTable
70
1
0
STYLE
5
11
100
AcDbSymbolTableRecord
100
AcDbTextStyleTableRecord
2
STANDARD
70
0
0
ENDTAB
0
TABLE
2
VIEW
5
6
100
AcDbSymbolTable
70
0
0
ENDTAB
0
TABLE
2
UCS
5
7
100
AcDbSymbolTable
70
0
0
ENDTAB
0
TABLE
2
APPID
5
9
100
AcDbSymbolTable
70
2
0
APPID
5
12
100
AcDbSymbolTableRecord
100
AcDbRegAppTableRecord
2
ACAD
70
0
0
ENDTAB
0
TABLE
2
DIMSTYLE
5
A
100
AcDbSymbolTable
70
1
0
ENDTAB
0
TABLE
2
BLOCK_RECORD
5
1
100
AcDbSymbolTable
70
1
0
BLOCK_RECORD
5
1F
100
AcDbSymbolTableRecord
100
AcDbBlockTableRecord
2
*MODEL_SPACE
0
BLOCK_RECORD
5
1B
100
AcDbSymbolTableRecord
100
AcDbBlockTableRecord
2
*PAPER_SPACE
0
ENDTAB
0
ENDSEC
0
SECTION
2
BLOCKS
0
BLOCK
5
20
100
AcDbEntity
100
AcDbBlockBegin
2
*MODEL_SPACE
0
ENDBLK
5
21
100
AcDbEntity
100
AcDbBlockEnd
0
BLOCK
5
1C
100
AcDbEntity
100
AcDbBlockBegin
2
*PAPER_SPACE
0
ENDBLK
5
1D
100
AcDbEntity
100
AcDbBlockEnd
0
ENDSEC
0
SECTION
2
ENTITIES
0
CIRCLE
5
100
100
AcDbEntity
8
0
100
AcDbCircle
10
0.11730121844674282
20
-76.5485426856375
30
0
40
2.1500000000000012
210
0
220
-0
230
1
0
CIRCLE
5
101
100
AcDbEntity
8
0
100
AcDbCircle
10
3.2992817337862093
20
-73.366562170298025
30
0
40
1.0000000000000007
210
0
220
-0
230
1
0
CIRCLE
5
102
100
AcDbEntity
8
0
100
AcDbCircle
10
3.2992817337862137
20
-79.730523200976961
30
0
40
1.0000000000000007
210
0
220
-0
230
1
0
CIRCLE
5
103
100
AcDbEntity
8
0
100
AcDbCircle
10
-3.0646792968927237
20
-79.730523200976961
30
0
40
1.0000000000000007
210
-0
220
0
230
1
0
CIRCLE
5
104
100
AcDbEntity
8
0
100
AcDbCircle
10
-3.0646792968927237
20
-73.366562170298039
30
0
40
1.0000000000000007
210
-0
220
0
230
1
0
LWPOLYLINE
5
105
100
AcDbEntity
8
0
100
AcDbPolyline
90
86
70
1
43
0.0
10
3.6173012184467215
20
-19.583555721739138
10
3.6173012184467215
20
-62.5485426856375
10
3.6173012142062277
20
-62.682865794198619
42
0.19527691878301601
10
6.4479484966163199
20
-69.654263207042362
42
-0.2638818199654025
10
6.946547837558203
20
-71.563867967043024
10
6.0034016310903464
20
-75.100666386229094
42
0.14662565244407033
10
6.0911598254815331
20
-77.970118340309398
10
6.7398161007378867
20
-79.916087274817869
42
-0.51191828856324795
10
4.8424494940344722
20
-82.548542775044481
10
1.0718309771568264
20
-82.548542775044481
42
0.094598774057477159
10
-0.77009924164468613
20
-82.900178216507157
10
-6.0143127377929595
20
-84.978215597344985
42
-0.61764514354422162
10
-7.3477642864997508
20
-83.786533962190418
10
-5.735203392082548
20
-77.846934420032667
42
0.13218832814629156
10
-5.7293562056653471
20
-75.248577599283379
10
-6.7119454006647139
20
-71.563867967043024
42
-0.26388182036967517
10
-6.2133460576149266
20
-69.654263204874624
42
0.19527691865973962
10
-3.3826987646652751
20
-62.682865801060252
10
-3.3826987815532537
20
-22.576920748456935
42
0.30932869548876085
10
-6.5707814925247678
20
-17.916775285306699
10
-13.698061561616075
20
-15.1456081440551
42
-0.21030796097347906
10
-14.979764239970869
20
-13.863905465700316
10
-17.750931381222482
20
-6.736625396608984
42
0.30932869548876135
10
-22.411076844372715
20
-3.5485426856374636
10
-62.517021896976026
20
-3.5485426687495361
42
0.19527691865973948
10
-69.488419300790383
20
-6.3791899616991792
42
-0.26388182036967506
10
-71.398024062958797
20
-6.877789304748978
10
-75.082733695199138
20
-5.8952001097496041
42
0.132188328146292
10
-77.681090515948441
20
-5.9010472961668192
10
-83.620690058106177
20
-7.5136081905839998
42
-0.61764514354420619
10
-84.812371693260729
20
-6.1801566418772236
10
-82.734334312422931
20
-0.93594314572894965
42
0.094598774057483542
10
-82.38269887096024
20
0.90598707307256721
10
-82.382698870960226
20
4.6766055899501993
42
-0.51191828856325117
10
-79.750243370733642
20
6.5739721966535924
10
-77.804274436225171
20
5.9253159213972655
42
0.14662565244406942
10
-74.934822482144881
20
5.8375577270060841
10
-71.398024062958797
20
6.7807039334739416
42
-0.26388181996539761
10
-69.488419302958164
20
6.2821045925320647
42
0.19527691878301573
10
-62.5170218901144
20
3.4514573101219654
10
-62.382698781553273
20
3.4514573143625071
10
-19.409661775880924
20
3.4514573143625182
42
0.55312033886801304
10
-14.457553248402311
20
11.344493279841037
42
-1.0052645002012546
10
-11.291056193807593
20
14.541794974381386
42
0.5541316512899459
10
-3.3826987815532314
20
19.486470350464174
10
-3.3826987815532403
20
62.451457314362536
10
-3.3826987773127315
20
62.585780422923662
42
0.19527691878301609
10
-6.2133460597228263
20
69.557177835767405
42
-0.2638818199654025
10
-6.7119454006647095
20
71.466782595768066
10
-5.7687991941968502
20
75.003581014954136
42
0.14662565244407044
10
-5.8565573885880395
20
77.87303296903444
10
-6.5052136638443923
20
79.819001903542883
42
-0.51191828856324795
10
-4.6078470571409778
20
82.451457403769496
10
-0.83722854026333182
20
82.451457403769496
42
0.094598774057477159
10
1.0047016785381802
20
82.803092845232186
10
6.2489151746864557
20
84.881130226069985
42
-0.61764514354421585
10
7.5823667233932444
20
83.689448590915447
10
5.9698058289760443
20
77.74984904875771
42
0.13218832814629156
10
5.9639586425588407
20
75.151492228008422
10
6.9465478375582093
20
71.466782595768066
42
-0.26388182036967489
10
6.4479484945084229
20
69.557177833599667
42
0.19527691865973962
10
3.6173012015587713
20
62.585780429785288
10
3.617301218446741
20
19.47842030869019
42
0.55312033886801348
10
11.510337183925287
20
14.526311781211589
42
-1.0052645002012492
10
14.70763887846562
20
11.359814726616857
42
0.55413165128994646
10
19.652314254548415
20
3.4514573143624938
10
62.751624333869522
20
3.4514572974745752
42
0.19527691865973948
10
69.723021737683879
20
6.2821045904242183
42
-0.26388182036967506
10
71.632626499852293
20
6.7807039334740171
10
75.317336132092635
20
5.7981147384746432
42
0.132188328146292
10
77.915692952841937
20
5.8039619248918584
10
83.855292494999674
20
7.4165228193090389
42
-0.61764514354420619
10
85.046974130154226
20
6.0830712706022627
10
82.968936749316413
20
0.83885777445398879
42
0.094598774057483542
10
82.617301307853737
20
-1.0030724443475281
10
82.617301307853722
20
-4.7736909612251601
42
-0.51191828856325117
10
79.984845807627138
20
-6.6710575679285533
10
78.038876873118681
20
-6.0224012926722263
42
0.14662565244406942
10
75.169424919038363
20
-5.934643098281045
10
71.632626499852293
20
-6.8777893047489025
42
-0.26388181996539761
10
69.72302173985166
20
-6.3791899638070255
42
0.19527691878301592
10
62.751624327007889
20
-3.548542681396929
10
62.617301218446777
20
-3.548542685637476
10
19.644264212774416
20
-3.5485426856374804
42
0.55312033886801293
10
14.692155685295807
20
-11.441578651116002
42
-1.0052645002012546
10
11.525658630701086
20
-14.638880345656347
42
0.55413165128994601
0
CIRCLE
5
106
100
AcDbEntity
8
0
100
AcDbCircle
10
-73.200718266213798
20
-3.2305232009769824
30
0
40
1.0000000000000007
210
-0
220
0
230
1
0
CIRCLE
5
107
100
AcDbEntity
8
0
100
AcDbCircle
10
-79.564679296892734
20
-3.2305232009769869
30
0
40
1.0000000000000007
210
0
220
0
230
1
0
CIRCLE
5
108
100
AcDbEntity
8
0
100
AcDbCircle
10
-79.564679296892734
20
3.1334378297019505
30
0
40
1.0000000000000007
210
0
220
0
230
1
0
CIRCLE
5
109
100
AcDbEntity
8
0
100
AcDbCircle
10
-73.200718266213798
20
3.1334378297019461
30
0
40
1.0000000000000007
210
-0
220
0
230
1
0
CIRCLE
5
110
100
AcDbEntity
8
0
100
AcDbCircle
10
-76.382698781553273
20
-0.048542685637520462
30
0
40
2.1500000000000012
210
-0
220
0
230
1
0
CIRCLE
5
111
100
AcDbEntity
8
0
100
AcDbCircle
10
0.1173012184467517
20
76.451457314362543
30
0
40
2.1500000000000012
210
-0
220
0
230
1
0
CIRCLE
5
112
100
AcDbEntity
8
0
100
AcDbCircle
10
-3.0646792968927148
20
73.269476799023067
30
0
40
1.0000000000000007
210
-0
220
0
230
1
0
CIRCLE
5
113
100
AcDbEntity
8
0
100
AcDbCircle
10
-3.0646792968927192
20
79.633437829702004
30
0
40
1.0000000000000007
210
-0
220
0
230
1
0
CIRCLE
5
114
100
AcDbEntity
8
0
100
AcDbCircle
10
3.2992817337862181
20
79.633437829702004
30
0
40
1.0000000000000007
210
0
220
-0
230
1
0
CIRCLE
5
115
100
AcDbEntity
8
0
100
AcDbCircle
10
3.2992817337862181
20
73.269476799023067
30
0
40
1.0000000000000007
210
0
220
-0
230
1
0
LWPOLYLINE
5
116
100
AcDbEntity
8
0
100
AcDbPolyline
90
12
70
1
43
0.0
10
3.8230129430716491
20
-7.1385145201356686
42
-0.30681888136948676
10
6.0518720486313429
20
-7.393221908944108
42
0.92655032088913214
10
7.4619804417533793
20
-5.9831135158220707
42
-0.30681888136948693
10
7.2072730529449416
20
-3.7542544102623738
42
0.2455744626476388
10
7.2072730529449363
20
3.6571690389874227
42
-0.30681888136948626
10
7.4619804417533766
20
5.8860281445471134
42
0.92655032088913303
10
6.0518720486313393
20
7.2961365376691489
42
-0.30681888136948698
10
3.8230129430716389
20
7.0414291488607113
42
0.2455744626476388
10
-3.5884105061781559
20
7.0414291488607095
42
-0.30681888136948682
10
-5.8172696117378466
20
7.2961365376691489
42
0.92655032088913303
10
-7.2273780048598821
20
5.8860281445471117
42
-0.30681888136948632
10
-6.9726706160514427
20
3.6571690389874161
42
0.73450174282021718
0
CIRCLE
5
117
100
AcDbEntity
8
0
100
AcDbCircle
10
0.11730121844674837
20
-11.362251184622245
30
0
40
1.0000000000000002
210
-0
220
0
230
1
0
CIRCLE
5
118
100
AcDbEntity
8
0
100
AcDbCircle
10
-11.196407280538017
20
-0.048542685637479384
30
0
40
1.0000000000000002
210
-0
220
0
230
1
0
CIRCLE
5
119
100
AcDbEntity
8
0
100
AcDbCircle
10
11.431009717431513
20
-0.048542685637481604
30
0
40
1.0000000000000002
210
-0
220
0
230
1
0
CIRCLE
5
120
100
AcDbEntity
8
0
100
AcDbCircle
10
0.11730121844674615
20
11.265165813347284
30
0
40
1.0000000000000002
210
-0
220
0
230
1
0
CIRCLE
5
121
100
AcDbEntity
8
0
100
AcDbCircle
10
-12.882698781553261
20
-13.048542685637482
30
0
40
1.0000000000000013
210
-0
220
0
230
1
0
CIRCLE
5
122
100
AcDbEntity
8
0
100
AcDbCircle
10
13.117301218446757
20
12.951457314362521
30
0
40
1.0000000000000013
210
0
220
-0
230
1
0
CIRCLE
5
123
100
AcDbEntity
8
0
100
AcDbCircle
10
13.117301218446753
20
-13.048542685637488
30
0
40
1.0000000000000013
210
0
220
-0
230
1
0
CIRCLE
5
124
100
AcDbEntity
8
0
100
AcDbCircle
10
-12.882698781553259
20
12.951457314362525
30
0
40
1.0000000000000013
210
-0
220
0
230
1
0
LWPOLYLINE
5
125
100
AcDbEntity
8
0
100
AcDbPolyline
90
8
70
1
43
0.0
10
-4.2206407120180467
20
-10.043338865594659
10
-9.8774949615104308
20
-4.3864846161022788
42
0.41421356237309515
10
-11.291708523883525
20
-4.3864846161022815
10
-14.120135648629715
20
-7.2149117408484713
42
0.41421356237309476
10
-14.120135648629716
20
-8.6291253032215689
10
-8.4632813991373332
20
-14.28597955271395
42
0.41421356237309526
10
-7.0490678367642374
20
-14.285979552713947
10
-4.2206407120180476
20
-11.457552427967759
42
0.41421356237309526
0
CIRCLE
5
126
100
AcDbEntity
8
0
100
AcDbCircle
10
76.617301218446769
20
-0.048542685637440526
30
0
40
2.1500000000000012
210
0
220
0
230
1
0
CIRCLE
5
127
100
AcDbEntity
8
0
100
AcDbCircle
10
73.435320703107294
20
-3.2305232009769069
30
0
40
1.0000000000000007
210
0
220
0
230
1
0
CIRCLE
5
128
100
AcDbEntity
8
0
100
AcDbCircle
10
79.799281733786231
20
-3.2305232009769114
30
0
40
1.0000000000000007
210
-0
220
0
230
1
0
CIRCLE
5
129
100
AcDbEntity
8
0
100
AcDbCircle
10
79.799281733786231
20
3.133437829702026
30
0
40
1.0000000000000007
210
-0
220
0
230
1
0
CIRCLE
5
130
100
AcDbEntity
8
0
100
AcDbCircle
10
73.435320703107294
20
3.1334378297020216
30
0
40
1.0000000000000007
210
0
220
0
230
1
0
ENDSEC
0
SECTION
2
OBJECTS
0
DICTIONARY
5
C
100
AcDbDictionary
3
ACAD_GROUP
350
D
3
ACAD_MLINESTYLE
350
17
0
DICTIONARY
5
D
100
AcDbDictionary
0
DICTIONARY
5
1A
330
C
100
AcDbDictionary
0
DICTIONARY
5
17
100
AcDbDictionary
0
ENDSEC
0
EOF
