0
SECTION
2
HEADER
9
$INSUNITS
70
4
9
$ACADVER
1
AC1014
9
$HANDSEED
5
FFFF
0
ENDSEC
0
SECTION
2
TABLES
0
TABLE
2
VPORT
5
8
100
AcDbSymbolTable
0
ENDTAB
0
TABLE
2
LTYPE
5
5
100
AcDbSymbolTable
0
LTYPE
5
14
100
AcDbSymbolTableRecord
100
AcDbLinetypeTableRecord
2
BYBLOCK
70
0
0
LTYPE
5
15
100
AcDbSymbolTableRecord
100
AcDbLinetypeTableRecord
2
BYLAYER
70
0
0
ENDTAB
0
TABLE
2
LAYER
5
2
100
AcDbSymbolTable
70
2
0
LAYER
5
50
100
AcDbSymbolTableRecord
100
AcDbLayerTableRecord
2
0
70
0
6
CONTINUOUS
0
ENDTAB
0
TABLE
2
STYLE
5
3
100
AcDbSymbolTable
70
1
0
STYLE
5
11
100
AcDbSymbolTableRecord
100
AcDbTextStyleTableRecord
2
STANDARD
70
0
0
ENDTAB
0
TABLE
2
VIEW
5
6
100
AcDbSymbolTable
70
0
0
ENDTAB
0
TABLE
2
UCS
5
7
100
AcDbSymbolTable
70
0
0
ENDTAB
0
TABLE
2
APPID
5
9
100
AcDbSymbolTable
70
2
0
APPID
5
12
100
AcDbSymbolTableRecord
100
AcDbRegAppTableRecord
2
ACAD
70
0
0
ENDTAB
0
TABLE
2
DIMSTYLE
5
A
100
AcDbSymbolTable
70
1
0
ENDTAB
0
TABLE
2
BLOCK_RECORD
5
1
100
AcDbSymbolTable
70
1
0
BLOCK_RECORD
5
1F
100
AcDbSymbolTableRecord
100
AcDbBlockTableRecord
2
*MODEL_SPACE
0
BLOCK_RECORD
5
1B
100
AcDbSymbolTableRecord
100
AcDbBlockTableRecord
2
*PAPER_SPACE
0
ENDTAB
0
ENDSEC
0
SECTION
2
BLOCKS
0
BLOCK
5
20
100
AcDbEntity
100
AcDbBlockBegin
2
*MODEL_SPACE
0
ENDBLK
5
21
100
AcDbEntity
100
AcDbBlockEnd
0
BLOCK
5
1C
100
AcDbEntity
100
AcDbBlockBegin
2
*PAPER_SPACE
0
ENDBLK
5
1D
100
AcDbEntity
100
AcDbBlockEnd
0
ENDSEC
0
SECTION
2
ENTITIES
0
CIRCLE
5
100
100
AcDbEntity
8
0
100
AcDbCircle
10
-3.1819805153394576
20
-61.181980515339447
30
0
40
1
210
-0
220
0
230
1
0
CIRCLE
5
101
100
AcDbEntity
8
0
100
AcDbCircle
10
4.4408920985006262e-15
20
-57.999999999999986
30
0
40
2.3000000000000003
210
0
220
-0
230
1
0
CIRCLE
5
102
100
AcDbEntity
8
0
100
AcDbCircle
10
-3.1819805153394576
20
-54.818019484660525
30
0
40
1
210
0
220
-0
230
1
0
CIRCLE
5
103
100
AcDbEntity
8
0
100
AcDbCircle
10
3.1819805153394709
20
-61.181980515339447
30
0
40
1
210
-0
220
0
230
1
0
CIRCLE
5
104
100
AcDbEntity
8
0
100
AcDbCircle
10
-3.1819805153394709
20
61.181980515339447
30
0
40
1
210
0
220
-0
230
1
0
CIRCLE
5
105
100
AcDbEntity
8
0
100
AcDbCircle
10
3.1819805153394576
20
54.818019484660525
30
0
40
1
210
-0
220
0
230
1
0
CIRCLE
5
106
100
AcDbEntity
8
0
100
AcDbCircle
10
-4.4408920985006262e-15
20
57.999999999999986
30
0
40
2.3000000000000003
210
-0
220
0
230
1
0
CIRCLE
5
107
100
AcDbEntity
8
0
100
AcDbCircle
10
3.1819805153394576
20
61.181980515339447
30
0
40
1
210
0
220
-0
230
1
0
LINE
5
108
100
AcDbEntity
8
0
100
AcDbLine
10
-46.111704595637555
20
-2.1499999999999941
30
0
11
-20.45426555786619
21
-2.1499999999999977
31
0
0
SPLINE
5
109
100
AcDbEntity
8
0
100
AcDbSpline
70
4
71
5
72
16
73
10
74
0
42
0.000000001
43
0.0000000001
44
0.0000000001
40
0.070079372206174592
40
0.070079372206174592
40
0.070079372206174592
40
0.070079372206174592
40
0.070079372206174592
40
0.070079372206174592
40
0.10000000000000001
40
0.20000000000000001
40
0.30000000000000004
40
0.40000000000000002
40
0.42825652104958695
40
0.42825652104958695
40
0.42825652104958695
40
0.42825652104958695
40
0.42825652104958695
40
0.42825652104958695
41
1
41
1
41
1
41
1
41
1
41
1
41
1
41
1
41
1
41
1
10
-20.45426555786619
20
-2.1500000000000123
30
0
10
-20.24392910547332
20
-2.1754926138859174
30
0
10
-19.338853947979569
20
-2.2977768560453233
30
0
10
-17.799894268574384
20
-2.6025505665707511
30
0
10
-15.743396771127188
20
-3.2552327035163433
30
0
10
-13.716791149253689
20
-4.2618851330320133
30
0
10
-12.009268994601427
20
-5.4044636390349599
30
0
10
-10.884601115381795
20
-6.2879615508588831
30
0
10
-10.271700048543742
20
-6.8099834563082577
30
0
10
-10.137589402127819
20
-6.9262081191376224
30
0
0
SPLINE
5
110
100
AcDbEntity
8
0
100
AcDbSpline
70
4
71
5
72
13
73
7
74
0
42
0.000000001
43
0.0000000001
44
0.0000000001
40
0.42825652104958695
40
0.42825652104958695
40
0.42825652104958695
40
0.42825652104958695
40
0.42825652104958695
40
0.42825652104958695
40
0.5
40
0.57201111577180341
40
0.57201111577180341
40
0.57201111577180341
40
0.57201111577180341
40
0.57201111577180341
40
0.57201111577180341
41
1
41
1
41
1
41
1
41
1
41
1
41
1
10
-10.137589402127819
20
-6.9262081191376224
30
0
10
-9.7970816545080002
20
-7.2213032455540898
30
0
10
-9.1266687033778489
20
-7.8283104643548569
30
0
10
-8.4796981851754651
20
-8.4651476138026833
30
0
10
-7.8563606359289526
20
-9.129011413516702
30
0
10
-7.2591772823181611
20
-9.8185170884432633
30
0
10
-6.9670171338375511
20
-10.170245181719878
30
0
0
SPLINE
5
111
100
AcDbEntity
8
0
100
AcDbSpline
70
4
71
5
72
16
73
10
74
0
42
0.000000001
43
0.0000000001
44
0.0000000001
40
0.57201111577230568
40
0.57201111577230568
40
0.57201111577230568
40
0.57201111577230568
40
0.57201111577230568
40
0.57201111577230568
40
0.59999999999999998
40
0.69999999999999996
40
0.79999999999999993
40
0.89999999999999991
40
0.93111893419493708
40
0.93111893419493708
40
0.93111893419493708
40
0.93111893419493708
40
0.93111893419493708
40
0.93111893419493708
41
1
41
1
41
1
41
1
41
1
41
1
41
1
41
1
41
1
41
1
10
-6.9670171338273619
20
-10.170245181732145
30
0
10
-6.853461934965047
20
-10.306952921597583
30
0
10
-6.3390183802623827
20
-10.936471677716884
30
0
10
-5.4628785582312043
20
-12.093262782909708
30
0
10
-4.3175404442069407
20
-13.846347781999491
30
0
10
-3.2901606382374551
20
-15.909120235841765
30
0
10
-2.6176721620396846
20
-17.958577223135705
30
0
10
-2.3030758351157954
20
-19.467067260601286
30
0
10
-2.17695494605635
20
-20.348772625227973
30
0
10
-2.1500000000000208
20
-20.559499408288893
30
0
0
LINE
5
112
100
AcDbEntity
8
0
100
AcDbLine
10
-2.1500000000000203
20
-20.559499408288893
30
0
11
-2.1500000000000163
21
-46.111704595637576
31
0
0
ARC
5
113
100
AcDbEntity
8
0
100
AcDbCircle
10
-10.150000000000013
20
-46.111704595637576
30
0
40
7.9999999999999973
210
-0
220
0
230
1
100
AcDbArc
50
-45.425090366177514
51
0
0
ARC
5
114
100
AcDbEntity
8
0
100
AcDbCircle
10
-1.0260646247568361
20
-55.372039539276841
30
0
40
5.0000000000000169
210
0
220
0
230
1
100
AcDbArc
50
134.57490963382259
51
194.93141659360373
0
LINE
5
115
100
AcDbEntity
8
0
100
AcDbLine
10
-5.8572393359065078
20
-56.660352742790671
30
0
11
-5.8466574241120872
21
-56.700034913645858
31
0
0
ARC
5
116
100
AcDbEntity
8
0
100
AcDbCircle
10
-10.67783213526174
20
-57.988348117159688
30
0
40
5.0000000000000009
210
-0
220
0
230
1
100
AcDbArc
50
-15.189286132954614
51
14.931416593603798
0
LINE
5
117
100
AcDbEntity
8
0
100
AcDbLine
10
-5.8525046105292873
20
-59.298391734395153
30
0
11
-7.4650655049464865
21
-65.23799127655289
31
0
0
ARC
5
118
100
AcDbEntity
8
0
100
AcDbCircle
10
-6.4999999999999902
20
-65.499999999999986
30
0
40
1.0000000000000062
210
0
220
0
230
1
100
AcDbArc
50
164.81071386704534
51
291.61611480789304
0
LINE
5
119
100
AcDbEntity
8
0
100
AcDbLine
10
-6.1316139562396916
20
-66.429672911707456
30
0
11
-0.88740046009142315
21
-64.351635530869643
31
0
0
ARC
5
120
100
AcDbEntity
8
0
100
AcDbCircle
10
0.95452975871008316
20
-69.000000089406953
30
0
40
5
210
0
220
-0
230
1
100
AcDbArc
50
89.999999999999972
51
111.61611480789333
0
LINE
5
121
100
AcDbEntity
8
0
100
AcDbLine
10
0.95452975871008539
20
-64.000000089406953
30
0
11
4.5560815391953025
21
-64.000000089406953
31
0
0
ARC
5
122
100
AcDbEntity
8
0
100
AcDbCircle
10
4.5560815391953122
20
-62.000000089406953
30
0
40
2.0000000000000018
210
0
220
0
230
1
100
AcDbArc
50
-90.000000000000313
51
21.618239347921655
0
LINE
5
123
100
AcDbEntity
8
0
100
AcDbLine
10
6.4154000416619468
20
-61.263159057443318
30
0
11
2.7127259882247801
21
-51.919962794591029
31
0
0
ARC
5
124
100
AcDbEntity
8
0
100
AcDbCircle
10
10.149999998091319
20
-48.972598666736495
30
0
40
8.0000000000000036
210
0
220
0
230
1
100
AcDbArc
50
180
51
201.61823934792162
0
LINE
5
125
100
AcDbEntity
8
0
100
AcDbLine
10
2.1499999980913165
20
-48.972598650841917
30
0
11
2.1499999999999964
21
-18.256632574026206
31
0
0
SPLINE
5
126
100
AcDbEntity
8
0
100
AcDbSpline
70
0
71
3
72
20
73
16
74
0
42
0.000000001
43
0.0000000001
44
0.0000000001
40
0
40
0
40
0
40
0
40
0.21485446036281014
40
0.21485446036281014
40
0.42970892072562017
40
0.42970892072562017
40
0.64456338108843036
40
0.64456338108843036
40
0.85941784145124034
40
0.85941784145124034
40
1.0742723018140505
40
1.0742723018140505
40
1.1866913283217633
40
1.1866913283217633
40
1.2991103548294765
40
1.2991103548294765
40
1.2991103548294765
40
1.2991103548294765
10
11.536516228357996
20
-14.364975907937861
30
0
10
11.029764838715728
20
-13.858893879492307
30
0
10
10.429009194812933
20
-13.456630085947157
30
0
10
9.1071188660585154
20
-12.905023414100917
30
0
10
8.3986221732356778
20
-12.760954196231541
30
0
10
6.9662840394197465
20
-12.752502445144101
30
0
10
6.2561365316705331
20
-12.888200715272994
30
0
10
4.927828782054851
20
-13.424169449427016
30
0
10
4.3223678862583652
20
-13.819315760228106
30
0
10
3.2969912093004394
20
-14.819449067357946
30
0
10
2.8868785880441861
20
-15.414874244155767
30
0
10
2.4535904430257496
20
-16.41604833109999
30
0
10
2.3402908750367568
20
-16.774265666879508
30
0
10
2.1882970833967907
20
-17.508151518895481
30
0
10
2.1499999999999977
20
-17.881902485667165
30
0
10
2.1499999999999964
20
-18.256632574026209
30
0
0
LINE
5
127
100
AcDbEntity
8
0
100
AcDbLine
10
11.536516228357996
20
-14.364975907937861
30
0
11
11.585786437626899
21
-14.414213562373103
31
0
0
ARC
5
128
100
AcDbEntity
8
0
100
AcDbCircle
10
12.999999999999996
20
-13.000000000000007
30
0
40
2.0000000000000022
210
0
220
0
230
1
100
AcDbArc
50
-135.00000000000006
51
45
0
LINE
5
129
100
AcDbEntity
8
0
100
AcDbLine
10
14.414213562373092
20
-11.585786437626911
30
0
11
14.364975907938756
21
-11.536516228358932
31
0
0
SPLINE
5
130
100
AcDbEntity
8
0
100
AcDbSpline
70
0
71
3
72
20
73
16
74
0
42
0.000000001
43
0.0000000001
44
0.0000000001
40
0
40
0
40
0
40
0
40
0.21485446036281022
40
0.21485446036281022
40
0.42970892072562039
40
0.42970892072562039
40
0.64456338108843059
40
0.64456338108843059
40
0.85941784145124089
40
0.85941784145124089
40
1.0742723018140508
40
1.0742723018140508
40
1.1866913283217642
40
1.1866913283217642
40
1.2991103548294771
40
1.2991103548294771
40
1.2991103548294771
40
1.2991103548294771
10
18.256632574026192
20
-2.1500000000000083
30
0
10
17.540451039483493
20
-2.1500000000000083
30
0
10
16.831116590760114
20
-2.2898861792054448
30
0
10
15.505994483208148
20
-2.8336833488898638
30
0
10
14.902875713975106
20
-3.2323953420343079
30
0
10
13.883418238644795
20
-4.2385615398728662
30
0
10
13.47682610165894
20
-4.8363962473126971
30
0
10
12.915686733435924
20
-6.1542682331709697
30
0
10
12.766504300403563
20
-6.8617059371088773
30
0
10
12.747708000139317
20
-8.2939456728989871
30
0
10
12.878273835782736
20
-9.0050547122460678
30
0
10
13.279159406404947
20
-10.019637842526198
30
0
10
13.452122037269852
20
-10.353165022953458
30
0
10
13.863167786575799
20
-10.979848314946965
30
0
10
14.100176895272119
20
-11.271366983567766
30
0
10
14.364975907937838
20
-11.53651622835801
30
0
0
LINE
5
131
100
AcDbEntity
8
0
100
AcDbLine
10
18.256632574026192
20
-2.1500000000000083
30
0
11
48.97259865084191
21
-2.1499999980913254
31
0
0
ARC
5
132
100
AcDbEntity
8
0
100
AcDbCircle
10
48.972598666736502
20
-10.149999998091225
30
0
40
7.9999999999999041
210
0
220
-0
230
1
100
AcDbArc
50
68.381760652078157
51
90.000000113836634
0
LINE
5
133
100
AcDbEntity
8
0
100
AcDbLine
10
51.919962794591029
20
-2.7127259882247881
30
0
11
61.26315905744331
21
-6.4154000416619494
31
0
0
ARC
5
134
100
AcDbEntity
8
0
100
AcDbCircle
10
62.000000089406953
20
-4.5560815391953202
30
0
40
1.9999999999999993
210
0
220
0
230
1
100
AcDbArc
50
248.3817606520781
51
360
0
LINE
5
135
100
AcDbEntity
8
0
100
AcDbLine
10
64.000000089406953
20
-4.556081539195322
30
0
11
64.000000089406953
21
-0.95452975871009649
31
0
0
ARC
5
136
100
AcDbEntity
8
0
100
AcDbCircle
10
69.000000089406669
20
-0.95452975871004653
30
0
40
4.9999999999997069
210
0
220
0
230
1
100
AcDbArc
50
158.38388519210602
51
180
0
LINE
5
137
100
AcDbEntity
8
0
100
AcDbLine
10
64.351635530869643
20
0.88740046009140705
30
0
11
66.429672911707456
21
6.1316139562396854
31
0
0
ARC
5
138
100
AcDbEntity
8
0
100
AcDbCircle
10
65.5
20
6.4999999999999893
30
0
40
0.99999999999998923
210
0
220
0
230
1
100
AcDbArc
50
-21.616114807893592
51
105.18928613295579
0
LINE
5
139
100
AcDbEntity
8
0
100
AcDbLine
10
65.23799127655289
20
7.465065504946466
30
0
11
59.298391734395153
21
5.8525046105292766
31
0
0
ARC
5
140
100
AcDbEntity
8
0
100
AcDbCircle
10
57.988348117159688
20
10.677832135261731
30
0
40
5.0000000000000053
210
0
220
0
230
1
100
AcDbArc
50
255.06858340639619
51
285.18928613295458
0
LINE
5
141
100
AcDbEntity
8
0
100
AcDbLine
10
56.700034913645858
20
5.8466574241120721
30
0
11
56.660352742790671
21
5.8572393359064989
31
0
0
ARC
5
142
100
AcDbEntity
8
0
100
AcDbCircle
10
55.372039539276855
20
1.0260646247568506
30
0
40
4.999999999999992
210
0
220
-0
230
1
100
AcDbArc
50
75.068583406396357
51
135.42509036617761
0
ARC
5
143
100
AcDbEntity
8
0
100
AcDbCircle
10
46.111704595637555
20
10.149999999999988
30
0
40
7.9999999999999982
210
-0
220
0
230
1
100
AcDbArc
50
270
51
315.42509036617776
0
LINE
5
144
100
AcDbEntity
8
0
100
AcDbLine
10
46.111704595637555
20
2.1499999999999897
30
0
11
18.256632574026199
21
2.1499999999999932
31
0
0
SPLINE
5
145
100
AcDbEntity
8
0
100
AcDbSpline
70
0
71
3
72
20
73
16
74
0
42
0.000000001
43
0.0000000001
44
0.0000000001
40
0
40
0
40
0
40
0
40
0.21485446036281011
40
0.21485446036281011
40
0.42970892072562006
40
0.42970892072562006
40
0.64456338108842992
40
0.64456338108842992
40
0.85941784145123967
40
0.85941784145123967
40
1.0742723018140494
40
1.0742723018140494
40
1.1866913283217626
40
1.1866913283217626
40
1.2991103548294758
40
1.2991103548294758
40
1.2991103548294758
40
1.2991103548294758
10
14.364975907937863
20
11.536516228357993
30
0
10
13.858893879492308
20
11.029764838715725
30
0
10
13.456630085947163
20
10.429009194812933
30
0
10
12.905023414100922
20
9.1071188660585172
30
0
10
12.760954196231541
20
8.3986221732356778
30
0
10
12.752502445144099
20
6.9662840394197474
30
0
10
12.88820071527299
20
6.2561365316705349
30
0
10
13.424169449427012
20
4.9278287820548536
30
0
10
13.819315760228097
20
4.3223678862583661
30
0
10
14.819449067357935
20
3.2969912093004416
30
0
10
15.414874244155756
20
2.886878588044187
30
0
10
16.416048331099979
20
2.4535904430257496
30
0
10
16.774265666879497
20
2.3402908750367546
30
0
10
17.50815151889547
20
2.1882970833967885
30
0
10
17.881902485667155
20
2.1499999999999941
30
0
10
18.256632574026199
20
2.1499999999999932
30
0
0
LINE
5
146
100
AcDbEntity
8
0
100
AcDbLine
10
14.364975907937863
20
11.536516228357993
30
0
11
14.414213562373103
21
11.585786437626899
31
0
0
ARC
5
147
100
AcDbEntity
8
0
100
AcDbCircle
10
13.000000000000009
20
12.999999999999993
30
0
40
1.9999999999999993
210
-0
220
0
230
1
100
AcDbArc
50
-45
51
134.99999999999997
0
LINE
5
148
100
AcDbEntity
8
0
100
AcDbLine
10
11.585786437626913
20
14.41421356237309
30
0
11
11.536516228358934
21
14.364975907938767
31
0
0
SPLINE
5
149
100
AcDbEntity
8
0
100
AcDbSpline
70
0
71
3
72
20
73
16
74
0
42
0.000000001
43
0.0000000001
44
0.0000000001
40
0
40
0
40
0
40
0
40
0.21485446036281006
40
0.21485446036281006
40
0.4297089207256205
40
0.4297089207256205
40
0.6445633810884307
40
0.6445633810884307
40
0.85941784145124067
40
0.85941784145124067
40
1.074272301814051
40
1.074272301814051
40
1.1866913283217644
40
1.1866913283217644
40
1.2991103548294776
40
1.2991103548294776
40
1.2991103548294776
40
1.2991103548294776
10
2.150000000000003
20
18.256632574026192
30
0
10
2.150000000000003
20
17.540451039483493
30
0
10
2.2898861792054404
20
16.831116590760114
30
0
10
2.8336833488898616
20
15.505994483208148
30
0
10
3.2323953420343052
20
14.902875713975108
30
0
10
4.2385615398728653
20
13.883418238644797
30
0
10
4.8363962473126954
20
13.476826101658943
30
0
10
6.1542682331709662
20
12.915686733435926
30
0
10
6.8617059371088747
20
12.766504300403565
30
0
10
8.2939456728989835
20
12.747708000139319
30
0
10
9.005054712246066
20
12.878273835782739
30
0
10
10.019637842526192
20
13.279159406404951
30
0
10
10.353165022953457
20
13.452122037269854
30
0
10
10.979848314946963
20
13.863167786575801
30
0
10
11.271366983567766
20
14.100176895272124
30
0
10
11.536516228358009
20
14.364975907937843
30
0
0
LINE
5
150
100
AcDbEntity
8
0
100
AcDbLine
10
2.150000000000003
20
18.256632574026192
30
0
11
2.1500000000000075
21
46.111704595637576
31
0
0
ARC
5
151
100
AcDbEntity
8
0
100
AcDbCircle
10
10.150000000000004
20
46.111704595637562
30
0
40
8.0000000000000036
210
0
220
0
230
1
100
AcDbArc
50
134.57490963382241
51
180
0
ARC
5
152
100
AcDbEntity
8
0
100
AcDbCircle
10
1.0260646247568554
20
55.372039539276841
30
0
40
4.9999999999999982
210
0
220
0
230
1
100
AcDbArc
50
-45.425090366177614
51
14.931416593603798
0
LINE
5
153
100
AcDbEntity
8
0
100
AcDbLine
10
5.8572393359065087
20
56.660352742790671
30
0
11
5.8466574241120872
21
56.700034913645858
31
0
0
ARC
5
154
100
AcDbEntity
8
0
100
AcDbCircle
10
10.67783213526174
20
57.988348117159688
30
0
40
5.0000000000000009
210
0
220
0
230
1
100
AcDbArc
50
164.81071386704539
51
194.93141659360379
0
LINE
5
155
100
AcDbEntity
8
0
100
AcDbLine
10
5.8525046105292873
20
59.298391734395153
30
0
11
7.4650655049464865
21
65.23799127655289
31
0
0
ARC
5
156
100
AcDbEntity
8
0
100
AcDbCircle
10
6.4999999999999902
20
65.499999999999986
30
0
40
1.0000000000000062
210
-0
220
0
230
1
100
AcDbArc
50
-15.189286132954715
51
111.61611480789303
0
LINE
5
157
100
AcDbEntity
8
0
100
AcDbLine
10
6.1316139562396916
20
66.429672911707456
30
0
11
0.88740046009142315
21
64.351635530869643
31
0
0
ARC
5
158
100
AcDbEntity
8
0
100
AcDbCircle
10
-0.95452975871008316
20
69.000000089406953
30
0
40
5
210
0
220
0
230
1
100
AcDbArc
50
270
51
291.61611480789333
0
LINE
5
159
100
AcDbEntity
8
0
100
AcDbLine
10
-0.95452975871008539
20
64.000000089406953
30
0
11
-4.5560815391953025
21
64.000000089406953
31
0
0
ARC
5
160
100
AcDbEntity
8
0
100
AcDbCircle
10
-4.5560815391953122
20
62.000000089406953
30
0
40
2.0000000000000018
210
0
220
-0
230
1
100
AcDbArc
50
89.999999999999716
51
201.61823934792164
0
LINE
5
161
100
AcDbEntity
8
0
100
AcDbLine
10
-6.4154000416619468
20
61.263159057443318
30
0
11
-2.7127259882247801
21
51.919962794591029
31
0
0
ARC
5
162
100
AcDbEntity
8
0
100
AcDbCircle
10
-10.149999998091319
20
48.972598666736495
30
0
40
8.0000000000000036
210
-0
220
0
230
1
100
AcDbArc
50
0
51
21.618239347921616
0
LINE
5
163
100
AcDbEntity
8
0
100
AcDbLine
10
-2.1499999980913165
20
48.972598650841917
30
0
11
-2.1499999999999995
21
18.256632574026206
31
0
0
SPLINE
5
164
100
AcDbEntity
8
0
100
AcDbSpline
70
0
71
3
72
20
73
16
74
0
42
0.000000001
43
0.0000000001
44
0.0000000001
40
0
40
0
40
0
40
0
40
0.21485446036280945
40
0.21485446036280945
40
0.42970892072561961
40
0.42970892072561961
40
0.6445633810884297
40
0.6445633810884297
40
0.85941784145123989
40
0.85941784145123989
40
1.0742723018140501
40
1.0742723018140501
40
1.1866913283217628
40
1.1866913283217628
40
1.2991103548294756
40
1.2991103548294756
40
1.2991103548294756
40
1.2991103548294756
10
-11.536516228358
20
14.364975907937861
30
0
10
-11.029764838715735
20
13.858893879492308
30
0
10
-10.429009194812942
20
13.456630085947159
30
0
10
-9.1071188660585243
20
12.905023414100917
30
0
10
-8.3986221732356867
20
12.760954196231541
30
0
10
-6.9662840394197545
20
12.752502445144101
30
0
10
-6.2561365316705411
20
12.888200715272992
30
0
10
-4.9278287820548563
20
13.424169449427016
30
0
10
-4.3223678862583714
20
13.819315760228106
30
0
10
-3.2969912093004448
20
14.819449067357944
30
0
10
-2.8868785880441914
20
15.414874244155769
30
0
10
-2.4535904430257527
20
16.41604833109999
30
0
10
-2.3402908750367599
20
16.774265666879508
30
0
10
-2.1882970833967939
20
17.508151518895481
30
0
10
-2.1500000000000008
20
17.881902485667162
30
0
10
-2.1499999999999995
20
18.256632574026206
30
0
0
LINE
5
165
100
AcDbEntity
8
0
100
AcDbLine
10
-11.536516228358
20
14.364975907937861
30
0
11
-11.585786437626901
21
14.414213562373101
31
0
0
ARC
5
166
100
AcDbEntity
8
0
100
AcDbCircle
10
-12.999999999999998
20
13.000000000000005
30
0
40
2.0000000000000022
210
0
220
-0
230
1
100
AcDbArc
50
44.999999999999964
51
225
0
LINE
5
167
100
AcDbEntity
8
0
100
AcDbLine
10
-14.414213562373096
20
11.585786437626908
30
0
11
-14.364975907938756
21
11.536516228358932
31
0
0
SPLINE
5
168
100
AcDbEntity
8
0
100
AcDbSpline
70
0
71
3
72
20
73
16
74
0
42
0.000000001
43
0.0000000001
44
0.0000000001
40
0
40
0
40
0
40
0
40
0.21485446036281022
40
0.21485446036281022
40
0.42970892072562039
40
0.42970892072562039
40
0.64456338108843059
40
0.64456338108843059
40
0.85941784145124089
40
0.85941784145124089
40
1.0742723018140508
40
1.0742723018140508
40
1.1866913283217642
40
1.1866913283217642
40
1.2991103548294771
40
1.2991103548294771
40
1.2991103548294771
40
1.2991103548294771
10
-18.256632574026192
20
2.1500000000000083
30
0
10
-17.540451039483493
20
2.1500000000000083
30
0
10
-16.831116590760114
20
2.2898861792054448
30
0
10
-15.505994483208148
20
2.8336833488898638
30
0
10
-14.902875713975106
20
3.2323953420343079
30
0
10
-13.883418238644795
20
4.2385615398728662
30
0
10
-13.47682610165894
20
4.8363962473126971
30
0
10
-12.915686733435924
20
6.1542682331709697
30
0
10
-12.766504300403563
20
6.8617059371088773
30
0
10
-12.747708000139317
20
8.2939456728989871
30
0
10
-12.878273835782736
20
9.0050547122460678
30
0
10
-13.279159406404947
20
10.019637842526198
30
0
10
-13.452122037269852
20
10.353165022953458
30
0
10
-13.863167786575799
20
10.979848314946965
30
0
10
-14.100176895272119
20
11.271366983567766
30
0
10
-14.364975907937838
20
11.53651622835801
30
0
0
LINE
5
169
100
AcDbEntity
8
0
100
AcDbLine
10
-18.256632574026192
20
2.1500000000000083
30
0
11
-48.97259865084191
21
2.1499999980913254
31
0
0
ARC
5
170
100
AcDbEntity
8
0
100
AcDbCircle
10
-48.972598666736502
20
10.149999998091225
30
0
40
7.9999999999999041
210
0
220
0
230
1
100
AcDbArc
50
248.38176065207813
51
270.00000011383662
0
LINE
5
171
100
AcDbEntity
8
0
100
AcDbLine
10
-51.919962794591029
20
2.7127259882247881
30
0
11
-61.26315905744331
21
6.4154000416619494
31
0
0
ARC
5
172
100
AcDbEntity
8
0
100
AcDbCircle
10
-62.000000089406953
20
4.5560815391953202
30
0
40
1.9999999999999993
210
0
220
-0
230
1
100
AcDbArc
50
68.381760652078086
51
180
0
LINE
5
173
100
AcDbEntity
8
0
100
AcDbLine
10
-64.000000089406953
20
4.556081539195322
30
0
11
-64.000000089406953
21
0.95452975871009649
31
0
0
ARC
5
174
100
AcDbEntity
8
0
100
AcDbCircle
10
-69.000000089406669
20
0.95452975871004653
30
0
40
4.9999999999997069
210
0
220
0
230
1
100
AcDbArc
50
-21.616114807893997
51
0
0
LINE
5
175
100
AcDbEntity
8
0
100
AcDbLine
10
-64.351635530869643
20
-0.88740046009140705
30
0
11
-66.429672911707456
21
-6.1316139562396854
31
0
0
ARC
5
176
100
AcDbEntity
8
0
100
AcDbCircle
10
-65.5
20
-6.4999999999999893
30
0
40
0.99999999999998923
210
0
220
0
230
1
100
AcDbArc
50
158.38388519210645
51
285.18928613295577
0
LINE
5
177
100
AcDbEntity
8
0
100
AcDbLine
10
-65.23799127655289
20
-7.465065504946466
30
0
11
-59.298391734395153
21
-5.8525046105292766
31
0
0
ARC
5
178
100
AcDbEntity
8
0
100
AcDbCircle
10
-57.988348117159688
20
-10.677832135261731
30
0
40
5.0000000000000053
210
0
220
-0
230
1
100
AcDbArc
50
75.068583406396229
51
105.18928613295465
0
LINE
5
179
100
AcDbEntity
8
0
100
AcDbLine
10
-56.700034913645858
20
-5.8466574241120721
30
0
11
-56.660352742790671
21
-5.8572393359064989
31
0
0
ARC
5
180
100
AcDbEntity
8
0
100
AcDbCircle
10
-55.372039539276855
20
-1.0260646247568506
30
0
40
4.999999999999992
210
0
220
0
230
1
100
AcDbArc
50
255.06858340639636
51
315.42509036617764
0
ARC
5
181
100
AcDbEntity
8
0
100
AcDbCircle
10
-46.111704595637555
20
-10.149999999999995
30
0
40
8
210
0
220
-0
230
1
100
AcDbArc
50
90
51
135.42509036617776
0
CIRCLE
5
182
100
AcDbEntity
8
0
100
AcDbCircle
10
-3.3306690738754696e-15
20
-11.313708498984759
30
0
40
0.99999999999999956
210
-0
220
0
230
1
0
CIRCLE
5
183
100
AcDbEntity
8
0
100
AcDbCircle
10
-11.313708498984759
20
4.4408920985006262e-15
30
0
40
0.99999999999999956
210
-0
220
0
230
1
0
CIRCLE
5
184
100
AcDbEntity
8
0
100
AcDbCircle
10
11.313708498984759
20
-4.4408920985006262e-15
30
0
40
0.99999999999999956
210
-0
220
0
230
1
0
CIRCLE
5
185
100
AcDbEntity
8
0
100
AcDbCircle
10
2.2204460492503131e-15
20
11.313708498984759
30
0
40
0.99999999999999956
210
-0
220
0
230
1
0
CIRCLE
5
186
100
AcDbEntity
8
0
100
AcDbCircle
10
13.000000000000009
20
12.999999999999993
30
0
40
1.0000000000000009
210
0
220
-0
230
1
0
CIRCLE
5
187
100
AcDbEntity
8
0
100
AcDbCircle
10
-12.999999999999998
20
13.000000000000005
30
0
40
1.0000000000000009
210
-0
220
0
230
1
0
CIRCLE
5
188
100
AcDbEntity
8
0
100
AcDbCircle
10
12.999999999999996
20
-13.000000000000007
30
0
40
1.0000000000000009
210
0
220
-0
230
1
0
CIRCLE
5
189
100
AcDbEntity
8
0
100
AcDbCircle
10
61.181980515339447
20
-3.1819805153394798
30
0
40
1
210
-0
220
0
230
1
0
CIRCLE
5
190
100
AcDbEntity
8
0
100
AcDbCircle
10
54.818019484660525
20
3.1819805153394487
30
0
40
1
210
0
220
0
230
1
0
CIRCLE
5
191
100
AcDbEntity
8
0
100
AcDbCircle
10
57.999999999999986
20
-1.3322676295501878e-14
30
0
40
2.3000000000000003
210
0
220
0
230
1
0
CIRCLE
5
192
100
AcDbEntity
8
0
100
AcDbCircle
10
61.181980515339447
20
3.1819805153394487
30
0
40
1
210
0
220
0
230
1
0
CIRCLE
5
193
100
AcDbEntity
8
0
100
AcDbCircle
10
-61.181980515339447
20
3.1819805153394798
30
0
40
1
210
0
220
0
230
1
0
CIRCLE
5
194
100
AcDbEntity
8
0
100
AcDbCircle
10
-54.818019484660525
20
-3.1819805153394487
30
0
40
1
210
-0
220
0
230
1
0
CIRCLE
5
195
100
AcDbEntity
8
0
100
AcDbCircle
10
-57.999999999999986
20
1.3322676295501878e-14
30
0
40
2.3000000000000003
210
-0
220
0
230
1
0
CIRCLE
5
196
100
AcDbEntity
8
0
100
AcDbCircle
10
-61.181980515339447
20
-3.1819805153394487
30
0
40
1
210
0
220
0
230
1
0
LWPOLYLINE
5
197
100
AcDbEntity
8
0
100
AcDbPolyline
90
12
70
1
43
0.0
10
3.7057117246248983
20
-7.0899718344981864
42
-0.30681888136948643
10
5.9345708301845912
20
-7.3446792233066276
42
0.92655032088913114
10
7.3446792233066285
20
-5.9345708301845912
42
-0.30681888136948654
10
7.0899718344981908
20
-3.7057117246248925
42
0.2455744626476386
10
7.0899718344981881
20
3.7057117246249005
42
-0.30681888136948637
10
7.3446792233066294
20
5.9345708301845885
42
0.92655032088913214
10
5.9345708301845912
20
7.3446792233066285
42
-0.30681888136948654
10
3.7057117246248938
20
7.0899718344981935
42
0.24557446264763866
10
-3.7057117246249005
20
7.0899718344981881
42
-0.30681888136948637
10
-5.9345708301845885
20
7.3446792233066294
42
0.92655032088913214
10
-7.3446792233066276
20
5.9345708301845921
42
-0.30681888136948565
10
-7.0899718344981881
20
3.7057117246248983
42
0.73450174282021763
0
ENDSEC
0
SECTION
2
OBJECTS
0
DICTIONARY
5
C
100
AcDbDictionary
3
ACAD_GROUP
350
D
3
ACAD_MLINESTYLE
350
17
0
DICTIONARY
5
D
100
AcDbDictionary
0
DICTIONARY
5
1A
330
C
100
AcDbDictionary
0
DICTIONARY
5
17
100
AcDbDictionary
0
ENDSEC
0
EOF
