0
SECTION
2
HEADER
9
$INSUNITS
70
4
9
$ACADVER
1
AC1014
9
$HANDSEED
5
FFFF
0
ENDSEC
0
SECTION
2
TABLES
0
TABLE
2
VPORT
5
8
100
AcDbSymbolTable
0
ENDTAB
0
TABLE
2
LTYPE
5
5
100
AcDbSymbolTable
0
LTYPE
5
14
100
AcDbSymbolTableRecord
100
AcDbLinetypeTableRecord
2
BYBLOCK
70
0
0
LTYPE
5
15
100
AcDbSymbolTableRecord
100
AcDbLinetypeTableRecord
2
BYLAYER
70
0
0
ENDTAB
0
TABLE
2
LAYER
5
2
100
AcDbSymbolTable
70
2
0
LAYER
5
50
100
AcDbSymbolTableRecord
100
AcDbLayerTableRecord
2
0
70
0
6
CONTINUOUS
0
ENDTAB
0
TABLE
2
STYLE
5
3
100
AcDbSymbolTable
70
1
0
STYLE
5
11
100
AcDbSymbolTableRecord
100
AcDbTextStyleTableRecord
2
STANDARD
70
0
0
ENDTAB
0
TABLE
2
VIEW
5
6
100
AcDbSymbolTable
70
0
0
ENDTAB
0
TABLE
2
UCS
5
7
100
AcDbSymbolTable
70
0
0
ENDTAB
0
TABLE
2
APPID
5
9
100
AcDbSymbolTable
70
2
0
APPID
5
12
100
AcDbSymbolTableRecord
100
AcDbRegAppTableRecord
2
ACAD
70
0
0
ENDTAB
0
TABLE
2
DIMSTYLE
5
A
100
AcDbSymbolTable
70
1
0
ENDTAB
0
TABLE
2
BLOCK_RECORD
5
1
100
AcDbSymbolTable
70
1
0
BLOCK_RECORD
5
1F
100
AcDbSymbolTableRecord
100
AcDbBlockTableRecord
2
*MODEL_SPACE
0
BLOCK_RECORD
5
1B
100
AcDbSymbolTableRecord
100
AcDbBlockTableRecord
2
*PAPER_SPACE
0
ENDTAB
0
ENDSEC
0
SECTION
2
BLOCKS
0
BLOCK
5
20
100
AcDbEntity
100
AcDbBlockBegin
2
*MODEL_SPACE
0
ENDBLK
5
21
100
AcDbEntity
100
AcDbBlockEnd
0
BLOCK
5
1C
100
AcDbEntity
100
AcDbBlockBegin
2
*PAPER_SPACE
0
ENDBLK
5
1D
100
AcDbEntity
100
AcDbBlockEnd
0
ENDSEC
0
SECTION
2
ENTITIES
0
LWPOLYLINE
5
100
100
AcDbEntity
8
0
100
AcDbPolyline
90
4
70
1
43
0.0
10
63.085678118654741
20
-72.163046873482585
42
-1.2909944487358096
10
63.085678118654741
20
-69.25830936382701
10
64.960678118654741
20
-69.742432282102939
42
-0.77459666924148751
10
64.960678118654741
20
-71.678923955206642
0
LWPOLYLINE
5
101
100
AcDbEntity
8
0
100
AcDbPolyline
90
4
70
1
43
0.0
10
78.335678118654727
20
-69.25830936382701
42
-1.2909944487358016
10
78.335678118654727
20
-72.163046873482571
10
76.460678118654741
20
-71.678923955206642
42
-0.77459666924148751
10
76.460678118654741
20
-69.742432282102939
0
CIRCLE
5
102
100
AcDbEntity
8
0
100
AcDbCircle
10
70.710678118654741
20
-70.710678118654783
30
0
40
3.0000000000000009
210
0
220
-0
230
1
0
LWPOLYLINE
5
103
100
AcDbEntity
8
0
100
AcDbPolyline
90
4
70
1
43
0.0
10
72.163046873482529
20
-78.335678118654783
42
-1.2909944487358096
10
69.258309363826967
20
-78.335678118654783
10
69.742432282102882
20
-76.460678118654798
42
-0.77459666924148751
10
71.678923955206585
20
-76.460678118654798
0
LINE
5
104
100
AcDbEntity
8
0
100
AcDbLine
10
62.547512410959811
20
-57.597764954582885
30
0
11
48.827684196276664
21
-43.877936727970869
31
0
0
SPLINE
5
105
100
AcDbEntity
8
0
100
AcDbSpline
70
4
71
5
72
18
73
12
74
0
42
0.000000001
43
0.0000000001
44
0.0000000001
40
0
40
0
40
0
40
0
40
0
40
0
40
0.10000000000000001
40
0.20000000000000001
40
0.30000000000000004
40
0.40000000000000002
40
0.5
40
0.59999999999999998
40
0.64426200042261594
40
0.64426200042261594
40
0.64426200042261594
40
0.64426200042261594
40
0.64426200042261594
40
0.64426200042261594
41
1
41
1
41
1
41
1
41
1
41
1
41
1
41
1
41
1
41
1
41
1
41
1
10
48.827684196276664
20
-43.877936727970869
30
0
10
47.666995579979996
20
-42.717248111674202
30
0
10
45.406935860358885
20
-40.427377798287282
30
0
10
42.200787620706556
20
-37.087086743856801
30
0
10
38.280837865119672
20
-32.814862859923082
30
0
10
33.911498435271355
20
-27.74201604357512
30
0
10
30.011338328792576
20
-22.902491001991564
30
0
10
26.926260574365926
20
-18.792210740771868
30
0
10
24.786885351806234
20
-15.737637838219324
30
0
10
23.406134555636974
20
-13.646159794003907
30
0
10
22.642948915709603
20
-12.441178162836678
30
0
10
22.41385716334679
20
-12.074439434175716
30
0
0
SPLINE
5
106
100
AcDbEntity
8
0
100
AcDbSpline
70
0
71
3
72
11
73
7
74
0
42
0.000000001
43
0.0000000001
44
0.0000000001
40
0.24868096399499615
40
0.24868096399499615
40
0.24868096399499615
40
0.24868096399499615
40
0.40000000000000002
40
0.59999999999999998
40
0.80000000000000004
40
1
40
1
40
1
40
1
10
22.289744615990173
20
-4.863757760225452
30
0
10
22.035284374009208
20
-5.3041458340814698
30
0
10
21.556174970923443
20
-6.3911772334211117
30
0
10
21.254335250766783
20
-8.2391357434100083
30
0
10
21.51083206869373
20
-10.260731791161932
30
0
10
22.05769783805642
20
-11.504286136160564
30
0
10
22.413857163346776
20
-12.07443943417573
30
0
0
SPLINE
5
107
100
AcDbEntity
8
0
100
AcDbSpline
70
0
71
3
72
12
73
8
74
0
42
0.000000001
43
0.0000000001
44
0.0000000001
40
0
40
0
40
0
40
0
40
0.15625778935477139
40
0.15625778935477139
40
0.24849654205857713
40
0.24849654205857713
40
0.34073529476238351
40
0.34073529476238351
40
0.34073529476238351
40
0.34073529476238351
10
24.971225562624792
20
-2.9421212203260905
30
0
10
24.460415164955997
20
-3.0439404021605916
30
0
10
23.974375943436304
20
-3.2445587665199587
30
0
10
23.284328917749697
20
-3.7027640895620086
30
0
10
23.048654165278272
20
-3.9018105108766639
30
0
10
22.627573144572818
20
-4.349943919355832
30
0
10
22.443567475405167
20
-4.5975403258418845
30
0
10
22.289744615990173
20
-4.8637577602254565
30
0
0
ARC
5
108
100
AcDbEntity
8
0
100
AcDbCircle
10
24.384776310850242
20
-2.7947232903417479e-15
30
0
40
3
210
-0
220
0
230
1
100
AcDbArc
50
-78.727054614178485
51
78.727053887741022
0
SPLINE
5
109
100
AcDbEntity
8
0
100
AcDbSpline
70
0
71
3
72
12
73
8
74
0
42
0.000000001
43
0.0000000001
44
0.0000000001
40
0
40
0
40
0
40
0
40
0.15625778935477125
40
0.15625778935477125
40
0.24849653322663454
40
0.24849653322663454
40
0.34073527709849794
40
0.34073527709849794
40
0.34073527709849794
40
0.34073527709849794
10
22.289744765736963
20
4.8637576343489624
30
0
10
22.550329612814245
20
4.412769889914915
30
0
10
22.896511061687956
20
4.0169918493045316
30
0
10
23.552179275327791
20
3.5108138563276761
30
0
10
23.816408493133135
20
3.3516128233398761
30
0
10
24.376097159173181
20
3.0968947390060002
30
0
10
24.669694972154026
20
3.0022249304117681
30
0
10
24.971225599927138
20
2.9421212128906564
30
0
0
SPLINE
5
110
100
AcDbEntity
8
0
100
AcDbSpline
70
0
71
3
72
11
73
7
74
0
42
0.000000001
43
0.0000000001
44
0.0000000001
40
-1
40
-1
40
-1
40
-1
40
-0.80000000000000004
40
-0.59999999999999998
40
-0.40000000000000002
40
-0.24868094770776761
40
-0.24868094770776761
40
-0.24868094770776761
40
-0.24868094770776761
10
22.413857206907785
20
12.074439503909812
30
0
10
22.057697878165122
20
11.504286201583774
30
0
10
21.510832104518709
20
10.260731846110245
30
0
10
21.25433528964686
20
8.2391357808620853
30
0
10
21.55617503032434
20
6.3911772023741706
30
0
10
22.0352844804952
20
5.304145751218968
30
0
10
22.289744765736963
20
4.8637576343489588
30
0
0
SPLINE
5
111
100
AcDbEntity
8
0
100
AcDbSpline
70
4
71
5
72
18
73
12
74
0
42
0.000000001
43
0.0000000001
44
0.0000000001
40
-0.64426199873936307
40
-0.64426199873936307
40
-0.64426199873936307
40
-0.64426199873936307
40
-0.64426199873936307
40
-0.64426199873936307
40
-0.59999999999999998
40
-0.5
40
-0.40000000000000002
40
-0.30000000000000004
40
-0.20000000000000001
40
-0.10000000000000001
40
0
40
0
40
0
40
0
40
0
40
0
41
1
41
1
41
1
41
1
41
1
41
1
41
1
41
1
41
1
41
1
41
1
41
1
10
22.413857206907785
20
12.074439503909801
30
0
10
22.642948951329082
20
12.441178219075709
30
0
10
23.406134584181974
20
13.646159837242147
30
0
10
24.786885372726985
20
15.737637868089706
30
0
10
26.926260586054894
20
18.792210756345206
30
0
10
30.011338328792576
20
22.902491001991564
30
0
10
33.911498435271355
20
27.74201604357512
30
0
10
38.280837865119672
20
32.814862859923082
30
0
10
42.200787620706556
20
37.087086743856801
30
0
10
45.406935860358885
20
40.427377798287282
30
0
10
47.666995579979996
20
42.717248111674202
30
0
10
48.827684196276664
20
43.877936727970869
30
0
0
LINE
5
112
100
AcDbEntity
8
0
100
AcDbLine
10
48.827684196276664
20
43.877936727970862
30
0
11
62.547512410959811
21
57.597764954582885
31
0
0
ARC
5
113
100
AcDbEntity
8
0
100
AcDbCircle
10
68.204366671691403
20
51.940910716329554
30
0
40
8.0000000000001066
210
0
220
0
230
1
100
AcDbArc
50
113.14610502929354
51
135.00000011383619
0
LINE
5
114
100
AcDbEntity
8
0
100
AcDbLine
10
65.059749426405887
20
59.296954651805649
30
0
11
85.622532149810013
21
68.087288386930439
31
0
0
ARC
5
115
100
AcDbEntity
8
0
100
AcDbCircle
10
84.836377838488644
20
69.926299370799427
30
0
40
2.0000000000000027
210
-0
220
0
230
1
100
AcDbArc
50
-66.853894970706349
51
45.000000000000291
0
LINE
5
116
100
AcDbEntity
8
0
100
AcDbLine
10
86.250591400861737
20
71.340512933172533
30
0
11
79.420295227488168
21
78.170809106546116
31
0
0
ARC
5
117
100
AcDbEntity
8
0
100
AcDbCircle
10
82.955829133420877
20
81.706343012478854
30
0
40
4.9999999999999716
210
0
220
0
230
1
100
AcDbArc
50
204.95809978647961
51
225.00000000000023
0
LINE
5
118
100
AcDbEntity
8
0
100
AcDbLine
10
78.422746113431756
20
79.596566167908307
30
0
11
73.938124889023499
21
89.232258386146697
31
0
0
ARC
5
119
100
AcDbEntity
8
0
100
AcDbCircle
10
72.124891681027847
20
88.388347648318458
30
0
40
2.0000000000000022
210
0
220
-0
230
1
100
AcDbArc
50
24.958099786480105
51
153.78776381727795
0
LINE
5
120
100
AcDbEntity
8
0
100
AcDbLine
10
70.33056356006054
20
89.271742573765721
30
0
11
65.074658005239101
21
78.596087929961016
31
0
0
ARC
5
121
100
AcDbEntity
8
0
100
AcDbCircle
10
60.588837702820904
20
80.804575243579052
30
0
40
4.9999999999999094
210
0
220
0
230
1
100
AcDbArc
50
296.64149270076706
51
333.78776381727886
0
LINE
5
122
100
AcDbEntity
8
0
100
AcDbLine
10
62.830870216721458
20
76.335426531954894
30
0
11
57.810695631067837
21
73.816961523793992
31
0
0
ARC
5
123
100
AcDbEntity
8
0
100
AcDbCircle
10
60.052728144968455
20
69.347812812169764
30
0
40
5.0000000000000009
210
0
220
0
230
1
100
AcDbArc
50
116.64149270076736
51
197.49503301559417
0
ARC
5
124
100
AcDbEntity
8
0
100
AcDbCircle
10
45.746582913668959
20
64.838466005705712
30
0
40
10.000000000000032
210
0
220
0
230
1
100
AcDbArc
50
-44.999999999999851
51
17.495033015594245
0
LINE
5
125
100
AcDbEntity
8
0
100
AcDbLine
10
52.817650725534477
20
57.767398193840236
30
0
11
14.858262578510724
21
19.808010046816516
31
0
0
ARC
5
126
100
AcDbEntity
8
0
100
AcDbCircle
10
9.9085151102048901
20
24.757757515122346
30
0
40
7.0000000000000009
210
0
220
0
230
1
100
AcDbArc
50
187.01854971968646
51
315
0
ARC
5
127
100
AcDbEntity
8
0
100
AcDbCircle
10
-2.6197847317862565e-15
20
24.384776310850242
30
0
40
3.0000000000000009
210
-0
220
0
230
1
100
AcDbArc
50
-9.2524350650985436
51
177.39702695952255
0
ARC
5
128
100
AcDbEntity
8
0
100
AcDbCircle
10
-9.9896821459010265
20
24.838924550818522
30
0
40
6.9999999999999982
210
0
220
0
230
1
100
AcDbArc
50
225.00000000000003
51
357.39702695952269
0
LINE
5
129
100
AcDbEntity
8
0
100
AcDbLine
10
-14.939429614206857
20
19.889177082512688
30
0
11
-52.817650725534442
21
57.767398193840279
31
0
0
ARC
5
130
100
AcDbEntity
8
0
100
AcDbCircle
10
-45.746582913668973
20
64.838466005705754
30
0
40
10.000000000000007
210
0
220
0
230
1
100
AcDbArc
50
162.50496698440588
51
225.00000000000003
0
ARC
5
131
100
AcDbEntity
8
0
100
AcDbCircle
10
-60.052728144968476
20
69.347812812169764
30
0
40
5.0000000000000133
210
0
220
0
230
1
100
AcDbArc
50
-17.495033015593989
51
63.358507299232443
0
LINE
5
132
100
AcDbEntity
8
0
100
AcDbLine
10
-57.810695631067837
20
73.816961523793992
30
0
11
-62.830870216721458
21
76.335426531954894
31
0
0
ARC
5
133
100
AcDbEntity
8
0
100
AcDbCircle
10
-60.58883770282084
20
80.804575243579123
30
0
40
4.9999999999999956
210
0
220
0
230
1
100
AcDbArc
50
206.21223618272157
51
243.35850729923263
0
LINE
5
134
100
AcDbEntity
8
0
100
AcDbLine
10
-65.074658005239101
20
78.596087929961016
30
0
11
-70.33056356006054
21
89.271742573765721
31
0
0
ARC
5
135
100
AcDbEntity
8
0
100
AcDbCircle
10
-72.124891681027847
20
88.388347648318472
30
0
40
2.0000000000000013
210
0
220
-0
230
1
100
AcDbArc
50
26.212236182721711
51
155.04190021352045
0
LINE
5
136
100
AcDbEntity
8
0
100
AcDbLine
10
-73.938124889023513
20
89.232258386146697
30
0
11
-78.422746113431771
21
79.596566167908293
31
0
0
ARC
5
137
100
AcDbEntity
8
0
100
AcDbCircle
10
-82.955829133420906
20
81.706343012478854
30
0
40
4.9999999999999964
210
-0
220
0
230
1
100
AcDbArc
50
315
51
335.04190021352031
0
LINE
5
138
100
AcDbEntity
8
0
100
AcDbLine
10
-79.420295227488168
20
78.170809106546116
30
0
11
-86.250591400861737
21
71.340512933172533
31
0
0
ARC
5
139
100
AcDbEntity
8
0
100
AcDbCircle
10
-84.83637783848863
20
69.926299370799441
30
0
40
2.0000000000000022
210
0
220
0
230
1
100
AcDbArc
50
135.00000000000031
51
246.85389497070651
0
LINE
5
140
100
AcDbEntity
8
0
100
AcDbLine
10
-85.622532149809999
20
68.087288386930439
30
0
11
-65.059749426405887
21
59.296954651805649
31
0
0
ARC
5
141
100
AcDbEntity
8
0
100
AcDbCircle
10
-68.204366671691361
20
51.940910716329654
30
0
40
8.0000000000000036
210
0
220
-0
230
1
100
AcDbArc
50
44.99999988616355
51
66.853894970706463
0
LINE
5
142
100
AcDbEntity
8
0
100
AcDbLine
10
-62.547512410959818
20
57.597764954582885
30
0
11
-48.827684196276664
21
43.877936727970869
31
0
0
SPLINE
5
143
100
AcDbEntity
8
0
100
AcDbSpline
70
4
71
5
72
18
73
12
74
0
42
0.000000001
43
0.0000000001
44
0.0000000001
40
0
40
0
40
0
40
0
40
0
40
0
40
0.10000000000000001
40
0.20000000000000001
40
0.30000000000000004
40
0.40000000000000002
40
0.5
40
0.59999999999999998
40
0.62781768274844274
40
0.62781768274844274
40
0.62781768274844274
40
0.62781768274844274
40
0.62781768274844274
40
0.62781768274844274
41
1
41
1
41
1
41
1
41
1
41
1
41
1
41
1
41
1
41
1
41
1
41
1
10
-48.827684196276664
20
43.877936727970869
30
0
10
-47.666995579979996
20
42.717248111674202
30
0
10
-45.406935860358885
20
40.427377798287282
30
0
10
-42.200787620706556
20
37.087086743856801
30
0
10
-38.280837865119672
20
32.814862859923082
30
0
10
-33.911498435271355
20
27.74201604357512
30
0
10
-30.011338328792576
20
22.902491001991564
30
0
10
-27.040454447789841
20
18.944352392052156
30
0
10
-24.991841188802255
20
16.029750393539789
30
0
10
-23.686863210885672
20
14.069597852756788
30
0
10
-22.994979490138373
20
12.992934256947386
30
0
10
-22.846341375252372
20
12.759735265268656
30
0
0
SPLINE
5
144
100
AcDbEntity
8
0
100
AcDbSpline
70
0
71
3
72
12
73
8
74
0
42
0.000000001
43
0.0000000001
44
0.0000000001
40
0
40
0
40
0
40
0
40
0.20000000000000001
40
0.40000000000000002
40
0.59999999999999998
40
0.80000000000000004
40
1
40
1
40
1
40
1
10
-25.694113270177617
20
2.6991918655292646
30
0
10
-24.985949295208513
20
3.0427114491248637
30
0
10
-23.686779471342447
20
3.9708161952134735
30
0
10
-22.308480648281904
20
5.929586257422228
30
0
10
-21.656158542716973
20
8.234094868291006
30
0
10
-21.8033178459828
20
10.624666335894036
30
0
10
-22.423291465382075
20
12.096010402455398
30
0
10
-22.846341375252379
20
12.759735265268652
30
0
0
ARC
5
145
100
AcDbEntity
8
0
100
AcDbCircle
10
-24.384776310850242
20
2.7947232903417479e-15
30
0
40
3.0000000000000004
210
0
220
0
230
1
100
AcDbArc
50
115.87731875893076
51
258.72705388771561
0
SPLINE
5
146
100
AcDbEntity
8
0
100
AcDbSpline
70
0
71
3
72
12
73
8
74
0
42
0.000000001
43
0.0000000001
44
0.0000000001
40
0
40
0
40
0
40
0
40
0.15625778935477086
40
0.15625778935477086
40
0.24849653322632506
40
0.24849653322632506
40
0.34073527709787915
40
0.34073527709787915
40
0.34073527709787915
40
0.34073527709787915
10
-22.289744765742206
20
-4.8637576343445517
30
0
10
-22.550329612819983
20
-4.412769889910793
30
0
10
-22.896511061694127
20
-4.0169918493007879
30
0
10
-23.552179275333703
20
-3.5108138563252824
30
0
10
-23.816408493138262
20
-3.3516128233382094
30
0
10
-24.376097159176521
20
-3.0968947390053705
30
0
10
-24.669694972156371
20
-3.0022249304114408
30
0
10
-24.971225599928442
20
-2.9421212128903966
30
0
0
SPLINE
5
147
100
AcDbEntity
8
0
100
AcDbSpline
70
0
71
3
72
11
73
7
74
0
42
0.000000001
43
0.0000000001
44
0.0000000001
40
-1
40
-1
40
-1
40
-1
40
-0.80000000000000004
40
-0.59999999999999998
40
-0.40000000000000002
40
-0.24868094770719895
40
-0.24868094770719895
40
-0.24868094770719895
40
-0.24868094770719895
10
-22.41385720690932
20
-12.074439503912263
30
0
10
-22.057697878166532
20
-11.504286201586073
30
0
10
-21.51083210451997
20
-10.260731846112172
30
0
10
-21.254335289648225
20
-8.2391357808633927
30
0
10
-21.556175030326422
20
-6.3911772023730826
30
0
10
-22.03528448049893
20
-5.3041457512160681
30
0
10
-22.289744765742206
20
-4.8637576343445552
30
0
0
SPLINE
5
148
100
AcDbEntity
8
0
100
AcDbSpline
70
4
71
5
72
18
73
12
74
0
42
0.000000001
43
0.0000000001
44
0.0000000001
40
-0.64426199873930368
40
-0.64426199873930368
40
-0.64426199873930368
40
-0.64426199873930368
40
-0.64426199873930368
40
-0.64426199873930368
40
-0.59999999999999998
40
-0.5
40
-0.40000000000000002
40
-0.30000000000000004
40
-0.20000000000000001
40
-0.10000000000000001
40
0
40
0
40
0
40
0
40
0
40
0
41
1
41
1
41
1
41
1
41
1
41
1
41
1
41
1
41
1
41
1
41
1
41
1
10
-22.41385720690932
20
-12.074439503912263
30
0
10
-22.642948951330339
20
-12.441178219077695
30
0
10
-23.406134584182979
20
-13.646159837243674
30
0
10
-24.786885372727721
20
-15.737637868090761
30
0
10
-26.926260586055307
20
-18.792210756345757
30
0
10
-30.011338328792576
20
-22.902491001991564
30
0
10
-33.911498435271355
20
-27.74201604357512
30
0
10
-38.280837865119672
20
-32.814862859923082
30
0
10
-42.200787620706556
20
-37.087086743856801
30
0
10
-45.406935860358885
20
-40.427377798287282
30
0
10
-47.666995579979996
20
-42.717248111674202
30
0
10
-48.827684196276664
20
-43.877936727970869
30
0
0
LINE
5
149
100
AcDbEntity
8
0
100
AcDbLine
10
-48.827684196276664
20
-43.877936727970862
30
0
11
-62.547512410959811
21
-57.597764954582885
31
0
0
ARC
5
150
100
AcDbEntity
8
0
100
AcDbCircle
10
-68.204366671691403
20
-51.940910716329554
30
0
40
8.0000000000001066
210
0
220
0
230
1
100
AcDbArc
50
293.14610502929355
51
315.00000011383617
0
LINE
5
151
100
AcDbEntity
8
0
100
AcDbLine
10
-65.059749426405887
20
-59.296954651805649
30
0
11
-85.622532149810013
21
-68.087288386930439
31
0
0
ARC
5
152
100
AcDbEntity
8
0
100
AcDbCircle
10
-84.836377838488644
20
-69.926299370799427
30
0
40
2.0000000000000027
210
0
220
0
230
1
100
AcDbArc
50
113.14610502929366
51
225.00000000000028
0
LINE
5
153
100
AcDbEntity
8
0
100
AcDbLine
10
-86.250591400861737
20
-71.340512933172533
30
0
11
-79.420295227488168
21
-78.170809106546116
31
0
0
ARC
5
154
100
AcDbEntity
8
0
100
AcDbCircle
10
-82.955829133420877
20
-81.706343012478854
30
0
40
4.9999999999999716
210
0
220
-0
230
1
100
AcDbArc
50
24.958099786479618
51
45.000000000000227
0
LINE
5
155
100
AcDbEntity
8
0
100
AcDbLine
10
-78.422746113431756
20
-79.596566167908307
30
0
11
-73.938124889023499
21
-89.232258386146697
31
0
0
ARC
5
156
100
AcDbEntity
8
0
100
AcDbCircle
10
-72.124891681027847
20
-88.388347648318458
30
0
40
2.0000000000000022
210
0
220
0
230
1
100
AcDbArc
50
204.95809978648009
51
333.78776381727789
0
LINE
5
157
100
AcDbEntity
8
0
100
AcDbLine
10
-70.33056356006054
20
-89.271742573765721
30
0
11
-65.074658005239101
21
-78.596087929961016
31
0
0
ARC
5
158
100
AcDbEntity
8
0
100
AcDbCircle
10
-60.588837702820904
20
-80.804575243579052
30
0
40
4.9999999999999094
210
0
220
0
230
1
100
AcDbArc
50
116.64149270076706
51
153.78776381727883
0
LINE
5
159
100
AcDbEntity
8
0
100
AcDbLine
10
-62.830870216721458
20
-76.335426531954894
30
0
11
-57.810695631067837
21
-73.816961523793992
31
0
0
ARC
5
160
100
AcDbEntity
8
0
100
AcDbCircle
10
-60.052728144968455
20
-69.347812812169764
30
0
40
5.0000000000000009
210
-0
220
0
230
1
100
AcDbArc
50
-63.358507299232642
51
17.495033015594185
0
ARC
5
161
100
AcDbEntity
8
0
100
AcDbCircle
10
-45.746582913668959
20
-64.838466005705712
30
0
40
10.000000000000032
210
0
220
0
230
1
100
AcDbArc
50
135.00000000000017
51
197.49503301559423
0
LINE
5
162
100
AcDbEntity
8
0
100
AcDbLine
10
-52.817650725534477
20
-57.767398193840236
30
0
11
-15.390069014757684
21
-20.339816483063476
31
0
0
ARC
5
163
100
AcDbEntity
8
0
100
AcDbCircle
10
-9.026107984078763
20
-26.703777513742398
30
0
40
9.0000000000000018
210
0
220
-0
230
1
100
AcDbArc
50
66.246644668430363
51
135
0
LINE
5
164
100
AcDbEntity
8
0
100
AcDbLine
10
-5.4009053627602377
20
-18.466186485147613
30
0
11
-4.0185248278864902
21
-19.074545108595675
31
0
0
SPLINE
5
165
100
AcDbEntity
8
0
100
AcDbSpline
70
0
71
3
72
12
73
8
74
0
42
0.000000001
43
0.0000000001
44
0.0000000001
40
0
40
0
40
0
40
0
40
0.078128894677385902
40
0.078128894677385902
40
0.15625778935477125
40
0.15625778935477125
40
0.23467061042497628
40
0.23467061042497628
40
0.23467061042497628
40
0.23467061042497628
10
-2.8243060221989151
20
-20.93199866362086
30
0
10
-2.8208061379801439
20
-20.67159253302971
30
0
10
-2.868202822437846
20
-20.412992421765537
30
0
10
-3.0594536942146955
20
-19.928515887555061
30
0
10
-3.2014794189598805
20
-19.707271324335917
30
0
10
-3.5629987448558484
20
-19.330993520645102
30
0
10
-3.7792904755254786
20
-19.179827465813709
30
0
10
-4.0185248278864893
20
-19.074545108595675
30
0
0
SPLINE
5
166
100
AcDbEntity
8
0
100
AcDbSpline
70
4
71
5
72
12
73
6
74
0
42
0.000000001
43
0.0000000001
44
0.0000000001
40
-0.076621891951513962
40
-0.076621891951513962
40
-0.076621891951513962
40
-0.076621891951513962
40
-0.076621891951513962
40
-0.076621891951513962
40
-0.010365377695953599
40
-0.010365377695953599
40
-0.010365377695953599
40
-0.010365377695953599
40
-0.010365377695953599
40
-0.010365377695953599
41
1
41
1
41
1
41
1
41
1
41
1
10
-2.8243060221976108
20
-20.931998663523807
30
0
10
-2.8320270000969074
20
-21.50647194715264
30
0
10
-2.8496156370564467
20
-22.090812889879189
30
0
10
-2.8769935814641352
20
-22.684943140091029
30
0
10
-2.9141148559050634
20
-23.288816720373084
30
0
10
-2.9609686023760302
20
-23.902422772722105
30
0
0
SPLINE
5
167
100
AcDbEntity
8
0
100
AcDbSpline
70
4
71
5
72
12
73
6
74
0
42
0.000000001
43
0.0000000001
44
0.0000000001
40
-0.010365377695897548
40
-0.010365377695897548
40
-0.010365377695897548
40
-0.010365377695897548
40
-0.010365377695897548
40
-0.010365377695897548
40
0
40
0
40
0
40
0
40
0
40
0
41
1
41
1
41
1
41
1
41
1
41
1
10
-2.9609686023762287
20
-23.902422772724705
30
0
10
-2.9682985499911378
20
-23.998417235466199
30
0
10
-2.9758666945907852
20
-24.094649895193335
30
0
10
-2.9836729946013825
20
-24.191120710332324
30
0
10
-2.9917174294856363
20
-24.287829660345874
30
0
10
-3.0000000000000049
20
-24.384776745990443
30
0
0
ARC
5
168
100
AcDbEntity
8
0
100
AcDbCircle
10
-3.6648909391443868e-16
20
-24.384776310850242
30
0
40
3.0000000000000364
210
0
220
0
230
1
100
AcDbArc
50
180.00000827764262
51
359.99999390283659
0
SPLINE
5
169
100
AcDbEntity
8
0
100
AcDbSpline
70
4
71
5
72
12
73
6
74
0
42
0.000000001
43
0.0000000001
44
0.0000000001
40
-1
40
-1
40
-1
40
-1
40
-1
40
-1
40
-0.98963462686276382
40
-0.98963462686276382
40
-0.98963462686276382
40
-0.98963462686276382
40
-0.98963462686276382
40
-0.98963462686276382
41
1
41
1
41
1
41
1
41
1
41
1
10
2.9999999999999964
20
-24.384776631696585
30
0
10
2.9917174331120333
20
-24.287829589076772
30
0
10
2.9836730016461899
20
-24.191120681878161
30
0
10
2.9758667048460103
20
-24.094649909344291
30
0
10
2.9682985632487502
20
-23.998417292012419
30
0
10
2.9609686184281259
20
-23.90242287145626
30
0
0
SPLINE
5
170
100
AcDbEntity
8
0
100
AcDbSpline
70
4
71
5
72
12
73
6
74
0
42
0.000000001
43
0.0000000001
44
0.0000000001
40
-0.98963462685481485
40
-0.98963462685481485
40
-0.98963462685481485
40
-0.98963462685481485
40
-0.98963462685481485
40
-0.98963462685481485
40
-0.92337811044707674
40
-0.92337811044707674
40
-0.92337811044707674
40
-0.92337811044707674
40
-0.92337811044707674
40
-0.92337811044707674
41
1
41
1
41
1
41
1
41
1
41
1
10
2.9609686184000203
20
-23.902422871088184
30
0
10
2.9141148676669717
20
-23.288816798603076
30
0
10
2.8769935896540022
20
-22.684943198800369
30
0
10
2.8496156423606163
20
-22.090812929679519
30
0
10
2.8320270032029677
20
-21.506471968656513
30
0
10
2.8243060237988411
20
-20.931998667348829
30
0
0
SPLINE
5
171
100
AcDbEntity
8
0
100
AcDbSpline
70
0
71
3
72
12
73
8
74
0
42
0.000000001
43
0.0000000001
44
0.0000000001
40
0
40
0
40
0
40
0
40
0.078128894677385569
40
0.078128894677385569
40
0.15625778935477094
40
0.15625778935477094
40
0.2346706108697991
40
0.2346706108697991
40
0.2346706108697991
40
0.2346706108697991
10
4.0185248294271982
20
-19.074545107917636
30
0
10
3.7801567250314729
20
-19.179446246356591
30
0
10
3.5645570746260131
20
-19.329903064043485
30
0
10
3.203165597456028
20
-19.704990531689226
30
0
10
3.0608288701868211
20
-19.926035141018914
30
0
10
2.868548105044197
20
-20.411122058437059
30
0
10
2.8207934201367699
20
-20.670646199440831
30
0
10
2.8243060237988411
20
-20.931998667348822
30
0
0
LINE
5
172
100
AcDbEntity
8
0
100
AcDbLine
10
4.0185248294271982
20
-19.074545107917636
30
0
11
5.4009053627602057
21
-18.466186485147627
31
0
0
ARC
5
173
100
AcDbEntity
8
0
100
AcDbCircle
10
9.0261079840787257
20
-26.703777513742416
30
0
40
9.0000000000000018
210
0
220
-0
230
1
100
AcDbArc
50
45
51
113.75335533156961
0
LINE
5
174
100
AcDbEntity
8
0
100
AcDbLine
10
15.390069014757655
20
-20.339816483063487
30
0
11
52.817650725534442
21
-57.767398193840279
31
0
0
ARC
5
175
100
AcDbEntity
8
0
100
AcDbCircle
10
45.746582913668973
20
-64.838466005705754
30
0
40
9.9999999999999893
210
-0
220
0
230
1
100
AcDbArc
50
-17.495033015594192
51
45.000000000000028
0
ARC
5
176
100
AcDbEntity
8
0
100
AcDbCircle
10
60.052728144968476
20
-69.347812812169764
30
0
40
5.0000000000000275
210
0
220
0
230
1
100
AcDbArc
50
162.50496698440625
51
243.35850729923246
0
LINE
5
177
100
AcDbEntity
8
0
100
AcDbLine
10
57.810695631067837
20
-73.816961523793992
30
0
11
62.830870216721458
21
-76.335426531954894
31
0
0
ARC
5
178
100
AcDbEntity
8
0
100
AcDbCircle
10
60.58883770282084
20
-80.804575243579123
30
0
40
4.9999999999999956
210
0
220
-0
230
1
100
AcDbArc
50
26.212236182721593
51
63.358507299232656
0
LINE
5
179
100
AcDbEntity
8
0
100
AcDbLine
10
65.074658005239101
20
-78.596087929961016
30
0
11
70.33056356006054
21
-89.271742573765721
31
0
0
ARC
5
180
100
AcDbEntity
8
0
100
AcDbCircle
10
72.124891681027847
20
-88.388347648318472
30
0
40
2.0000000000000013
210
0
220
0
230
1
100
AcDbArc
50
206.21223618272171
51
335.04190021352042
0
LINE
5
181
100
AcDbEntity
8
0
100
AcDbLine
10
73.938124889023513
20
-89.232258386146697
30
0
11
78.422746113431771
21
-79.596566167908293
31
0
0
ARC
5
182
100
AcDbEntity
8
0
100
AcDbCircle
10
82.955829133420906
20
-81.706343012478854
30
0
40
4.9999999999999964
210
0
220
0
230
1
100
AcDbArc
50
135
51
155.04190021352031
0
LINE
5
183
100
AcDbEntity
8
0
100
AcDbLine
10
79.420295227488168
20
-78.170809106546116
30
0
11
86.250591400861737
21
-71.340512933172533
31
0
0
ARC
5
184
100
AcDbEntity
8
0
100
AcDbCircle
10
84.83637783848863
20
-69.926299370799441
30
0
40
2.0000000000000022
210
-0
220
0
230
1
100
AcDbArc
50
-44.999999999999694
51
66.853894970706506
0
LINE
5
185
100
AcDbEntity
8
0
100
AcDbLine
10
85.622532149809999
20
-68.087288386930439
30
0
11
65.059749426405887
21
-59.296954651805649
31
0
0
ARC
5
186
100
AcDbEntity
8
0
100
AcDbCircle
10
68.204366671691361
20
-51.940910716329654
30
0
40
8.0000000000000089
210
0
220
0
230
1
100
AcDbArc
50
224.99999988616352
51
246.85389497070645
0
LWPOLYLINE
5
187
100
AcDbEntity
8
0
100
AcDbPolyline
90
4
70
1
43
0.0
10
-69.258309363826953
20
-78.335678118654783
42
-1.2909944487358103
10
-72.163046873482529
20
-78.335678118654783
10
-71.678923955206599
20
-76.460678118654783
42
-0.77459666924148063
10
-69.742432282102882
20
-76.460678118654783
0
CIRCLE
5
188
100
AcDbEntity
8
0
100
AcDbCircle
10
-70.710678118654741
20
-70.710678118654783
30
0
40
3.0000000000000009
210
-0
220
0
230
1
0
LWPOLYLINE
5
189
100
AcDbEntity
8
0
100
AcDbPolyline
90
4
70
1
43
0.0
10
-78.335678118654727
20
-72.163046873482571
42
-1.2909944487358096
10
-78.335678118654727
20
-69.25830936382701
10
-76.460678118654741
20
-69.742432282102939
42
-0.77459666924148385
10
-76.460678118654727
20
-71.678923955206642
0
LWPOLYLINE
5
190
100
AcDbEntity
8
0
100
AcDbPolyline
90
4
70
1
43
0.0
10
-63.085678118654741
20
-69.25830936382701
42
-1.2909944487358103
10
-63.085678118654741
20
-72.163046873482571
10
-64.960678118654741
20
-71.678923955206656
42
-0.77459666924148063
10
-64.960678118654741
20
-69.742432282102939
0
LWPOLYLINE
5
191
100
AcDbEntity
8
0
100
AcDbPolyline
90
4
70
1
43
0.0
10
-63.085678118654741
20
72.163046873482585
42
-1.2909944487358096
10
-63.085678118654741
20
69.25830936382701
10
-64.960678118654741
20
69.742432282102939
42
-0.77459666924148751
10
-64.960678118654741
20
71.678923955206642
0
LWPOLYLINE
5
192
100
AcDbEntity
8
0
100
AcDbPolyline
90
4
70
1
43
0.0
10
-78.335678118654727
20
69.25830936382701
42
-1.2909944487358016
10
-78.335678118654727
20
72.163046873482571
10
-76.460678118654741
20
71.678923955206642
42
-0.77459666924148751
10
-76.460678118654741
20
69.742432282102939
0
CIRCLE
5
193
100
AcDbEntity
8
0
100
AcDbCircle
10
-70.710678118654741
20
70.710678118654783
30
0
40
3.0000000000000009
210
-0
220
0
230
1
0
LWPOLYLINE
5
194
100
AcDbEntity
8
0
100
AcDbPolyline
90
4
70
1
43
0.0
10
-72.163046873482529
20
78.335678118654783
42
-1.2909944487358096
10
-69.258309363826967
20
78.335678118654783
10
-69.742432282102882
20
76.460678118654798
42
-0.77459666924148751
10
-71.678923955206585
20
76.460678118654798
0
LWPOLYLINE
5
195
100
AcDbEntity
8
0
100
AcDbPolyline
90
4
70
1
43
0.0
10
-6
20
-4
10
6.0000000000000018
20
-4
42
0.99999999999999989
10
6.0000000000000009
20
4
10
-6.0000000000000009
20
4
42
0.99999999999999989
0
LWPOLYLINE
5
196
100
AcDbEntity
8
0
100
AcDbPolyline
90
4
70
1
43
0.0
10
-10.00000014901161
20
-12.500000163912773
10
10.089827901566919
20
-12.500000163912773
42
0.99999999999999989
10
10.089827901566917
20
-9.5000001639127731
10
-10.000000149011612
20
-9.5000001639127731
42
0.99999999999999989
0
LWPOLYLINE
5
197
100
AcDbEntity
8
0
100
AcDbPolyline
90
4
70
1
43
0.0
10
10.089827901566917
20
12.500000163912773
10
-10.000000149011612
20
12.500000163912773
42
0.99999999999999989
10
-10.00000014901161
20
9.5000001639127731
10
10.089827901566919
20
9.5000001639127731
42
0.99999999999999989
0
CIRCLE
5
198
100
AcDbEntity
8
0
100
AcDbCircle
10
-24.384776310850242
20
2.7947232903417479e-15
30
0
40
1.5000000000000002
210
0
220
-0
230
1
0
CIRCLE
5
199
100
AcDbEntity
8
0
100
AcDbCircle
10
-8.7312993081956596e-15
20
-18.384776310850238
30
0
40
1.0000000000000009
210
-0
220
0
230
1
0
CIRCLE
5
200
100
AcDbEntity
8
0
100
AcDbCircle
10
8.7312993081956596e-15
20
18.384776310850238
30
0
40
1.0000000000000009
210
0
220
-0
230
1
0
CIRCLE
5
201
100
AcDbEntity
8
0
100
AcDbCircle
10
-18.384776310850238
20
4.649058915617843e-15
30
0
40
1.0000000000000009
210
0
220
0
230
1
0
CIRCLE
5
202
100
AcDbEntity
8
0
100
AcDbCircle
10
18.384776310850238
20
-6.9005446618301264e-15
30
0
40
1.0000000000000009
210
0
220
-0
230
1
0
CIRCLE
5
203
100
AcDbEntity
8
0
100
AcDbCircle
10
-3.6648909391443868e-16
20
-24.384776310850242
30
0
40
1.5000000000000002
210
0
220
-0
230
1
0
CIRCLE
5
204
100
AcDbEntity
8
0
100
AcDbCircle
10
24.384776310850242
20
-2.7947232903417479e-15
30
0
40
1.5000000000000002
210
0
220
0
230
1
0
CIRCLE
5
205
100
AcDbEntity
8
0
100
AcDbCircle
10
-2.6197847317862565e-15
20
24.384776310850242
30
0
40
1.5000000000000002
210
0
220
0
230
1
0
LWPOLYLINE
5
206
100
AcDbEntity
8
0
100
AcDbPolyline
90
4
70
1
43
0.0
10
63.085678118654741
20
69.25830936382701
42
-1.2909944487358103
10
63.085678118654741
20
72.163046873482571
10
64.960678118654741
20
71.678923955206656
42
-0.77459666924148063
10
64.960678118654741
20
69.742432282102939
0
LWPOLYLINE
5
207
100
AcDbEntity
8
0
100
AcDbPolyline
90
4
70
1
43
0.0
10
78.335678118654727
20
72.163046873482571
42
-1.2909944487358096
10
78.335678118654727
20
69.25830936382701
10
76.460678118654741
20
69.742432282102939
42
-0.77459666924148385
10
76.460678118654727
20
71.678923955206642
0
CIRCLE
5
208
100
AcDbEntity
8
0
100
AcDbCircle
10
70.710678118654741
20
70.710678118654783
30
0
40
3.0000000000000009
210
0
220
0
230
1
0
LWPOLYLINE
5
209
100
AcDbEntity
8
0
100
AcDbPolyline
90
4
70
1
43
0.0
10
69.258309363826953
20
78.335678118654783
42
-1.2909944487358103
10
72.163046873482529
20
78.335678118654783
10
71.678923955206599
20
76.460678118654783
42
-0.77459666924148063
10
69.742432282102882
20
76.460678118654783
0
ENDSEC
0
SECTION
2
OBJECTS
0
DICTIONARY
5
C
100
AcDbDictionary
3
ACAD_GROUP
350
D
3
ACAD_MLINESTYLE
350
17
0
DICTIONARY
5
D
100
AcDbDictionary
0
DICTIONARY
5
1A
330
C
100
AcDbDictionary
0
DICTIONARY
5
17
100
AcDbDictionary
0
ENDSEC
0
EOF
