0
SECTION
2
HEADER
9
$INSUNITS
70
4
9
$ACADVER
1
AC1014
9
$HANDSEED
5
FFFF
0
ENDSEC
0
SECTION
2
TABLES
0
TABLE
2
VPORT
5
8
100
AcDbSymbolTable
0
ENDTAB
0
TABLE
2
LTYPE
5
5
100
AcDbSymbolTable
0
LTYPE
5
14
100
AcDbSymbolTableRecord
100
AcDbLinetypeTableRecord
2
BYBLOCK
70
0
0
LTYPE
5
15
100
AcDbSymbolTableRecord
100
AcDbLinetypeTableRecord
2
BYLAYER
70
0
0
ENDTAB
0
TABLE
2
LAYER
5
2
100
AcDbSymbolTable
70
2
0
LAYER
5
50
100
AcDbSymbolTableRecord
100
AcDbLayerTableRecord
2
0
70
0
6
CONTINUOUS
0
ENDTAB
0
TABLE
2
STYLE
5
3
100
AcDbSymbolTable
70
1
0
STYLE
5
11
100
AcDbSymbolTableRecord
100
AcDbTextStyleTableRecord
2
STANDARD
70
0
0
ENDTAB
0
TABLE
2
VIEW
5
6
100
AcDbSymbolTable
70
0
0
ENDTAB
0
TABLE
2
UCS
5
7
100
AcDbSymbolTable
70
0
0
ENDTAB
0
TABLE
2
APPID
5
9
100
AcDbSymbolTable
70
2
0
APPID
5
12
100
AcDbSymbolTableRecord
100
AcDbRegAppTableRecord
2
ACAD
70
0
0
ENDTAB
0
TABLE
2
DIMSTYLE
5
A
100
AcDbSymbolTable
70
1
0
ENDTAB
0
TABLE
2
BLOCK_RECORD
5
1
100
AcDbSymbolTable
70
1
0
BLOCK_RECORD
5
1F
100
AcDbSymbolTableRecord
100
AcDbBlockTableRecord
2
*MODEL_SPACE
0
BLOCK_RECORD
5
1B
100
AcDbSymbolTableRecord
100
AcDbBlockTableRecord
2
*PAPER_SPACE
0
ENDTAB
0
ENDSEC
0
SECTION
2
BLOCKS
0
BLOCK
5
20
100
AcDbEntity
100
AcDbBlockBegin
2
*MODEL_SPACE
0
ENDBLK
5
21
100
AcDbEntity
100
AcDbBlockEnd
0
BLOCK
5
1C
100
AcDbEntity
100
AcDbBlockBegin
2
*PAPER_SPACE
0
ENDBLK
5
1D
100
AcDbEntity
100
AcDbBlockEnd
0
ENDSEC
0
SECTION
2
ENTITIES
0
LWPOLYLINE
5
100
100
AcDbEntity
8
0
100
AcDbPolyline
90
4
70
1
43
0.0
10
78.710678117628504
20
-69.210678116863065
42
-0.99999999999999989
10
78.710678117628504
20
-72.210678116863079
10
76.710678117628504
20
-72.210678116863079
42
-0.99999999999999989
10
76.710678117628504
20
-69.210678116863065
0
LWPOLYLINE
5
101
100
AcDbEntity
8
0
100
AcDbPolyline
90
4
70
1
43
0.0
10
62.710678117628504
20
-72.210678116863079
42
-0.99999999999999989
10
62.710678117628504
20
-69.210678116863065
10
64.710678117628504
20
-69.210678116863065
42
-0.99999999999999989
10
64.710678117628504
20
-72.210678116863079
0
CIRCLE
5
102
100
AcDbEntity
8
0
100
AcDbCircle
10
70.710678117628504
20
-70.710678116863065
30
0
40
3.0000000000000009
210
0
220
-0
230
1
0
LWPOLYLINE
5
103
100
AcDbEntity
8
0
100
AcDbPolyline
90
4
70
1
43
0.0
10
72.210678117628504
20
-78.710678116863065
42
-0.99999999999999989
10
69.210678117628504
20
-78.710678116863065
10
69.210678117628504
20
-76.710678116863065
42
-0.99999999999999989
10
72.210678117628504
20
-76.710678116863065
0
LINE
5
104
100
AcDbEntity
8
0
100
AcDbLine
10
62.547512409933582
20
-57.597764952791159
30
0
11
22.916902630059319
21
-17.967155160988018
31
0
0
ARC
5
105
100
AcDbEntity
8
0
100
AcDbCircle
10
29.987970441924787
20
-10.89608734912254
30
0
40
10.000000000000004
210
0
220
0
230
1
100
AcDbArc
50
142.12938866662796
51
225.00000000000003
0
ARC
5
106
100
AcDbEntity
8
0
100
AcDbCircle
10
26.040975113379908
20
-7.8266854731139777
30
0
40
4.9999999999999991
210
0
220
0
230
1
100
AcDbArc
50
101.94805761194348
51
142.12938866662799
0
ARC
5
107
100
AcDbEntity
8
0
100
AcDbCircle
10
24.384776309824016
20
1.7917332855242526e-09
30
0
40
3.0000000000000018
210
-0
220
0
230
1
100
AcDbArc
50
-78.051942388056503
51
78.051941581808308
0
ARC
5
108
100
AcDbEntity
8
0
100
AcDbCircle
10
26.040975223514561
20
7.8266854533919368
30
0
40
4.9999999999999982
210
0
220
0
230
1
100
AcDbArc
50
217.87061242304173
51
258.05194158180831
0
ARC
5
109
100
AcDbEntity
8
0
100
AcDbCircle
10
29.987970493684564
20
10.896087404465737
30
0
40
10
210
0
220
0
230
1
100
AcDbArc
50
134.99999999999997
51
217.87061242304173
0
LINE
5
110
100
AcDbEntity
8
0
100
AcDbLine
10
22.916902681819092
20
17.967155216331214
30
0
11
62.547512409933603
21
57.597764956374604
31
0
0
ARC
5
111
100
AcDbEntity
8
0
100
AcDbCircle
10
68.204366670665223
20
51.940910718121252
30
0
40
8.0000000000001421
210
0
220
0
230
1
100
AcDbArc
50
113.14610502929376
51
135.00000011383625
0
LINE
5
112
100
AcDbEntity
8
0
100
AcDbLine
10
65.059749425379664
20
59.296954653597368
30
0
11
85.622532148783819
21
68.087288388722143
31
0
0
ARC
5
113
100
AcDbEntity
8
0
100
AcDbCircle
10
84.83637783746245
20
69.92629937259116
30
0
40
2.0000000000000107
210
-0
220
0
230
1
100
AcDbArc
50
-66.853894970706662
51
45
0
LINE
5
114
100
AcDbEntity
8
0
100
AcDbLine
10
86.250591399835542
20
71.340512934964252
30
0
11
79.420295226461974
21
78.170809108337835
31
0
0
ARC
5
115
100
AcDbEntity
8
0
100
AcDbCircle
10
82.955829132394442
20
81.706343014270416
30
0
40
4.9999999999996945
210
0
220
0
230
1
100
AcDbArc
50
204.95809978647915
51
225.00000000000091
0
LINE
5
116
100
AcDbEntity
8
0
100
AcDbLine
10
78.422746112405562
20
79.596566169700026
30
0
11
73.938124887997304
21
89.232258387938415
31
0
0
ARC
5
117
100
AcDbEntity
8
0
100
AcDbCircle
10
72.124891680001639
20
88.388347650110177
30
0
40
2.0000000000000022
210
0
220
-0
230
1
100
AcDbArc
50
24.958099786479924
51
153.78776381727738
0
LINE
5
118
100
AcDbEntity
8
0
100
AcDbLine
10
70.330563559034346
20
89.271742575557454
30
0
11
65.074658004212893
21
78.596087931752734
31
0
0
ARC
5
119
100
AcDbEntity
8
0
100
AcDbCircle
10
60.588837701794702
20
80.804575245370785
30
0
40
4.9999999999999094
210
0
220
0
230
1
100
AcDbArc
50
296.64149270076706
51
333.78776381727863
0
LINE
5
120
100
AcDbEntity
8
0
100
AcDbLine
10
62.830870215695256
20
76.335426533746627
30
0
11
57.810695630041636
21
73.816961525585725
31
0
0
ARC
5
121
100
AcDbEntity
8
0
100
AcDbCircle
10
60.052728143942254
20
69.347812813961497
30
0
40
5.0000000000000009
210
0
220
0
230
1
100
AcDbArc
50
116.64149270076736
51
197.4950330155942
0
ARC
5
122
100
AcDbEntity
8
0
100
AcDbCircle
10
45.746582912642779
20
64.838466007497445
30
0
40
10.000000000000011
210
0
220
0
230
1
100
AcDbArc
50
-44.99999999999995
51
17.495033015594267
0
LINE
5
123
100
AcDbEntity
8
0
100
AcDbLine
10
52.817650724508269
20
57.767398195631969
30
0
11
14.858262577484505
21
19.808010048608256
31
0
0
ARC
5
124
100
AcDbEntity
8
0
100
AcDbCircle
10
9.9085151091786727
20
24.757757516914086
30
0
40
7.0000000000000009
210
0
220
0
230
1
100
AcDbArc
50
187.01854971968646
51
315
0
ARC
5
125
100
AcDbEntity
8
0
100
AcDbCircle
10
-1.0262199405387855e-09
20
24.384776312641982
30
0
40
3.0000000000000009
210
-0
220
0
230
1
100
AcDbArc
50
-9.2524350650985436
51
177.39702695952255
0
ARC
5
126
100
AcDbEntity
8
0
100
AcDbCircle
10
-9.9896821469272439
20
24.838924552610262
30
0
40
6.9999999999999973
210
0
220
0
230
1
100
AcDbArc
50
225.00000000000003
51
357.39702695952269
0
LINE
5
127
100
AcDbEntity
8
0
100
AcDbLine
10
-14.939429615233074
20
19.889177084304428
30
0
11
-52.81765072656065
21
57.767398195632033
31
0
0
ARC
5
128
100
AcDbEntity
8
0
100
AcDbCircle
10
-45.746582914695175
20
64.838466007497502
30
0
40
10.000000000000007
210
0
220
0
230
1
100
AcDbArc
50
162.50496698440591
51
224.99999999999997
0
ARC
5
129
100
AcDbEntity
8
0
100
AcDbCircle
10
-60.052728145994678
20
69.347812813961525
30
0
40
5.0000000000000169
210
0
220
0
230
1
100
AcDbArc
50
-17.495033015594139
51
63.358507299232443
0
LINE
5
130
100
AcDbEntity
8
0
100
AcDbLine
10
-57.810695632094038
20
73.816961525585754
30
0
11
-62.830870217747659
21
76.335426533746642
31
0
0
ARC
5
131
100
AcDbEntity
8
0
100
AcDbCircle
10
-60.588837703847041
20
80.804575245370884
30
0
40
5.0000000000000036
210
0
220
0
230
1
100
AcDbArc
50
206.21223618272157
51
243.35850729923274
0
LINE
5
132
100
AcDbEntity
8
0
100
AcDbLine
10
-65.074658006265309
20
78.596087931752777
30
0
11
-70.330563561086748
21
89.271742575557482
31
0
0
ARC
5
133
100
AcDbEntity
8
0
100
AcDbCircle
10
-72.124891682054056
20
88.388347650110234
30
0
40
2.0000000000000013
210
0
220
-0
230
1
100
AcDbArc
50
26.212236182721711
51
155.04190021352025
0
LINE
5
134
100
AcDbEntity
8
0
100
AcDbLine
10
-73.938124890049707
20
89.232258387938458
30
0
11
-78.422746114457965
21
79.596566169700054
31
0
0
ARC
5
135
100
AcDbEntity
8
0
100
AcDbCircle
10
-82.955829134447114
20
81.706343014270601
30
0
40
4.9999999999999964
210
-0
220
0
230
1
100
AcDbArc
50
315.00000000000011
51
335.04190021352053
0
LINE
5
136
100
AcDbEntity
8
0
100
AcDbLine
10
-79.420295228514377
20
78.170809108337878
30
0
11
-86.250591401887945
21
71.340512934964281
31
0
0
ARC
5
137
100
AcDbEntity
8
0
100
AcDbCircle
10
-84.836377839514824
20
69.926299372591203
30
0
40
2.0000000000000022
210
0
220
0
230
1
100
AcDbArc
50
135.00000000000085
51
246.85389497070616
0
LINE
5
138
100
AcDbEntity
8
0
100
AcDbLine
10
-85.622532150836207
20
68.0872883887222
30
0
11
-65.059749427432081
21
59.29695465359741
31
0
0
ARC
5
139
100
AcDbEntity
8
0
100
AcDbCircle
10
-68.204366672717569
20
51.940910718121415
30
0
40
8.0000000000000036
210
0
220
-0
230
1
100
AcDbArc
50
44.99999988616355
51
66.853894970706364
0
LINE
5
140
100
AcDbEntity
8
0
100
AcDbLine
10
-62.547512411986034
20
57.59776495637464
30
0
11
-23.144773102283533
21
18.195025634743267
31
0
0
ARC
5
141
100
AcDbEntity
8
0
100
AcDbCircle
10
-30.215840914149016
20
11.123957822877792
30
0
40
10.000000000000002
210
-0
220
0
230
1
100
AcDbArc
50
-43.32338162870402
51
44.999999999999964
0
ARC
5
142
100
AcDbEntity
8
0
100
AcDbCircle
10
-26.578376794554224
20
7.6933813729702187
30
0
40
5
210
-0
220
0
230
1
100
AcDbArc
50
285.91434866305298
51
316.676618371296
0
ARC
5
143
100
AcDbEntity
8
0
100
AcDbCircle
10
-24.384776311876465
20
1.7917497039866923e-09
30
0
40
2.9999999999999991
210
0
220
0
230
1
100
AcDbArc
50
105.91434866305292
51
258.05194158178006
0
ARC
5
144
100
AcDbEntity
8
0
100
AcDbCircle
10
-26.040975225570868
20
-7.8266854498076368
30
0
40
5
210
0
220
-0
230
1
100
AcDbArc
50
37.870612423079898
51
78.051941581780142
0
ARC
5
145
100
AcDbEntity
8
0
100
AcDbCircle
10
-29.987970495738825
20
-10.896087400884063
30
0
40
10
210
-0
220
0
230
1
100
AcDbArc
50
-45.00000000000005
51
37.870612423079898
0
LINE
5
146
100
AcDbEntity
8
0
100
AcDbLine
10
-22.916902683873353
20
-17.967155212749542
30
0
11
-62.547512411986048
21
-57.597764952791124
31
0
0
ARC
5
147
100
AcDbEntity
8
0
100
AcDbCircle
10
-68.204366672717654
20
-51.940910714537772
30
0
40
8.0000000000001421
210
0
220
0
230
1
100
AcDbArc
50
293.14610502929366
51
315.00000011383617
0
LINE
5
148
100
AcDbEntity
8
0
100
AcDbLine
10
-65.059749427432109
20
-59.296954650013888
30
0
11
-85.622532150836264
21
-68.087288385138663
31
0
0
ARC
5
149
100
AcDbEntity
8
0
100
AcDbCircle
10
-84.836377839514881
20
-69.92629936900768
30
0
40
2.0000000000000107
210
0
220
0
230
1
100
AcDbArc
50
113.14610502929371
51
225
0
LINE
5
150
100
AcDbEntity
8
0
100
AcDbLine
10
-86.250591401887974
20
-71.340512931380772
30
0
11
-79.420295228514405
21
-78.170809104754369
31
0
0
ARC
5
151
100
AcDbEntity
8
0
100
AcDbCircle
10
-82.955829134446887
20
-81.706343010686936
30
0
40
4.9999999999996945
210
0
220
-0
230
1
100
AcDbArc
50
24.95809978647911
51
45.000000000000696
0
LINE
5
152
100
AcDbEntity
8
0
100
AcDbLine
10
-78.422746114457993
20
-79.596566166116546
30
0
11
-73.938124890049735
21
-89.232258384354935
31
0
0
ARC
5
153
100
AcDbEntity
8
0
100
AcDbCircle
10
-72.124891682054084
20
-88.388347646526711
30
0
40
2.0000000000000022
210
0
220
0
230
1
100
AcDbArc
50
204.95809978647972
51
333.78776381727829
0
LINE
5
154
100
AcDbEntity
8
0
100
AcDbLine
10
-70.330563561086777
20
-89.271742571973959
30
0
11
-65.074658006265338
21
-78.596087928169254
31
0
0
ARC
5
155
100
AcDbEntity
8
0
100
AcDbCircle
10
-60.58883770384714
20
-80.80457524178729
30
0
40
4.9999999999999094
210
0
220
0
230
1
100
AcDbArc
50
116.64149270076713
51
153.78776381727883
0
LINE
5
156
100
AcDbEntity
8
0
100
AcDbLine
10
-62.830870217747695
20
-76.335426530163147
30
0
11
-57.810695632094074
21
-73.816961522002231
31
0
0
ARC
5
157
100
AcDbEntity
8
0
100
AcDbCircle
10
-60.052728145994692
20
-69.347812810378016
30
0
40
5.0000000000000009
210
-0
220
0
230
1
100
AcDbArc
50
-63.358507299232599
51
17.495033015594352
0
ARC
5
158
100
AcDbEntity
8
0
100
AcDbCircle
10
-45.746582914695217
20
-64.838466003913965
30
0
40
10.000000000000011
210
0
220
0
230
1
100
AcDbArc
50
135.00000000000009
51
197.4950330155942
0
LINE
5
159
100
AcDbEntity
8
0
100
AcDbLine
10
-52.817650726560707
20
-57.767398192048489
30
0
11
-15.390069015783903
21
-20.339816481271736
31
0
0
ARC
5
160
100
AcDbEntity
8
0
100
AcDbCircle
10
-9.0261079851049928
20
-26.703777511950658
30
0
40
9.0000000000000018
210
0
220
-0
230
1
100
AcDbArc
50
66.246644668430335
51
134.99999999999994
0
LINE
5
161
100
AcDbEntity
8
0
100
AcDbLine
10
-5.4009053637864639
20
-18.466186483355873
30
0
11
-4.0185248289127173
21
-19.074545106803932
31
0
0
SPLINE
5
162
100
AcDbEntity
8
0
100
AcDbSpline
70
0
71
3
72
12
73
8
74
0
42
0.000000001
43
0.0000000001
44
0.0000000001
40
0
40
0
40
0
40
0
40
0.078128894677385902
40
0.078128894677385902
40
0.15625778935477125
40
0.15625778935477125
40
0.23467061042497628
40
0.23467061042497628
40
0.23467061042497628
40
0.23467061042497628
10
-2.8243060232251427
20
-20.93199866182912
30
0
10
-2.8208061390063714
20
-20.67159253123797
30
0
10
-2.8682028234640731
20
-20.412992419973797
30
0
10
-3.059453695240923
20
-19.928515885763318
30
0
10
-3.2014794199861081
20
-19.707271322544177
30
0
10
-3.562998745882076
20
-19.330993518853361
30
0
10
-3.7792904765517061
20
-19.179827464021965
30
0
10
-4.0185248289127165
20
-19.074545106803932
30
0
0
SPLINE
5
163
100
AcDbEntity
8
0
100
AcDbSpline
70
4
71
5
72
12
73
6
74
0
42
0.000000001
43
0.0000000001
44
0.0000000001
40
-0.076621891951513962
40
-0.076621891951513962
40
-0.076621891951513962
40
-0.076621891951513962
40
-0.076621891951513962
40
-0.076621891951513962
40
-0.010365377695953599
40
-0.010365377695953599
40
-0.010365377695953599
40
-0.010365377695953599
40
-0.010365377695953599
40
-0.010365377695953599
41
1
41
1
41
1
41
1
41
1
41
1
10
-2.8243060232238379
20
-20.931998661732067
30
0
10
-2.8320270011231354
20
-21.5064719453609
30
0
10
-2.8496156380826747
20
-22.090812888087449
30
0
10
-2.8769935824903632
20
-22.684943138299289
30
0
10
-2.9141148569312914
20
-23.288816718581344
30
0
10
-2.9609686034022586
20
-23.902422770930364
30
0
0
SPLINE
5
164
100
AcDbEntity
8
0
100
AcDbSpline
70
4
71
5
72
12
73
6
74
0
42
0.000000001
43
0.0000000001
44
0.0000000001
40
-0.010365377695897548
40
-0.010365377695897548
40
-0.010365377695897548
40
-0.010365377695897548
40
-0.010365377695897548
40
-0.010365377695897548
40
0
40
0
40
0
40
0
40
0
40
0
41
1
41
1
41
1
41
1
41
1
41
1
10
-2.9609686034024572
20
-23.902422770932965
30
0
10
-2.9682985510173667
20
-23.998417233674459
30
0
10
-2.9758666956170137
20
-24.094649893401595
30
0
10
-2.9836729956276109
20
-24.191120708540584
30
0
10
-2.9917174305118648
20
-24.287829658554134
30
0
10
-3.0000000010262333
20
-24.384776744198703
30
0
0
ARC
5
165
100
AcDbEntity
8
0
100
AcDbCircle
10
-1.0262285162590065e-09
20
-24.384776309058502
30
0
40
3.0000000000000373
210
0
220
0
230
1
100
AcDbArc
50
180.00000827764262
51
359.99999390283659
0
SPLINE
5
166
100
AcDbEntity
8
0
100
AcDbSpline
70
4
71
5
72
12
73
6
74
0
42
0.000000001
43
0.0000000001
44
0.0000000001
40
-1
40
-1
40
-1
40
-1
40
-1
40
-1
40
-0.98963462686276382
40
-0.98963462686276382
40
-0.98963462686276382
40
-0.98963462686276382
40
-0.98963462686276382
40
-0.98963462686276382
41
1
41
1
41
1
41
1
41
1
41
1
10
2.999999998973768
20
-24.384776629904845
30
0
10
2.9917174320858049
20
-24.287829587285032
30
0
10
2.9836730006199614
20
-24.191120680086421
30
0
10
2.9758667038197819
20
-24.094649907552551
30
0
10
2.9682985622225218
20
-23.998417290220679
30
0
10
2.9609686174018974
20
-23.90242286966452
30
0
0
SPLINE
5
167
100
AcDbEntity
8
0
100
AcDbSpline
70
4
71
5
72
12
73
6
74
0
42
0.000000001
43
0.0000000001
44
0.0000000001
40
-0.98963462685481485
40
-0.98963462685481485
40
-0.98963462685481485
40
-0.98963462685481485
40
-0.98963462685481485
40
-0.98963462685481485
40
-0.92337811044707674
40
-0.92337811044707674
40
-0.92337811044707674
40
-0.92337811044707674
40
-0.92337811044707674
40
-0.92337811044707674
41
1
41
1
41
1
41
1
41
1
41
1
10
2.9609686173737919
20
-23.902422869296444
30
0
10
2.9141148666407437
20
-23.288816796811336
30
0
10
2.8769935886277742
20
-22.684943197008629
30
0
10
2.8496156413343883
20
-22.090812927887779
30
0
10
2.8320270021767397
20
-21.506471966864773
30
0
10
2.8243060227726136
20
-20.931998665557089
30
0
0
SPLINE
5
168
100
AcDbEntity
8
0
100
AcDbSpline
70
0
71
3
72
12
73
8
74
0
42
0.000000001
43
0.0000000001
44
0.0000000001
40
0
40
0
40
0
40
0
40
0.078128894677385569
40
0.078128894677385569
40
0.15625778935477094
40
0.15625778935477094
40
0.2346706108697991
40
0.2346706108697991
40
0.2346706108697991
40
0.2346706108697991
10
4.0185248284009703
20
-19.074545106125893
30
0
10
3.7801567240052454
20
-19.179446244564847
30
0
10
3.5645570735997856
20
-19.329903062251741
30
0
10
3.2031655964298005
20
-19.704990529897483
30
0
10
3.060828869160594
20
-19.926035139227174
30
0
10
2.8685481040179694
20
-20.411122056645318
30
0
10
2.8207934191105428
20
-20.670646197649091
30
0
10
2.8243060227726136
20
-20.931998665557082
30
0
0
LINE
5
169
100
AcDbEntity
8
0
100
AcDbLine
10
4.0185248284009703
20
-19.074545106125893
30
0
11
5.4009053617339786
21
-18.466186483355884
31
0
0
ARC
5
170
100
AcDbEntity
8
0
100
AcDbCircle
10
9.0261079830524977
20
-26.703777511950676
30
0
40
9.0000000000000036
210
0
220
-0
230
1
100
AcDbArc
50
44.999999999999986
51
113.75335533156959
0
LINE
5
171
100
AcDbEntity
8
0
100
AcDbLine
10
15.390069013731429
20
-20.339816481271747
30
0
11
52.817650724508205
21
-57.76739819204856
31
0
0
ARC
5
172
100
AcDbEntity
8
0
100
AcDbCircle
10
45.746582912642737
20
-64.838466003914036
30
0
40
9.9999999999999893
210
-0
220
0
230
1
100
AcDbArc
50
-17.495033015594139
51
45.000000000000028
0
ARC
5
173
100
AcDbEntity
8
0
100
AcDbCircle
10
60.05272814394224
20
-69.347812810378031
30
0
40
5.0000000000000311
210
0
220
0
230
1
100
AcDbArc
50
162.50496698440625
51
243.35850729923254
0
LINE
5
174
100
AcDbEntity
8
0
100
AcDbLine
10
57.8106956300416
20
-73.816961522002273
30
0
11
62.830870215695221
21
-76.335426530163161
31
0
0
ARC
5
175
100
AcDbEntity
8
0
100
AcDbCircle
10
60.588837701794603
20
-80.804575241787404
30
0
40
5.0000000000000036
210
0
220
-0
230
1
100
AcDbArc
50
26.21223618272154
51
63.358507299232734
0
LINE
5
176
100
AcDbEntity
8
0
100
AcDbLine
10
65.074658004212878
20
-78.596087928169297
30
0
11
70.330563559034303
21
-89.271742571974002
31
0
0
ARC
5
177
100
AcDbEntity
8
0
100
AcDbCircle
10
72.12489168000161
20
-88.388347646526753
30
0
40
2.0000000000000013
210
0
220
0
230
1
100
AcDbArc
50
206.21223618272171
51
335.04190021352042
0
LINE
5
178
100
AcDbEntity
8
0
100
AcDbLine
10
73.938124887997276
20
-89.232258384354978
30
0
11
78.422746112405534
21
-79.596566166116574
31
0
0
ARC
5
179
100
AcDbEntity
8
0
100
AcDbCircle
10
82.955829132394683
20
-81.706343010687135
30
0
40
4.9999999999999964
210
0
220
0
230
1
100
AcDbArc
50
135.00000000000011
51
155.04190021352036
0
LINE
5
180
100
AcDbEntity
8
0
100
AcDbLine
10
79.420295226461931
20
-78.170809104754397
30
0
11
86.2505913998355
21
-71.3405129313808
31
0
0
ARC
5
181
100
AcDbEntity
8
0
100
AcDbCircle
10
84.836377837462393
20
-69.926299369007722
30
0
40
2.0000000000000022
210
-0
220
0
230
1
100
AcDbArc
50
-44.999999999999439
51
66.853894970706506
0
LINE
5
182
100
AcDbEntity
8
0
100
AcDbLine
10
85.622532148783762
20
-68.08728838513872
30
0
11
65.059749425379636
21
-59.29695465001393
31
0
0
ARC
5
183
100
AcDbEntity
8
0
100
AcDbCircle
10
68.204366670665138
20
-51.940910714537935
30
0
40
8.0000000000000089
210
0
220
0
230
1
100
AcDbArc
50
224.99999988616344
51
246.85389497070622
0
LWPOLYLINE
5
184
100
AcDbEntity
8
0
100
AcDbPolyline
90
4
70
1
43
0.0
10
-69.210678119680978
20
-78.710678116863036
42
-0.99999999999999989
10
-72.210678119680978
20
-78.710678116863036
10
-72.210678119680978
20
-76.710678116863022
42
-0.99999999999999989
10
-69.210678119680978
20
-76.710678116863022
0
CIRCLE
5
185
100
AcDbEntity
8
0
100
AcDbCircle
10
-70.710678119680978
20
-70.710678116863036
30
0
40
3.0000000000000009
210
-0
220
0
230
1
0
LWPOLYLINE
5
186
100
AcDbEntity
8
0
100
AcDbPolyline
90
4
70
1
43
0.0
10
-62.710678119680978
20
-69.210678116863022
42
-0.99999999999999989
10
-62.710678119680978
20
-72.210678116863036
10
-64.710678119680978
20
-72.210678116863036
42
-0.99999999999999989
10
-64.710678119680978
20
-69.210678116863022
0
LWPOLYLINE
5
187
100
AcDbEntity
8
0
100
AcDbPolyline
90
4
70
1
43
0.0
10
-78.710678119680978
20
-72.210678116863036
42
-0.99999999999999989
10
-78.710678119680978
20
-69.210678116863022
10
-76.710678119680978
20
-69.210678116863022
42
-0.99999999999999989
10
-76.710678119680978
20
-72.210678116863036
0
LWPOLYLINE
5
188
100
AcDbEntity
8
0
100
AcDbPolyline
90
4
70
1
43
0.0
10
-78.710678119680935
20
69.210678120446545
42
-0.99999999999999989
10
-78.710678119680935
20
72.210678120446545
10
-76.710678119680935
20
72.210678120446545
42
-0.99999999999999989
10
-76.710678119680935
20
69.210678120446545
0
LWPOLYLINE
5
189
100
AcDbEntity
8
0
100
AcDbPolyline
90
4
70
1
43
0.0
10
-62.710678119680942
20
72.210678120446545
42
-0.99999999999999989
10
-62.710678119680942
20
69.210678120446545
10
-64.710678119680949
20
69.210678120446545
42
-0.99999999999999989
10
-64.710678119680949
20
72.210678120446545
0
CIRCLE
5
190
100
AcDbEntity
8
0
100
AcDbCircle
10
-70.710678119680935
20
70.710678120446545
30
0
40
3.0000000000000009
210
-0
220
0
230
1
0
LWPOLYLINE
5
191
100
AcDbEntity
8
0
100
AcDbPolyline
90
4
70
1
43
0.0
10
-72.210678119680949
20
78.710678120446545
42
-0.99999999999999989
10
-69.210678119680935
20
78.710678120446545
10
-69.210678119680935
20
76.710678120446545
42
-0.99999999999999989
10
-72.210678119680949
20
76.710678120446545
0
LWPOLYLINE
5
192
100
AcDbEntity
8
0
100
AcDbPolyline
90
8
70
1
43
0.0
10
5.9999999989737756
20
-8.9999999982082581
10
5.9999999989737791
20
9.0000000017917401
42
0.41421356237309481
10
4.99999999897378
20
10.00000000179174
10
-5.00000000102622
20
10.000000001791742
42
0.41421356237309537
10
-6.00000000102622
20
9.0000000017917401
10
-6.0000000010262244
20
-8.9999999982082581
42
0.4142135623730947
10
-5.0000000010262262
20
-9.9999999982082564
10
4.9999999989737747
20
-9.9999999982082581
42
0.41421356237309537
0
LWPOLYLINE
5
193
100
AcDbEntity
8
0
100
AcDbPolyline
90
4
70
1
43
0.0
10
-16.500000224543637
20
8.5000001508033574
10
-16.500000224543644
20
-8.5000001472198683
42
0.99999999999999989
10
-13.500000224543644
20
-8.5000001472198683
10
-13.500000224543641
20
8.5000001508033574
42
0.99999999999999989
0
LWPOLYLINE
5
194
100
AcDbEntity
8
0
100
AcDbPolyline
90
4
70
1
43
0.0
10
13.500000222491197
20
8.5000001508033503
10
13.500000222491193
20
-8.5000001472198754
42
0.99999999999999989
10
16.500000222491192
20
-8.5000001472198754
10
16.500000222491195
20
8.5000001508033503
42
0.99999999999999989
0
CIRCLE
5
195
100
AcDbEntity
8
0
100
AcDbCircle
10
-10.000000150037833
20
10.000000150803356
30
0
40
1.0000000000000009
210
0
220
-0
230
1
0
CIRCLE
5
196
100
AcDbEntity
8
0
100
AcDbCircle
10
7.9999999989737738
20
-7.9999999982082626
30
0
40
0.99999999999999978
210
0
220
-0
230
1
0
CIRCLE
5
197
100
AcDbEntity
8
0
100
AcDbCircle
10
7.9999999989737827
20
8.0000000017917365
30
0
40
0.99999999999999978
210
0
220
-0
230
1
0
CIRCLE
5
198
100
AcDbEntity
8
0
100
AcDbCircle
10
10.000000147985384
20
-10.000000147219874
30
0
40
1.0000000000000009
210
0
220
-0
230
1
0
CIRCLE
5
199
100
AcDbEntity
8
0
100
AcDbCircle
10
-10.00000015003784
20
-10.000000147219865
30
0
40
1.0000000000000009
210
0
220
-0
230
1
0
CIRCLE
5
200
100
AcDbEntity
8
0
100
AcDbCircle
10
-8.000000001026228
20
-7.9999999982082537
30
0
40
0.99999999999999978
210
0
220
-0
230
1
0
CIRCLE
5
201
100
AcDbEntity
8
0
100
AcDbCircle
10
-8.0000000010262191
20
8.0000000017917436
30
0
40
0.99999999999999978
210
0
220
-0
230
1
0
CIRCLE
5
202
100
AcDbEntity
8
0
100
AcDbCircle
10
10.000000147985393
20
10.00000015080335
30
0
40
1.0000000000000009
210
0
220
-0
230
1
0
CIRCLE
5
203
100
AcDbEntity
8
0
100
AcDbCircle
10
-1.0262199405387855e-09
20
24.384776312641982
30
0
40
1.5000000000000002
210
0
220
-0
230
1
0
CIRCLE
5
204
100
AcDbEntity
8
0
100
AcDbCircle
10
-24.384776311876465
20
1.7917497039866923e-09
30
0
40
1.5000000000000002
210
-0
220
0
230
1
0
CIRCLE
5
205
100
AcDbEntity
8
0
100
AcDbCircle
10
-1.0262099217223521e-09
20
18.384776312641982
30
0
40
1.0000000000000009
210
0
220
-0
230
1
0
CIRCLE
5
206
100
AcDbEntity
8
0
100
AcDbCircle
10
-18.384776311876465
20
1.7917502260547109e-09
30
0
40
1.0000000000000009
210
0
220
-0
230
1
0
CIRCLE
5
207
100
AcDbEntity
8
0
100
AcDbCircle
10
24.384776309824016
20
1.7917332855242526e-09
30
0
40
1.5000000000000002
210
0
220
-0
230
1
0
CIRCLE
5
208
100
AcDbEntity
8
0
100
AcDbCircle
10
-1.026235548801614e-09
20
-18.384776309058498
30
0
40
1.0000000000000009
210
-0
220
0
230
1
0
LWPOLYLINE
5
209
100
AcDbEntity
8
0
100
AcDbPolyline
90
8
70
1
43
0.0
10
3.9999999989737747
20
-12.134776309058498
10
-4.0000000010262262
20
-12.134776309058497
42
0.41421356237309509
10
-5.0000000010262262
20
-13.134776309058498
10
-5.0000000010262271
20
-15.134776309058498
42
0.41421356237309509
10
-4.0000000010262262
20
-16.134776309058495
10
3.9999999989737738
20
-16.134776309058498
42
0.41421356237309509
10
4.9999999989737738
20
-15.134776309058498
10
4.9999999989737747
20
-13.134776309058498
42
0.41421356237309509
0
CIRCLE
5
210
100
AcDbEntity
8
0
100
AcDbCircle
10
18.384776309824016
20
1.7917305119704879e-09
30
0
40
1.0000000000000009
210
0
220
-0
230
1
0
CIRCLE
5
211
100
AcDbEntity
8
0
100
AcDbCircle
10
-1.0262285162590065e-09
20
-24.384776309058502
30
0
40
1.5000000000000002
210
0
220
-0
230
1
0
LWPOLYLINE
5
212
100
AcDbEntity
8
0
100
AcDbPolyline
90
4
70
1
43
0.0
10
78.710678117628532
20
72.210678120446516
42
-0.99999999999999989
10
78.710678117628532
20
69.210678120446516
10
76.710678117628532
20
69.210678120446516
42
-0.99999999999999989
10
76.710678117628532
20
72.210678120446516
0
LWPOLYLINE
5
213
100
AcDbEntity
8
0
100
AcDbPolyline
90
4
70
1
43
0.0
10
62.710678117628539
20
69.210678120446516
42
-0.99999999999999989
10
62.710678117628539
20
72.210678120446516
10
64.710678117628532
20
72.210678120446516
42
-0.99999999999999989
10
64.710678117628532
20
69.210678120446516
0
CIRCLE
5
214
100
AcDbEntity
8
0
100
AcDbCircle
10
70.710678117628532
20
70.710678120446516
30
0
40
3.0000000000000009
210
0
220
0
230
1
0
LWPOLYLINE
5
215
100
AcDbEntity
8
0
100
AcDbPolyline
90
4
70
1
43
0.0
10
69.210678117628532
20
78.710678120446516
42
-0.99999999999999989
10
72.210678117628532
20
78.710678120446516
10
72.210678117628532
20
76.710678120446516
42
-0.99999999999999989
10
69.210678117628532
20
76.710678120446516
0
ENDSEC
0
SECTION
2
OBJECTS
0
DICTIONARY
5
C
100
AcDbDictionary
3
ACAD_GROUP
350
D
3
ACAD_MLINESTYLE
350
17
0
DICTIONARY
5
D
100
AcDbDictionary
0
DICTIONARY
5
1A
330
C
100
AcDbDictionary
0
DICTIONARY
5
17
100
AcDbDictionary
0
ENDSEC
0
EOF
