0
SECTION
2
HEADER
9
$INSUNITS
70
4
9
$ACADVER
1
AC1014
9
$HANDSEED
5
FFFF
0
ENDSEC
0
SECTION
2
TABLES
0
TABLE
2
VPORT
5
8
100
AcDbSymbolTable
0
ENDTAB
0
TABLE
2
LTYPE
5
5
100
AcDbSymbolTable
0
LTYPE
5
14
100
AcDbSymbolTableRecord
100
AcDbLinetypeTableRecord
2
BYBLOCK
70
0
0
LTYPE
5
15
100
AcDbSymbolTableRecord
100
AcDbLinetypeTableRecord
2
BYLAYER
70
0
0
ENDTAB
0
TABLE
2
LAYER
5
2
100
AcDbSymbolTable
70
2
0
LAYER
5
50
100
AcDbSymbolTableRecord
100
AcDbLayerTableRecord
2
0
70
0
6
CONTINUOUS
0
ENDTAB
0
TABLE
2
STYLE
5
3
100
AcDbSymbolTable
70
1
0
STYLE
5
11
100
AcDbSymbolTableRecord
100
AcDbTextStyleTableRecord
2
STANDARD
70
0
0
ENDTAB
0
TABLE
2
VIEW
5
6
100
AcDbSymbolTable
70
0
0
ENDTAB
0
TABLE
2
UCS
5
7
100
AcDbSymbolTable
70
0
0
ENDTAB
0
TABLE
2
APPID
5
9
100
AcDbSymbolTable
70
2
0
APPID
5
12
100
AcDbSymbolTableRecord
100
AcDbRegAppTableRecord
2
ACAD
70
0
0
ENDTAB
0
TABLE
2
DIMSTYLE
5
A
100
AcDbSymbolTable
70
1
0
ENDTAB
0
TABLE
2
BLOCK_RECORD
5
1
100
AcDbSymbolTable
70
1
0
BLOCK_RECORD
5
1F
100
AcDbSymbolTableRecord
100
AcDbBlockTableRecord
2
*MODEL_SPACE
0
BLOCK_RECORD
5
1B
100
AcDbSymbolTableRecord
100
AcDbBlockTableRecord
2
*PAPER_SPACE
0
ENDTAB
0
ENDSEC
0
SECTION
2
BLOCKS
0
BLOCK
5
20
100
AcDbEntity
100
AcDbBlockBegin
2
*MODEL_SPACE
0
ENDBLK
5
21
100
AcDbEntity
100
AcDbBlockEnd
0
BLOCK
5
1C
100
AcDbEntity
100
AcDbBlockBegin
2
*PAPER_SPACE
0
ENDBLK
5
1D
100
AcDbEntity
100
AcDbBlockEnd
0
ENDSEC
0
SECTION
2
ENTITIES
0
LWPOLYLINE
5
100
100
AcDbEntity
8
0
100
AcDbPolyline
90
4
70
1
43
0.0
10
68.626483056823787
20
-74.801064494908999
42
-1.2909943969055613
10
65.72174610110369
20
-74.799223993265528
10
66.207056965950187
20
-72.924530799996916
42
-0.77459670033964823
10
68.143548269763571
20
-72.925757801092558
0
LWPOLYLINE
5
101
100
AcDbEntity
8
0
100
AcDbPolyline
90
4
70
1
43
0.0
10
59.549223930535035
20
-68.626483056823815
42
-1.2909943969055688
10
59.551064432178507
20
-65.721746101103719
10
61.425757625447119
20
-66.207056965950201
42
-0.77459670033964823
10
61.424530624351476
20
-68.143548269763585
0
LWPOLYLINE
5
102
100
AcDbEntity
8
0
100
AcDbPolyline
90
4
70
1
43
0.0
10
74.801064494908985
20
-65.723805368620233
42
-1.2909943969055688
10
74.799223993265514
20
-68.62854232434033
10
72.924530799996901
20
-68.143231459493862
42
-0.77459670033964489
10
72.92575780109253
20
-66.20674015568045
0
CIRCLE
5
103
100
AcDbEntity
8
0
100
AcDbCircle
10
67.175144212722003
20
-67.175144212722017
30
0
40
3.0000000000000004
210
0
220
-0
230
1
0
LINE
5
104
100
AcDbEntity
8
0
100
AcDbLine
10
59.298998015127736
20
-54.773514615533841
30
0
11
25.029257194151384
21
-20.503773794557478
31
0
0
SPLINE
5
105
100
AcDbEntity
8
0
100
AcDbSpline
70
0
71
3
72
16
73
12
74
0
42
0.000000001
43
0.0000000001
44
0.0000000001
40
0
40
0
40
0
40
0
40
0.46877336806430814
40
0.46877336806430814
40
0.93754673612861628
40
0.93754673612861628
40
1.4063201041929243
40
1.4063201041929243
40
1.6749815635796677
40
1.6749815635796677
40
1.943643022966411
40
1.943643022966411
40
1.943643022966411
40
1.943643022966411
10
25.417449455619522
20
-3.1620175064577802
30
0
10
24.264205129356242
20
-4.2163785439328452
30
0
10
23.327926603540824
20
-5.4859135764782749
30
0
10
21.994701774244497
20
-8.3124149913308418
30
0
10
21.610501826795328
20
-9.8423584795496932
30
0
10
21.450177792276225
20
-12.963399154960911
30
0
10
21.675586490359649
20
-14.524657492197752
30
0
10
22.490919602271585
20
-16.843615584947266
30
0
10
22.881602934715971
20
-17.652555649831335
30
0
10
23.835646735650592
20
-19.168390430369765
30
0
10
24.396016061565252
20
-19.870532661971342
30
0
10
25.029257194151384
20
-20.503773794557478
30
0
0
SPLINE
5
106
100
AcDbEntity
8
0
100
AcDbSpline
70
4
71
5
72
12
73
6
74
0
42
0.000000001
43
0.0000000001
44
0.0000000001
40
-0.042824090008036525
40
-0.042824090008036525
40
-0.042824090008036525
40
-0.042824090008036525
40
-0.042824090008036525
40
-0.042824090008036525
40
0
40
0
40
0
40
0
40
0
40
0
41
1
41
1
41
1
41
1
41
1
41
1
10
25.41744945561943
20
-3.1620175064576839
30
0
10
25.639532472059742
20
-2.9589766812941991
30
0
10
25.859489915264263
20
-2.7534365723047842
30
0
10
26.077254909386497
20
-2.5453318378799588
30
0
10
26.292790528707044
20
-2.3346264692624836
30
0
10
26.506096654409884
20
-2.1213203435596526
30
0
0
ARC
5
107
100
AcDbEntity
8
0
100
AcDbCircle
10
24.384776310850235
20
-5.4145080221280028e-15
30
0
40
3.0000000000000062
210
-0
220
0
230
1
100
AcDbArc
50
-44.99999999999995
51
44.999999999999986
0
SPLINE
5
108
100
AcDbEntity
8
0
100
AcDbSpline
70
4
71
5
72
12
73
6
74
0
42
0.000000001
43
0.0000000001
44
0.0000000001
40
-1
40
-1
40
-1
40
-1
40
-1
40
-1
40
-0.95767693440389035
40
-0.95767693440389035
40
-0.95767693440389035
40
-0.95767693440389035
40
-0.95767693440389035
40
-0.95767693440389035
41
1
41
1
41
1
41
1
41
1
41
1
10
26.50609665440988
20
2.1213203435596388
30
0
10
26.289746523298643
20
2.337670209776737
30
0
10
26.071631001459853
20
2.5510675930916893
30
0
10
25.85175018693559
20
2.7615126287859497
30
0
10
25.630134889958718
20
2.9690440899869595
30
0
10
25.406840990884533
20
3.1737323862612374
30
0
0
SPLINE
5
109
100
AcDbEntity
8
0
100
AcDbSpline
70
0
71
3
72
16
73
12
74
0
42
0.000000001
43
0.0000000001
44
0.0000000001
40
0
40
0
40
0
40
0
40
0.46877336806431197
40
0.46877336806431197
40
0.93754673612862538
40
0.93754673612862538
40
1.4063201041929383
40
1.4063201041929383
40
1.6741890878639647
40
1.6741890878639647
40
1.9420580715349931
40
1.9420580715349931
40
1.9420580715349931
40
1.9420580715349931
10
25.030302993676976
20
20.50481959408307
30
0
10
23.925393569017203
20
19.399910169423297
30
0
10
23.046861060847586
20
18.089750900917188
30
0
10
21.841449798572022
20
15.206422549446405
30
0
10
21.526095433133342
20
13.66081965705715
30
0
10
21.505589936889603
20
10.535731143392329
30
0
10
21.80063484980499
20
8.9861230716122371
30
0
10
22.717931421646483
20
6.7084220271717463
30
0
10
23.142895908621732
20
5.9199809829151908
30
0
10
24.159835877326231
20
4.4520264398087619
30
0
10
24.748641819108652
20
3.7770881771652496
30
0
10
25.40684099088454
20
3.1737323862612277
30
0
0
LINE
5
110
100
AcDbEntity
8
0
100
AcDbLine
10
25.030302993676976
20
20.50481959408307
30
0
11
59.298998015127793
21
54.773514615533884
31
0
0
ARC
5
111
100
AcDbEntity
8
0
100
AcDbCircle
10
64.955852264620177
20
49.116660366041501
30
0
40
8
210
0
220
0
230
1
100
AcDbArc
50
116.0026236585549
51
135
0
LINE
5
112
100
AcDbEntity
8
0
100
AcDbLine
10
61.448553837106061
20
56.306852139586702
30
0
11
80.051967916281427
21
65.381397993335824
31
0
0
ARC
5
113
100
AcDbEntity
8
0
100
AcDbCircle
10
79.175143309402898
20
67.178945936722116
30
0
40
1.9999999999999978
210
0
220
0
230
1
100
AcDbArc
50
-63.997376341445012
51
61.906847784020044
0
LINE
5
114
100
AcDbEntity
8
0
100
AcDbLine
10
80.116956207898966
20
68.943312243424458
30
0
11
75.080690035531532
21
71.631654378318046
31
0
0
ARC
5
115
100
AcDbEntity
8
0
100
AcDbCircle
10
78.847941532038718
20
78.689119657160219
30
0
40
7.9999999999998996
210
0
220
0
230
1
100
AcDbArc
50
206.56039118317159
51
241.90684857538378
0
LINE
5
116
100
AcDbEntity
8
0
100
AcDbLine
10
71.69223304464974
20
75.111992871105826
30
0
11
68.964071322878041
21
80.569425932622835
31
0
0
ARC
5
117
100
AcDbEntity
8
0
100
AcDbCircle
10
67.175144212722017
20
79.675144212722017
30
0
40
1.9999999999999842
210
0
220
-0
230
1
100
AcDbArc
50
26.560391932217573
51
153.43960806778261
0
LINE
5
118
100
AcDbEntity
8
0
100
AcDbLine
10
65.386217102565979
20
80.569425932622835
30
0
11
62.648789769971735
21
75.093457880883449
31
0
0
ARC
5
119
100
AcDbEntity
8
0
100
AcDbCircle
10
55.493081282582722
20
78.670584666937856
30
0
40
7.9999999999999316
210
0
220
0
230
1
100
AcDbArc
50
298.36281587322543
51
333.43960881682847
0
LINE
5
120
100
AcDbEntity
8
0
100
AcDbLine
10
59.293507121227108
20
71.630928180647985
30
0
11
53.462569925835567
21
68.483041004045461
31
0
0
ARC
5
121
100
AcDbEntity
8
0
100
AcDbCircle
10
54.175149787049641
20
67.16310542175664
30
0
40
1.4999999999999905
210
0
220
0
230
1
100
AcDbArc
50
118.36281658807928
51
212.74728068340303
0
ARC
5
122
100
AcDbEntity
8
0
100
AcDbCircle
10
46.185035258443669
20
62.024227157022295
30
0
40
7.999999999999984
210
0
220
0
230
1
100
AcDbArc
50
-45.000000000000099
51
32.747280683403254
0
LINE
5
123
100
AcDbEntity
8
0
100
AcDbLine
10
51.841889507936031
20
56.367372907529912
30
0
11
18.990940989654046
21
23.516424389247945
31
0
0
SPLINE
5
124
100
AcDbEntity
8
0
100
AcDbSpline
70
0
71
3
72
16
73
12
74
0
42
0.000000001
43
0.0000000001
44
0.0000000001
40
0
40
0
40
0
40
0
40
0.39064447338692704
40
0.39064447338692704
40
0.78128894677385496
40
0.78128894677385496
40
1.1719334201607827
40
1.1719334201607827
40
1.4183193403454839
40
1.4183193403454839
40
1.6647052605301853
40
1.6647052605301853
40
1.6647052605301853
40
1.6647052605301853
10
4.2443825857663438
20
24.177590160381577
30
0
10
5.0790468548208363
20
23.178127500279299
30
0
10
6.1009485607987699
20
22.35124873987667
30
0
10
8.4041872810346447
20
21.135744070405504
30
0
10
9.6635040777650385
20
20.75873904847834
30
0
10
12.255766211779534
20
20.508664594655844
30
0
10
13.563928110170433
20
20.637986010840159
30
0
10
15.596714444300602
20
21.251789246717831
30
0
10
16.350708392183904
20
21.585147470171901
30
0
10
17.760129374891157
20
22.428698239746264
30
0
10
18.410203806482414
20
22.93568720607631
30
0
10
18.990940989654046
20
23.516424389247945
30
0
0
SPLINE
5
125
100
AcDbEntity
8
0
100
AcDbSpline
70
4
71
5
72
12
73
6
74
0
42
0.000000001
43
0.0000000001
44
0.0000000001
40
-0.089699809661559451
40
-0.089699809661559451
40
-0.089699809661559451
40
-0.089699809661559451
40
-0.089699809661559451
40
-0.089699809661559451
40
0
40
0
40
0
40
0
40
0
40
0
41
1
41
1
41
1
41
1
41
1
41
1
10
4.2443825857664734
20
24.177590160381428
30
0
10
3.8407257638885737
20
24.660946086734352
30
0
10
3.4274698922031099
20
25.136372670668933
30
0
10
3.0034965055837137
20
25.60272827359471
30
0
10
2.5681136991592242
20
26.059303298810313
30
0
10
2.1213203435596553
20
26.506096654409884
30
0
0
ARC
5
126
100
AcDbEntity
8
0
100
AcDbCircle
10
0
20
24.384776310850235
30
0
40
3.000000000000012
210
0
220
-0
230
1
100
AcDbArc
50
44.999999999999922
51
134.99999999999997
0
SPLINE
5
127
100
AcDbEntity
8
0
100
AcDbSpline
70
4
71
5
72
12
73
6
74
0
42
0.000000001
43
0.0000000001
44
0.0000000001
40
-1
40
-1
40
-1
40
-1
40
-1
40
-1
40
-0.91139088426451165
40
-0.91139088426451165
40
-0.91139088426451165
40
-0.91139088426451165
40
-0.91139088426451165
40
-0.91139088426451165
41
1
41
1
41
1
41
1
41
1
41
1
10
-2.1213203435596446
20
26.50609665440988
30
0
10
-2.5742783243905611
20
26.053138118986929
30
0
10
-3.0142946459524933
20
25.592441321894078
30
0
10
-3.4413705497322793
20
25.124007162870072
30
0
10
-3.8562496431724576
20
24.648426628504115
30
0
10
-4.2601362613523284
20
24.166653834617971
30
0
0
SPLINE
5
128
100
AcDbEntity
8
0
100
AcDbSpline
70
0
71
3
72
16
73
12
74
0
42
0.000000001
43
0.0000000001
44
0.0000000001
40
0
40
0
40
0
40
0
40
0.39064447338692748
40
0.39064447338692748
40
0.7812889467738553
40
0.7812889467738553
40
1.1719334201607823
40
1.1719334201607823
40
1.4173684213204132
40
1.4173684213204132
40
1.6628034224800454
40
1.6628034224800454
40
1.6628034224800454
40
1.6628034224800454
10
-18.994535984613847
20
23.520019384207735
30
0
10
-18.073778130730702
20
22.59926153032459
30
0
10
-16.981978740308957
20
21.867151106849892
30
0
10
-14.579205114083301
20
20.862641721620253
30
0
10
-13.29120270375892
20
20.59984641708802
30
0
10
-10.686962275704904
20
20.582758503551574
30
0
10
-9.3956222158881602
20
20.82862926431439
30
0
10
-7.4288619826367626
20
21.620700912171436
30
0
10
-6.7103414136280746
20
22.018303267853241
30
0
10
-5.38628052824484
20
22.979616077613059
30
0
10
-4.7857298645252353
20
23.539703875764602
30
0
10
-4.2601362613523204
20
24.166653834617978
30
0
0
LINE
5
129
100
AcDbEntity
8
0
100
AcDbLine
10
-18.994535984613847
20
23.520019384207735
30
0
11
-51.841889507936031
21
56.367372907529912
31
0
0
ARC
5
130
100
AcDbEntity
8
0
100
AcDbCircle
10
-46.185035258443648
20
62.024227157022281
30
0
40
7.9999999999999991
210
0
220
0
230
1
100
AcDbArc
50
147.25271931659677
51
224.99999999999991
0
ARC
5
131
100
AcDbEntity
8
0
100
AcDbCircle
10
-54.175149787049655
20
67.16310542175664
30
0
40
1.5000000000000011
210
-0
220
0
230
1
100
AcDbArc
50
-32.74728068340292
51
61.637183411920255
0
LINE
5
132
100
AcDbEntity
8
0
100
AcDbLine
10
-53.462569925835567
20
68.483041004045461
30
0
11
-59.293507121227094
21
71.630928180647985
31
0
0
ARC
5
133
100
AcDbEntity
8
0
100
AcDbCircle
10
-55.493081282582679
20
78.670584666937899
30
0
40
7.9999999999999982
210
0
220
0
230
1
100
AcDbArc
50
206.56039118317167
51
241.63718412677449
0
LINE
5
134
100
AcDbEntity
8
0
100
AcDbLine
10
-62.648789769971735
20
75.093457880883449
30
0
11
-65.386217102565965
21
80.569425932622849
31
0
0
ARC
5
135
100
AcDbEntity
8
0
100
AcDbCircle
10
-67.175144212722017
20
79.675144212722017
30
0
40
2.0000000000000124
210
0
220
-0
230
1
100
AcDbArc
50
26.560391932217559
51
153.43960806778227
0
LINE
5
136
100
AcDbEntity
8
0
100
AcDbLine
10
-68.964071322878056
20
80.569425932622849
30
0
11
-71.692233044649726
21
75.111992871105841
31
0
0
ARC
5
137
100
AcDbEntity
8
0
100
AcDbCircle
10
-78.847941532038789
20
78.68911965716029
30
0
40
8
210
-0
220
0
230
1
100
AcDbArc
50
298.09315142461639
51
333.43960881682835
0
LINE
5
138
100
AcDbEntity
8
0
100
AcDbLine
10
-75.080690035531546
20
71.631654378318046
30
0
11
-80.116956207898966
21
68.943312243424458
31
0
0
ARC
5
139
100
AcDbEntity
8
0
100
AcDbCircle
10
-79.175143309402898
20
67.178945936722116
30
0
40
2.000000000000008
210
0
220
0
230
1
100
AcDbArc
50
118.09315221597997
51
243.9973763414452
0
LINE
5
140
100
AcDbEntity
8
0
100
AcDbLine
10
-80.051967916281427
20
65.38139799333581
30
0
11
-61.448553837106047
21
56.306852139586695
31
0
0
ARC
5
141
100
AcDbEntity
8
0
100
AcDbCircle
10
-64.955852264620148
20
49.116660366041494
30
0
40
7.9999999999999973
210
0
220
-0
230
1
100
AcDbArc
50
45.000000000000028
51
63.997376341445225
0
LINE
5
142
100
AcDbEntity
8
0
100
AcDbLine
10
-59.298998015127779
20
54.77351461553387
30
0
11
-25.029257194151381
21
20.503773794557468
31
0
0
SPLINE
5
143
100
AcDbEntity
8
0
100
AcDbSpline
70
0
71
3
72
16
73
12
74
0
42
0.000000001
43
0.0000000001
44
0.0000000001
40
0
40
0
40
0
40
0
40
0.46877336806431213
40
0.46877336806431213
40
0.93754673612862405
40
0.93754673612862405
40
1.4063201041929352
40
1.4063201041929352
40
1.6749815635796765
40
1.6749815635796765
40
1.9436430229664179
40
1.9436430229664179
40
1.9436430229664179
40
1.9436430229664179
10
-25.417449455619469
20
3.1620175064576928
30
0
10
-24.264205129356181
20
4.2163785439327741
30
0
10
-23.327926603540771
20
5.4859135764782208
30
0
10
-21.994701774244444
20
8.3124149913308187
30
0
10
-21.610501826795279
20
9.8423584795496843
30
0
10
-21.450177792276204
20
12.963399154960927
30
0
10
-21.675586490359642
20
14.524657492197777
30
0
10
-22.490919602271596
20
16.84361558494729
30
0
10
-22.881602934715982
20
17.652555649831349
30
0
10
-23.835646735650595
20
19.168390430369769
30
0
10
-24.396016061565252
20
19.870532661971339
30
0
10
-25.029257194151381
20
20.503773794557468
30
0
0
SPLINE
5
144
100
AcDbEntity
8
0
100
AcDbSpline
70
4
71
5
72
12
73
6
74
0
42
0.000000001
43
0.0000000001
44
0.0000000001
40
-0.042824090008035991
40
-0.042824090008035991
40
-0.042824090008035991
40
-0.042824090008035991
40
-0.042824090008035991
40
-0.042824090008035991
40
0
40
0
40
0
40
0
40
0
40
0
41
1
41
1
41
1
41
1
41
1
41
1
10
-25.417449455619451
20
3.1620175064576683
30
0
10
-25.639532472059763
20
2.9589766812941845
30
0
10
-25.859489915264284
20
2.753436572304774
30
0
10
-26.077254909386511
20
2.5453318378799503
30
0
10
-26.292790528707055
20
2.3346264692624779
30
0
10
-26.506096654409884
20
2.121320343559649
30
0
0
ARC
5
145
100
AcDbEntity
8
0
100
AcDbCircle
10
-24.384776310850235
20
5.4145080221280028e-15
30
0
40
3.0000000000000036
210
0
220
0
230
1
100
AcDbArc
50
135.00000000000011
51
224.99999999999991
0
SPLINE
5
146
100
AcDbEntity
8
0
100
AcDbSpline
70
4
71
5
72
12
73
6
74
0
42
0.000000001
43
0.0000000001
44
0.0000000001
40
-1
40
-1
40
-1
40
-1
40
-1
40
-1
40
-0.95767693440389035
40
-0.95767693440389035
40
-0.95767693440389035
40
-0.95767693440389035
40
-0.95767693440389035
40
-0.95767693440389035
41
1
41
1
41
1
41
1
41
1
41
1
10
-26.50609665440988
20
-2.1213203435596388
30
0
10
-26.289746523298643
20
-2.337670209776737
30
0
10
-26.071631001459853
20
-2.5510675930916893
30
0
10
-25.85175018693559
20
-2.7615126287859497
30
0
10
-25.630134889958718
20
-2.9690440899869595
30
0
10
-25.406840990884533
20
-3.1737323862612374
30
0
0
SPLINE
5
147
100
AcDbEntity
8
0
100
AcDbSpline
70
0
71
3
72
16
73
12
74
0
42
0.000000001
43
0.0000000001
44
0.0000000001
40
0
40
0
40
0
40
0
40
0.46877336806431197
40
0.46877336806431197
40
0.93754673612862538
40
0.93754673612862538
40
1.4063201041929383
40
1.4063201041929383
40
1.6741890878639647
40
1.6741890878639647
40
1.9420580715349931
40
1.9420580715349931
40
1.9420580715349931
40
1.9420580715349931
10
-25.030302993676976
20
-20.50481959408307
30
0
10
-23.925393569017203
20
-19.399910169423297
30
0
10
-23.046861060847586
20
-18.089750900917188
30
0
10
-21.841449798572022
20
-15.206422549446405
30
0
10
-21.526095433133342
20
-13.66081965705715
30
0
10
-21.505589936889603
20
-10.535731143392329
30
0
10
-21.80063484980499
20
-8.9861230716122371
30
0
10
-22.717931421646483
20
-6.7084220271717463
30
0
10
-23.142895908621732
20
-5.9199809829151908
30
0
10
-24.159835877326231
20
-4.4520264398087619
30
0
10
-24.748641819108652
20
-3.7770881771652496
30
0
10
-25.40684099088454
20
-3.1737323862612277
30
0
0
LINE
5
148
100
AcDbEntity
8
0
100
AcDbLine
10
-25.030302993676976
20
-20.50481959408307
30
0
11
-59.298998015127793
21
-54.773514615533884
31
0
0
ARC
5
149
100
AcDbEntity
8
0
100
AcDbCircle
10
-64.955852264620177
20
-49.116660366041501
30
0
40
8
210
-0
220
0
230
1
100
AcDbArc
50
296.00262365855491
51
315
0
LINE
5
150
100
AcDbEntity
8
0
100
AcDbLine
10
-61.448553837106061
20
-56.306852139586702
30
0
11
-80.051967916281427
21
-65.381397993335824
31
0
0
ARC
5
151
100
AcDbEntity
8
0
100
AcDbCircle
10
-79.175143309402898
20
-67.178945936722116
30
0
40
1.9999999999999978
210
0
220
0
230
1
100
AcDbArc
50
116.00262365855498
51
241.90684778402002
0
LINE
5
152
100
AcDbEntity
8
0
100
AcDbLine
10
-80.116956207898966
20
-68.943312243424458
30
0
11
-75.080690035531532
21
-71.631654378318046
31
0
0
ARC
5
153
100
AcDbEntity
8
0
100
AcDbCircle
10
-78.847941532038718
20
-78.689119657160219
30
0
40
7.9999999999998996
210
0
220
-0
230
1
100
AcDbArc
50
26.560391183171571
51
61.90684857538379
0
LINE
5
154
100
AcDbEntity
8
0
100
AcDbLine
10
-71.69223304464974
20
-75.111992871105826
30
0
11
-68.964071322878041
21
-80.569425932622835
31
0
0
ARC
5
155
100
AcDbEntity
8
0
100
AcDbCircle
10
-67.175144212722017
20
-79.675144212722017
30
0
40
1.9999999999999842
210
0
220
0
230
1
100
AcDbArc
50
206.56039193221756
51
333.43960806778261
0
LINE
5
156
100
AcDbEntity
8
0
100
AcDbLine
10
-65.386217102565979
20
-80.569425932622835
30
0
11
-62.648789769971735
21
-75.093457880883449
31
0
0
ARC
5
157
100
AcDbEntity
8
0
100
AcDbCircle
10
-55.493081282582722
20
-78.670584666937856
30
0
40
7.9999999999999316
210
0
220
0
230
1
100
AcDbArc
50
118.36281587322546
51
153.43960881682844
0
LINE
5
158
100
AcDbEntity
8
0
100
AcDbLine
10
-59.293507121227108
20
-71.630928180647985
30
0
11
-53.462569925835567
21
-68.483041004045461
31
0
0
ARC
5
159
100
AcDbEntity
8
0
100
AcDbCircle
10
-54.175149787049641
20
-67.16310542175664
30
0
40
1.4999999999999905
210
0
220
0
230
1
100
AcDbArc
50
-61.637183411920724
51
32.747280683403041
0
ARC
5
160
100
AcDbEntity
8
0
100
AcDbCircle
10
-46.185035258443669
20
-62.024227157022295
30
0
40
7.999999999999984
210
0
220
0
230
1
100
AcDbArc
50
134.99999999999991
51
212.74728068340326
0
LINE
5
161
100
AcDbEntity
8
0
100
AcDbLine
10
-51.841889507936031
20
-56.367372907529912
30
0
11
-18.990940989654046
21
-23.516424389247945
31
0
0
SPLINE
5
162
100
AcDbEntity
8
0
100
AcDbSpline
70
0
71
3
72
16
73
12
74
0
42
0.000000001
43
0.0000000001
44
0.0000000001
40
0
40
0
40
0
40
0
40
0.39064447338692704
40
0.39064447338692704
40
0.78128894677385496
40
0.78128894677385496
40
1.1719334201607827
40
1.1719334201607827
40
1.4183193403454839
40
1.4183193403454839
40
1.6647052605301853
40
1.6647052605301853
40
1.6647052605301853
40
1.6647052605301853
10
-4.2443825857663438
20
-24.177590160381577
30
0
10
-5.0790468548208363
20
-23.178127500279299
30
0
10
-6.1009485607987699
20
-22.35124873987667
30
0
10
-8.4041872810346447
20
-21.135744070405504
30
0
10
-9.6635040777650385
20
-20.75873904847834
30
0
10
-12.255766211779534
20
-20.508664594655844
30
0
10
-13.563928110170433
20
-20.637986010840159
30
0
10
-15.596714444300602
20
-21.251789246717831
30
0
10
-16.350708392183904
20
-21.585147470171901
30
0
10
-17.760129374891157
20
-22.428698239746264
30
0
10
-18.410203806482414
20
-22.93568720607631
30
0
10
-18.990940989654046
20
-23.516424389247945
30
0
0
SPLINE
5
163
100
AcDbEntity
8
0
100
AcDbSpline
70
4
71
5
72
12
73
6
74
0
42
0.000000001
43
0.0000000001
44
0.0000000001
40
-0.089699809661559451
40
-0.089699809661559451
40
-0.089699809661559451
40
-0.089699809661559451
40
-0.089699809661559451
40
-0.089699809661559451
40
0
40
0
40
0
40
0
40
0
40
0
41
1
41
1
41
1
41
1
41
1
41
1
10
-4.2443825857664734
20
-24.177590160381428
30
0
10
-3.8407257638885737
20
-24.660946086734352
30
0
10
-3.4274698922031099
20
-25.136372670668933
30
0
10
-3.0034965055837137
20
-25.60272827359471
30
0
10
-2.5681136991592242
20
-26.059303298810313
30
0
10
-2.1213203435596553
20
-26.506096654409884
30
0
0
ARC
5
164
100
AcDbEntity
8
0
100
AcDbCircle
10
-2.9862738257006943e-15
20
-24.384776310850235
30
0
40
3.0000000000000098
210
0
220
0
230
1
100
AcDbArc
50
224.99999999999997
51
314.99999999999994
0
SPLINE
5
165
100
AcDbEntity
8
0
100
AcDbSpline
70
4
71
5
72
12
73
6
74
0
42
0.000000001
43
0.0000000001
44
0.0000000001
40
-1
40
-1
40
-1
40
-1
40
-1
40
-1
40
-0.91139088426451154
40
-0.91139088426451154
40
-0.91139088426451154
40
-0.91139088426451154
40
-0.91139088426451154
40
-0.91139088426451154
41
1
41
1
41
1
41
1
41
1
41
1
10
2.1213203435596415
20
-26.50609665440988
30
0
10
2.5742783243905585
20
-26.053138118986929
30
0
10
3.014294645952492
20
-25.592441321894075
30
0
10
3.4413705497322775
20
-25.124007162870072
30
0
10
3.8562496431724558
20
-24.648426628504115
30
0
10
4.2601362613523275
20
-24.166653834617971
30
0
0
SPLINE
5
166
100
AcDbEntity
8
0
100
AcDbSpline
70
0
71
3
72
16
73
12
74
0
42
0.000000001
43
0.0000000001
44
0.0000000001
40
0
40
0
40
0
40
0
40
0.39064447338692665
40
0.39064447338692665
40
0.78128894677385374
40
0.78128894677385374
40
1.1719334201607809
40
1.1719334201607809
40
1.4173684213204103
40
1.4173684213204103
40
1.6628034224800401
40
1.6628034224800401
40
1.6628034224800401
40
1.6628034224800401
10
18.994535984613844
20
-23.520019384207735
30
0
10
18.073778130730698
20
-22.59926153032459
30
0
10
16.981978740308932
20
-21.867151106849924
30
0
10
14.579205114083283
20
-20.862641721620285
30
0
10
13.291202703758904
20
-20.599846417088056
30
0
10
10.686962275704889
20
-20.582758503551602
30
0
10
9.3956222158881459
20
-20.828629264314422
30
0
10
7.4288619826367519
20
-21.620700912171461
30
0
10
6.7103414136280666
20
-22.018303267853266
30
0
10
5.3862805282448409
20
-22.979616077613073
30
0
10
4.7857298645252282
20
-23.539703875764602
30
0
10
4.2601362613523186
20
-24.166653834617975
30
0
0
LINE
5
167
100
AcDbEntity
8
0
100
AcDbLine
10
18.994535984613844
20
-23.520019384207735
30
0
11
51.84188950793601
21
-56.367372907529912
31
0
0
ARC
5
168
100
AcDbEntity
8
0
100
AcDbCircle
10
46.185035258443641
20
-62.024227157022295
30
0
40
7.9999999999999893
210
-0
220
0
230
1
100
AcDbArc
50
-32.747280683403169
51
45.000000000000071
0
ARC
5
169
100
AcDbEntity
8
0
100
AcDbCircle
10
54.175149787049655
20
-67.16310542175664
30
0
40
1.5000000000000133
210
0
220
0
230
1
100
AcDbArc
50
147.25271931659725
51
241.63718341192023
0
LINE
5
170
100
AcDbEntity
8
0
100
AcDbLine
10
53.462569925835567
20
-68.483041004045461
30
0
11
59.293507121227094
21
-71.630928180647985
31
0
0
ARC
5
171
100
AcDbEntity
8
0
100
AcDbCircle
10
55.493081282582679
20
-78.670584666937899
30
0
40
7.9999999999999982
210
0
220
-0
230
1
100
AcDbArc
50
26.560391183171674
51
61.637184126774507
0
LINE
5
172
100
AcDbEntity
8
0
100
AcDbLine
10
62.648789769971735
20
-75.093457880883449
30
0
11
65.386217102565965
21
-80.569425932622849
31
0
0
ARC
5
173
100
AcDbEntity
8
0
100
AcDbCircle
10
67.175144212722017
20
-79.675144212722017
30
0
40
2.0000000000000124
210
0
220
0
230
1
100
AcDbArc
50
206.56039193221753
51
333.43960806778222
0
LINE
5
174
100
AcDbEntity
8
0
100
AcDbLine
10
68.964071322878056
20
-80.569425932622849
30
0
11
71.692233044649726
21
-75.111992871105841
31
0
0
ARC
5
175
100
AcDbEntity
8
0
100
AcDbCircle
10
78.847941532038789
20
-78.68911965716029
30
0
40
8
210
0
220
0
230
1
100
AcDbArc
50
118.09315142461634
51
153.43960881682835
0
LINE
5
176
100
AcDbEntity
8
0
100
AcDbLine
10
75.080690035531546
20
-71.631654378318046
30
0
11
80.116956207898966
21
-68.943312243424458
31
0
0
ARC
5
177
100
AcDbEntity
8
0
100
AcDbCircle
10
79.175143309402898
20
-67.178945936722116
30
0
40
2.000000000000008
210
-0
220
0
230
1
100
AcDbArc
50
-61.906847784020052
51
63.997376341445197
0
LINE
5
178
100
AcDbEntity
8
0
100
AcDbLine
10
80.051967916281427
20
-65.38139799333581
30
0
11
61.44855383710599
21
-56.306852139586667
31
0
0
ARC
5
179
100
AcDbEntity
8
0
100
AcDbCircle
10
64.955852264620106
20
-49.116660366041465
30
0
40
7.9999999999999973
210
0
220
0
230
1
100
AcDbArc
50
225.00000000000003
51
243.99737634144509
0
CIRCLE
5
180
100
AcDbEntity
8
0
100
AcDbCircle
10
-67.175144212722003
20
-67.175144212722017
30
0
40
3.0000000000000004
210
-0
220
0
230
1
0
LWPOLYLINE
5
181
100
AcDbEntity
8
0
100
AcDbPolyline
90
4
70
1
43
0.0
10
-74.799223993265514
20
-68.62854232434033
42
-1.2909943969055677
10
-74.801064494908985
20
-65.723805368620233
10
-72.925757801092516
20
-66.20674015568045
42
-0.77459670033963124
10
-72.924530799996887
20
-68.143231459493862
0
LWPOLYLINE
5
182
100
AcDbEntity
8
0
100
AcDbPolyline
90
4
70
1
43
0.0
10
-59.551064432178507
20
-65.721746101103719
42
-1.2909943969055677
10
-59.549223930535035
20
-68.626483056823815
10
-61.424530624351483
20
-68.143548269763585
42
-0.77459670033963191
10
-61.425757625447119
20
-66.207056965950187
0
LWPOLYLINE
5
183
100
AcDbEntity
8
0
100
AcDbPolyline
90
4
70
1
43
0.0
10
-65.721746101103705
20
-74.799223993265528
42
-1.2909943969055671
10
-68.626483056823801
20
-74.801064494908999
10
-68.143548269763571
20
-72.925757801092544
42
-0.77459670033963124
10
-66.207056965950173
20
-72.924530799996916
0
LWPOLYLINE
5
184
100
AcDbEntity
8
0
100
AcDbPolyline
90
4
70
1
43
0.0
10
7.0000001043081266
20
-12.500000208616257
42
-0.99999999999999989
10
7.0000001043081266
20
-15.500000208616257
10
-7.0000001043081301
20
-15.500000208616257
42
-0.99999999999999989
10
-7.0000001043081301
20
-12.500000208616257
0
CIRCLE
5
185
100
AcDbEntity
8
0
100
AcDbCircle
10
10.000000149011614
20
10.00000014901161
30
0
40
0.99999999999999978
210
0
220
0
230
1
0
CIRCLE
5
186
100
AcDbEntity
8
0
100
AcDbCircle
10
24.384776310850235
20
-5.4145080221280028e-15
30
0
40
1.5000000000000009
210
0
220
0
230
1
0
LWPOLYLINE
5
187
100
AcDbEntity
8
0
100
AcDbPolyline
90
4
70
1
43
0.0
10
-12.50000020861626
20
-7.0000001043081248
42
-0.99999999999999989
10
-15.500000208616258
20
-7.0000001043081248
10
-15.500000208616253
20
7.0000001043081319
42
-0.99999999999999989
10
-12.500000208616255
20
7.0000001043081319
0
LWPOLYLINE
5
188
100
AcDbEntity
8
0
100
AcDbPolyline
90
4
70
1
43
0.0
10
-7.0000001043081284
20
12.500000208616257
42
-0.99999999999999989
10
-7.0000001043081284
20
15.500000208616257
10
7.0000001043081284
20
15.500000208616257
42
-0.99999999999999989
10
7.0000001043081284
20
12.500000208616257
0
LWPOLYLINE
5
189
100
AcDbEntity
8
0
100
AcDbPolyline
90
4
70
1
43
0.0
10
12.50000020861626
20
7.0000001043081248
42
-0.99999999999999989
10
15.500000208616258
20
7.0000001043081248
10
15.500000208616253
20
-7.0000001043081319
42
-0.99999999999999989
10
12.500000208616255
20
-7.0000001043081319
0
CIRCLE
5
190
100
AcDbEntity
8
0
100
AcDbCircle
10
-10.000000149011614
20
-10.00000014901161
30
0
40
0.99999999999999978
210
0
220
-0
230
1
0
CIRCLE
5
191
100
AcDbEntity
8
0
100
AcDbCircle
10
10.00000014901161
20
-10.000000149011614
30
0
40
0.99999999999999978
210
0
220
-0
230
1
0
CIRCLE
5
192
100
AcDbEntity
8
0
100
AcDbCircle
10
-10.000000149011612
20
10.000000149011612
30
0
40
0.99999999999999978
210
0
220
0
230
1
0
CIRCLE
5
193
100
AcDbEntity
8
0
100
AcDbCircle
10
0
20
24.384776310850235
30
0
40
1.5000000000000009
210
0
220
0
230
1
0
CIRCLE
5
194
100
AcDbEntity
8
0
100
AcDbCircle
10
-2.2514857462122826e-15
20
-18.384776310850235
30
0
40
1
210
0
220
-0
230
1
0
CIRCLE
5
195
100
AcDbEntity
8
0
100
AcDbCircle
10
-18.384776310850235
20
4.082240392577815e-15
30
0
40
1
210
0
220
-0
230
1
0
CIRCLE
5
196
100
AcDbEntity
8
0
100
AcDbCircle
10
18.384776310850235
20
-4.082240392577815e-15
30
0
40
1
210
0
220
0
230
1
0
CIRCLE
5
197
100
AcDbEntity
8
0
100
AcDbCircle
10
-2.9862738257006943e-15
20
-24.384776310850235
30
0
40
1.5000000000000009
210
0
220
-0
230
1
0
CIRCLE
5
198
100
AcDbEntity
8
0
100
AcDbCircle
10
0
20
18.384776310850235
30
0
40
1
210
0
220
0
230
1
0
CIRCLE
5
199
100
AcDbEntity
8
0
100
AcDbCircle
10
-24.384776310850235
20
5.4145080221280028e-15
30
0
40
1.5000000000000009
210
0
220
-0
230
1
0
CIRCLE
5
200
100
AcDbEntity
8
0
100
AcDbCircle
10
0
20
0
30
0
40
9
210
0
220
0
230
1
0
LWPOLYLINE
5
201
100
AcDbEntity
8
0
100
AcDbPolyline
90
4
70
1
43
0.0
10
65.721746101103705
20
74.799223993265528
42
-1.2909943969055671
10
68.626483056823801
20
74.801064494908999
10
68.143548269763571
20
72.925757801092544
42
-0.77459670033963124
10
66.207056965950173
20
72.924530799996916
0
LWPOLYLINE
5
202
100
AcDbEntity
8
0
100
AcDbPolyline
90
4
70
1
43
0.0
10
59.551064432178507
20
65.721746101103719
42
-1.2909943969055677
10
59.549223930535035
20
68.626483056823815
10
61.424530624351483
20
68.143548269763585
42
-0.77459670033963191
10
61.425757625447119
20
66.207056965950187
0
LWPOLYLINE
5
203
100
AcDbEntity
8
0
100
AcDbPolyline
90
4
70
1
43
0.0
10
74.799223993265514
20
68.62854232434033
42
-1.2909943969055677
10
74.801064494908985
20
65.723805368620233
10
72.925757801092516
20
66.20674015568045
42
-0.77459670033963124
10
72.924530799996887
20
68.143231459493862
0
CIRCLE
5
204
100
AcDbEntity
8
0
100
AcDbCircle
10
67.175144212722003
20
67.175144212722017
30
0
40
3.0000000000000004
210
0
220
0
230
1
0
CIRCLE
5
205
100
AcDbEntity
8
0
100
AcDbCircle
10
-67.175144212722003
20
67.175144212722017
30
0
40
3.0000000000000004
210
-0
220
0
230
1
0
LWPOLYLINE
5
206
100
AcDbEntity
8
0
100
AcDbPolyline
90
4
70
1
43
0.0
10
-74.801064494908985
20
65.723805368620233
42
-1.2909943969055688
10
-74.799223993265514
20
68.62854232434033
10
-72.924530799996901
20
68.143231459493862
42
-0.77459670033964489
10
-72.92575780109253
20
66.20674015568045
0
LWPOLYLINE
5
207
100
AcDbEntity
8
0
100
AcDbPolyline
90
4
70
1
43
0.0
10
-59.549223930535035
20
68.626483056823815
42
-1.2909943969055688
10
-59.551064432178507
20
65.721746101103719
10
-61.425757625447119
20
66.207056965950201
42
-0.77459670033964823
10
-61.424530624351476
20
68.143548269763585
0
LWPOLYLINE
5
208
100
AcDbEntity
8
0
100
AcDbPolyline
90
4
70
1
43
0.0
10
-68.626483056823787
20
74.801064494908999
42
-1.2909943969055613
10
-65.72174610110369
20
74.799223993265528
10
-66.207056965950187
20
72.924530799996916
42
-0.77459670033964823
10
-68.143548269763571
20
72.925757801092558
0
ENDSEC
0
SECTION
2
OBJECTS
0
DICTIONARY
5
C
100
AcDbDictionary
3
ACAD_GROUP
350
D
3
ACAD_MLINESTYLE
350
17
0
DICTIONARY
5
D
100
AcDbDictionary
0
DICTIONARY
5
1A
330
C
100
AcDbDictionary
0
DICTIONARY
5
17
100
AcDbDictionary
0
ENDSEC
0
EOF
