0
SECTION
2
HEADER
9
$INSUNITS
70
4
9
$ACADVER
1
AC1014
9
$HANDSEED
5
FFFF
0
ENDSEC
0
SECTION
2
TABLES
0
TABLE
2
VPORT
5
8
100
AcDbSymbolTable
0
ENDTAB
0
TABLE
2
LTYPE
5
5
100
AcDbSymbolTable
0
LTYPE
5
14
100
AcDbSymbolTableRecord
100
AcDbLinetypeTableRecord
2
BYBLOCK
70
0
0
LTYPE
5
15
100
AcDbSymbolTableRecord
100
AcDbLinetypeTableRecord
2
BYLAYER
70
0
0
ENDTAB
0
TABLE
2
LAYER
5
2
100
AcDbSymbolTable
70
2
0
LAYER
5
50
100
AcDbSymbolTableRecord
100
AcDbLayerTableRecord
2
0
70
0
6
CONTINUOUS
0
ENDTAB
0
TABLE
2
STYLE
5
3
100
AcDbSymbolTable
70
1
0
STYLE
5
11
100
AcDbSymbolTableRecord
100
AcDbTextStyleTableRecord
2
STANDARD
70
0
0
ENDTAB
0
TABLE
2
VIEW
5
6
100
AcDbSymbolTable
70
0
0
ENDTAB
0
TABLE
2
UCS
5
7
100
AcDbSymbolTable
70
0
0
ENDTAB
0
TABLE
2
APPID
5
9
100
AcDbSymbolTable
70
2
0
APPID
5
12
100
AcDbSymbolTableRecord
100
AcDbRegAppTableRecord
2
ACAD
70
0
0
ENDTAB
0
TABLE
2
DIMSTYLE
5
A
100
AcDbSymbolTable
70
1
0
ENDTAB
0
TABLE
2
BLOCK_RECORD
5
1
100
AcDbSymbolTable
70
1
0
BLOCK_RECORD
5
1F
100
AcDbSymbolTableRecord
100
AcDbBlockTableRecord
2
*MODEL_SPACE
0
BLOCK_RECORD
5
1B
100
AcDbSymbolTableRecord
100
AcDbBlockTableRecord
2
*PAPER_SPACE
0
ENDTAB
0
ENDSEC
0
SECTION
2
BLOCKS
0
BLOCK
5
20
100
AcDbEntity
100
AcDbBlockBegin
2
*MODEL_SPACE
0
ENDBLK
5
21
100
AcDbEntity
100
AcDbBlockEnd
0
BLOCK
5
1C
100
AcDbEntity
100
AcDbBlockBegin
2
*PAPER_SPACE
0
ENDBLK
5
1D
100
AcDbEntity
100
AcDbBlockEnd
0
ENDSEC
0
SECTION
2
ENTITIES
0
LWPOLYLINE
5
100
100
AcDbEntity
8
0
100
AcDbPolyline
90
12
70
1
43
0.0
10
3.7057117246248983
20
-7.0899718344981864
42
-0.30681888136948643
10
5.9345708301845912
20
-7.3446792233066276
42
0.92655032088913114
10
7.3446792233066285
20
-5.9345708301845912
42
-0.30681888136948654
10
7.0899718344981908
20
-3.7057117246248925
42
0.2455744626476386
10
7.0899718344981881
20
3.7057117246249005
42
-0.30681888136948637
10
7.3446792233066294
20
5.9345708301845885
42
0.92655032088913214
10
5.9345708301845912
20
7.3446792233066285
42
-0.30681888136948654
10
3.7057117246248938
20
7.0899718344981935
42
0.24557446264763866
10
-3.7057117246249005
20
7.0899718344981881
42
-0.30681888136948637
10
-5.9345708301845885
20
7.3446792233066294
42
0.92655032088913214
10
-7.3446792233066276
20
5.9345708301845921
42
-0.30681888136948565
10
-7.0899718344981881
20
3.7057117246248983
42
0.73450174282021763
0
CIRCLE
5
101
100
AcDbEntity
8
0
100
AcDbCircle
10
65.681980515339461
20
3.181980515339462
30
0
40
1
210
-0
220
0
230
1
0
CIRCLE
5
102
100
AcDbEntity
8
0
100
AcDbCircle
10
65.681980515339461
20
-3.1819805153394709
30
0
40
1
210
0
220
0
230
1
0
CIRCLE
5
103
100
AcDbEntity
8
0
100
AcDbCircle
10
59.318019484660525
20
3.1819805153394576
30
0
40
1
210
-0
220
0
230
1
0
CIRCLE
5
104
100
AcDbEntity
8
0
100
AcDbCircle
10
62.499999999999986
20
-4.4408920985006262e-15
30
0
40
2.2500000000000004
210
0
220
0
230
1
0
CIRCLE
5
105
100
AcDbEntity
8
0
100
AcDbCircle
10
4.4408920985006262e-15
20
62.499999999999986
30
0
40
2.2500000000000004
210
-0
220
0
230
1
0
CIRCLE
5
106
100
AcDbEntity
8
0
100
AcDbCircle
10
3.1819805153394665
20
59.318019484660525
30
0
40
1
210
0
220
-0
230
1
0
CIRCLE
5
107
100
AcDbEntity
8
0
100
AcDbCircle
10
-3.181980515339462
20
65.681980515339461
30
0
40
1
210
0
220
0
230
1
0
CIRCLE
5
108
100
AcDbEntity
8
0
100
AcDbCircle
10
3.1819805153394709
20
65.681980515339461
30
0
40
1
210
0
220
-0
230
1
0
CIRCLE
5
109
100
AcDbEntity
8
0
100
AcDbCircle
10
12.999999999999996
20
-13.000000000000007
30
0
40
1.0000000000000009
210
0
220
-0
230
1
0
CIRCLE
5
110
100
AcDbEntity
8
0
100
AcDbCircle
10
-12.999999999999998
20
13.000000000000005
30
0
40
1.0000000000000009
210
-0
220
0
230
1
0
CIRCLE
5
111
100
AcDbEntity
8
0
100
AcDbCircle
10
13.000000000000009
20
12.999999999999993
30
0
40
1.0000000000000009
210
0
220
-0
230
1
0
CIRCLE
5
112
100
AcDbEntity
8
0
100
AcDbCircle
10
2.2204460492503131e-15
20
11.313708498984759
30
0
40
0.99999999999999956
210
-0
220
0
230
1
0
CIRCLE
5
113
100
AcDbEntity
8
0
100
AcDbCircle
10
11.313708498984759
20
-4.4408920985006262e-15
30
0
40
0.99999999999999956
210
-0
220
0
230
1
0
CIRCLE
5
114
100
AcDbEntity
8
0
100
AcDbCircle
10
-11.313708498984759
20
4.4408920985006262e-15
30
0
40
0.99999999999999956
210
-0
220
0
230
1
0
CIRCLE
5
115
100
AcDbEntity
8
0
100
AcDbCircle
10
-3.3306690738754696e-15
20
-11.313708498984759
30
0
40
0.99999999999999956
210
-0
220
0
230
1
0
CIRCLE
5
116
100
AcDbEntity
8
0
100
AcDbCircle
10
-3.1819805153394709
20
-65.681980515339461
30
0
40
1
210
0
220
0
230
1
0
CIRCLE
5
117
100
AcDbEntity
8
0
100
AcDbCircle
10
3.181980515339462
20
-65.681980515339461
30
0
40
1
210
0
220
-0
230
1
0
CIRCLE
5
118
100
AcDbEntity
8
0
100
AcDbCircle
10
-3.1819805153394665
20
-59.318019484660525
30
0
40
1
210
0
220
0
230
1
0
CIRCLE
5
119
100
AcDbEntity
8
0
100
AcDbCircle
10
-4.4408920985006262e-15
20
-62.499999999999986
30
0
40
2.2500000000000004
210
0
220
-0
230
1
0
LINE
5
120
100
AcDbEntity
8
0
100
AcDbLine
10
-50.788270560524886
20
-2.3999999999999932
30
0
11
-18.921023527315487
21
-2.3999999999999977
31
0
0
SPLINE
5
121
100
AcDbEntity
8
0
100
AcDbSpline
70
4
71
5
72
15
73
9
74
0
42
0.000000001
43
0.0000000001
44
0.0000000001
40
0.11489326631317795
40
0.11489326631317795
40
0.11489326631317795
40
0.11489326631317795
40
0.11489326631317795
40
0.11489326631317795
40
0.20000000000000001
40
0.30000000000000004
40
0.40000000000000002
40
0.42825652104958695
40
0.42825652104958695
40
0.42825652104958695
40
0.42825652104958695
40
0.42825652104958695
40
0.42825652104958695
41
1
41
1
41
1
41
1
41
1
41
1
41
1
41
1
41
1
10
-18.921023527315356
20
-2.4000000000000234
30
0
10
-18.354312798129129
20
-2.5170697343634627
30
0
10
-17.153429940186658
20
-2.8166279906388221
30
0
10
-15.405875446837413
20
-3.4234918452268603
30
0
10
-13.639319475260514
20
-4.3137248525270131
30
0
10
-12.009268994601427
20
-5.4044636390349607
30
0
10
-10.884601115381795
20
-6.2879615508588831
30
0
10
-10.271700048543742
20
-6.8099834563082577
30
0
10
-10.137589402127819
20
-6.9262081191376224
30
0
0
SPLINE
5
122
100
AcDbEntity
8
0
100
AcDbSpline
70
4
71
5
72
13
73
7
74
0
42
0.000000001
43
0.0000000001
44
0.0000000001
40
0.42825652104958695
40
0.42825652104958695
40
0.42825652104958695
40
0.42825652104958695
40
0.42825652104958695
40
0.42825652104958695
40
0.5
40
0.57201111577180341
40
0.57201111577180341
40
0.57201111577180341
40
0.57201111577180341
40
0.57201111577180341
40
0.57201111577180341
41
1
41
1
41
1
41
1
41
1
41
1
41
1
10
-10.137589402127819
20
-6.9262081191376224
30
0
10
-9.7970816545080002
20
-7.2213032455540898
30
0
10
-9.1266687033778489
20
-7.8283104643548569
30
0
10
-8.4796981851754651
20
-8.4651476138026833
30
0
10
-7.8563606359289526
20
-9.129011413516702
30
0
10
-7.2591772823181611
20
-9.8185170884432633
30
0
10
-6.9670171338375511
20
-10.170245181719878
30
0
0
SPLINE
5
123
100
AcDbEntity
8
0
100
AcDbSpline
70
4
71
5
72
15
73
9
74
0
42
0.000000001
43
0.0000000001
44
0.0000000001
40
0.57201111577230568
40
0.57201111577230568
40
0.57201111577230568
40
0.57201111577230568
40
0.57201111577230568
40
0.57201111577230568
40
0.59999999999999998
40
0.69999999999999996
40
0.79999999999999993
40
0.88700219529191682
40
0.88700219529191682
40
0.88700219529191682
40
0.88700219529191682
40
0.88700219529191682
40
0.88700219529191682
41
1
41
1
41
1
41
1
41
1
41
1
41
1
41
1
41
1
10
-6.9670171338273619
20
-10.170245181732145
30
0
10
-6.853461934965047
20
-10.306952921597583
30
0
10
-6.3390183802623827
20
-10.936471677716884
30
0
10
-5.4628785582312043
20
-12.093262782909708
30
0
10
-4.3629288151142829
20
-13.776875133533085
30
0
10
-3.4538860091625505
20
-15.581250835002569
30
0
10
-2.8300035601101738
20
-17.335622412932274
30
0
10
-2.5214509472132129
20
-18.528780317324717
30
0
10
-2.4000000000000172
20
-19.095003374045806
30
0
0
LINE
5
124
100
AcDbEntity
8
0
100
AcDbLine
10
-2.4000000000000172
20
-19.095003374045806
30
0
11
-2.4000000000000155
21
-50.788270560524907
31
0
0
ARC
5
125
100
AcDbEntity
8
0
100
AcDbCircle
10
-10.400000000000013
20
-50.788270560524893
30
0
40
7.9999999999999982
210
-0
220
0
230
1
100
AcDbArc
50
316.04141670580634
51
360
0
ARC
5
126
100
AcDbEntity
8
0
100
AcDbCircle
10
-1.0420572287178516
20
-59.812067271965589
30
0
40
5.0000000000000036
210
0
220
0
230
1
100
AcDbArc
50
136.04141670580643
51
194.93141659360379
0
LINE
5
127
100
AcDbEntity
8
0
100
AcDbLine
10
-5.873231939867507
20
-61.100380475479419
30
0
11
-5.8466574241120961
21
-61.200034913645865
31
0
0
ARC
5
128
100
AcDbEntity
8
0
100
AcDbCircle
10
-10.677832135261745
20
-62.488348117159696
30
0
40
4.9999999999999991
210
-0
220
0
230
1
100
AcDbArc
50
-15.189286132954715
51
14.931416593603798
0
LINE
5
129
100
AcDbEntity
8
0
100
AcDbLine
10
-5.8525046105292944
20
-63.798391734395167
30
0
11
-7.4650655049464909
21
-69.737991276552904
31
0
0
ARC
5
130
100
AcDbEntity
8
0
100
AcDbCircle
10
-6.500000000000008
20
-69.999999999999986
30
0
40
0.99999999999998868
210
0
220
0
230
1
100
AcDbArc
50
164.81071386704593
51
291.61611480789338
0
LINE
5
131
100
AcDbEntity
8
0
100
AcDbLine
10
-6.1316139562397085
20
-70.929672911707442
30
0
11
-0.88740046009143203
21
-68.851635530869629
31
0
0
ARC
5
132
100
AcDbEntity
8
0
100
AcDbCircle
10
0.95452975871007872
20
-73.500000089406953
30
0
40
5
210
0
220
-0
230
1
100
AcDbArc
50
90
51
111.61611480789333
0
LINE
5
133
100
AcDbEntity
8
0
100
AcDbLine
10
0.95452975871007928
20
-68.500000089406953
30
0
11
4.6064864998600319
21
-68.500000089406953
31
0
0
ARC
5
134
100
AcDbEntity
8
0
100
AcDbCircle
10
4.6064864998600328
20
-66.500000089406953
30
0
40
2.0000000000000018
210
0
220
0
230
1
100
AcDbArc
50
-90
51
20.695450626976616
0
LINE
5
135
100
AcDbEntity
8
0
100
AcDbLine
10
6.4774306885146959
20
-65.793198955466622
30
0
11
2.9162232433401947
21
-56.366473312005297
31
0
0
ARC
5
136
100
AcDbEntity
8
0
100
AcDbCircle
10
10.399999997958842
20
-53.539268776243951
30
0
40
8.0000000000000018
210
0
220
0
230
1
100
AcDbArc
50
180
51
200.69545062697679
0
LINE
5
137
100
AcDbEntity
8
0
100
AcDbLine
10
2.3999999979588402
20
-53.539268760349373
30
0
11
2.3999999999999977
21
-18.496489684367496
31
0
0
ARC
5
138
100
AcDbEntity
8
0
100
AcDbCircle
10
7.8999999999999959
20
-18.496489684367496
30
0
40
5.5000000000000027
210
0
220
-0
230
1
100
AcDbArc
50
47.92189830589242
51
180
0
ARC
5
139
100
AcDbEntity
8
0
100
AcDbCircle
10
12.999999999999996
20
-13.000000000000007
30
0
40
1.9999999999999993
210
0
220
0
230
1
100
AcDbArc
50
-135.00000000000006
51
42.843643043596408
0
ARC
5
140
100
AcDbEntity
8
0
100
AcDbCircle
10
18.499090833947005
20
-7.9000000000000057
30
0
40
5.4999999999999991
210
0
220
-0
230
1
100
AcDbArc
50
89.999999999999972
51
222.8436430435963
0
LINE
5
141
100
AcDbEntity
8
0
100
AcDbLine
10
18.499090833947008
20
-2.4000000000000066
30
0
11
53.539268760349366
21
-2.3999999979588482
31
0
0
ARC
5
142
100
AcDbEntity
8
0
100
AcDbCircle
10
53.539268776243944
20
-10.399999997958957
30
0
40
8.0000000000001101
210
0
220
-0
230
1
100
AcDbArc
50
69.304549373023292
51
90.000000113836521
0
LINE
5
143
100
AcDbEntity
8
0
100
AcDbLine
10
56.366473312005319
20
-2.9162232433402027
30
0
11
65.793198955466622
21
-6.4774306885146959
31
0
0
ARC
5
144
100
AcDbEntity
8
0
100
AcDbCircle
10
66.500000089406953
20
-4.6064864998600408
30
0
40
1.9999999999999942
210
0
220
0
230
1
100
AcDbArc
50
-110.69545062697669
51
0
0
LINE
5
145
100
AcDbEntity
8
0
100
AcDbLine
10
68.500000089406953
20
-4.6064864998600408
30
0
11
68.500000089406953
21
-0.95452975871008761
31
0
0
ARC
5
146
100
AcDbEntity
8
0
100
AcDbCircle
10
73.500000089407166
20
-0.95452975871013113
30
0
40
5.0000000000002043
210
0
220
0
230
1
100
AcDbArc
50
158.38388519210716
51
180
0
LINE
5
147
100
AcDbEntity
8
0
100
AcDbLine
10
68.851635530869643
20
0.88740046009141738
30
0
11
70.929672911707456
21
6.1316139562396943
31
0
0
ARC
5
148
100
AcDbEntity
8
0
100
AcDbCircle
10
69.999999999999972
20
6.4999999999999902
30
0
40
1.0000000000000193
210
0
220
0
230
1
100
AcDbArc
50
-21.616114807892576
51
105.18928613295394
0
LINE
5
149
100
AcDbEntity
8
0
100
AcDbLine
10
69.73799127655289
20
7.4650655049464856
30
0
11
63.798391734395153
21
5.8525046105292899
31
0
0
ARC
5
150
100
AcDbEntity
8
0
100
AcDbCircle
10
62.488348117159696
20
10.677832135261774
30
0
40
5.0000000000000373
210
0
220
0
230
1
100
AcDbArc
50
255.0685834063963
51
285.18928613295446
0
LINE
5
151
100
AcDbEntity
8
0
100
AcDbLine
10
61.200034913645865
20
5.846657424112081
30
0
11
61.100380475479426
21
5.8732319398674981
31
0
0
ARC
5
152
100
AcDbEntity
8
0
100
AcDbCircle
10
59.812067271965589
20
1.0420572287178453
30
0
40
5.0000000000000009
210
0
220
-0
230
1
100
AcDbArc
50
75.068583406396129
51
133.95858329419374
0
ARC
5
153
100
AcDbEntity
8
0
100
AcDbCircle
10
50.788270560524879
20
10.399999999999991
30
0
40
8
210
-0
220
0
230
1
100
AcDbArc
50
270
51
313.95858329419372
0
LINE
5
154
100
AcDbEntity
8
0
100
AcDbLine
10
50.788270560524879
20
2.399999999999991
30
0
11
18.496489684367496
21
2.3999999999999955
31
0
0
ARC
5
155
100
AcDbEntity
8
0
100
AcDbCircle
10
18.496489684367493
20
7.8999999999999879
30
0
40
5.5000000000000018
210
0
220
0
230
1
100
AcDbArc
50
137.92189830589234
51
270.00000000000006
0
ARC
5
156
100
AcDbEntity
8
0
100
AcDbCircle
10
13.000000000000009
20
12.999999999999993
30
0
40
1.9999999999999993
210
-0
220
0
230
1
100
AcDbArc
50
-45
51
132.84364304359642
0
ARC
5
157
100
AcDbEntity
8
0
100
AcDbCircle
10
7.9000000000000021
20
18.499090833946997
30
0
40
5.5
210
0
220
0
230
1
100
AcDbArc
50
180
51
312.84364304359644
0
LINE
5
158
100
AcDbEntity
8
0
100
AcDbLine
10
2.4000000000000021
20
18.499090833946997
30
0
11
2.400000000000011
21
50.788270560524893
31
0
0
ARC
5
159
100
AcDbEntity
8
0
100
AcDbCircle
10
10.400000000000006
20
50.788270560524886
30
0
40
8
210
0
220
0
230
1
100
AcDbArc
50
136.04141670580628
51
180
0
ARC
5
160
100
AcDbEntity
8
0
100
AcDbCircle
10
1.0420572287178516
20
59.812067271965589
30
0
40
5.0000000000000009
210
0
220
0
230
1
100
AcDbArc
50
-43.958583294193602
51
14.931416593603798
0
LINE
5
161
100
AcDbEntity
8
0
100
AcDbLine
10
5.873231939867507
20
61.100380475479419
30
0
11
5.8466574241120961
21
61.200034913645865
31
0
0
ARC
5
162
100
AcDbEntity
8
0
100
AcDbCircle
10
10.677832135261745
20
62.488348117159696
30
0
40
4.9999999999999991
210
0
220
0
230
1
100
AcDbArc
50
164.81071386704534
51
194.93141659360379
0
LINE
5
163
100
AcDbEntity
8
0
100
AcDbLine
10
5.8525046105292944
20
63.798391734395167
30
0
11
7.4650655049464909
21
69.737991276552904
31
0
0
ARC
5
164
100
AcDbEntity
8
0
100
AcDbCircle
10
6.500000000000008
20
69.999999999999986
30
0
40
0.99999999999998868
210
-0
220
0
230
1
100
AcDbArc
50
-15.189286132954104
51
111.61611480789337
0
LINE
5
165
100
AcDbEntity
8
0
100
AcDbLine
10
6.1316139562397085
20
70.929672911707442
30
0
11
0.88740046009143203
21
68.851635530869629
31
0
0
ARC
5
166
100
AcDbEntity
8
0
100
AcDbCircle
10
-0.95452975871007872
20
73.500000089406953
30
0
40
5
210
0
220
0
230
1
100
AcDbArc
50
270
51
291.61611480789333
0
LINE
5
167
100
AcDbEntity
8
0
100
AcDbLine
10
-0.95452975871007928
20
68.500000089406953
30
0
11
-4.6064864998600319
21
68.500000089406953
31
0
0
ARC
5
168
100
AcDbEntity
8
0
100
AcDbCircle
10
-4.6064864998600328
20
66.500000089406953
30
0
40
2.0000000000000018
210
0
220
-0
230
1
100
AcDbArc
50
89.999999999999972
51
200.69545062697659
0
LINE
5
169
100
AcDbEntity
8
0
100
AcDbLine
10
-6.4774306885146959
20
65.793198955466622
30
0
11
-2.9162232433401947
21
56.366473312005297
31
0
0
ARC
5
170
100
AcDbEntity
8
0
100
AcDbCircle
10
-10.399999997958842
20
53.539268776243951
30
0
40
8.0000000000000018
210
-0
220
0
230
1
100
AcDbArc
50
0
51
20.695450626976779
0
LINE
5
171
100
AcDbEntity
8
0
100
AcDbLine
10
-2.3999999979588402
20
53.539268760349373
30
0
11
-2.3999999999999986
21
18.496489684367496
31
0
0
ARC
5
172
100
AcDbEntity
8
0
100
AcDbCircle
10
-7.8999999999999959
20
18.496489684367493
30
0
40
5.5
210
0
220
0
230
1
100
AcDbArc
50
-132.07810169410757
51
0
0
ARC
5
173
100
AcDbEntity
8
0
100
AcDbCircle
10
-12.999999999999998
20
13.000000000000005
30
0
40
2.0000000000000009
210
0
220
-0
230
1
100
AcDbArc
50
44.999999999999922
51
222.8436430435963
0
ARC
5
174
100
AcDbEntity
8
0
100
AcDbCircle
10
-18.499090833947012
20
7.9000000000000057
30
0
40
5.4999999999999982
210
0
220
0
230
1
100
AcDbArc
50
-90.000000000000057
51
42.843643043596309
0
LINE
5
175
100
AcDbEntity
8
0
100
AcDbLine
10
-18.499090833947015
20
2.4000000000000075
30
0
11
-53.539268760349366
21
2.3999999979588482
31
0
0
ARC
5
176
100
AcDbEntity
8
0
100
AcDbCircle
10
-53.539268776243944
20
10.399999997958957
30
0
40
8.0000000000001101
210
0
220
0
230
1
100
AcDbArc
50
249.30454937302332
51
270.00000011383656
0
LINE
5
177
100
AcDbEntity
8
0
100
AcDbLine
10
-56.366473312005319
20
2.9162232433402027
30
0
11
-65.793198955466622
21
6.4774306885146959
31
0
0
ARC
5
178
100
AcDbEntity
8
0
100
AcDbCircle
10
-66.500000089406953
20
4.6064864998600408
30
0
40
1.9999999999999942
210
0
220
-0
230
1
100
AcDbArc
50
69.304549373023278
51
180
0
LINE
5
179
100
AcDbEntity
8
0
100
AcDbLine
10
-68.500000089406953
20
4.6064864998600408
30
0
11
-68.500000089406953
21
0.95452975871008761
31
0
0
ARC
5
180
100
AcDbEntity
8
0
100
AcDbCircle
10
-73.500000089407166
20
0.95452975871013113
30
0
40
5.0000000000002043
210
0
220
0
230
1
100
AcDbArc
50
338.38388519210707
51
360
0
LINE
5
181
100
AcDbEntity
8
0
100
AcDbLine
10
-68.851635530869643
20
-0.88740046009141738
30
0
11
-70.929672911707456
21
-6.1316139562396943
31
0
0
ARC
5
182
100
AcDbEntity
8
0
100
AcDbCircle
10
-69.999999999999972
20
-6.4999999999999902
30
0
40
1.0000000000000193
210
0
220
0
230
1
100
AcDbArc
50
158.38388519210744
51
285.18928613295395
0
LINE
5
183
100
AcDbEntity
8
0
100
AcDbLine
10
-69.73799127655289
20
-7.4650655049464856
30
0
11
-63.798391734395153
21
-5.8525046105292899
31
0
0
ARC
5
184
100
AcDbEntity
8
0
100
AcDbCircle
10
-62.488348117159696
20
-10.677832135261774
30
0
40
5.0000000000000373
210
0
220
-0
230
1
100
AcDbArc
50
75.068583406396328
51
105.18928613295446
0
LINE
5
185
100
AcDbEntity
8
0
100
AcDbLine
10
-61.200034913645865
20
-5.846657424112081
30
0
11
-61.100380475479426
21
-5.8732319398674981
31
0
0
ARC
5
186
100
AcDbEntity
8
0
100
AcDbCircle
10
-59.812067271965589
20
-1.0420572287178453
30
0
40
5.0000000000000009
210
0
220
0
230
1
100
AcDbArc
50
255.06858340639616
51
313.9585832941936
0
ARC
5
187
100
AcDbEntity
8
0
100
AcDbCircle
10
-50.788270560524893
20
-10.399999999999995
30
0
40
8.0000000000000036
210
0
220
-0
230
1
100
AcDbArc
50
89.999999999999943
51
133.95858329419372
0
CIRCLE
5
188
100
AcDbEntity
8
0
100
AcDbCircle
10
-62.499999999999986
20
4.4408920985006262e-15
30
0
40
2.2500000000000004
210
-0
220
0
230
1
0
CIRCLE
5
189
100
AcDbEntity
8
0
100
AcDbCircle
10
-59.318019484660525
20
-3.1819805153394576
30
0
40
1
210
0
220
0
230
1
0
CIRCLE
5
190
100
AcDbEntity
8
0
100
AcDbCircle
10
-65.681980515339461
20
3.1819805153394709
30
0
40
1
210
-0
220
0
230
1
0
CIRCLE
5
191
100
AcDbEntity
8
0
100
AcDbCircle
10
-65.681980515339461
20
-3.181980515339462
30
0
40
1
210
0
220
0
230
1
0
ENDSEC
0
SECTION
2
OBJECTS
0
DICTIONARY
5
C
100
AcDbDictionary
3
ACAD_GROUP
350
D
3
ACAD_MLINESTYLE
350
17
0
DICTIONARY
5
D
100
AcDbDictionary
0
DICTIONARY
5
1A
330
C
100
AcDbDictionary
0
DICTIONARY
5
17
100
AcDbDictionary
0
ENDSEC
0
EOF
