0
SECTION
2
HEADER
9
$INSUNITS
70
4
9
$ACADVER
1
AC1014
9
$HANDSEED
5
FFFF
0
ENDSEC
0
SECTION
2
TABLES
0
TABLE
2
VPORT
5
8
100
AcDbSymbolTable
0
ENDTAB
0
TABLE
2
LTYPE
5
5
100
AcDbSymbolTable
0
LTYPE
5
14
100
AcDbSymbolTableRecord
100
AcDbLinetypeTableRecord
2
BYBLOCK
70
0
0
LTYPE
5
15
100
AcDbSymbolTableRecord
100
AcDbLinetypeTableRecord
2
BYLAYER
70
0
0
ENDTAB
0
TABLE
2
LAYER
5
2
100
AcDbSymbolTable
70
2
0
LAYER
5
50
100
AcDbSymbolTableRecord
100
AcDbLayerTableRecord
2
0
70
0
6
CONTINUOUS
0
ENDTAB
0
TABLE
2
STYLE
5
3
100
AcDbSymbolTable
70
1
0
STYLE
5
11
100
AcDbSymbolTableRecord
100
AcDbTextStyleTableRecord
2
STANDARD
70
0
0
ENDTAB
0
TABLE
2
VIEW
5
6
100
AcDbSymbolTable
70
0
0
ENDTAB
0
TABLE
2
UCS
5
7
100
AcDbSymbolTable
70
0
0
ENDTAB
0
TABLE
2
APPID
5
9
100
AcDbSymbolTable
70
2
0
APPID
5
12
100
AcDbSymbolTableRecord
100
AcDbRegAppTableRecord
2
ACAD
70
0
0
ENDTAB
0
TABLE
2
DIMSTYLE
5
A
100
AcDbSymbolTable
70
1
0
ENDTAB
0
TABLE
2
BLOCK_RECORD
5
1
100
AcDbSymbolTable
70
1
0
BLOCK_RECORD
5
1F
100
AcDbSymbolTableRecord
100
AcDbBlockTableRecord
2
*MODEL_SPACE
0
BLOCK_RECORD
5
1B
100
AcDbSymbolTableRecord
100
AcDbBlockTableRecord
2
*PAPER_SPACE
0
ENDTAB
0
ENDSEC
0
SECTION
2
BLOCKS
0
BLOCK
5
20
100
AcDbEntity
100
AcDbBlockBegin
2
*MODEL_SPACE
0
ENDBLK
5
21
100
AcDbEntity
100
AcDbBlockEnd
0
BLOCK
5
1C
100
AcDbEntity
100
AcDbBlockBegin
2
*PAPER_SPACE
0
ENDBLK
5
1D
100
AcDbEntity
100
AcDbBlockEnd
0
ENDSEC
0
SECTION
2
ENTITIES
0
LWPOLYLINE
5
100
100
AcDbEntity
8
0
100
AcDbPolyline
90
12
70
1
43
0.0
10
3.7057117246248983
20
-7.0899718344981864
42
-0.30681888136948643
10
5.9345708301845912
20
-7.3446792233066276
42
0.92655032088913114
10
7.3446792233066285
20
-5.9345708301845912
42
-0.30681888136948654
10
7.0899718344981908
20
-3.7057117246248925
42
0.2455744626476386
10
7.0899718344981881
20
3.7057117246249005
42
-0.30681888136948637
10
7.3446792233066294
20
5.9345708301845885
42
0.92655032088913214
10
5.9345708301845912
20
7.3446792233066285
42
-0.30681888136948654
10
3.7057117246248938
20
7.0899718344981935
42
0.24557446264763866
10
-3.7057117246249005
20
7.0899718344981881
42
-0.30681888136948637
10
-5.9345708301845885
20
7.3446792233066294
42
0.92655032088913214
10
-7.3446792233066276
20
5.9345708301845921
42
-0.30681888136948565
10
-7.0899718344981881
20
3.7057117246248983
42
0.73450174282021763
0
LWPOLYLINE
5
101
100
AcDbEntity
8
0
100
AcDbPolyline
90
4
70
1
43
0.0
10
-2.3480084597774065
20
-48.733536615602688
42
-0.8451542547285088
10
-3.1368190975240369
20
-50.099796717730634
10
-4.2457833983241997
20
-49.68724589716328
42
-1.1832159566199218
10
-3.2597701011409286
20
-47.979420769503349
0
LWPOLYLINE
5
102
100
AcDbEntity
8
0
100
AcDbPolyline
90
4
70
1
43
0.0
10
-0.78881063774662863
20
-54.166666666666671
42
-0.84515425472851868
10
0.78881063774660776
20
-54.166666666666671
10
0.98601329718326625
20
-55.333333333333329
42
-1.1832159566199068
10
-0.98601329718327357
20
-55.333333333333321
0
CIRCLE
5
103
100
AcDbEntity
8
0
100
AcDbCircle
10
0
20
-51
30
0
40
2
210
0
220
-0
230
1
0
LWPOLYLINE
5
104
100
AcDbEntity
8
0
100
AcDbPolyline
90
4
70
1
43
0.0
10
3.1368190975240262
20
-50.099796717730626
42
-0.84515425472851435
10
2.3480084597774162
20
-48.733536615602688
10
3.2597701011409415
20
-47.979420769503363
42
-1.183215956619921
10
4.2457833983242077
20
-49.687245897163301
0
LINE
5
105
100
AcDbEntity
8
0
100
AcDbLine
10
1.9999999999999951
20
-39.32749872678955
30
0
11
1.9999999999999973
21
-18.107147955397963
31
0
0
SPLINE
5
106
100
AcDbEntity
8
0
100
AcDbSpline
70
0
71
3
72
20
73
16
74
0
42
0.000000001
43
0.0000000001
44
0.0000000001
40
0
40
0
40
0
40
0
40
0.21485446036281003
40
0.21485446036281003
40
0.42970892072562028
40
0.42970892072562028
40
0.64456338108843059
40
0.64456338108843059
40
0.85941784145124089
40
0.85941784145124089
40
1.074272301814051
40
1.074272301814051
40
1.1861065064053278
40
1.1861065064053278
40
1.2979407109966044
40
1.2979407109966044
40
1.2979407109966044
40
1.2979407109966044
10
11.378252769386052
20
-14.207256231676714
30
0
10
10.870429053159681
20
-13.702250228090648
30
0
10
10.268821506281682
20
-13.301261621247715
30
0
10
8.9457641209226182
20
-12.752460093619939
30
0
10
8.2369634321675722
20
-12.609894014559153
30
0
10
6.8046105932663989
20
-12.604480460135077
30
0
10
6.094752516952779
20
-12.741684741302697
30
0
10
4.7675846157094632
20
-13.280469785257301
30
0
10
4.162963239278044
20
-13.676899469363537
30
0
10
3.1397102833526169
20
-14.679205485443267
30
0
10
2.7308615598332042
20
-15.275499225604056
30
0
10
2.3004684799537944
20
-16.275799433434774
30
0
10
2.1883283893242513
20
-16.632322495490229
30
0
10
2.0378996645956429
20
-17.362550505210038
30
0
10
1.9999999999999973
20
-17.73436727342704
30
0
10
1.9999999999999973
20
-18.107147955397963
30
0
0
SPLINE
5
107
100
AcDbEntity
8
0
100
AcDbSpline
70
4
71
5
72
12
73
6
74
0
42
0.000000001
43
0.0000000001
44
0.0000000001
40
-0.0096996727611142249
40
-0.0096996727611142249
40
-0.0096996727611142249
40
-0.0096996727611142249
40
-0.0096996727611142249
40
-0.0096996727611142249
40
0
40
0
40
0
40
0
40
0
40
0
41
1
41
1
41
1
41
1
41
1
41
1
10
11.378252769386057
20
-14.20725623167672
30
0
10
11.419846919730798
20
-14.248619592557629
30
0
10
11.461397377439638
20
-14.289997211889327
30
0
10
11.502904121724359
20
-14.331388816753208
30
0
10
11.544367141875529
20
-14.372794267351111
30
0
10
11.585786437626899
20
-14.414213562373103
30
0
0
ARC
5
108
100
AcDbEntity
8
0
100
AcDbCircle
10
12.999999999999996
20
-13.000000000000007
30
0
40
2.0000000000000022
210
0
220
0
230
1
100
AcDbArc
50
-135.00000000000006
51
45
0
SPLINE
5
109
100
AcDbEntity
8
0
100
AcDbSpline
70
4
71
5
72
12
73
6
74
0
42
0.000000001
43
0.0000000001
44
0.0000000001
40
-1
40
-1
40
-1
40
-1
40
-1
40
-1
40
-0.99030032723888817
40
-0.99030032723888817
40
-0.99030032723888817
40
-0.99030032723888817
40
-0.99030032723888817
40
-0.99030032723888817
41
1
41
1
41
1
41
1
41
1
41
1
10
14.414213562373085
20
-11.585786437626917
30
0
10
14.372794267351104
20
-11.544367141875554
30
0
10
14.331388816753211
20
-11.502904121724395
30
0
10
14.289997211889338
20
-11.461397377439685
30
0
10
14.248619592557652
20
-11.419846919730851
30
0
10
14.207256231676748
20
-11.378252769386121
30
0
0
SPLINE
5
110
100
AcDbEntity
8
0
100
AcDbSpline
70
0
71
3
72
20
73
16
74
0
42
0.000000001
43
0.0000000001
44
0.0000000001
40
0
40
0
40
0
40
0
40
0.21485446036281008
40
0.21485446036281008
40
0.42970892072562017
40
0.42970892072562017
40
0.64456338108843048
40
0.64456338108843048
40
0.85941784145124056
40
0.85941784145124056
40
1.0742723018140508
40
1.0742723018140508
40
1.1861065064053311
40
1.1861065064053311
40
1.2979407109966115
40
1.2979407109966115
40
1.2979407109966115
40
1.2979407109966115
10
18.107147955397931
20
-2.0000000000000062
30
0
10
17.390966420855232
20
-2.0000000000000062
30
0
10
16.681631972131854
20
-2.1398861792054449
30
0
10
15.356509864579891
20
-2.683683348889867
30
0
10
14.753391095346849
20
-3.0823953420343084
30
0
10
13.733933620016536
20
-4.0885615398728685
30
0
10
13.327341483030683
20
-4.686396247312703
30
0
10
12.766202114807669
20
-6.0042682331709756
30
0
10
12.617019681775306
20
-6.7117059371088814
30
0
10
12.59822338151106
20
-8.1439456728989921
30
0
10
12.728789217154482
20
-8.8550547122460763
30
0
10
13.128958424621452
20
-9.8678248314683721
30
0
10
13.300840668516562
20
-10.199699187117302
30
0
10
13.709086679862047
20
-10.823555694355436
30
0
10
13.944394829453584
20
-11.113924715498559
30
0
10
14.207256231676748
20
-11.378252769386121
30
0
0
LINE
5
111
100
AcDbEntity
8
0
100
AcDbLine
10
18.107147955397931
20
-2.0000000000000062
30
0
11
39.327498726789571
21
-2.0000000000000195
31
0
0
ARC
5
112
100
AcDbEntity
8
0
100
AcDbCircle
10
39.327498726789571
20
-9.0000000000000195
30
0
40
6.9999999999999964
210
0
220
-0
230
1
100
AcDbArc
50
28.404060842268034
51
90
0
LINE
5
113
100
AcDbEntity
8
0
100
AcDbLine
10
45.484802752103512
20
-5.6701941288038178
30
0
11
46.229423307060131
21
-7.0471077741386035
31
0
0
ARC
5
114
100
AcDbEntity
8
0
100
AcDbCircle
10
47.250000000000007
20
-6.4951905283833069
30
0
40
1.1602540378443884
210
0
220
0
230
1
100
AcDbArc
50
208.40406094647884
51
310.43752924094844
0
SPLINE
5
115
100
AcDbEntity
8
0
100
AcDbSpline
70
4
71
5
72
21
73
15
74
0
42
0.000000001
43
0.0000000001
44
0.0000000001
40
-1
40
-1
40
-1
40
-1
40
-1
40
-1
40
-0.89999999999999991
40
-0.79999999999999993
40
-0.69999999999999996
40
-0.59999999999999998
40
-0.5
40
-0.40000000000000002
40
-0.30000000000000004
40
-0.20000000000000001
40
-0.10000000000000001
40
0
40
0
40
0
40
0
40
0
40
0
41
1
41
1
41
1
41
1
41
1
41
1
41
1
41
1
41
1
41
1
41
1
41
1
41
1
41
1
41
1
10
58.813185659927257
20
-1.4946774803531682
30
0
10
58.595651466306471
20
-1.513063269314463
30
0
10
58.156170807708577
20
-1.5732379150180442
30
0
10
57.483714605524327
20
-1.7337033555239456
30
0
10
56.564997023638156
20
-2.0758270594997486
30
0
10
55.403127883252196
20
-2.6523517658648021
30
0
10
54.25531841204679
20
-3.3017151541263878
30
0
10
53.145336282257276
20
-3.9569702892511671
30
0
10
52.084858690388572
20
-4.5802632682308442
30
0
10
51.064235280466363
20
-5.1838430218244902
30
0
10
50.061770051117762
20
-5.8100167922163903
30
0
10
49.253782904493271
20
-6.3724763902932535
30
0
10
48.634529361090948
20
-6.8507136345597131
30
0
10
48.21442893940079
20
-7.1977237069142541
30
0
10
48.002562322175706
20
-7.3782756791902848
30
0
0
ARC
5
116
100
AcDbEntity
8
0
100
AcDbCircle
10
58.686933394013757
20
2.3592239273284576e-15
30
0
40
1.5000001349743926
210
-0
220
0
230
1
100
AcDbArc
50
-85.171806909744348
51
85.171806909744674
0
SPLINE
5
117
100
AcDbEntity
8
0
100
AcDbSpline
70
4
71
5
72
21
73
15
74
0
42
0.000000001
43
0.0000000001
44
0.0000000001
40
0
40
0
40
0
40
0
40
0
40
0
40
0.10000000000000001
40
0.20000000000000001
40
0.30000000000000004
40
0.40000000000000002
40
0.5
40
0.59999999999999998
40
0.69999999999999996
40
0.79999999999999993
40
0.89999999999999991
40
1
40
1
40
1
40
1
40
1
40
1
41
1
41
1
41
1
41
1
41
1
41
1
41
1
41
1
41
1
41
1
41
1
41
1
41
1
41
1
41
1
10
48.002562322175677
20
7.3782756791902626
30
0
10
48.214428939400761
20
7.1977237069142364
30
0
10
48.634529361090927
20
6.8507136345596864
30
0
10
49.253782904493264
20
6.3724763902932358
30
0
10
50.061770051117747
20
5.8100167922163726
30
0
10
51.064235280466349
20
5.1838430218244769
30
0
10
52.084858690388565
20
4.5802632682308309
30
0
10
53.145336282257254
20
3.9569702892511582
30
0
10
54.25531841204679
20
3.3017151541263878
30
0
10
55.403127883252182
20
2.6523517658647977
30
0
10
56.564997023638156
20
2.0758270594997486
30
0
10
57.483714605524305
20
1.7337033555239456
30
0
10
58.156170807708577
20
1.5732379150180442
30
0
10
58.595651466306471
20
1.5130632693144719
30
0
10
58.81318565992725
20
1.4946774803531726
30
0
0
ARC
5
118
100
AcDbEntity
8
0
100
AcDbCircle
10
47.249999999999979
20
6.4951905283832811
30
0
40
1.1602540378444162
210
0
220
-0
230
1
100
AcDbArc
50
49.562470759051813
51
151.59593903003989
0
LINE
5
119
100
AcDbEntity
8
0
100
AcDbLine
10
46.229423307286304
20
7.0471077745568298
30
0
11
45.484802750009564
21
5.6701941262804167
31
0
0
ARC
5
120
100
AcDbEntity
8
0
100
AcDbCircle
10
39.327498726060227
20
8.999999999999984
30
0
40
7.0000000000000018
210
-0
220
0
230
1
100
AcDbArc
50
270.00000000000006
51
331.5959391342513
0
LINE
5
121
100
AcDbEntity
8
0
100
AcDbLine
10
39.327498726060234
20
1.9999999999999818
30
0
11
18.107147955397945
21
1.9999999999999973
31
0
0
SPLINE
5
122
100
AcDbEntity
8
0
100
AcDbSpline
70
0
71
3
72
20
73
16
74
0
42
0.000000001
43
0.0000000001
44
0.0000000001
40
0
40
0
40
0
40
0
40
0.21485446036281119
40
0.21485446036281119
40
0.42970892072562084
40
0.42970892072562084
40
0.64456338108843081
40
0.64456338108843081
40
0.85941784145124067
40
0.85941784145124067
40
1.0742723018140503
40
1.0742723018140503
40
1.1861065064053264
40
1.1861065064053264
40
1.297940710996603
40
1.297940710996603
40
1.297940710996603
40
1.297940710996603
10
14.207256231676714
20
11.378252769386048
30
0
10
13.702250228090644
20
10.870429053159672
30
0
10
13.30126162124772
20
10.268821506281672
30
0
10
12.752460093619939
20
8.9457641209226022
30
0
10
12.609894014559156
20
8.236963432167558
30
0
10
12.604480460135079
20
6.8046105932663892
30
0
10
12.741684741302699
20
6.0947525169527701
30
0
10
13.280469785257301
20
4.767584615709457
30
0
10
13.676899469363537
20
4.1629632392780396
30
0
10
14.679205485443267
20
3.1397102833526147
30
0
10
15.275499225604054
20
2.7308615598332056
30
0
10
16.27579943343477
20
2.3004684799537967
30
0
10
16.632322495490225
20
2.1883283893242544
30
0
10
17.362550505210027
20
2.037899664595646
30
0
10
17.734367273427026
20
1.9999999999999962
30
0
10
18.107147955397949
20
1.9999999999999962
30
0
0
SPLINE
5
123
100
AcDbEntity
8
0
100
AcDbSpline
70
4
71
5
72
12
73
6
74
0
42
0.000000001
43
0.0000000001
44
0.0000000001
40
-0.0096996727611146655
40
-0.0096996727611146655
40
-0.0096996727611146655
40
-0.0096996727611146655
40
-0.0096996727611146655
40
-0.0096996727611146655
40
0
40
0
40
0
40
0
40
0
40
0
41
1
41
1
41
1
41
1
41
1
41
1
10
14.207256231676711
20
11.378252769386044
30
0
10
14.24861959255762
20
11.419846919730787
30
0
10
14.28999721188932
20
11.461397377439631
30
0
10
14.331388816753204
20
11.502904121724352
30
0
10
14.372794267351111
20
11.544367141875524
30
0
10
14.414213562373103
20
11.585786437626899
30
0
0
ARC
5
124
100
AcDbEntity
8
0
100
AcDbCircle
10
13.000000000000009
20
12.999999999999993
30
0
40
1.9999999999999993
210
-0
220
0
230
1
100
AcDbArc
50
-45
51
134.99999999999997
0
SPLINE
5
125
100
AcDbEntity
8
0
100
AcDbSpline
70
4
71
5
72
12
73
6
74
0
42
0.000000001
43
0.0000000001
44
0.0000000001
40
-1
40
-1
40
-1
40
-1
40
-1
40
-1
40
-0.99030032723888817
40
-0.99030032723888817
40
-0.99030032723888817
40
-0.99030032723888817
40
-0.99030032723888817
40
-0.99030032723888817
41
1
41
1
41
1
41
1
41
1
41
1
10
11.585786437626913
20
14.41421356237309
30
0
10
11.544367141875551
20
14.372794267351106
30
0
10
11.502904121724393
20
14.331388816753215
30
0
10
11.461397377439681
20
14.289997211889339
30
0
10
11.419846919730849
20
14.248619592557654
30
0
10
11.378252769386117
20
14.207256231676752
30
0
0
SPLINE
5
126
100
AcDbEntity
8
0
100
AcDbSpline
70
0
71
3
72
20
73
16
74
0
42
0.000000001
43
0.0000000001
44
0.0000000001
40
0
40
0
40
0
40
0
40
0.21485446036281014
40
0.21485446036281014
40
0.42970892072562028
40
0.42970892072562028
40
0.64456338108843048
40
0.64456338108843048
40
0.85941784145124078
40
0.85941784145124078
40
1.0742723018140512
40
1.0742723018140512
40
1.1861065064053322
40
1.1861065064053322
40
1.297940710996613
40
1.297940710996613
40
1.297940710996613
40
1.297940710996613
10
2.0000000000000027
20
18.107147955397934
30
0
10
2.0000000000000027
20
17.390966420855232
30
0
10
2.1398861792054391
20
16.681631972131857
30
0
10
2.6836833488898582
20
15.356509864579891
30
0
10
3.0823953420343022
20
14.753391095346849
30
0
10
4.0885615398728605
20
13.733933620016538
30
0
10
4.6863962473126923
20
13.327341483030683
30
0
10
6.004268233170964
20
12.766202114807667
30
0
10
6.7117059371088725
20
12.617019681775306
30
0
10
8.143945672898985
20
12.59822338151106
30
0
10
8.8550547122460657
20
12.728789217154478
30
0
10
9.867824831468365
20
13.128958424621452
30
0
10
10.199699187117295
20
13.300840668516559
30
0
10
10.823555694355431
20
13.709086679862047
30
0
10
11.113924715498555
20
13.944394829453584
30
0
10
11.378252769386117
20
14.207256231676752
30
0
0
LINE
5
127
100
AcDbEntity
8
0
100
AcDbLine
10
2.0000000000000027
20
18.107147955397934
30
0
11
2.0000000000000129
21
39.327498726060242
31
0
0
ARC
5
128
100
AcDbEntity
8
0
100
AcDbCircle
10
9.0000000000000071
20
39.327498726060234
30
0
40
7
210
0
220
0
230
1
100
AcDbArc
50
118.4040608657488
51
180
0
LINE
5
129
100
AcDbEntity
8
0
100
AcDbLine
10
5.6701941262804407
20
45.484802750009564
30
0
11
7.0471077745568422
21
46.229423307286304
31
0
0
ARC
5
130
100
AcDbEntity
8
0
100
AcDbCircle
10
6.4951905283832856
20
47.249999999999979
30
0
40
1.1602540378443789
210
-0
220
0
230
1
100
AcDbArc
50
-61.595939030039531
51
40.437529240947804
0
SPLINE
5
131
100
AcDbEntity
8
0
100
AcDbSpline
70
4
71
5
72
21
73
15
74
0
42
0.000000001
43
0.0000000001
44
0.0000000001
40
0
40
0
40
0
40
0
40
0
40
0
40
0.10000000000000001
40
0.20000000000000001
40
0.30000000000000004
40
0.40000000000000002
40
0.5
40
0.59999999999999998
40
0.69999999999999996
40
0.79999999999999993
40
0.89999999999999991
40
1
40
1
40
1
40
1
40
1
40
1
41
1
41
1
41
1
41
1
41
1
41
1
41
1
41
1
41
1
41
1
41
1
41
1
41
1
41
1
41
1
10
7.3782756791902671
20
48.00256232217567
30
0
10
7.1977237069142408
20
48.214428939400747
30
0
10
6.8507136345596953
20
48.634529361090927
30
0
10
6.3724763902932402
20
49.253782904493249
30
0
10
5.8100167922163815
20
50.061770051117747
30
0
10
5.1838430218244813
20
51.064235280466349
30
0
10
4.5802632682308397
20
52.084858690388565
30
0
10
3.9569702892511671
20
53.145336282257254
30
0
10
3.3017151541263923
20
54.255318412046776
30
0
10
2.6523517658648066
20
55.403127883252182
30
0
10
2.0758270594997574
20
56.564997023638156
30
0
10
1.7337033555239545
20
57.483714605524305
30
0
10
1.5732379150180531
20
58.156170807708577
30
0
10
1.5130632693144852
20
58.595651466306464
30
0
10
1.4946774803531815
20
58.81318565992725
30
0
0
ARC
5
132
100
AcDbEntity
8
0
100
AcDbCircle
10
8.8817841970012523e-15
20
58.686933394013757
30
0
40
1.5000001349743939
210
0
220
-0
230
1
100
AcDbArc
50
4.8281930902553691
51
175.17180690974442
0
SPLINE
5
133
100
AcDbEntity
8
0
100
AcDbSpline
70
4
71
5
72
21
73
15
74
0
42
0.000000001
43
0.0000000001
44
0.0000000001
40
-1
40
-1
40
-1
40
-1
40
-1
40
-1
40
-0.89999999999999991
40
-0.79999999999999993
40
-0.69999999999999996
40
-0.59999999999999998
40
-0.5
40
-0.40000000000000002
40
-0.30000000000000004
40
-0.20000000000000001
40
-0.10000000000000001
40
0
40
0
40
0
40
0
40
0
40
0
41
1
41
1
41
1
41
1
41
1
41
1
41
1
41
1
41
1
41
1
41
1
41
1
41
1
41
1
41
1
10
-1.4946774803531593
20
58.813185659927257
30
0
10
-1.5130632693144541
20
58.595651466306471
30
0
10
-1.5732379150180353
20
58.156170807708577
30
0
10
-1.7337033555239367
20
57.483714605524327
30
0
10
-2.0758270594997397
20
56.564997023638156
30
0
10
-2.6523517658647933
20
55.403127883252196
30
0
10
-3.3017151541263789
20
54.25531841204679
30
0
10
-3.9569702892511582
20
53.145336282257276
30
0
10
-4.5802632682308353
20
52.084858690388572
30
0
10
-5.1838430218244813
20
51.064235280466363
30
0
10
-5.8100167922163859
20
50.061770051117769
30
0
10
-6.3724763902932446
20
49.253782904493271
30
0
10
-6.8507136345597042
20
48.634529361090948
30
0
10
-7.1977237069142452
20
48.21442893940079
30
0
10
-7.3782756791902759
20
48.002562322175706
30
0
0
ARC
5
134
100
AcDbEntity
8
0
100
AcDbCircle
10
-6.4951905283832989
20
47.250000000000007
30
0
40
1.1602540378444137
210
0
220
0
230
1
100
AcDbArc
50
139.56247075905171
51
241.59593905352054
0
LINE
5
135
100
AcDbEntity
8
0
100
AcDbLine
10
-7.0471077741386061
20
46.229423307060138
30
0
11
-5.6701941288038027
21
45.484802752103505
31
0
0
ARC
5
136
100
AcDbEntity
8
0
100
AcDbCircle
10
-9.0000000000000018
20
39.327498726789564
30
0
40
7.0000000000000018
210
0
220
-0
230
1
100
AcDbArc
50
0
51
61.595939157731991
0
LINE
5
137
100
AcDbEntity
8
0
100
AcDbLine
10
-1.9999999999999996
20
39.327498726789571
30
0
11
-2.000000000000004
21
18.107147955397952
31
0
0
SPLINE
5
138
100
AcDbEntity
8
0
100
AcDbSpline
70
0
71
3
72
20
73
16
74
0
42
0.000000001
43
0.0000000001
44
0.0000000001
40
0
40
0
40
0
40
0
40
0.21485446036280983
40
0.21485446036280983
40
0.42970892072561973
40
0.42970892072561973
40
0.6445633810884297
40
0.6445633810884297
40
0.85941784145123967
40
0.85941784145123967
40
1.0742723018140496
40
1.0742723018140496
40
1.1861065064053262
40
1.1861065064053262
40
1.2979407109966026
40
1.2979407109966026
40
1.2979407109966026
40
1.2979407109966026
10
-11.37825276938605
20
14.207256231676716
30
0
10
-10.870429053159675
20
13.702250228090648
30
0
10
-10.268821506281679
20
13.301261621247722
30
0
10
-8.9457641209226164
20
12.752460093619945
30
0
10
-8.2369634321675722
20
12.609894014559158
30
0
10
-6.8046105932664025
20
12.604480460135079
30
0
10
-6.0947525169527852
20
12.741684741302702
30
0
10
-4.7675846157094686
20
13.280469785257299
30
0
10
-4.1629632392780511
20
13.676899469363535
30
0
10
-3.1397102833526249
20
14.679205485443267
30
0
10
-2.7308615598332144
20
15.275499225604054
30
0
10
-2.3004684799538033
20
16.27579943343477
30
0
10
-2.1883283893242589
20
16.632322495490222
30
0
10
-2.0378996645956517
20
17.362550505210024
30
0
10
-2.000000000000004
20
17.734367273427026
30
0
10
-2.000000000000004
20
18.107147955397952
30
0
0
SPLINE
5
139
100
AcDbEntity
8
0
100
AcDbSpline
70
4
71
5
72
12
73
6
74
0
42
0.000000001
43
0.0000000001
44
0.0000000001
40
-0.0096996727611142249
40
-0.0096996727611142249
40
-0.0096996727611142249
40
-0.0096996727611142249
40
-0.0096996727611142249
40
-0.0096996727611142249
40
0
40
0
40
0
40
0
40
0
40
0
41
1
41
1
41
1
41
1
41
1
41
1
10
-11.378252769386057
20
14.207256231676716
30
0
10
-11.419846919730801
20
14.248619592557628
30
0
10
-11.461397377439638
20
14.289997211889325
30
0
10
-11.502904121724359
20
14.331388816753208
30
0
10
-11.544367141875531
20
14.372794267351107
30
0
10
-11.585786437626901
20
14.414213562373101
30
0
0
ARC
5
140
100
AcDbEntity
8
0
100
AcDbCircle
10
-12.999999999999998
20
13.000000000000005
30
0
40
2.0000000000000022
210
0
220
-0
230
1
100
AcDbArc
50
44.999999999999964
51
225
0
SPLINE
5
141
100
AcDbEntity
8
0
100
AcDbSpline
70
4
71
5
72
12
73
6
74
0
42
0.000000001
43
0.0000000001
44
0.0000000001
40
-1
40
-1
40
-1
40
-1
40
-1
40
-1
40
-0.99030032723888817
40
-0.99030032723888817
40
-0.99030032723888817
40
-0.99030032723888817
40
-0.99030032723888817
40
-0.99030032723888817
41
1
41
1
41
1
41
1
41
1
41
1
10
-14.414213562373085
20
11.585786437626917
30
0
10
-14.372794267351104
20
11.544367141875554
30
0
10
-14.331388816753211
20
11.502904121724395
30
0
10
-14.289997211889338
20
11.461397377439685
30
0
10
-14.248619592557652
20
11.419846919730851
30
0
10
-14.207256231676748
20
11.378252769386121
30
0
0
SPLINE
5
142
100
AcDbEntity
8
0
100
AcDbSpline
70
0
71
3
72
20
73
16
74
0
42
0.000000001
43
0.0000000001
44
0.0000000001
40
0
40
0
40
0
40
0
40
0.21485446036281008
40
0.21485446036281008
40
0.42970892072562017
40
0.42970892072562017
40
0.64456338108843048
40
0.64456338108843048
40
0.85941784145124056
40
0.85941784145124056
40
1.0742723018140508
40
1.0742723018140508
40
1.1861065064053311
40
1.1861065064053311
40
1.2979407109966115
40
1.2979407109966115
40
1.2979407109966115
40
1.2979407109966115
10
-18.107147955397931
20
2.0000000000000062
30
0
10
-17.390966420855232
20
2.0000000000000062
30
0
10
-16.681631972131854
20
2.1398861792054449
30
0
10
-15.356509864579891
20
2.683683348889867
30
0
10
-14.753391095346849
20
3.0823953420343084
30
0
10
-13.733933620016536
20
4.0885615398728685
30
0
10
-13.327341483030683
20
4.686396247312703
30
0
10
-12.766202114807669
20
6.0042682331709756
30
0
10
-12.617019681775306
20
6.7117059371088814
30
0
10
-12.59822338151106
20
8.1439456728989921
30
0
10
-12.728789217154482
20
8.8550547122460763
30
0
10
-13.128958424621452
20
9.8678248314683721
30
0
10
-13.300840668516562
20
10.199699187117302
30
0
10
-13.709086679862047
20
10.823555694355436
30
0
10
-13.944394829453584
20
11.113924715498559
30
0
10
-14.207256231676748
20
11.378252769386121
30
0
0
LINE
5
143
100
AcDbEntity
8
0
100
AcDbLine
10
-18.107147955397931
20
2.0000000000000062
30
0
11
-39.327498726789571
21
2.0000000000000195
31
0
0
ARC
5
144
100
AcDbEntity
8
0
100
AcDbCircle
10
-39.327498726789571
20
9.0000000000000195
30
0
40
6.9999999999999964
210
0
220
0
230
1
100
AcDbArc
50
208.40406084226802
51
270
0
LINE
5
145
100
AcDbEntity
8
0
100
AcDbLine
10
-45.484802752103512
20
5.6701941288038178
30
0
11
-46.229423307060131
21
7.0471077741386035
31
0
0
ARC
5
146
100
AcDbEntity
8
0
100
AcDbCircle
10
-47.250000000000007
20
6.4951905283833069
30
0
40
1.1602540378443884
210
0
220
-0
230
1
100
AcDbArc
50
28.404060946478854
51
130.43752924094844
0
SPLINE
5
147
100
AcDbEntity
8
0
100
AcDbSpline
70
4
71
5
72
21
73
15
74
0
42
0.000000001
43
0.0000000001
44
0.0000000001
40
-1
40
-1
40
-1
40
-1
40
-1
40
-1
40
-0.89999999999999991
40
-0.79999999999999993
40
-0.69999999999999996
40
-0.59999999999999998
40
-0.5
40
-0.40000000000000002
40
-0.30000000000000004
40
-0.20000000000000001
40
-0.10000000000000001
40
0
40
0
40
0
40
0
40
0
40
0
41
1
41
1
41
1
41
1
41
1
41
1
41
1
41
1
41
1
41
1
41
1
41
1
41
1
41
1
41
1
10
-58.813185659927257
20
1.4946774803531682
30
0
10
-58.595651466306471
20
1.513063269314463
30
0
10
-58.156170807708577
20
1.5732379150180442
30
0
10
-57.483714605524327
20
1.7337033555239456
30
0
10
-56.564997023638156
20
2.0758270594997486
30
0
10
-55.403127883252196
20
2.6523517658648021
30
0
10
-54.25531841204679
20
3.3017151541263878
30
0
10
-53.145336282257276
20
3.9569702892511671
30
0
10
-52.084858690388572
20
4.5802632682308442
30
0
10
-51.064235280466363
20
5.1838430218244902
30
0
10
-50.061770051117762
20
5.8100167922163903
30
0
10
-49.253782904493271
20
6.3724763902932535
30
0
10
-48.634529361090948
20
6.8507136345597131
30
0
10
-48.21442893940079
20
7.1977237069142541
30
0
10
-48.002562322175706
20
7.3782756791902848
30
0
0
ARC
5
148
100
AcDbEntity
8
0
100
AcDbCircle
10
-58.686933394013757
20
-2.3592239273284576e-15
30
0
40
1.5000001349743926
210
0
220
0
230
1
100
AcDbArc
50
94.828193090255638
51
265.17180690974465
0
SPLINE
5
149
100
AcDbEntity
8
0
100
AcDbSpline
70
4
71
5
72
21
73
15
74
0
42
0.000000001
43
0.0000000001
44
0.0000000001
40
0
40
0
40
0
40
0
40
0
40
0
40
0.10000000000000001
40
0.20000000000000001
40
0.30000000000000004
40
0.40000000000000002
40
0.5
40
0.59999999999999998
40
0.69999999999999996
40
0.79999999999999993
40
0.89999999999999991
40
1
40
1
40
1
40
1
40
1
40
1
41
1
41
1
41
1
41
1
41
1
41
1
41
1
41
1
41
1
41
1
41
1
41
1
41
1
41
1
41
1
10
-48.002562322175677
20
-7.3782756791902626
30
0
10
-48.214428939400761
20
-7.1977237069142364
30
0
10
-48.634529361090927
20
-6.8507136345596864
30
0
10
-49.253782904493264
20
-6.3724763902932358
30
0
10
-50.061770051117747
20
-5.8100167922163726
30
0
10
-51.064235280466349
20
-5.1838430218244769
30
0
10
-52.084858690388565
20
-4.5802632682308309
30
0
10
-53.145336282257254
20
-3.9569702892511582
30
0
10
-54.25531841204679
20
-3.3017151541263878
30
0
10
-55.403127883252182
20
-2.6523517658647977
30
0
10
-56.564997023638156
20
-2.0758270594997486
30
0
10
-57.483714605524305
20
-1.7337033555239456
30
0
10
-58.156170807708577
20
-1.5732379150180442
30
0
10
-58.595651466306471
20
-1.5130632693144719
30
0
10
-58.81318565992725
20
-1.4946774803531726
30
0
0
ARC
5
150
100
AcDbEntity
8
0
100
AcDbCircle
10
-47.249999999999979
20
-6.4951905283832811
30
0
40
1.1602540378444162
210
0
220
0
230
1
100
AcDbArc
50
229.56247075905182
51
331.59593903003991
0
LINE
5
151
100
AcDbEntity
8
0
100
AcDbLine
10
-46.229423307286304
20
-7.0471077745568298
30
0
11
-45.484802750009564
21
-5.6701941262804167
31
0
0
ARC
5
152
100
AcDbEntity
8
0
100
AcDbCircle
10
-39.327498726060227
20
-8.999999999999984
30
0
40
7.0000000000000018
210
0
220
0
230
1
100
AcDbArc
50
90.000000000000057
51
151.59593913425121
0
LINE
5
153
100
AcDbEntity
8
0
100
AcDbLine
10
-39.327498726060234
20
-1.9999999999999818
30
0
11
-23.023400026354913
21
-1.9999999999999951
31
0
0
SPLINE
5
154
100
AcDbEntity
8
0
100
AcDbSpline
70
4
71
5
72
16
73
10
74
0
42
0.000000001
43
0.0000000001
44
0.0000000001
40
0
40
0
40
0
40
0
40
0
40
0
40
0.10000000000000001
40
0.20000000000000001
40
0.30000000000000004
40
0.40000000000000002
40
0.42825652104958695
40
0.42825652104958695
40
0.42825652104958695
40
0.42825652104958695
40
0.42825652104958695
40
0.42825652104958695
41
1
41
1
41
1
41
1
41
1
41
1
41
1
41
1
41
1
41
1
10
-23.023400026354921
20
-1.9999999999999951
30
0
10
-22.259615039217849
20
-1.9999999999999951
30
0
10
-20.775940998756163
20
-2.0613951078461943
30
0
10
-18.682109438936575
20
-2.3376621902217929
30
0
10
-16.1399135510195
20
-3.0582754980718398
30
0
10
-13.716791149253687
20
-4.2618851330320142
30
0
10
-12.009268994601427
20
-5.4044636390349599
30
0
10
-10.884601115381795
20
-6.2879615508588831
30
0
10
-10.271700048543742
20
-6.8099834563082577
30
0
10
-10.137589402127819
20
-6.9262081191376224
30
0
0
SPLINE
5
155
100
AcDbEntity
8
0
100
AcDbSpline
70
4
71
5
72
13
73
7
74
0
42
0.000000001
43
0.0000000001
44
0.0000000001
40
0.42825652104958695
40
0.42825652104958695
40
0.42825652104958695
40
0.42825652104958695
40
0.42825652104958695
40
0.42825652104958695
40
0.5
40
0.57201111577180341
40
0.57201111577180341
40
0.57201111577180341
40
0.57201111577180341
40
0.57201111577180341
40
0.57201111577180341
41
1
41
1
41
1
41
1
41
1
41
1
41
1
10
-10.137589402127819
20
-6.9262081191376224
30
0
10
-9.7970816545080002
20
-7.2213032455540898
30
0
10
-9.1266687033778489
20
-7.8283104643548569
30
0
10
-8.4796981851754651
20
-8.4651476138026833
30
0
10
-7.8563606359289526
20
-9.129011413516702
30
0
10
-7.2591772823181611
20
-9.8185170884432633
30
0
10
-6.9670171338375511
20
-10.170245181719878
30
0
0
SPLINE
5
156
100
AcDbEntity
8
0
100
AcDbSpline
70
4
71
5
72
16
73
10
74
0
42
0.000000001
43
0.0000000001
44
0.0000000001
40
0.57201111577230568
40
0.57201111577230568
40
0.57201111577230568
40
0.57201111577230568
40
0.57201111577230568
40
0.57201111577230568
40
0.59999999999999998
40
0.69999999999999996
40
0.79999999999999993
40
0.89999999999999991
40
1
40
1
40
1
40
1
40
1
40
1
41
1
41
1
41
1
41
1
41
1
41
1
41
1
41
1
41
1
41
1
10
-6.9670171338273619
20
-10.170245181732145
30
0
10
-6.853461934965047
20
-10.306952921597583
30
0
10
-6.3390183802623827
20
-10.936471677716884
30
0
10
-5.4628785582312043
20
-12.093262782909708
30
0
10
-4.3175404442069407
20
-13.846347781999491
30
0
10
-3.093097214966364
20
-16.304784038869194
30
0
10
-2.3497757008945905
20
-18.817635544149788
30
0
10
-2.063597787854091
20
-20.836749132473283
30
0
10
-2.000000000000004
20
-22.244866139014647
30
0
10
-2.000000000000004
20
-22.964435836414108
30
0
0
LINE
5
157
100
AcDbEntity
8
0
100
AcDbLine
10
-2.000000000000004
20
-22.964435836414111
30
0
11
-2.0000000000000129
21
-39.327498726060249
31
0
0
ARC
5
158
100
AcDbEntity
8
0
100
AcDbCircle
10
-9.0000000000000195
20
-39.327498726060242
30
0
40
7
210
-0
220
0
230
1
100
AcDbArc
50
298.40406086574876
51
360
0
LINE
5
159
100
AcDbEntity
8
0
100
AcDbLine
10
-5.6701941262804549
20
-45.484802750009578
30
0
11
-7.0471077745568422
21
-46.229423307286304
31
0
0
ARC
5
160
100
AcDbEntity
8
0
100
AcDbCircle
10
-6.4951905283832856
20
-47.249999999999979
30
0
40
1.1602540378443789
210
0
220
0
230
1
100
AcDbArc
50
118.40406096996047
51
220.43752924094778
0
SPLINE
5
161
100
AcDbEntity
8
0
100
AcDbSpline
70
4
71
5
72
21
73
15
74
0
42
0.000000001
43
0.0000000001
44
0.0000000001
40
0
40
0
40
0
40
0
40
0
40
0
40
0.10000000000000001
40
0.20000000000000001
40
0.30000000000000004
40
0.40000000000000002
40
0.5
40
0.59999999999999998
40
0.69999999999999996
40
0.79999999999999993
40
0.89999999999999991
40
1
40
1
40
1
40
1
40
1
40
1
41
1
41
1
41
1
41
1
41
1
41
1
41
1
41
1
41
1
41
1
41
1
41
1
41
1
41
1
41
1
10
-7.3782756791902671
20
-48.00256232217567
30
0
10
-7.1977237069142408
20
-48.214428939400747
30
0
10
-6.8507136345596953
20
-48.634529361090927
30
0
10
-6.3724763902932402
20
-49.253782904493249
30
0
10
-5.8100167922163815
20
-50.061770051117747
30
0
10
-5.1838430218244813
20
-51.064235280466349
30
0
10
-4.5802632682308397
20
-52.084858690388565
30
0
10
-3.9569702892511671
20
-53.145336282257254
30
0
10
-3.3017151541263923
20
-54.255318412046776
30
0
10
-2.6523517658648066
20
-55.403127883252182
30
0
10
-2.0758270594997574
20
-56.564997023638156
30
0
10
-1.7337033555239545
20
-57.483714605524305
30
0
10
-1.5732379150180531
20
-58.156170807708577
30
0
10
-1.5130632693144852
20
-58.595651466306464
30
0
10
-1.4946774803531815
20
-58.81318565992725
30
0
0
ARC
5
162
100
AcDbEntity
8
0
100
AcDbCircle
10
-8.8817841970012523e-15
20
-58.686933394013757
30
0
40
1.5000001349743939
210
0
220
0
230
1
100
AcDbArc
50
184.82819309025538
51
355.17180690974442
0
SPLINE
5
163
100
AcDbEntity
8
0
100
AcDbSpline
70
4
71
5
72
21
73
15
74
0
42
0.000000001
43
0.0000000001
44
0.0000000001
40
-1
40
-1
40
-1
40
-1
40
-1
40
-1
40
-0.89999999999999991
40
-0.79999999999999993
40
-0.69999999999999996
40
-0.59999999999999998
40
-0.5
40
-0.40000000000000002
40
-0.30000000000000004
40
-0.20000000000000001
40
-0.10000000000000001
40
0
40
0
40
0
40
0
40
0
40
0
41
1
41
1
41
1
41
1
41
1
41
1
41
1
41
1
41
1
41
1
41
1
41
1
41
1
41
1
41
1
10
1.4946774803531593
20
-58.813185659927257
30
0
10
1.5130632693144541
20
-58.595651466306471
30
0
10
1.5732379150180353
20
-58.156170807708577
30
0
10
1.7337033555239367
20
-57.483714605524327
30
0
10
2.0758270594997397
20
-56.564997023638156
30
0
10
2.6523517658647933
20
-55.403127883252196
30
0
10
3.3017151541263789
20
-54.25531841204679
30
0
10
3.9569702892511582
20
-53.145336282257276
30
0
10
4.5802632682308353
20
-52.084858690388572
30
0
10
5.1838430218244813
20
-51.064235280466363
30
0
10
5.8100167922163859
20
-50.061770051117769
30
0
10
6.3724763902932446
20
-49.253782904493271
30
0
10
6.8507136345597042
20
-48.634529361090948
30
0
10
7.1977237069142452
20
-48.21442893940079
30
0
10
7.3782756791902759
20
-48.002562322175706
30
0
0
ARC
5
164
100
AcDbEntity
8
0
100
AcDbCircle
10
6.4951905283832989
20
-47.250000000000007
30
0
40
1.1602540378444137
210
-0
220
0
230
1
100
AcDbArc
50
-40.437529240948294
51
61.59593905352051
0
LINE
5
165
100
AcDbEntity
8
0
100
AcDbLine
10
7.0471077741386061
20
-46.229423307060138
30
0
11
5.6701941288037983
21
-45.484802752103505
31
0
0
ARC
5
166
100
AcDbEntity
8
0
100
AcDbCircle
10
8.9999999999999964
20
-39.327498726789557
30
0
40
7.0000000000000018
210
0
220
0
230
1
100
AcDbArc
50
180
51
241.59593915773198
0
LWPOLYLINE
5
167
100
AcDbEntity
8
0
100
AcDbPolyline
90
4
70
1
43
0.0
10
-48.733536615602688
20
2.3480084597774273
42
-0.84515425472851935
10
-50.099796717730634
20
3.1368190975240404
10
-49.687245897163308
20
4.2457833983242095
42
-1.1832159566199267
10
-47.979420769503363
20
3.2597701011409486
0
CIRCLE
5
168
100
AcDbEntity
8
0
100
AcDbCircle
10
-51
20
8.8817841970012523e-15
30
0
40
2
210
-0
220
0
230
1
0
LWPOLYLINE
5
169
100
AcDbEntity
8
0
100
AcDbPolyline
90
4
70
1
43
0.0
10
-54.166666666666671
20
0.78881063774661686
42
-0.84515425472851813
10
-54.166666666666657
20
-0.78881063774661531
10
-55.333333333333321
20
-0.98601329718326514
42
-1.1832159566199207
10
-55.333333333333321
20
0.98601329718327368
0
LWPOLYLINE
5
170
100
AcDbEntity
8
0
100
AcDbPolyline
90
4
70
1
43
0.0
10
-50.099796717730626
20
-3.1368190975240244
42
-0.84515425472851502
10
-48.733536615602688
20
-2.3480084597774025
10
-47.979420769503349
20
-3.2597701011409157
42
-1.183215956619925
10
-49.68724589716328
20
-4.2457833983241926
0
LWPOLYLINE
5
171
100
AcDbEntity
8
0
100
AcDbPolyline
90
4
70
1
43
0.0
10
-3.1368190975240262
20
50.099796717730626
42
-0.84515425472851435
10
-2.3480084597774162
20
48.733536615602688
10
-3.2597701011409415
20
47.979420769503363
42
-1.183215956619921
10
-4.2457833983242077
20
49.687245897163301
0
CIRCLE
5
172
100
AcDbEntity
8
0
100
AcDbCircle
10
0
20
51
30
0
40
2
210
-0
220
0
230
1
0
LWPOLYLINE
5
173
100
AcDbEntity
8
0
100
AcDbPolyline
90
4
70
1
43
0.0
10
0.78881063774662863
20
54.166666666666671
42
-0.84515425472851868
10
-0.78881063774660776
20
54.166666666666671
10
-0.98601329718326625
20
55.333333333333329
42
-1.1832159566199068
10
0.98601329718327357
20
55.333333333333321
0
LWPOLYLINE
5
174
100
AcDbEntity
8
0
100
AcDbPolyline
90
4
70
1
43
0.0
10
2.3480084597774065
20
48.733536615602688
42
-0.8451542547285088
10
3.1368190975240369
20
50.099796717730634
10
4.2457833983241997
20
49.68724589716328
42
-1.1832159566199218
10
3.2597701011409286
20
47.979420769503349
0
CIRCLE
5
175
100
AcDbEntity
8
0
100
AcDbCircle
10
-12.999999999999998
20
13.000000000000005
30
0
40
1.0000000000000009
210
-0
220
0
230
1
0
CIRCLE
5
176
100
AcDbEntity
8
0
100
AcDbCircle
10
12.999999999999996
20
-13.000000000000007
30
0
40
1.0000000000000009
210
0
220
-0
230
1
0
CIRCLE
5
177
100
AcDbEntity
8
0
100
AcDbCircle
10
13.000000000000009
20
12.999999999999993
30
0
40
1.0000000000000009
210
0
220
-0
230
1
0
CIRCLE
5
178
100
AcDbEntity
8
0
100
AcDbCircle
10
2.2204460492503131e-15
20
11.313708498984759
30
0
40
0.99999999999999956
210
-0
220
0
230
1
0
CIRCLE
5
179
100
AcDbEntity
8
0
100
AcDbCircle
10
11.313708498984759
20
-4.4408920985006262e-15
30
0
40
0.99999999999999956
210
-0
220
0
230
1
0
CIRCLE
5
180
100
AcDbEntity
8
0
100
AcDbCircle
10
-11.313708498984759
20
4.4408920985006262e-15
30
0
40
0.99999999999999956
210
-0
220
0
230
1
0
CIRCLE
5
181
100
AcDbEntity
8
0
100
AcDbCircle
10
-3.3306690738754696e-15
20
-11.313708498984759
30
0
40
0.99999999999999956
210
-0
220
0
230
1
0
LWPOLYLINE
5
182
100
AcDbEntity
8
0
100
AcDbPolyline
90
4
70
1
43
0.0
10
50.099796717730626
20
3.1368190975240244
42
-0.84515425472851502
10
48.733536615602688
20
2.3480084597774025
10
47.979420769503349
20
3.2597701011409157
42
-1.183215956619925
10
49.68724589716328
20
4.2457833983241926
0
LWPOLYLINE
5
183
100
AcDbEntity
8
0
100
AcDbPolyline
90
4
70
1
43
0.0
10
54.166666666666671
20
-0.78881063774661686
42
-0.84515425472851813
10
54.166666666666657
20
0.78881063774661531
10
55.333333333333321
20
0.98601329718326514
42
-1.1832159566199207
10
55.333333333333321
20
-0.98601329718327368
0
CIRCLE
5
184
100
AcDbEntity
8
0
100
AcDbCircle
10
51
20
-8.8817841970012523e-15
30
0
40
2
210
0
220
0
230
1
0
LWPOLYLINE
5
185
100
AcDbEntity
8
0
100
AcDbPolyline
90
4
70
1
43
0.0
10
48.733536615602688
20
-2.3480084597774273
42
-0.84515425472851935
10
50.099796717730634
20
-3.1368190975240404
10
49.687245897163308
20
-4.2457833983242095
42
-1.1832159566199267
10
47.979420769503363
20
-3.2597701011409486
0
ENDSEC
0
SECTION
2
OBJECTS
0
DICTIONARY
5
C
100
AcDbDictionary
3
ACAD_GROUP
350
D
3
ACAD_MLINESTYLE
350
17
0
DICTIONARY
5
D
100
AcDbDictionary
0
DICTIONARY
5
1A
330
C
100
AcDbDictionary
0
DICTIONARY
5
17
100
AcDbDictionary
0
ENDSEC
0
EOF
