0
SECTION
2
HEADER
9
$INSUNITS
70
4
9
$ACADVER
1
AC1014
9
$HANDSEED
5
FFFF
0
ENDSEC
0
SECTION
2
TABLES
0
TABLE
2
VPORT
5
8
100
AcDbSymbolTable
0
ENDTAB
0
TABLE
2
LTYPE
5
5
100
AcDbSymbolTable
0
LTYPE
5
14
100
AcDbSymbolTableRecord
100
AcDbLinetypeTableRecord
2
BYBLOCK
70
0
0
LTYPE
5
15
100
AcDbSymbolTableRecord
100
AcDbLinetypeTableRecord
2
BYLAYER
70
0
0
ENDTAB
0
TABLE
2
LAYER
5
2
100
AcDbSymbolTable
70
2
0
LAYER
5
50
100
AcDbSymbolTableRecord
100
AcDbLayerTableRecord
2
0
70
0
6
CONTINUOUS
0
ENDTAB
0
TABLE
2
STYLE
5
3
100
AcDbSymbolTable
70
1
0
STYLE
5
11
100
AcDbSymbolTableRecord
100
AcDbTextStyleTableRecord
2
STANDARD
70
0
0
ENDTAB
0
TABLE
2
VIEW
5
6
100
AcDbSymbolTable
70
0
0
ENDTAB
0
TABLE
2
UCS
5
7
100
AcDbSymbolTable
70
0
0
ENDTAB
0
TABLE
2
APPID
5
9
100
AcDbSymbolTable
70
2
0
APPID
5
12
100
AcDbSymbolTableRecord
100
AcDbRegAppTableRecord
2
ACAD
70
0
0
ENDTAB
0
TABLE
2
DIMSTYLE
5
A
100
AcDbSymbolTable
70
1
0
ENDTAB
0
TABLE
2
BLOCK_RECORD
5
1
100
AcDbSymbolTable
70
1
0
BLOCK_RECORD
5
1F
100
AcDbSymbolTableRecord
100
AcDbBlockTableRecord
2
*MODEL_SPACE
0
BLOCK_RECORD
5
1B
100
AcDbSymbolTableRecord
100
AcDbBlockTableRecord
2
*PAPER_SPACE
0
ENDTAB
0
ENDSEC
0
SECTION
2
BLOCKS
0
BLOCK
5
20
100
AcDbEntity
100
AcDbBlockBegin
2
*MODEL_SPACE
0
ENDBLK
5
21
100
AcDbEntity
100
AcDbBlockEnd
0
BLOCK
5
1C
100
AcDbEntity
100
AcDbBlockBegin
2
*PAPER_SPACE
0
ENDBLK
5
1D
100
AcDbEntity
100
AcDbBlockEnd
0
ENDSEC
0
SECTION
2
ENTITIES
0
LINE
5
100
100
AcDbEntity
8
0
100
AcDbLine
10
60.104076400856414
20
-55.154328932550847
30
0
11
48.827684196276664
21
-43.877936727970869
31
0
0
SPLINE
5
101
100
AcDbEntity
8
0
100
AcDbSpline
70
4
71
5
72
18
73
12
74
0
42
0.000000001
43
0.0000000001
44
0.0000000001
40
0
40
0
40
0
40
0
40
0
40
0
40
0.10000000000000001
40
0.20000000000000001
40
0.30000000000000004
40
0.40000000000000002
40
0.5
40
0.59999999999999998
40
0.64426199391093186
40
0.64426199391093186
40
0.64426199391093186
40
0.64426199391093186
40
0.64426199391093186
40
0.64426199391093186
41
1
41
1
41
1
41
1
41
1
41
1
41
1
41
1
41
1
41
1
41
1
41
1
10
48.827684196276664
20
-43.877936727970869
30
0
10
47.666995579979996
20
-42.717248111674202
30
0
10
45.406935860358885
20
-40.427377798287282
30
0
10
42.200787620706556
20
-37.087086743856801
30
0
10
38.280837865119672
20
-32.814862859923082
30
0
10
33.911498435271355
20
-27.74201604357512
30
0
10
30.011338328792576
20
-22.902491001991564
30
0
10
26.926260619584852
20
-18.792210801017507
30
0
10
24.786885432738408
20
-15.737637953773255
30
0
10
23.406134666063643
20
-13.646159961271563
30
0
10
22.642949053503997
20
-12.441178380398053
30
0
10
22.413857331863021
20
-12.074439703942868
30
0
0
SPLINE
5
102
100
AcDbEntity
8
0
100
AcDbSpline
70
0
71
3
72
11
73
7
74
0
42
0.000000001
43
0.0000000001
44
0.0000000001
40
0.24868090098766593
40
0.24868090098766593
40
0.24868090098766593
40
0.24868090098766593
40
0.40000000000000002
40
0.59999999999999998
40
0.80000000000000004
40
1
40
1
40
1
40
1
10
22.28974519528721
20
-4.8637572732709451
30
0
10
22.035284785951369
20
-5.3041455135270752
30
0
10
21.556175200716368
20
-6.391177113315802
30
0
10
21.254335401174753
20
-8.2391358882939194
30
0
10
21.510832207283038
20
-10.260732003730194
30
0
10
22.057697993217378
20
-11.504286389251067
30
0
10
22.413857331863014
20
-12.074439703942872
30
0
0
SPLINE
5
103
100
AcDbEntity
8
0
100
AcDbSpline
70
0
71
3
72
12
73
8
74
0
42
0.000000001
43
0.0000000001
44
0.0000000001
40
0
40
0
40
0
40
0
40
0.15625778935477108
40
0.15625778935477108
40
0.24849650789211503
40
0.24849650789211503
40
0.34073522642945875
40
0.34073522642945875
40
0.34073522642945875
40
0.34073522642945875
10
24.971225706929307
20
-2.9421211915620518
30
0
10
24.460415314254519
20
-3.043940398450669
30
0
10
23.974376102574713
20
-3.2445587866491818
30
0
10
23.284329194238488
20
-3.7027640805366122
30
0
10
23.048654530931444
20
-3.9018104291614897
30
0
10
22.627573650028395
20
-4.3499436564506953
30
0
10
22.443568029995301
20
-4.5975399561444146
30
0
10
22.28974519528721
20
-4.863757273270946
30
0
0
ARC
5
104
100
AcDbEntity
8
0
100
AcDbCircle
10
24.384776310850242
20
-2.7947232903417479e-15
30
0
40
2.9999999999999987
210
-0
220
0
230
1
100
AcDbArc
50
-78.727051803947646
51
78.727051848002176
0
SPLINE
5
105
100
AcDbEntity
8
0
100
AcDbSpline
70
0
71
3
72
12
73
8
74
0
42
0.000000001
43
0.0000000001
44
0.0000000001
40
0
40
0
40
0
40
0
40
0.15625778935477139
40
0.15625778935477139
40
0.24849650842772514
40
0.24849650842772514
40
0.34073522750067853
40
0.34073522750067853
40
0.34073522750067853
40
0.34073522750067853
10
22.28974518620587
20
4.8637572809046752
30
0
10
22.550330072963476
20
4.4127695593982841
30
0
10
22.896511556659863
20
4.0169915492468036
30
0
10
23.552179749403017
20
3.5108136644735892
30
0
10
23.816408904787604
20
3.3516126896555569
30
0
10
24.376097427023907
20
3.0968946884637827
30
0
10
24.669695160101934
20
3.0022249041093874
30
0
10
24.97122570466712
20
2.9421211920129666
30
0
0
SPLINE
5
106
100
AcDbEntity
8
0
100
AcDbSpline
70
0
71
3
72
11
73
7
74
0
42
0.000000001
43
0.0000000001
44
0.0000000001
40
-1
40
-1
40
-1
40
-1
40
-0.80000000000000004
40
-0.59999999999999998
40
-0.40000000000000002
40
-0.24868090197540005
40
-0.24868090197540005
40
-0.24868090197540005
40
-0.24868090197540005
10
22.413857329221273
20
12.074439699713849
30
0
10
22.057697990784998
20
11.504286385283478
30
0
10
21.510832205110447
20
10.260732000397848
30
0
10
21.254335398816885
20
8.2391358860226322
30
0
10
21.55617519711403
20
6.3911771151986185
30
0
10
22.035284779493569
20
5.3041455185522333
30
0
10
22.289745186205874
20
4.8637572809046752
30
0
0
SPLINE
5
107
100
AcDbEntity
8
0
100
AcDbSpline
70
4
71
5
72
18
73
12
74
0
42
0.000000001
43
0.0000000001
44
0.0000000001
40
-0.64426199401301265
40
-0.64426199401301265
40
-0.64426199401301265
40
-0.64426199401301265
40
-0.64426199401301265
40
-0.64426199401301265
40
-0.59999999999999998
40
-0.5
40
-0.40000000000000002
40
-0.30000000000000004
40
-0.20000000000000001
40
-0.10000000000000001
40
0
40
0
40
0
40
0
40
0
40
0
41
1
41
1
41
1
41
1
41
1
41
1
41
1
41
1
41
1
41
1
41
1
41
1
10
22.413857329221266
20
12.074439699713849
30
0
10
22.642949051343852
20
12.441178376987443
30
0
10
23.406134664332534
20
13.646159958649386
30
0
10
24.78688543146967
20
15.737637951961769
30
0
10
26.926260618875975
20
18.792210800073061
30
0
10
30.011338328792576
20
22.902491001991564
30
0
10
33.911498435271355
20
27.74201604357512
30
0
10
38.280837865119672
20
32.814862859923082
30
0
10
42.200787620706556
20
37.087086743856801
30
0
10
45.406935860358885
20
40.427377798287282
30
0
10
47.666995579979996
20
42.717248111674202
30
0
10
48.827684196276664
20
43.877936727970869
30
0
0
LINE
5
108
100
AcDbEntity
8
0
100
AcDbLine
10
48.827684196276664
20
43.877936727970862
30
0
11
60.104076400856414
21
55.154328932550847
31
0
0
LINE
5
109
100
AcDbEntity
8
0
100
AcDbLine
10
60.104076400856414
20
55.154328932550847
30
0
11
80.150743147909154
21
64.551203855294972
31
0
0
ARC
5
110
100
AcDbEntity
8
0
100
AcDbCircle
10
79.301875403960125
20
66.362121731202905
30
0
40
2.000000000000008
210
-0
220
0
230
1
100
AcDbArc
50
-64.885165383180336
51
45
0
LINE
5
111
100
AcDbEntity
8
0
100
AcDbLine
10
80.716088966333217
20
67.776335293575997
30
0
11
74.246212129954628
21
74.2462121299546
31
0
0
SPLINE
5
112
100
AcDbEntity
8
0
100
AcDbSpline
70
4
71
5
72
21
73
15
74
0
42
0.000000001
43
0.0000000001
44
0.0000000001
40
-1
40
-1
40
-1
40
-1
40
-1
40
-1
40
-0.89999999999999991
40
-0.79999999999999993
40
-0.69999999999999996
40
-0.59999999999999998
40
-0.5
40
-0.40000000000000002
40
-0.30000000000000004
40
-0.20000000000000001
40
-0.10000000000000001
40
0
40
0
40
0
40
0
40
0
40
0
41
1
41
1
41
1
41
1
41
1
41
1
41
1
41
1
41
1
41
1
41
1
41
1
41
1
41
1
41
1
10
69.713954371038852
20
85.461460483268922
30
0
10
69.744266776071186
20
85.285805689577415
30
0
10
69.798565555018385
20
84.92017884980055
30
0
10
69.861043302162017
20
84.328792658544188
30
0
10
69.916237436323613
20
83.461767523501237
30
0
10
69.992868352377414
20
82.287017585201681
30
0
10
70.143087436344985
20
81.069116592833979
30
0
10
70.4284861860598
20
79.853003826707351
30
0
10
70.884404583979006
20
78.667732528984345
30
0
10
71.510540067735093
20
77.520790083219453
30
0
10
72.290273250353664
20
76.408077241741836
30
0
10
73.018287856532055
20
75.537053770166537
30
0
10
73.613981985853286
20
74.88988251373263
30
0
10
74.031988845465463
20
74.460435414443765
30
0
10
74.246212129954628
20
74.2462121299546
30
0
0
ARC
5
113
100
AcDbEntity
8
0
100
AcDbCircle
10
68.235804384501847
20
85.206367132978983
30
0
40
1.5000000000204985
210
0
220
-0
230
1
100
AcDbArc
50
9.7914374637338
51
157.61986449769719
0
LINE
5
114
100
AcDbEntity
8
0
100
AcDbLine
10
66.848787241278814
20
85.777491851762335
30
0
11
62.302690612365133
21
74.736971713736395
31
0
0
ARC
5
115
100
AcDbEntity
8
0
100
AcDbCircle
10
57.679300134954858
20
76.640720776347436
30
0
40
5.00000000000004
210
0
220
0
230
1
100
AcDbArc
50
292.83365461183581
51
337.61986449769927
0
LINE
5
116
100
AcDbEntity
8
0
100
AcDbLine
10
59.619585170144653
20
72.03254391535144
30
0
11
54.936603044936646
21
70.060761926142305
31
0
0
ARC
5
117
100
AcDbEntity
8
0
100
AcDbCircle
10
56.876888080126392
20
65.452585065146337
30
0
40
4.9999999999999982
210
0
220
0
230
1
100
AcDbArc
50
112.8336546118354
51
195.28158868407712
0
ARC
5
118
100
AcDbEntity
8
0
100
AcDbCircle
10
42.407255663371124
20
61.499138755407841
30
0
40
9.9999999999999982
210
0
220
0
230
1
100
AcDbArc
50
-44.99999999999995
51
15.281588684077478
0
LINE
5
119
100
AcDbEntity
8
0
100
AcDbLine
10
49.478323475236607
20
54.428070943542373
30
0
11
14.858262675410373
21
19.80801014371616
31
0
0
ARC
5
120
100
AcDbEntity
8
0
100
AcDbCircle
10
9.9085152071045428
20
24.757757612021987
30
0
40
7.0000000000000009
210
0
220
0
230
1
100
AcDbArc
50
187.01854738086712
51
315
0
ARC
5
121
100
AcDbEntity
8
0
100
AcDbCircle
10
-2.6197847317862565e-15
20
24.384776310850242
30
0
40
3.0000000000000115
210
-0
220
0
230
1
100
AcDbArc
50
-9.2524277023062567
51
177.39702695952255
0
ARC
5
122
100
AcDbEntity
8
0
100
AcDbCircle
10
-9.9896821459010265
20
24.838924550818525
30
0
40
6.9999999999999973
210
0
220
0
230
1
100
AcDbArc
50
224.99999999999997
51
357.39702695952269
0
LINE
5
123
100
AcDbEntity
8
0
100
AcDbLine
10
-14.93942961420686
20
19.889177082512699
30
0
11
-49.478323475236579
21
54.428070943542423
31
0
0
ARC
5
124
100
AcDbEntity
8
0
100
AcDbCircle
10
-42.407255663371103
20
61.499138755407891
30
0
40
10.000000000000009
210
0
220
0
230
1
100
AcDbArc
50
164.71841131592279
51
224.99999999999997
0
ARC
5
125
100
AcDbEntity
8
0
100
AcDbCircle
10
-56.876888080126392
20
65.452585065146337
30
0
40
4.9999999999999982
210
0
220
0
230
1
100
AcDbArc
50
-15.281588684076993
51
67.166345388164601
0
LINE
5
126
100
AcDbEntity
8
0
100
AcDbLine
10
-54.936603044936646
20
70.060761926142305
30
0
11
-59.619585170144653
21
72.032543915351454
31
0
0
ARC
5
127
100
AcDbEntity
8
0
100
AcDbCircle
10
-57.6793001349549
20
76.640720776347422
30
0
40
4.9999999999999938
210
0
220
0
230
1
100
AcDbArc
50
202.38013550230076
51
247.16634538816453
0
LINE
5
128
100
AcDbEntity
8
0
100
AcDbLine
10
-62.302690612365126
20
74.736971713736395
30
0
11
-66.848787241278586
21
85.77749185176242
31
0
0
ARC
5
129
100
AcDbEntity
8
0
100
AcDbCircle
10
-68.235804384501847
20
85.206367132978968
30
0
40
1.5000000000002267
210
0
220
-0
230
1
100
AcDbArc
50
22.38013550230303
51
170.20856253626602
0
SPLINE
5
130
100
AcDbEntity
8
0
100
AcDbSpline
70
4
71
5
72
21
73
15
74
0
42
0.000000001
43
0.0000000001
44
0.0000000001
40
-1
40
-1
40
-1
40
-1
40
-1
40
-1
40
-0.89999999999999991
40
-0.79999999999999993
40
-0.69999999999999996
40
-0.59999999999999998
40
-0.5
40
-0.40000000000000002
40
-0.30000000000000004
40
-0.20000000000000001
40
-0.10000000000000001
40
0
40
0
40
0
40
0
40
0
40
0
41
1
41
1
41
1
41
1
41
1
41
1
41
1
41
1
41
1
41
1
41
1
41
1
41
1
41
1
41
1
10
-69.713954371038852
20
85.461460483268922
30
0
10
-69.744266776071186
20
85.285805689577415
30
0
10
-69.798565555018385
20
84.92017884980055
30
0
10
-69.861043302162017
20
84.328792658544188
30
0
10
-69.916237436323613
20
83.461767523501237
30
0
10
-69.992868352377414
20
82.287017585201681
30
0
10
-70.143087436344985
20
81.069116592833979
30
0
10
-70.4284861860598
20
79.853003826707351
30
0
10
-70.884404583979006
20
78.667732528984345
30
0
10
-71.510540067735093
20
77.520790083219453
30
0
10
-72.290273250353664
20
76.408077241741836
30
0
10
-73.018287856532055
20
75.537053770166537
30
0
10
-73.613981985853286
20
74.88988251373263
30
0
10
-74.031988845465463
20
74.460435414443765
30
0
10
-74.246212129954628
20
74.2462121299546
30
0
0
LINE
5
131
100
AcDbEntity
8
0
100
AcDbLine
10
-74.246212129954628
20
74.2462121299546
30
0
11
-80.716088966333217
21
67.776335293575997
31
0
0
ARC
5
132
100
AcDbEntity
8
0
100
AcDbCircle
10
-79.301875403960139
20
66.362121731202905
30
0
40
1.999999999999996
210
0
220
0
230
1
100
AcDbArc
50
134.99999999999972
51
244.88516538318123
0
LINE
5
133
100
AcDbEntity
8
0
100
AcDbLine
10
-80.150743147909139
20
64.551203855294958
30
0
11
-60.104076400856414
21
55.154328932550847
31
0
0
LINE
5
134
100
AcDbEntity
8
0
100
AcDbLine
10
-60.104076400856414
20
55.154328932550847
30
0
11
-48.827684196276664
21
43.877936727970869
31
0
0
SPLINE
5
135
100
AcDbEntity
8
0
100
AcDbSpline
70
4
71
5
72
18
73
12
74
0
42
0.000000001
43
0.0000000001
44
0.0000000001
40
0
40
0
40
0
40
0
40
0
40
0
40
0.10000000000000001
40
0.20000000000000001
40
0.30000000000000004
40
0.40000000000000002
40
0.5
40
0.59999999999999998
40
0.62781768274844307
40
0.62781768274844307
40
0.62781768274844307
40
0.62781768274844307
40
0.62781768274844307
40
0.62781768274844307
41
1
41
1
41
1
41
1
41
1
41
1
41
1
41
1
41
1
41
1
41
1
41
1
10
-48.827684196276664
20
43.877936727970869
30
0
10
-47.666995579979996
20
42.717248111674202
30
0
10
-45.406935860358885
20
40.427377798287282
30
0
10
-42.200787620706556
20
37.087086743856801
30
0
10
-38.280837865119672
20
32.814862859923082
30
0
10
-33.911498435271355
20
27.74201604357512
30
0
10
-30.011338328792576
20
22.902491001991564
30
0
10
-27.040454447789841
20
18.944352392052153
30
0
10
-24.991841188802244
20
16.029750393539786
30
0
10
-23.686863210885669
20
14.069597852756777
30
0
10
-22.994979490138366
20
12.992934256947377
30
0
10
-22.846341375252361
20
12.759735265268644
30
0
0
SPLINE
5
136
100
AcDbEntity
8
0
100
AcDbSpline
70
0
71
3
72
12
73
8
74
0
42
0.000000001
43
0.0000000001
44
0.0000000001
40
0
40
0
40
0
40
0
40
0.20000000000000001
40
0.40000000000000002
40
0.59999999999999998
40
0.80000000000000004
40
1
40
1
40
1
40
1
10
-25.694113270177617
20
2.6991918655292659
30
0
10
-24.985949295208513
20
3.0427114491248641
30
0
10
-23.686779471342447
20
3.9708161952134735
30
0
10
-22.308480648281904
20
5.9295862574222209
30
0
10
-21.656158542716966
20
8.2340948682910007
30
0
10
-21.803317845982789
20
10.624666335894023
30
0
10
-22.423291465382064
20
12.096010402455391
30
0
10
-22.846341375252361
20
12.759735265268644
30
0
0
ARC
5
137
100
AcDbEntity
8
0
100
AcDbCircle
10
-24.384776310850242
20
2.7947232903417479e-15
30
0
40
3.0000000000000018
210
0
220
0
230
1
100
AcDbArc
50
115.87731875893076
51
258.72705184800685
0
SPLINE
5
138
100
AcDbEntity
8
0
100
AcDbSpline
70
0
71
3
72
12
73
8
74
0
42
0.000000001
43
0.0000000001
44
0.0000000001
40
0
40
0
40
0
40
0
40
0.15625778935477111
40
0.15625778935477111
40
0.2484965084277819
40
0.2484965084277819
40
0.3407352275007931
40
0.3407352275007931
40
0.3407352275007931
40
0.3407352275007931
10
-22.289745186204897
20
-4.8637572809054914
30
0
10
-22.55033007296241
20
-4.4127695593990479
30
0
10
-22.896511556658716
20
-4.0169915492474955
30
0
10
-23.552179749401919
20
-3.5108136644740324
30
0
10
-23.816408904786648
20
-3.3516126896558651
30
0
10
-24.376097427023286
20
-3.0968946884638986
30
0
10
-24.669695160101497
20
-3.0022249041094491
30
0
10
-24.971225704666878
20
-2.9421211920130155
30
0
0
SPLINE
5
139
100
AcDbEntity
8
0
100
AcDbSpline
70
0
71
3
72
11
73
7
74
0
42
0.000000001
43
0.0000000001
44
0.0000000001
40
-1
40
-1
40
-1
40
-1
40
-0.80000000000000004
40
-0.59999999999999998
40
-0.40000000000000002
40
-0.24868090197550485
40
-0.24868090197550485
40
-0.24868090197550485
40
-0.24868090197550485
10
-22.413857329220978
20
-12.074439699713398
30
0
10
-22.057697990784732
20
-11.504286385283052
30
0
10
-21.510832205110209
20
-10.260732000397489
30
0
10
-21.254335398816629
20
-8.2391358860223924
30
0
10
-21.556175197113632
20
-6.3911771151988219
30
0
10
-22.035284779492873
20
-5.3041455185527742
30
0
10
-22.289745186204897
20
-4.8637572809054905
30
0
0
SPLINE
5
140
100
AcDbEntity
8
0
100
AcDbSpline
70
4
71
5
72
18
73
12
74
0
42
0.000000001
43
0.0000000001
44
0.0000000001
40
-0.64426199401302375
40
-0.64426199401302375
40
-0.64426199401302375
40
-0.64426199401302375
40
-0.64426199401302375
40
-0.64426199401302375
40
-0.59999999999999998
40
-0.5
40
-0.40000000000000002
40
-0.30000000000000004
40
-0.20000000000000001
40
-0.10000000000000001
40
0
40
0
40
0
40
0
40
0
40
0
41
1
41
1
41
1
41
1
41
1
41
1
41
1
41
1
41
1
41
1
41
1
41
1
10
-22.413857329220974
20
-12.074439699713388
30
0
10
-22.642949051343614
20
-12.44117837698707
30
0
10
-23.406134664332342
20
-13.6461599586491
30
0
10
-24.786885431469528
20
-15.73763795196157
30
0
10
-26.926260618875901
20
-18.792210800072958
30
0
10
-30.011338328792576
20
-22.902491001991564
30
0
10
-33.911498435271355
20
-27.74201604357512
30
0
10
-38.280837865119672
20
-32.814862859923082
30
0
10
-42.200787620706556
20
-37.087086743856801
30
0
10
-45.406935860358885
20
-40.427377798287282
30
0
10
-47.666995579979996
20
-42.717248111674202
30
0
10
-48.827684196276664
20
-43.877936727970869
30
0
0
LINE
5
141
100
AcDbEntity
8
0
100
AcDbLine
10
-48.827684196276664
20
-43.877936727970862
30
0
11
-60.104076400856414
21
-55.154328932550847
31
0
0
LINE
5
142
100
AcDbEntity
8
0
100
AcDbLine
10
-60.104076400856414
20
-55.154328932550847
30
0
11
-80.150743147909154
21
-64.551203855294972
31
0
0
ARC
5
143
100
AcDbEntity
8
0
100
AcDbCircle
10
-79.301875403960125
20
-66.362121731202905
30
0
40
2.000000000000008
210
0
220
0
230
1
100
AcDbArc
50
115.11483461681966
51
225
0
LINE
5
144
100
AcDbEntity
8
0
100
AcDbLine
10
-80.716088966333217
20
-67.776335293575997
30
0
11
-74.246212129954628
21
-74.2462121299546
31
0
0
SPLINE
5
145
100
AcDbEntity
8
0
100
AcDbSpline
70
4
71
5
72
21
73
15
74
0
42
0.000000001
43
0.0000000001
44
0.0000000001
40
-1
40
-1
40
-1
40
-1
40
-1
40
-1
40
-0.89999999999999991
40
-0.79999999999999993
40
-0.69999999999999996
40
-0.59999999999999998
40
-0.5
40
-0.40000000000000002
40
-0.30000000000000004
40
-0.20000000000000001
40
-0.10000000000000001
40
0
40
0
40
0
40
0
40
0
40
0
41
1
41
1
41
1
41
1
41
1
41
1
41
1
41
1
41
1
41
1
41
1
41
1
41
1
41
1
41
1
10
-69.713954371038852
20
-85.461460483268922
30
0
10
-69.744266776071186
20
-85.285805689577415
30
0
10
-69.798565555018385
20
-84.92017884980055
30
0
10
-69.861043302162017
20
-84.328792658544188
30
0
10
-69.916237436323613
20
-83.461767523501237
30
0
10
-69.992868352377414
20
-82.287017585201681
30
0
10
-70.143087436344985
20
-81.069116592833979
30
0
10
-70.4284861860598
20
-79.853003826707351
30
0
10
-70.884404583979006
20
-78.667732528984345
30
0
10
-71.510540067735093
20
-77.520790083219453
30
0
10
-72.290273250353664
20
-76.408077241741836
30
0
10
-73.018287856532055
20
-75.537053770166537
30
0
10
-73.613981985853286
20
-74.88988251373263
30
0
10
-74.031988845465463
20
-74.460435414443765
30
0
10
-74.246212129954628
20
-74.2462121299546
30
0
0
ARC
5
146
100
AcDbEntity
8
0
100
AcDbCircle
10
-68.235804384501847
20
-85.206367132978983
30
0
40
1.5000000000204985
210
0
220
0
230
1
100
AcDbArc
50
189.79143746373379
51
337.61986449769717
0
LINE
5
147
100
AcDbEntity
8
0
100
AcDbLine
10
-66.848787241278814
20
-85.777491851762335
30
0
11
-62.302690612365133
21
-74.736971713736395
31
0
0
ARC
5
148
100
AcDbEntity
8
0
100
AcDbCircle
10
-57.679300134954858
20
-76.640720776347436
30
0
40
5.00000000000004
210
0
220
0
230
1
100
AcDbArc
50
112.83365461183581
51
157.6198644976993
0
LINE
5
149
100
AcDbEntity
8
0
100
AcDbLine
10
-59.619585170144653
20
-72.03254391535144
30
0
11
-54.936603044936646
21
-70.060761926142305
31
0
0
ARC
5
150
100
AcDbEntity
8
0
100
AcDbCircle
10
-56.876888080126392
20
-65.452585065146337
30
0
40
4.9999999999999982
210
-0
220
0
230
1
100
AcDbArc
50
-67.166345388164586
51
15.281588684077141
0
ARC
5
151
100
AcDbEntity
8
0
100
AcDbCircle
10
-42.40725566337106
20
-61.499138755407863
30
0
40
10.00000000000005
210
0
220
0
230
1
100
AcDbArc
50
135.00000000000011
51
195.28158868407726
0
LINE
5
152
100
AcDbEntity
8
0
100
AcDbLine
10
-49.478323475236586
20
-54.428070943542366
30
0
11
-15.390069014757675
21
-20.339816483063466
31
0
0
ARC
5
153
100
AcDbEntity
8
0
100
AcDbCircle
10
-9.0261079840787417
20
-26.703777513742398
30
0
40
9
210
0
220
-0
230
1
100
AcDbArc
50
66.246644668430378
51
135
0
LINE
5
154
100
AcDbEntity
8
0
100
AcDbLine
10
-5.4009053627602182
20
-18.466186485147613
30
0
11
-4.0185248523173129
21
-19.074545097844148
31
0
0
SPLINE
5
155
100
AcDbEntity
8
0
100
AcDbSpline
70
0
71
3
72
12
73
8
74
0
42
0.000000001
43
0.0000000001
44
0.0000000001
40
0
40
0
40
0
40
0
40
0.078128894677385485
40
0.078128894677385485
40
0.15625778935477086
40
0.15625778935477086
40
0.23467061094270683
40
0.23467061094270683
40
0.23467061094270683
40
0.23467061094270683
10
-2.8243060466986636
20
-20.931998657997497
30
0
10
-2.8208061618121292
20
-20.671592527415321
30
0
10
-2.8682028456066959
20
-20.412992416029606
30
0
10
-3.0594537161411957
20
-19.928515881328707
30
0
10
-3.2014794403190412
20
-19.707271317745366
30
0
10
-3.562998766445769
20
-19.330993511883037
30
0
10
-3.7792904983767261
20
-19.179827455757319
30
0
10
-4.0185248523173129
20
-19.074545097844148
30
0
0
SPLINE
5
156
100
AcDbEntity
8
0
100
AcDbSpline
70
4
71
5
72
12
73
6
74
0
42
0.000000001
43
0.0000000001
44
0.0000000001
40
-0.076621884648685398
40
-0.076621884648685398
40
-0.076621884648685398
40
-0.076621884648685398
40
-0.076621884648685398
40
-0.076621884648685398
40
-0.010365361035965401
40
-0.010365361035965401
40
-0.010365361035965401
40
-0.010365361035965401
40
-0.010365361035965401
40
-0.010365361035965401
41
1
41
1
41
1
41
1
41
1
41
1
10
-2.8243060466973562
20
-20.931998657900451
30
0
10
-2.8320270270411045
20
-21.506472013779934
30
0
10
-2.8496156689865377
20
-22.090813031258921
30
0
10
-2.8769936208972831
20
-22.684943358701062
30
0
10
-2.9141149053519957
20
-23.288817018685037
30
0
10
-2.9609686643607751
20
-23.902423153220941
30
0
0
SPLINE
5
157
100
AcDbEntity
8
0
100
AcDbSpline
70
4
71
5
72
12
73
6
74
0
42
0.000000001
43
0.0000000001
44
0.0000000001
40
-0.010365361035909341
40
-0.010365361035909341
40
-0.010365361035909341
40
-0.010365361035909341
40
-0.010365361035909341
40
-0.010365361035909341
40
0
40
0
40
0
40
0
40
0
40
0
41
1
41
1
41
1
41
1
41
1
41
1
10
-2.9609686643609727
20
-23.902423153223531
30
0
10
-2.9682986011209294
20
-23.998417460976384
30
0
10
-2.9758667340944256
20
-24.094649964942722
30
0
10
-2.9836730217079404
20
-24.191120623549033
30
0
10
-2.9917174434243159
20
-24.287829416258148
30
0
10
-3.0000000000000049
20
-24.384776343826523
30
0
0
ARC
5
158
100
AcDbEntity
8
0
100
AcDbCircle
10
-3.6648909391443868e-16
20
-24.384776310850242
30
0
40
3.0000000000000044
210
0
220
0
230
1
100
AcDbArc
50
180
51
359.99999914622634
0
SPLINE
5
159
100
AcDbEntity
8
0
100
AcDbSpline
70
4
71
5
72
12
73
6
74
0
42
0.000000001
43
0.0000000001
44
0.0000000001
40
-1
40
-1
40
-1
40
-1
40
-1
40
-1
40
-0.98963463869612434
40
-0.98963463869612434
40
-0.98963463869612434
40
-0.98963463869612434
40
-0.98963463869612434
40
-0.98963463869612434
41
1
41
1
41
1
41
1
41
1
41
1
10
2.9999999999999964
20
-24.384776350755754
30
0
10
2.9917174432111704
20
-24.287829420657726
30
0
10
2.9836730212938822
20
-24.191120625431296
30
0
10
2.9758667334916784
20
-24.094649964319999
30
0
10
2.9682986003417189
20
-23.998417457861002
30
0
10
2.9609686634175296
20
-23.902423147627836
30
0
0
SPLINE
5
160
100
AcDbEntity
8
0
100
AcDbSpline
70
4
71
5
72
12
73
6
74
0
42
0.000000001
43
0.0000000001
44
0.0000000001
40
-0.98963463868817536
40
-0.98963463868817536
40
-0.98963463868817536
40
-0.98963463868817536
40
-0.98963463868817536
40
-0.98963463868817536
40
-0.92337811520817181
40
-0.92337811520817181
40
-0.92337811520817181
40
-0.92337811520817181
40
-0.92337811520817181
40
-0.92337811520817181
41
1
41
1
41
1
41
1
41
1
41
1
10
2.9609686633894223
20
-23.902423147259753
30
0
10
2.9141149046406052
20
-23.288817013966163
30
0
10
2.8769936204033764
20
-22.684943355186427
30
0
10
2.8496156686678598
20
-22.090813028910688
30
0
10
2.832027026855318
20
-21.506472012560216
30
0
10
2.8243060466017655
20
-20.931998657771054
30
0
0
SPLINE
5
161
100
AcDbEntity
8
0
100
AcDbSpline
70
0
71
3
72
12
73
8
74
0
42
0.000000001
43
0.0000000001
44
0.0000000001
40
0
40
0
40
0
40
0
40
0.078128894677385555
40
0.078128894677385555
40
0.15625778935477097
40
0.15625778935477097
40
0.23467061091570063
40
0.23467061091570063
40
0.23467061091570063
40
0.23467061091570063
10
4.0185248522240116
20
-19.074545097885206
30
0
10
3.7801567478282863
20
-19.179446236324161
30
0
10
3.5645570974228264
20
-19.329903054011055
30
0
10
3.2031656202528414
20
-19.704990521656796
30
0
10
3.060828892983634
20
-19.926035130986488
30
0
10
2.8685481277846288
20
-20.411122048546872
30
0
10
2.8207934428782195
20
-20.670646189710872
30
0
10
2.8243060466017651
20
-20.931998657771054
30
0
0
LINE
5
162
100
AcDbEntity
8
0
100
AcDbLine
10
4.0185248522240116
20
-19.074545097885206
30
0
11
5.4009053627602004
21
-18.466186485147627
31
0
0
ARC
5
163
100
AcDbEntity
8
0
100
AcDbCircle
10
9.0261079840787186
20
-26.703777513742416
30
0
40
9.0000000000000018
210
0
220
-0
230
1
100
AcDbArc
50
44.99999999999995
51
113.75335533156961
0
LINE
5
164
100
AcDbEntity
8
0
100
AcDbLine
10
15.390069014757653
20
-20.339816483063494
30
0
11
49.478323475236579
21
-54.428070943542437
31
0
0
ARC
5
165
100
AcDbEntity
8
0
100
AcDbCircle
10
42.407255663371103
20
-61.499138755407905
30
0
40
9.9999999999999893
210
-0
220
0
230
1
100
AcDbArc
50
-15.281588684077299
51
44.999999999999964
0
ARC
5
166
100
AcDbEntity
8
0
100
AcDbCircle
10
56.876888080126385
20
-65.452585065146337
30
0
40
5.0000000000000071
210
0
220
0
230
1
100
AcDbArc
50
164.71841131592325
51
247.16634538816467
0
LINE
5
167
100
AcDbEntity
8
0
100
AcDbLine
10
54.936603044936646
20
-70.060761926142305
30
0
11
59.619585170144653
21
-72.032543915351454
31
0
0
ARC
5
168
100
AcDbEntity
8
0
100
AcDbCircle
10
57.6793001349549
20
-76.640720776347422
30
0
40
4.9999999999999938
210
0
220
-0
230
1
100
AcDbArc
50
22.38013550230076
51
67.166345388164515
0
LINE
5
169
100
AcDbEntity
8
0
100
AcDbLine
10
62.302690612365126
20
-74.736971713736395
30
0
11
66.848787241278586
21
-85.77749185176242
31
0
0
ARC
5
170
100
AcDbEntity
8
0
100
AcDbCircle
10
68.235804384501847
20
-85.206367132978968
30
0
40
1.5000000000002267
210
0
220
0
230
1
100
AcDbArc
50
202.38013550230301
51
350.20856253626607
0
SPLINE
5
171
100
AcDbEntity
8
0
100
AcDbSpline
70
4
71
5
72
21
73
15
74
0
42
0.000000001
43
0.0000000001
44
0.0000000001
40
-1
40
-1
40
-1
40
-1
40
-1
40
-1
40
-0.89999999999999991
40
-0.79999999999999993
40
-0.69999999999999996
40
-0.59999999999999998
40
-0.5
40
-0.40000000000000002
40
-0.30000000000000004
40
-0.20000000000000001
40
-0.10000000000000001
40
0
40
0
40
0
40
0
40
0
40
0
41
1
41
1
41
1
41
1
41
1
41
1
41
1
41
1
41
1
41
1
41
1
41
1
41
1
41
1
41
1
10
69.713954371038852
20
-85.461460483268922
30
0
10
69.744266776071186
20
-85.285805689577415
30
0
10
69.798565555018385
20
-84.92017884980055
30
0
10
69.861043302162017
20
-84.328792658544188
30
0
10
69.916237436323613
20
-83.461767523501237
30
0
10
69.992868352377414
20
-82.287017585201681
30
0
10
70.143087436344985
20
-81.069116592833979
30
0
10
70.4284861860598
20
-79.853003826707351
30
0
10
70.884404583979006
20
-78.667732528984345
30
0
10
71.510540067735093
20
-77.520790083219453
30
0
10
72.290273250353664
20
-76.408077241741836
30
0
10
73.018287856532055
20
-75.537053770166537
30
0
10
73.613981985853286
20
-74.88988251373263
30
0
10
74.031988845465463
20
-74.460435414443765
30
0
10
74.246212129954628
20
-74.2462121299546
30
0
0
LINE
5
172
100
AcDbEntity
8
0
100
AcDbLine
10
74.246212129954628
20
-74.2462121299546
30
0
11
80.716088966333217
21
-67.776335293575997
31
0
0
ARC
5
173
100
AcDbEntity
8
0
100
AcDbCircle
10
79.301875403960139
20
-66.362121731202905
30
0
40
1.999999999999996
210
-0
220
0
230
1
100
AcDbArc
50
-45.000000000000306
51
64.885165383181246
0
LINE
5
174
100
AcDbEntity
8
0
100
AcDbLine
10
80.150743147909139
20
-64.551203855294958
30
0
11
60.104076400856414
21
-55.154328932550847
31
0
0
CIRCLE
5
175
100
AcDbEntity
8
0
100
AcDbCircle
10
67.175144212722032
20
-67.175144212722003
30
0
40
3.0000000000000004
210
0
220
-0
230
1
0
LWPOLYLINE
5
176
100
AcDbEntity
8
0
100
AcDbPolyline
90
4
70
1
43
0.0
10
74.800144212722032
20
-65.72277545789423
42
-1.2909944487358096
10
74.800144212722032
20
-68.627512967549805
10
72.925144212722032
20
-68.143390049273862
42
-0.77459666924147696
10
72.925144212722032
20
-66.206898376170159
0
LWPOLYLINE
5
177
100
AcDbEntity
8
0
100
AcDbPolyline
90
4
70
1
43
0.0
10
68.627512967549819
20
-74.800144212722003
42
-1.2909944487358096
10
65.722775457894244
20
-74.800144212722003
10
66.206898376170187
20
-72.925144212722017
42
-0.77459666924147696
10
68.14339004927389
20
-72.925144212722017
0
LWPOLYLINE
5
178
100
AcDbEntity
8
0
100
AcDbPolyline
90
4
70
1
43
0.0
10
59.550144212722039
20
-68.627512967549805
42
-1.2909944487358169
10
59.550144212722039
20
-65.72277545789423
10
61.425144212722032
20
-66.206898376170159
42
-0.77459666924148385
10
61.425144212722024
20
-68.143390049273862
0
LWPOLYLINE
5
179
100
AcDbEntity
8
0
100
AcDbPolyline
90
4
70
1
43
0.0
10
-59.550144212722039
20
-65.722775457894215
42
-1.2909944487358103
10
-59.550144212722039
20
-68.627512967549791
10
-61.425144212722032
20
-68.143390049273876
42
-0.77459666924148063
10
-61.425144212722032
20
-66.206898376170159
0
LWPOLYLINE
5
180
100
AcDbEntity
8
0
100
AcDbPolyline
90
4
70
1
43
0.0
10
-65.722775457894244
20
-74.800144212722003
42
-1.2909944487358103
10
-68.627512967549805
20
-74.800144212722003
10
-68.14339004927389
20
-72.925144212722003
42
-0.77459666924148063
10
-66.206898376170187
20
-72.925144212722003
0
LWPOLYLINE
5
181
100
AcDbEntity
8
0
100
AcDbPolyline
90
4
70
1
43
0.0
10
-74.800144212722032
20
-68.627512967549805
42
-1.2909944487358096
10
-74.800144212722032
20
-65.72277545789423
10
-72.925144212722032
20
-66.206898376170145
42
-0.77459666924148063
10
-72.925144212722032
20
-68.143390049273862
0
CIRCLE
5
182
100
AcDbEntity
8
0
100
AcDbCircle
10
-67.175144212722032
20
-67.175144212722003
30
0
40
3.0000000000000004
210
-0
220
0
230
1
0
LWPOLYLINE
5
183
100
AcDbEntity
8
0
100
AcDbPolyline
90
4
70
1
43
0.0
10
-6
20
-4
10
6.0000000000000018
20
-4
42
0.99999999999999989
10
6.0000000000000009
20
4
10
-6.0000000000000009
20
4
42
0.99999999999999989
0
LWPOLYLINE
5
184
100
AcDbEntity
8
0
100
AcDbPolyline
90
4
70
1
43
0.0
10
-10.05089153811883
20
-11.5
10
10.137292103345674
20
-11.5
42
0.99999999999999989
10
10.137292103345674
20
-8.4999999999999982
10
-10.050891538118838
20
-8.5
42
0.99999999999999989
0
LWPOLYLINE
5
185
100
AcDbEntity
8
0
100
AcDbPolyline
90
4
70
1
43
0.0
10
10.137292103345679
20
11.500000000000002
10
-10.050891538118833
20
11.5
42
0.99999999999999989
10
-10.050891538118831
20
8.5
10
10.137292103345672
20
8.4999999999999982
42
0.99999999999999989
0
CIRCLE
5
186
100
AcDbEntity
8
0
100
AcDbCircle
10
-2.6197847317862565e-15
20
24.384776310850242
30
0
40
1.5000000000000002
210
0
220
0
230
1
0
CIRCLE
5
187
100
AcDbEntity
8
0
100
AcDbCircle
10
24.384776310850242
20
-2.7947232903417479e-15
30
0
40
1.5000000000000002
210
0
220
0
230
1
0
CIRCLE
5
188
100
AcDbEntity
8
0
100
AcDbCircle
10
8.7312993081956596e-15
20
18.384776310850238
30
0
40
1.0000000000000009
210
0
220
-0
230
1
0
CIRCLE
5
189
100
AcDbEntity
8
0
100
AcDbCircle
10
-24.384776310850242
20
2.7947232903417479e-15
30
0
40
1.5000000000000002
210
0
220
-0
230
1
0
CIRCLE
5
190
100
AcDbEntity
8
0
100
AcDbCircle
10
-3.6648909391443868e-16
20
-24.384776310850242
30
0
40
1.5000000000000002
210
0
220
-0
230
1
0
CIRCLE
5
191
100
AcDbEntity
8
0
100
AcDbCircle
10
18.384776310850238
20
-6.9005446618301264e-15
30
0
40
1.0000000000000009
210
0
220
-0
230
1
0
CIRCLE
5
192
100
AcDbEntity
8
0
100
AcDbCircle
10
-18.384776310850238
20
4.649058915617843e-15
30
0
40
1.0000000000000009
210
0
220
0
230
1
0
CIRCLE
5
193
100
AcDbEntity
8
0
100
AcDbCircle
10
-8.7312993081956596e-15
20
-18.384776310850238
30
0
40
1.0000000000000009
210
-0
220
0
230
1
0
CIRCLE
5
194
100
AcDbEntity
8
0
100
AcDbCircle
10
67.175144212722032
20
67.175144212722003
30
0
40
3.0000000000000004
210
0
220
0
230
1
0
LWPOLYLINE
5
195
100
AcDbEntity
8
0
100
AcDbPolyline
90
4
70
1
43
0.0
10
74.800144212722032
20
68.627512967549805
42
-1.2909944487358096
10
74.800144212722032
20
65.72277545789423
10
72.925144212722032
20
66.206898376170145
42
-0.77459666924148063
10
72.925144212722032
20
68.143390049273862
0
LWPOLYLINE
5
196
100
AcDbEntity
8
0
100
AcDbPolyline
90
4
70
1
43
0.0
10
65.722775457894244
20
74.800144212722003
42
-1.2909944487358103
10
68.627512967549805
20
74.800144212722003
10
68.14339004927389
20
72.925144212722003
42
-0.77459666924148063
10
66.206898376170187
20
72.925144212722003
0
LWPOLYLINE
5
197
100
AcDbEntity
8
0
100
AcDbPolyline
90
4
70
1
43
0.0
10
59.550144212722039
20
65.722775457894215
42
-1.2909944487358103
10
59.550144212722039
20
68.627512967549791
10
61.425144212722032
20
68.143390049273876
42
-0.77459666924148063
10
61.425144212722032
20
66.206898376170159
0
LWPOLYLINE
5
198
100
AcDbEntity
8
0
100
AcDbPolyline
90
4
70
1
43
0.0
10
-59.550144212722039
20
68.627512967549805
42
-1.2909944487358169
10
-59.550144212722039
20
65.72277545789423
10
-61.425144212722032
20
66.206898376170159
42
-0.77459666924148385
10
-61.425144212722024
20
68.143390049273862
0
LWPOLYLINE
5
199
100
AcDbEntity
8
0
100
AcDbPolyline
90
4
70
1
43
0.0
10
-68.627512967549819
20
74.800144212722003
42
-1.2909944487358096
10
-65.722775457894244
20
74.800144212722003
10
-66.206898376170187
20
72.925144212722017
42
-0.77459666924147696
10
-68.14339004927389
20
72.925144212722017
0
LWPOLYLINE
5
200
100
AcDbEntity
8
0
100
AcDbPolyline
90
4
70
1
43
0.0
10
-74.800144212722032
20
65.72277545789423
42
-1.2909944487358096
10
-74.800144212722032
20
68.627512967549805
10
-72.925144212722032
20
68.143390049273862
42
-0.77459666924147696
10
-72.925144212722032
20
66.206898376170159
0
CIRCLE
5
201
100
AcDbEntity
8
0
100
AcDbCircle
10
-67.175144212722032
20
67.175144212722003
30
0
40
3.0000000000000004
210
-0
220
0
230
1
0
ENDSEC
0
SECTION
2
OBJECTS
0
DICTIONARY
5
C
100
AcDbDictionary
3
ACAD_GROUP
350
D
3
ACAD_MLINESTYLE
350
17
0
DICTIONARY
5
D
100
AcDbDictionary
0
DICTIONARY
5
1A
330
C
100
AcDbDictionary
0
DICTIONARY
5
17
100
AcDbDictionary
0
ENDSEC
0
EOF
